<?xml version="1.0" encoding="utf-8" standalone="no"?>
<!DOCTYPE svg PUBLIC "-//W3C//DTD SVG 1.1//EN"
  "http://www.w3.org/Graphics/SVG/1.1/DTD/svg11.dtd">
<svg xmlns:xlink="http://www.w3.org/1999/xlink" width="460.8pt" height="345.6pt" viewBox="0 0 460.8 345.6" xmlns="http://www.w3.org/2000/svg" version="1.1">
 <metadata>
  <rdf:RDF xmlns:dc="http://purl.org/dc/elements/1.1/" xmlns:cc="http://creativecommons.org/ns#" xmlns:rdf="http://www.w3.org/1999/02/22-rdf-syntax-ns#">
   <cc:Work>
    <dc:type rdf:resource="http://purl.org/dc/dcmitype/StillImage"/>
    <dc:date>2023-07-14T11:19:41.736737</dc:date>
    <dc:format>image/svg+xml</dc:format>
    <dc:creator>
     <cc:Agent>
      <dc:title>Matplotlib v3.7.1, https://matplotlib.org/</dc:title>
     </cc:Agent>
    </dc:creator>
   </cc:Work>
  </rdf:RDF>
 </metadata>
 <defs>
  <style type="text/css">*{stroke-linejoin: round; stroke-linecap: butt}</style>
 </defs>
 <g id="figure_1">
  <g id="patch_1">
   <path d="M 0 345.6 
L 460.8 345.6 
L 460.8 0 
L 0 0 
z
" style="fill: #ffffff"/>
  </g>
  <g id="axes_1">
   <g id="patch_2">
    <path d="M 57.6 307.584 
L 414.72 307.584 
L 414.72 41.472 
L 57.6 41.472 
z
" style="fill: #ffffff"/>
   </g>
   <g id="matplotlib.axis_1">
    <g id="xtick_1">
     <g id="line2d_1">
      <defs>
       <path id="mf076eb51fa" d="M 0 0 
L 0 3.5 
" style="stroke: #000000; stroke-width: 0.8"/>
      </defs>
      <g>
       <use xlink:href="#mf076eb51fa" x="96.67788" y="307.584" style="stroke: #000000; stroke-width: 0.8"/>
      </g>
     </g>
     <g id="text_1">
      <!-- 20 -->
      <g transform="translate(90.31538 322.182437) scale(0.1 -0.1)">
       <defs>
        <path id="DejaVuSans-32" d="M 1228 531 
L 3431 531 
L 3431 0 
L 469 0 
L 469 531 
Q 828 903 1448 1529 
Q 2069 2156 2228 2338 
Q 2531 2678 2651 2914 
Q 2772 3150 2772 3378 
Q 2772 3750 2511 3984 
Q 2250 4219 1831 4219 
Q 1534 4219 1204 4116 
Q 875 4013 500 3803 
L 500 4441 
Q 881 4594 1212 4672 
Q 1544 4750 1819 4750 
Q 2544 4750 2975 4387 
Q 3406 4025 3406 3419 
Q 3406 3131 3298 2873 
Q 3191 2616 2906 2266 
Q 2828 2175 2409 1742 
Q 1991 1309 1228 531 
z
" transform="scale(0.015625)"/>
        <path id="DejaVuSans-30" d="M 2034 4250 
Q 1547 4250 1301 3770 
Q 1056 3291 1056 2328 
Q 1056 1369 1301 889 
Q 1547 409 2034 409 
Q 2525 409 2770 889 
Q 3016 1369 3016 2328 
Q 3016 3291 2770 3770 
Q 2525 4250 2034 4250 
z
M 2034 4750 
Q 2819 4750 3233 4129 
Q 3647 3509 3647 2328 
Q 3647 1150 3233 529 
Q 2819 -91 2034 -91 
Q 1250 -91 836 529 
Q 422 1150 422 2328 
Q 422 3509 836 4129 
Q 1250 4750 2034 4750 
z
" transform="scale(0.015625)"/>
       </defs>
       <use xlink:href="#DejaVuSans-32"/>
       <use xlink:href="#DejaVuSans-30" x="63.623047"/>
      </g>
     </g>
    </g>
    <g id="xtick_2">
     <g id="line2d_2">
      <g>
       <use xlink:href="#mf076eb51fa" x="155.017631" y="307.584" style="stroke: #000000; stroke-width: 0.8"/>
      </g>
     </g>
     <g id="text_2">
      <!-- 40 -->
      <g transform="translate(148.655131 322.182437) scale(0.1 -0.1)">
       <defs>
        <path id="DejaVuSans-34" d="M 2419 4116 
L 825 1625 
L 2419 1625 
L 2419 4116 
z
M 2253 4666 
L 3047 4666 
L 3047 1625 
L 3713 1625 
L 3713 1100 
L 3047 1100 
L 3047 0 
L 2419 0 
L 2419 1100 
L 313 1100 
L 313 1709 
L 2253 4666 
z
" transform="scale(0.015625)"/>
       </defs>
       <use xlink:href="#DejaVuSans-34"/>
       <use xlink:href="#DejaVuSans-30" x="63.623047"/>
      </g>
     </g>
    </g>
    <g id="xtick_3">
     <g id="line2d_3">
      <g>
       <use xlink:href="#mf076eb51fa" x="213.357382" y="307.584" style="stroke: #000000; stroke-width: 0.8"/>
      </g>
     </g>
     <g id="text_3">
      <!-- 60 -->
      <g transform="translate(206.994882 322.182437) scale(0.1 -0.1)">
       <defs>
        <path id="DejaVuSans-36" d="M 2113 2584 
Q 1688 2584 1439 2293 
Q 1191 2003 1191 1497 
Q 1191 994 1439 701 
Q 1688 409 2113 409 
Q 2538 409 2786 701 
Q 3034 994 3034 1497 
Q 3034 2003 2786 2293 
Q 2538 2584 2113 2584 
z
M 3366 4563 
L 3366 3988 
Q 3128 4100 2886 4159 
Q 2644 4219 2406 4219 
Q 1781 4219 1451 3797 
Q 1122 3375 1075 2522 
Q 1259 2794 1537 2939 
Q 1816 3084 2150 3084 
Q 2853 3084 3261 2657 
Q 3669 2231 3669 1497 
Q 3669 778 3244 343 
Q 2819 -91 2113 -91 
Q 1303 -91 875 529 
Q 447 1150 447 2328 
Q 447 3434 972 4092 
Q 1497 4750 2381 4750 
Q 2619 4750 2861 4703 
Q 3103 4656 3366 4563 
z
" transform="scale(0.015625)"/>
       </defs>
       <use xlink:href="#DejaVuSans-36"/>
       <use xlink:href="#DejaVuSans-30" x="63.623047"/>
      </g>
     </g>
    </g>
    <g id="xtick_4">
     <g id="line2d_4">
      <g>
       <use xlink:href="#mf076eb51fa" x="271.697133" y="307.584" style="stroke: #000000; stroke-width: 0.8"/>
      </g>
     </g>
     <g id="text_4">
      <!-- 80 -->
      <g transform="translate(265.334633 322.182437) scale(0.1 -0.1)">
       <defs>
        <path id="DejaVuSans-38" d="M 2034 2216 
Q 1584 2216 1326 1975 
Q 1069 1734 1069 1313 
Q 1069 891 1326 650 
Q 1584 409 2034 409 
Q 2484 409 2743 651 
Q 3003 894 3003 1313 
Q 3003 1734 2745 1975 
Q 2488 2216 2034 2216 
z
M 1403 2484 
Q 997 2584 770 2862 
Q 544 3141 544 3541 
Q 544 4100 942 4425 
Q 1341 4750 2034 4750 
Q 2731 4750 3128 4425 
Q 3525 4100 3525 3541 
Q 3525 3141 3298 2862 
Q 3072 2584 2669 2484 
Q 3125 2378 3379 2068 
Q 3634 1759 3634 1313 
Q 3634 634 3220 271 
Q 2806 -91 2034 -91 
Q 1263 -91 848 271 
Q 434 634 434 1313 
Q 434 1759 690 2068 
Q 947 2378 1403 2484 
z
M 1172 3481 
Q 1172 3119 1398 2916 
Q 1625 2713 2034 2713 
Q 2441 2713 2670 2916 
Q 2900 3119 2900 3481 
Q 2900 3844 2670 4047 
Q 2441 4250 2034 4250 
Q 1625 4250 1398 4047 
Q 1172 3844 1172 3481 
z
" transform="scale(0.015625)"/>
       </defs>
       <use xlink:href="#DejaVuSans-38"/>
       <use xlink:href="#DejaVuSans-30" x="63.623047"/>
      </g>
     </g>
    </g>
    <g id="xtick_5">
     <g id="line2d_5">
      <g>
       <use xlink:href="#mf076eb51fa" x="330.036884" y="307.584" style="stroke: #000000; stroke-width: 0.8"/>
      </g>
     </g>
     <g id="text_5">
      <!-- 100 -->
      <g transform="translate(320.493134 322.182437) scale(0.1 -0.1)">
       <defs>
        <path id="DejaVuSans-31" d="M 794 531 
L 1825 531 
L 1825 4091 
L 703 3866 
L 703 4441 
L 1819 4666 
L 2450 4666 
L 2450 531 
L 3481 531 
L 3481 0 
L 794 0 
L 794 531 
z
" transform="scale(0.015625)"/>
       </defs>
       <use xlink:href="#DejaVuSans-31"/>
       <use xlink:href="#DejaVuSans-30" x="63.623047"/>
       <use xlink:href="#DejaVuSans-30" x="127.246094"/>
      </g>
     </g>
    </g>
    <g id="xtick_6">
     <g id="line2d_6">
      <g>
       <use xlink:href="#mf076eb51fa" x="388.376635" y="307.584" style="stroke: #000000; stroke-width: 0.8"/>
      </g>
     </g>
     <g id="text_6">
      <!-- 120 -->
      <g transform="translate(378.832885 322.182437) scale(0.1 -0.1)">
       <use xlink:href="#DejaVuSans-31"/>
       <use xlink:href="#DejaVuSans-32" x="63.623047"/>
       <use xlink:href="#DejaVuSans-30" x="127.246094"/>
      </g>
     </g>
    </g>
   </g>
   <g id="matplotlib.axis_2">
    <g id="ytick_1">
     <g id="line2d_7">
      <defs>
       <path id="ma8413967e8" d="M 0 0 
L -3.5 0 
" style="stroke: #000000; stroke-width: 0.8"/>
      </defs>
      <g>
       <use xlink:href="#ma8413967e8" x="57.6" y="295.513203" style="stroke: #000000; stroke-width: 0.8"/>
      </g>
     </g>
     <g id="text_7">
      <!-- 0.0 -->
      <g transform="translate(34.696875 299.312421) scale(0.1 -0.1)">
       <defs>
        <path id="DejaVuSans-2e" d="M 684 794 
L 1344 794 
L 1344 0 
L 684 0 
L 684 794 
z
" transform="scale(0.015625)"/>
       </defs>
       <use xlink:href="#DejaVuSans-30"/>
       <use xlink:href="#DejaVuSans-2e" x="63.623047"/>
       <use xlink:href="#DejaVuSans-30" x="95.410156"/>
      </g>
     </g>
    </g>
    <g id="ytick_2">
     <g id="line2d_8">
      <g>
       <use xlink:href="#ma8413967e8" x="57.6" y="247.124162" style="stroke: #000000; stroke-width: 0.8"/>
      </g>
     </g>
     <g id="text_8">
      <!-- 0.2 -->
      <g transform="translate(34.696875 250.923381) scale(0.1 -0.1)">
       <use xlink:href="#DejaVuSans-30"/>
       <use xlink:href="#DejaVuSans-2e" x="63.623047"/>
       <use xlink:href="#DejaVuSans-32" x="95.410156"/>
      </g>
     </g>
    </g>
    <g id="ytick_3">
     <g id="line2d_9">
      <g>
       <use xlink:href="#ma8413967e8" x="57.6" y="198.735122" style="stroke: #000000; stroke-width: 0.8"/>
      </g>
     </g>
     <g id="text_9">
      <!-- 0.4 -->
      <g transform="translate(34.696875 202.53434) scale(0.1 -0.1)">
       <use xlink:href="#DejaVuSans-30"/>
       <use xlink:href="#DejaVuSans-2e" x="63.623047"/>
       <use xlink:href="#DejaVuSans-34" x="95.410156"/>
      </g>
     </g>
    </g>
    <g id="ytick_4">
     <g id="line2d_10">
      <g>
       <use xlink:href="#ma8413967e8" x="57.6" y="150.346081" style="stroke: #000000; stroke-width: 0.8"/>
      </g>
     </g>
     <g id="text_10">
      <!-- 0.6 -->
      <g transform="translate(34.696875 154.1453) scale(0.1 -0.1)">
       <use xlink:href="#DejaVuSans-30"/>
       <use xlink:href="#DejaVuSans-2e" x="63.623047"/>
       <use xlink:href="#DejaVuSans-36" x="95.410156"/>
      </g>
     </g>
    </g>
    <g id="ytick_5">
     <g id="line2d_11">
      <g>
       <use xlink:href="#ma8413967e8" x="57.6" y="101.957041" style="stroke: #000000; stroke-width: 0.8"/>
      </g>
     </g>
     <g id="text_11">
      <!-- 0.8 -->
      <g transform="translate(34.696875 105.756259) scale(0.1 -0.1)">
       <use xlink:href="#DejaVuSans-30"/>
       <use xlink:href="#DejaVuSans-2e" x="63.623047"/>
       <use xlink:href="#DejaVuSans-38" x="95.410156"/>
      </g>
     </g>
    </g>
    <g id="ytick_6">
     <g id="line2d_12">
      <g>
       <use xlink:href="#ma8413967e8" x="57.6" y="53.568" style="stroke: #000000; stroke-width: 0.8"/>
      </g>
     </g>
     <g id="text_12">
      <!-- 1.0 -->
      <g transform="translate(34.696875 57.367219) scale(0.1 -0.1)">
       <use xlink:href="#DejaVuSans-31"/>
       <use xlink:href="#DejaVuSans-2e" x="63.623047"/>
       <use xlink:href="#DejaVuSans-30" x="95.410156"/>
      </g>
     </g>
    </g>
   </g>
   <g id="line2d_13">
    <path d="M 73.832727 295.488 
L 76.512686 295.311582 
L 76.807077 295.135163 
L 77.184229 294.958745 
L 77.508181 294.706719 
L 77.65768 294.5303 
L 78.404668 292.463685 
L 79.086026 288.532075 
L 79.199818 287.599578 
L 79.564891 283.995603 
L 79.683096 283.088308 
L 79.789289 281.878582 
L 79.906916 280.542843 
L 80.055009 278.577038 
L 80.238904 275.779547 
L 80.500305 271.39429 
L 80.787637 265.118837 
L 81.131004 256.625552 
L 81.290082 252.744348 
L 81.693367 241.680395 
L 81.81105 238.479662 
L 81.914375 235.707373 
L 82.055992 230.515632 
L 82.134707 228.020572 
L 82.245486 224.870244 
L 82.481464 217.208646 
L 82.603908 213.579468 
L 83.735401 173.75932 
L 83.777193 172.726012 
L 83.940702 166.75299 
L 84.148362 159.116595 
L 84.426867 149.514394 
L 84.55268 144.725896 
L 84.604296 142.835699 
L 84.732448 138.299226 
L 84.985103 130.108373 
L 85.129386 125.849129 
L 85.24727 122.345964 
L 85.292402 120.95982 
L 85.599747 111.886875 
L 85.666199 109.946273 
L 85.791102 106.014663 
L 85.864963 104.023656 
L 86.138068 98.176647 
L 86.187716 97.470973 
L 86.326733 94.169429 
L 86.401933 92.808488 
L 86.718333 86.759857 
L 86.790117 85.676145 
L 87.614245 75.393473 
L 88.607488 68.563562 
L 88.758541 67.933496 
L 89.036554 66.446542 
L 89.173987 66.169313 
L 89.706778 64.657155 
L 90.322933 63.800266 
L 90.45729 63.64905 
L 90.83107 63.422226 
L 92.05369 62.388919 
L 92.299528 62.2125 
L 92.550963 62.061285 
L 92.645704 61.985677 
L 93.379575 61.834461 
L 93.487118 61.758853 
L 94.867256 61.280003 
L 94.881111 61.229598 
L 95.638111 61.05318 
L 95.774162 60.977572 
L 96.044561 60.876761 
L 98.055739 60.372709 
L 98.064881 60.347506 
L 99.124713 60.145885 
L 99.449855 60.045075 
L 100.526565 59.818251 
L 101.955999 59.440212 
L 102.635284 59.238591 
L 104.381477 58.65893 
L 104.400887 58.633728 
L 105.279956 58.406904 
L 105.40821 58.255688 
L 105.525074 58.205283 
L 106.075932 58.028865 
L 106.189995 57.953257 
L 107.467198 57.676028 
L 109.290639 57.49961 
L 109.457508 57.449204 
L 110.411725 57.222381 
L 111.273674 57.171975 
L 125.911704 56.693126 
L 134.659009 56.567112 
L 134.737823 56.54191 
L 137.108036 56.315086 
L 137.273099 56.239478 
L 138.117424 56.012655 
L 139.011423 55.836236 
L 139.853968 55.508602 
L 139.959295 55.407792 
L 140.319085 55.256576 
L 140.571366 55.10536 
L 142.463036 54.500497 
L 143.862676 54.349281 
L 143.896067 54.324079 
L 151.500067 54.04685 
L 175.199247 53.920837 
L 175.283326 53.895634 
L 179.154647 53.794824 
L 194.140883 53.643608 
L 226.020573 53.593203 
L 265.303178 53.568 
L 265.303178 53.568 
" clip-path="url(#p12654c2d25)" style="fill: none; stroke: #1f77b4; stroke-width: 1.5; stroke-linecap: square"/>
   </g>
   <g id="line2d_14">
    <path d="M 74.23556 295.488 
L 74.290688 295.462797 
L 76.69487 295.235974 
L 76.84681 295.135163 
L 77.388168 294.958745 
L 77.956706 294.555503 
L 78.137688 294.278274 
L 78.292244 294.001045 
L 78.397165 293.723816 
L 78.631525 293.169358 
L 78.766855 292.51409 
L 78.882984 291.93443 
L 79.411825 289.288154 
L 79.465144 289.061331 
L 80.440498 280.593248 
L 80.933104 274.595024 
L 80.978863 274.065769 
L 81.095443 272.856043 
L 81.241435 270.865035 
L 81.465136 267.009033 
L 81.693799 263.379855 
L 81.838963 260.73358 
L 83.395998 233.413934 
L 83.437005 232.733463 
L 85.045765 204.758549 
L 85.112724 203.574026 
L 86.680733 187.343535 
L 86.761732 186.839482 
L 86.898364 185.831377 
L 87.061021 185.050096 
L 87.790767 182.050984 
L 87.898937 181.72335 
L 88.092613 181.042879 
L 88.244104 180.740447 
L 88.424543 180.337205 
L 88.522382 180.059976 
L 88.870682 179.278695 
L 89.845758 178.27059 
L 90.017583 178.094171 
L 90.969799 177.539714 
L 91.365686 177.363295 
L 91.5201 177.237282 
L 91.577999 177.161674 
L 92.038697 177.035661 
L 92.239633 176.934851 
L 92.375209 176.884445 
L 93.576019 176.632419 
L 97.363412 175.77553 
L 100.28297 175.523504 
L 100.360308 175.498301 
L 103.930024 175.29668 
L 103.974421 175.271477 
L 111.319503 174.742222 
L 118.892341 174.591007 
L 131.92753 174.439791 
L 131.937005 174.389386 
L 132.401474 174.23817 
L 132.69256 174.112157 
L 133.329163 173.582902 
L 133.445038 173.17966 
L 133.748664 172.599999 
L 133.857062 172.373176 
L 133.999271 171.995136 
L 134.21633 171.037436 
L 134.474906 170.180547 
L 134.676318 168.895213 
L 134.848555 167.937513 
L 134.980531 166.979814 
L 135.028475 166.576572 
L 135.274432 164.509956 
L 135.846264 159.620647 
L 135.958609 157.755653 
L 136.18408 154.580122 
L 136.315517 152.412696 
L 136.356384 151.933846 
L 136.639635 147.699805 
L 136.719207 146.464877 
L 136.84663 144.725896 
L 136.882853 144.146235 
L 137.019943 141.903202 
L 138.187843 122.345964 
L 138.24144 121.463872 
L 138.375735 119.321649 
L 138.418939 118.590773 
L 138.545673 115.667269 
L 138.726404 112.012888 
L 138.968479 107.627631 
L 139.000402 107.022768 
L 139.131915 104.628519 
L 140.926682 76.527592 
L 141.002214 75.872323 
L 141.123453 74.334963 
L 141.251232 72.394361 
L 141.459213 70.151327 
L 141.51811 69.672478 
L 141.767533 67.379039 
L 141.824137 67.051405 
L 141.953698 66.194515 
L 143.050978 60.624735 
L 143.243429 60.070277 
L 143.334818 59.919062 
L 143.459254 59.692238 
L 144.118686 58.255688 
L 144.297526 58.054067 
L 144.483951 57.701231 
L 144.706471 57.550015 
L 145.11036 57.297989 
L 145.644349 56.970354 
L 146.374349 56.793936 
L 146.763437 56.617518 
L 147.755612 56.415897 
L 147.775141 56.390694 
L 148.140541 56.239478 
L 148.529294 56.06306 
L 148.939892 55.911844 
L 149.460594 55.710223 
L 150.929303 55.332184 
L 152.572524 55.180968 
L 153.115381 55.10536 
L 154.067221 54.954144 
L 154.264969 54.878537 
L 159.259698 54.349281 
L 161.675643 54.14766 
L 161.880115 54.122458 
L 169.845769 53.895634 
L 170.846063 53.820026 
L 211.692333 53.568 
L 211.692333 53.568 
" clip-path="url(#p12654c2d25)" style="fill: none; stroke: #ff7f0e; stroke-width: 1.5; stroke-linecap: square"/>
   </g>
   <g id="line2d_15">
    <path d="M 134.465365 295.488 
L 137.819848 295.185568 
L 138.014776 295.034353 
L 139.371971 294.706719 
L 139.54753 294.5303 
L 139.927946 294.202666 
L 139.985119 294.152261 
L 140.137074 293.975842 
L 140.486978 293.723816 
L 140.57461 293.5726 
L 140.705638 293.396182 
L 140.937303 292.866927 
L 141.1834 292.41328 
L 141.34501 291.808417 
L 141.518331 291.480783 
L 141.967626 290.523083 
L 142.471513 288.632886 
L 142.652547 288.028023 
L 142.795447 287.649984 
L 142.908113 287.246742 
L 142.964559 286.94431 
L 143.2516 285.331342 
L 143.332768 284.852492 
L 144.063864 280.139601 
L 144.378059 277.720149 
L 144.488863 276.812855 
L 144.687204 275.300697 
L 144.819749 274.116174 
L 145.653698 264.488771 
L 145.735397 263.480666 
L 145.98921 260.305135 
L 146.026845 259.851488 
L 146.276134 256.146702 
L 146.377706 254.836165 
L 146.617733 251.181785 
L 146.68392 250.072869 
L 146.754111 248.73713 
L 146.86713 246.62011 
L 147.231278 240.974722 
L 147.441435 237.21953 
L 147.646421 233.262718 
L 147.939613 227.818951 
L 148.025279 226.054767 
L 148.261208 221.291471 
L 149.619448 191.980818 
L 149.744254 189.158124 
L 149.795558 188.175222 
L 149.937533 184.999691 
L 149.997151 183.764762 
L 150.129206 181.017676 
L 150.342846 176.430798 
L 151.794141 145.456772 
L 151.816966 144.851909 
L 153.115469 121.741101 
L 153.143183 121.43867 
L 154.233279 104.981356 
L 154.294687 104.477303 
L 154.614868 100.495288 
L 154.649203 100.117249 
L 154.760886 98.428673 
L 154.893387 96.790502 
L 155.006155 95.404358 
L 155.074197 94.74909 
L 155.181282 93.488958 
L 155.293409 92.606867 
L 155.634935 89.28012 
L 156.28047 83.886758 
L 156.395105 82.954261 
L 156.445534 82.75264 
L 156.59517 81.769738 
L 158.100536 72.621185 
L 158.174427 72.369158 
L 158.299784 71.587877 
L 158.539397 70.705785 
L 158.665843 70.403354 
L 159.159727 68.891196 
L 159.330041 68.311536 
L 159.52171 67.857889 
L 161.166454 63.422226 
L 161.516306 63.044187 
L 161.66039 62.792161 
L 161.858404 62.489729 
L 162.461981 61.910069 
L 162.666786 61.733651 
L 162.992718 61.305206 
L 163.280952 61.05318 
L 163.472064 60.901964 
L 163.967179 60.725546 
L 164.571748 60.397911 
L 164.689518 60.19629 
L 164.952278 59.994669 
L 165.240418 59.818251 
L 165.342574 59.767846 
L 166.3563 59.490617 
L 168.188022 58.784943 
L 169.339649 58.633728 
L 169.44882 58.583322 
L 172.452112 58.129675 
L 175.480473 57.776838 
L 175.594595 57.726433 
L 177.230958 57.49961 
L 177.314961 57.449204 
L 179.380547 57.297989 
L 180.470564 57.222381 
L 189.888674 56.718328 
L 190.508817 56.617518 
L 196.942443 56.491505 
L 198.190172 56.415897 
L 202.465266 56.390694 
L 310.224392 56.264681 
L 311.765198 56.088263 
L 315.967877 55.407792 
L 316.408873 55.256576 
L 318.054552 54.928942 
L 320.505566 54.349281 
L 323.377559 54.072053 
L 326.31741 53.920837 
L 326.367515 53.895634 
L 341.23251 53.593203 
L 345.008591 53.568 
L 345.008591 53.568 
" clip-path="url(#p12654c2d25)" style="fill: none; stroke: #2ca02c; stroke-width: 1.5; stroke-linecap: square"/>
   </g>
   <g id="line2d_16">
    <path d="M 130.311222 295.488 
L 136.174798 295.311582 
L 137.303486 295.059555 
L 138.308712 294.883137 
L 138.493754 294.757124 
L 138.904754 294.580705 
L 139.106027 294.42949 
L 139.668215 294.076653 
L 139.790136 294.001045 
L 140.090694 293.849829 
L 140.403599 293.5726 
L 140.577098 293.345777 
L 141.882517 291.379972 
L 142.181307 290.548285 
L 142.349469 289.993828 
L 142.412412 289.792207 
L 142.522192 289.414167 
L 142.847168 288.154036 
L 143.03151 287.372755 
L 143.098592 287.196336 
L 143.210164 286.818297 
L 143.332225 286.289042 
L 143.431482 285.734584 
L 143.524178 285.40695 
L 143.653105 284.776884 
L 143.714704 284.44925 
L 143.852458 283.819184 
L 143.944839 283.088308 
L 144.407325 279.761562 
L 144.566589 278.274607 
L 144.605627 277.997378 
L 144.734544 276.96407 
L 144.799995 276.586031 
L 145.143648 273.208879 
L 145.179524 272.982056 
L 145.302478 271.646316 
L 145.37141 270.839832 
L 145.530041 269.37808 
L 145.612735 268.31957 
L 146.588706 255.289813 
L 146.701331 253.576034 
L 146.749949 252.895563 
L 146.87981 250.879353 
L 146.926785 250.047667 
L 147.985305 230.843266 
L 148.055843 229.482324 
L 148.253379 225.50031 
L 148.308507 224.139368 
L 148.443619 221.367079 
L 149.182798 206.371517 
L 149.321965 203.498418 
L 149.532341 198.684716 
L 149.62345 196.945735 
L 149.797705 192.96372 
L 150.273559 183.033886 
L 150.394868 180.916866 
L 151.816368 151.807833 
L 152.111932 146.01123 
L 152.221602 143.591777 
L 152.248365 143.213738 
L 152.374968 141.02111 
L 152.423592 139.886992 
L 152.909387 131.847354 
L 152.950216 131.166883 
L 153.171093 127.336084 
L 153.233499 126.479195 
L 153.347623 125.168658 
L 153.552708 122.371167 
L 153.684442 120.405362 
L 154.447088 110.677149 
L 154.471766 110.349515 
L 154.602354 109.164991 
L 154.721539 107.627631 
L 154.932102 105.082166 
L 155.009203 104.603316 
L 155.178269 102.965146 
L 155.451547 100.596099 
L 155.623664 99.008333 
L 156.401604 92.73288 
L 156.691156 90.71667 
L 156.75414 90.33863 
L 156.863626 89.834578 
L 158.311108 83.181085 
L 158.447422 82.75264 
L 158.574632 82.248588 
L 158.683721 81.920953 
L 158.799065 81.442104 
L 158.905654 81.038862 
L 159.105827 80.15677 
L 159.267387 79.753528 
L 159.596263 78.695017 
L 159.700102 78.543802 
L 159.940884 77.989344 
L 160.115049 77.76252 
L 160.331189 77.485291 
L 160.443487 77.258468 
L 160.588038 77.056847 
L 160.675592 76.855226 
L 160.846653 76.678807 
L 161.077611 76.199957 
L 161.434904 75.595094 
L 161.532641 75.418676 
L 163.168269 73.175642 
L 163.253722 73.100035 
L 163.700464 72.923616 
L 164.421829 72.369158 
L 164.502997 72.268348 
L 165.216548 72.016322 
L 166.016651 71.512269 
L 166.483174 71.361053 
L 166.4864 71.335851 
L 167.283992 71.083825 
L 168.323014 70.781393 
L 169.571395 70.478962 
L 172.345622 70.100922 
L 173.811814 69.899301 
L 176.200686 69.59687 
L 179.68494 69.370046 
L 189.194763 68.689575 
L 200.208372 68.437549 
L 201.541362 68.412346 
L 308.728937 68.210725 
L 310.355012 67.983902 
L 310.396238 67.933496 
L 310.859674 67.807483 
L 311.109794 67.757078 
L 311.714156 67.605862 
L 313.711633 66.396136 
L 313.825495 66.320528 
L 314.002475 66.14411 
L 314.337812 65.917286 
L 314.653007 65.715665 
L 314.828781 65.463639 
L 315.702521 64.531142 
L 316.259179 63.523037 
L 316.382524 63.371821 
L 316.506367 63.144998 
L 316.741718 62.892971 
L 317.300853 62.136893 
L 317.753131 61.784056 
L 317.862871 61.557232 
L 318.4514 60.826356 
L 318.56929 60.599532 
L 318.88494 60.246696 
L 319.166531 59.818251 
L 319.279107 59.692238 
L 320.541235 58.154878 
L 320.805216 57.902852 
L 320.868716 57.802041 
L 321.131616 57.625623 
L 321.660953 57.12157 
L 322.404356 56.516707 
L 322.836887 56.390694 
L 323.606187 55.735426 
L 323.919477 55.559007 
L 324.303472 55.332184 
L 326.014559 54.878537 
L 327.52205 54.727321 
L 327.522304 54.702118 
L 329.196185 54.424889 
L 329.373001 54.374484 
L 335.582853 53.971242 
L 338.627266 53.870432 
L 343.101009 53.719216 
L 361.732448 53.568 
L 361.732448 53.568 
" clip-path="url(#p12654c2d25)" style="fill: none; stroke: #d62728; stroke-width: 1.5; stroke-linecap: square"/>
   </g>
   <g id="line2d_17">
    <path d="M 134.769399 295.488 
L 138.115394 295.185568 
L 138.734472 294.933542 
L 139.450806 294.731921 
L 140.372387 293.925437 
L 140.429758 293.824627 
L 140.628367 293.648208 
L 140.753912 293.295372 
L 140.898066 292.917332 
L 140.993215 292.715711 
L 141.122715 292.564495 
L 141.37544 291.959632 
L 141.505115 291.732809 
L 141.777552 290.951527 
L 141.834746 290.699501 
L 141.946181 290.271057 
L 142.098462 289.91822 
L 142.215675 289.514978 
L 142.294355 289.288154 
L 142.719459 287.574376 
L 142.92518 286.667081 
L 143.000479 286.36465 
L 143.223745 285.230532 
L 143.631552 282.91189 
L 143.818391 281.47534 
L 144.065069 279.963183 
L 144.273105 278.476228 
L 144.361898 277.946973 
L 144.925399 273.032461 
L 145.194932 270.260172 
L 145.249643 269.831727 
L 145.395311 268.243962 
L 145.529989 266.908223 
L 145.655515 265.522079 
L 145.753272 264.438366 
L 145.868245 262.901006 
L 146.277417 257.104402 
L 146.440795 254.004479 
L 146.597883 251.736243 
L 146.727666 249.669627 
L 146.957294 245.838828 
L 147.115506 243.293363 
L 147.353217 239.210538 
L 147.517268 236.06021 
L 147.740485 232.1286 
L 147.868552 229.482324 
L 147.942402 228.348206 
L 148.198557 223.307681 
L 148.260455 222.223968 
L 149.253132 202.969163 
L 149.403121 199.995253 
L 149.950112 188.704477 
L 150.022756 187.318332 
L 150.4736 177.388498 
L 150.510444 176.783635 
L 150.642444 174.212967 
L 150.932054 168.718795 
L 151.05418 166.299343 
L 151.245852 162.947394 
L 151.397013 160.1247 
L 151.845856 151.933846 
L 152.088599 148.052642 
L 152.210704 145.860014 
L 152.567142 140.113815 
L 152.7028 137.895984 
L 152.761297 136.736663 
L 152.944883 134.039982 
L 152.981988 133.687146 
L 153.929597 121.010225 
L 153.991233 120.203741 
L 156.056507 100.470086 
L 156.224216 99.487183 
L 156.444029 98.176647 
L 156.728068 96.488071 
L 156.876566 95.580776 
L 156.921665 95.429561 
L 157.066873 94.572671 
L 157.303613 93.640174 
L 157.463586 92.808488 
L 157.751131 91.371938 
L 157.79208 91.19552 
L 157.959655 90.767075 
L 158.960511 87.440328 
L 159.088112 87.112694 
L 159.193027 86.759857 
L 159.292263 86.583439 
L 159.531106 86.003779 
L 159.659538 85.650942 
L 159.819199 85.272903 
L 159.932685 85.046079 
L 160.289829 84.214392 
L 160.449554 83.861556 
L 160.543799 83.685137 
L 160.784276 83.155882 
L 160.902989 82.979464 
L 161.436593 82.072169 
L 161.5751 81.920953 
L 161.808013 81.517711 
L 162.249715 81.114469 
L 164.492946 79.425894 
L 164.834857 79.249475 
L 164.999346 79.123462 
L 165.437104 78.997449 
L 165.445345 78.972246 
L 165.813437 78.795828 
L 166.136884 78.669815 
L 166.654783 78.493396 
L 167.195885 78.266573 
L 168.198765 78.014547 
L 168.302073 77.964141 
L 169.167065 77.66171 
L 169.445477 77.611305 
L 173.046726 76.981239 
L 174.819009 76.779618 
L 187.015496 75.998336 
L 192.406343 75.847121 
L 194.610049 75.695905 
L 196.560746 75.6455 
L 207.145068 75.469081 
L 215.750128 75.443879 
L 307.620164 75.317866 
L 310.435938 74.839016 
L 310.793109 74.637395 
L 311.17783 74.410571 
L 311.276631 74.309761 
L 311.538131 74.082937 
L 311.646298 73.931721 
L 311.904921 73.755303 
L 312.379127 73.276453 
L 312.543605 73.074832 
L 312.704065 72.848008 
L 312.947301 72.646387 
L 313.190546 72.318753 
L 315.112353 68.790386 
L 315.223467 68.462752 
L 315.396506 68.16032 
L 315.509878 67.933496 
L 315.614988 67.757078 
L 315.752058 67.479849 
L 315.865202 67.278228 
L 315.958904 66.975797 
L 316.123775 66.774176 
L 316.239577 66.522149 
L 316.406799 66.219718 
L 316.958769 65.337626 
L 317.198942 65.035194 
L 317.307051 64.757966 
L 317.434144 64.531142 
L 317.544485 64.354724 
L 317.698467 63.976684 
L 317.920149 63.573442 
L 318.431354 62.867769 
L 318.825463 62.11169 
L 318.939774 61.834461 
L 319.290565 60.927167 
L 319.585708 60.448317 
L 319.703033 60.221493 
L 319.79607 60.019872 
L 320.477312 58.936159 
L 320.701167 58.684133 
L 320.819935 58.55812 
L 321.058851 58.331296 
L 321.450384 57.928054 
L 322.045671 57.272786 
L 322.132682 57.146773 
L 323.47552 56.113465 
L 323.548704 56.037857 
L 324.117619 55.861439 
L 324.31271 55.710223 
L 327.319623 54.676916 
L 329.89053 54.500497 
L 330.940071 54.273674 
L 335.269041 53.971242 
L 339.533507 53.794824 
L 364.402127 53.568 
L 364.402127 53.568 
" clip-path="url(#p12654c2d25)" style="fill: none; stroke: #9467bd; stroke-width: 1.5; stroke-linecap: square"/>
   </g>
   <g id="line2d_18">
    <path d="M 132.705047 295.488 
L 137.644307 295.210771 
L 138.69782 295.00915 
L 139.502127 294.656313 
L 140.042963 294.454692 
L 140.41513 293.975842 
L 140.508885 293.774221 
L 140.772939 293.597803 
L 141.095567 292.866927 
L 141.308889 292.690509 
L 141.474772 292.312469 
L 141.5806 292.136051 
L 141.8027 291.808417 
L 142.594919 289.716599 
L 142.921187 288.406062 
L 142.986848 288.204441 
L 143.224696 287.42316 
L 143.336006 286.767892 
L 143.417474 286.566271 
L 143.664391 285.180126 
L 143.789221 284.701276 
L 143.892319 284.046008 
L 144.035601 283.315132 
L 144.326139 281.223314 
L 144.505662 280.215209 
L 144.547641 279.862372 
L 144.759901 278.249404 
L 144.80809 277.795757 
L 145.030942 275.90556 
L 145.357466 273.284487 
L 145.47788 272.099964 
L 145.863785 267.941531 
L 146.000303 266.429373 
L 146.068587 265.572484 
L 146.222111 263.833503 
L 146.517074 260.25473 
L 146.585687 259.322233 
L 146.891697 255.1638 
L 147.16814 250.904556 
L 147.231517 250.047667 
L 148.9704 222.400387 
L 149.347876 215.41926 
L 149.369593 214.94041 
L 149.510857 212.117716 
L 149.554466 211.48765 
L 149.711196 208.387727 
L 149.901512 204.657739 
L 150.032511 201.557816 
L 150.156133 199.617213 
L 150.287021 196.819722 
L 150.816821 187.116711 
L 150.864503 186.083404 
L 151.435757 176.682824 
L 151.470148 175.977151 
L 151.668305 172.625202 
L 151.746142 171.491084 
L 152.007489 167.357853 
L 152.57627 158.436124 
L 152.87594 154.025664 
L 153.245149 148.70791 
L 153.399254 146.943727 
L 153.444301 146.439674 
L 154.03976 138.954494 
L 154.193395 137.417134 
L 154.317163 136.056193 
L 154.450907 134.720453 
L 154.568114 133.611538 
L 154.695201 132.376609 
L 154.903285 130.56202 
L 155.053101 129.276686 
L 155.318559 126.983247 
L 155.746959 123.354069 
L 155.943109 121.967925 
L 156.138075 120.985023 
L 156.263876 120.153336 
L 156.392074 119.724891 
L 156.485027 119.447662 
L 156.609136 118.918407 
L 156.72308 118.414355 
L 156.784978 118.061518 
L 156.897072 117.40625 
L 157.142563 116.246929 
L 157.29791 115.516053 
L 157.397592 115.213621 
L 157.523098 114.709569 
L 157.746677 113.827477 
L 157.872533 113.298222 
L 158.684885 110.374717 
L 158.75414 110.198299 
L 160.158104 107.199187 
L 160.33718 106.997566 
L 160.533237 106.569121 
L 160.932756 106.065068 
L 161.051662 105.813042 
L 161.216886 105.485408 
L 161.3357 105.283787 
L 161.593609 104.956153 
L 161.856706 104.754532 
L 162.777999 103.87244 
L 162.933089 103.721224 
L 162.954267 103.645616 
L 163.113225 103.494401 
L 163.650697 103.091159 
L 163.656814 103.065956 
L 163.939835 102.91474 
L 164.254222 102.738322 
L 164.352837 102.662714 
L 164.766865 102.511498 
L 164.810982 102.43589 
L 165.129301 102.284675 
L 165.287162 102.158662 
L 165.734733 102.032648 
L 166.632381 101.730217 
L 168.43925 101.175759 
L 168.543075 101.125354 
L 169.436233 100.89853 
L 172.281189 100.31887 
L 174.609817 100.142452 
L 175.069861 100.041641 
L 176.629218 99.789615 
L 176.667498 99.764412 
L 185.973198 99.285562 
L 186.034274 99.235157 
L 186.441824 99.159549 
L 191.089863 99.008333 
L 194.804731 98.857118 
L 202.40442 98.680699 
L 203.272842 98.655497 
L 306.582679 98.378268 
L 307.260129 98.201849 
L 308.829813 97.521378 
L 308.919563 97.395365 
L 309.245833 97.24415 
L 309.612315 97.067731 
L 310.099324 96.563679 
L 310.534754 96.135234 
L 310.965208 95.505168 
L 311.121118 95.22794 
L 311.264094 95.051521 
L 311.433218 94.74909 
L 311.55747 94.597874 
L 311.891206 93.690579 
L 312.364254 92.480853 
L 312.564829 92.077611 
L 312.642683 91.901193 
L 312.846464 91.170317 
L 313.09736 90.464643 
L 313.279858 89.960591 
L 313.625871 89.078499 
L 313.82871 88.448433 
L 314.165686 87.037086 
L 314.430633 86.281008 
L 314.545134 85.776955 
L 314.636193 85.474524 
L 314.790636 85.096484 
L 314.863038 84.894863 
L 315.04241 84.264798 
L 316.057565 79.803933 
L 316.258569 78.921841 
L 316.385102 78.442991 
L 316.582474 77.485291 
L 316.729572 76.880428 
L 317.030585 75.796715 
L 317.065597 75.620297 
L 317.200619 74.965029 
L 317.422937 73.906519 
L 317.906941 71.865106 
L 318.040568 71.411459 
L 318.117274 71.159432 
L 318.322472 70.579772 
L 318.444437 70.226935 
L 318.560959 69.848896 
L 318.613894 69.622072 
L 318.730109 69.017209 
L 319.062235 67.757078 
L 319.167325 67.454647 
L 319.274655 67.303431 
L 319.660631 65.917286 
L 319.844229 65.614855 
L 320.032713 65.110802 
L 320.718675 63.195403 
L 320.845897 62.993782 
L 321.719797 60.927167 
L 321.905084 60.649938 
L 322.035004 60.322304 
L 322.802644 58.835349 
L 322.96092 58.633728 
L 326.5176 55.609413 
L 328.828105 54.954144 
L 329.629602 54.802929 
L 330.355127 54.702118 
L 333.071239 54.374484 
L 333.488663 54.298876 
L 339.488315 53.920837 
L 356.656067 53.593203 
L 398.487273 53.568 
L 398.487273 53.568 
" clip-path="url(#p12654c2d25)" style="fill: none; stroke: #8c564b; stroke-width: 1.5; stroke-linecap: square"/>
   </g>
   <g id="patch_3">
    <path d="M 57.6 307.584 
L 57.6 41.472 
" style="fill: none; stroke: #000000; stroke-width: 0.8; stroke-linejoin: miter; stroke-linecap: square"/>
   </g>
   <g id="patch_4">
    <path d="M 414.72 307.584 
L 414.72 41.472 
" style="fill: none; stroke: #000000; stroke-width: 0.8; stroke-linejoin: miter; stroke-linecap: square"/>
   </g>
   <g id="patch_5">
    <path d="M 57.6 307.584 
L 414.72 307.584 
" style="fill: none; stroke: #000000; stroke-width: 0.8; stroke-linejoin: miter; stroke-linecap: square"/>
   </g>
   <g id="patch_6">
    <path d="M 57.6 41.472 
L 414.72 41.472 
" style="fill: none; stroke: #000000; stroke-width: 0.8; stroke-linejoin: miter; stroke-linecap: square"/>
   </g>
   <g id="legend_1">
    <g id="patch_7">
     <path d="M 310.680938 302.584 
L 407.72 302.584 
Q 409.72 302.584 409.72 300.584 
L 409.72 213.51525 
Q 409.72 211.51525 407.72 211.51525 
L 310.680938 211.51525 
Q 308.680938 211.51525 308.680938 213.51525 
L 308.680938 300.584 
Q 308.680938 302.584 310.680938 302.584 
z
" style="fill: #ffffff; opacity: 0.8; stroke: #cccccc; stroke-linejoin: miter"/>
    </g>
    <g id="line2d_19">
     <path d="M 312.680938 219.613687 
L 322.680938 219.613687 
L 332.680938 219.613687 
" style="fill: none; stroke: #1f77b4; stroke-width: 1.5; stroke-linecap: square"/>
    </g>
    <g id="text_13">
     <!-- Alt-Svc -->
     <g transform="translate(340.680938 223.113687) scale(0.1 -0.1)">
      <defs>
       <path id="DejaVuSans-41" d="M 2188 4044 
L 1331 1722 
L 3047 1722 
L 2188 4044 
z
M 1831 4666 
L 2547 4666 
L 4325 0 
L 3669 0 
L 3244 1197 
L 1141 1197 
L 716 0 
L 50 0 
L 1831 4666 
z
" transform="scale(0.015625)"/>
       <path id="DejaVuSans-6c" d="M 603 4863 
L 1178 4863 
L 1178 0 
L 603 0 
L 603 4863 
z
" transform="scale(0.015625)"/>
       <path id="DejaVuSans-74" d="M 1172 4494 
L 1172 3500 
L 2356 3500 
L 2356 3053 
L 1172 3053 
L 1172 1153 
Q 1172 725 1289 603 
Q 1406 481 1766 481 
L 2356 481 
L 2356 0 
L 1766 0 
Q 1100 0 847 248 
Q 594 497 594 1153 
L 594 3053 
L 172 3053 
L 172 3500 
L 594 3500 
L 594 4494 
L 1172 4494 
z
" transform="scale(0.015625)"/>
       <path id="DejaVuSans-2d" d="M 313 2009 
L 1997 2009 
L 1997 1497 
L 313 1497 
L 313 2009 
z
" transform="scale(0.015625)"/>
       <path id="DejaVuSans-53" d="M 3425 4513 
L 3425 3897 
Q 3066 4069 2747 4153 
Q 2428 4238 2131 4238 
Q 1616 4238 1336 4038 
Q 1056 3838 1056 3469 
Q 1056 3159 1242 3001 
Q 1428 2844 1947 2747 
L 2328 2669 
Q 3034 2534 3370 2195 
Q 3706 1856 3706 1288 
Q 3706 609 3251 259 
Q 2797 -91 1919 -91 
Q 1588 -91 1214 -16 
Q 841 59 441 206 
L 441 856 
Q 825 641 1194 531 
Q 1563 422 1919 422 
Q 2459 422 2753 634 
Q 3047 847 3047 1241 
Q 3047 1584 2836 1778 
Q 2625 1972 2144 2069 
L 1759 2144 
Q 1053 2284 737 2584 
Q 422 2884 422 3419 
Q 422 4038 858 4394 
Q 1294 4750 2059 4750 
Q 2388 4750 2728 4690 
Q 3069 4631 3425 4513 
z
" transform="scale(0.015625)"/>
       <path id="DejaVuSans-76" d="M 191 3500 
L 800 3500 
L 1894 563 
L 2988 3500 
L 3597 3500 
L 2284 0 
L 1503 0 
L 191 3500 
z
" transform="scale(0.015625)"/>
       <path id="DejaVuSans-63" d="M 3122 3366 
L 3122 2828 
Q 2878 2963 2633 3030 
Q 2388 3097 2138 3097 
Q 1578 3097 1268 2742 
Q 959 2388 959 1747 
Q 959 1106 1268 751 
Q 1578 397 2138 397 
Q 2388 397 2633 464 
Q 2878 531 3122 666 
L 3122 134 
Q 2881 22 2623 -34 
Q 2366 -91 2075 -91 
Q 1284 -91 818 406 
Q 353 903 353 1747 
Q 353 2603 823 3093 
Q 1294 3584 2113 3584 
Q 2378 3584 2631 3529 
Q 2884 3475 3122 3366 
z
" transform="scale(0.015625)"/>
      </defs>
      <use xlink:href="#DejaVuSans-41"/>
      <use xlink:href="#DejaVuSans-6c" x="68.408203"/>
      <use xlink:href="#DejaVuSans-74" x="96.191406"/>
      <use xlink:href="#DejaVuSans-2d" x="135.400391"/>
      <use xlink:href="#DejaVuSans-53" x="171.484375"/>
      <use xlink:href="#DejaVuSans-76" x="234.960938"/>
      <use xlink:href="#DejaVuSans-63" x="294.140625"/>
     </g>
    </g>
    <g id="line2d_20">
     <path d="M 312.680938 234.291812 
L 322.680938 234.291812 
L 332.680938 234.291812 
" style="fill: none; stroke: #ff7f0e; stroke-width: 1.5; stroke-linecap: square"/>
    </g>
    <g id="text_14">
     <!-- No migration -->
     <g transform="translate(340.680938 237.791812) scale(0.1 -0.1)">
      <defs>
       <path id="DejaVuSans-4e" d="M 628 4666 
L 1478 4666 
L 3547 763 
L 3547 4666 
L 4159 4666 
L 4159 0 
L 3309 0 
L 1241 3903 
L 1241 0 
L 628 0 
L 628 4666 
z
" transform="scale(0.015625)"/>
       <path id="DejaVuSans-6f" d="M 1959 3097 
Q 1497 3097 1228 2736 
Q 959 2375 959 1747 
Q 959 1119 1226 758 
Q 1494 397 1959 397 
Q 2419 397 2687 759 
Q 2956 1122 2956 1747 
Q 2956 2369 2687 2733 
Q 2419 3097 1959 3097 
z
M 1959 3584 
Q 2709 3584 3137 3096 
Q 3566 2609 3566 1747 
Q 3566 888 3137 398 
Q 2709 -91 1959 -91 
Q 1206 -91 779 398 
Q 353 888 353 1747 
Q 353 2609 779 3096 
Q 1206 3584 1959 3584 
z
" transform="scale(0.015625)"/>
       <path id="DejaVuSans-20" transform="scale(0.015625)"/>
       <path id="DejaVuSans-6d" d="M 3328 2828 
Q 3544 3216 3844 3400 
Q 4144 3584 4550 3584 
Q 5097 3584 5394 3201 
Q 5691 2819 5691 2113 
L 5691 0 
L 5113 0 
L 5113 2094 
Q 5113 2597 4934 2840 
Q 4756 3084 4391 3084 
Q 3944 3084 3684 2787 
Q 3425 2491 3425 1978 
L 3425 0 
L 2847 0 
L 2847 2094 
Q 2847 2600 2669 2842 
Q 2491 3084 2119 3084 
Q 1678 3084 1418 2786 
Q 1159 2488 1159 1978 
L 1159 0 
L 581 0 
L 581 3500 
L 1159 3500 
L 1159 2956 
Q 1356 3278 1631 3431 
Q 1906 3584 2284 3584 
Q 2666 3584 2933 3390 
Q 3200 3197 3328 2828 
z
" transform="scale(0.015625)"/>
       <path id="DejaVuSans-69" d="M 603 3500 
L 1178 3500 
L 1178 0 
L 603 0 
L 603 3500 
z
M 603 4863 
L 1178 4863 
L 1178 4134 
L 603 4134 
L 603 4863 
z
" transform="scale(0.015625)"/>
       <path id="DejaVuSans-67" d="M 2906 1791 
Q 2906 2416 2648 2759 
Q 2391 3103 1925 3103 
Q 1463 3103 1205 2759 
Q 947 2416 947 1791 
Q 947 1169 1205 825 
Q 1463 481 1925 481 
Q 2391 481 2648 825 
Q 2906 1169 2906 1791 
z
M 3481 434 
Q 3481 -459 3084 -895 
Q 2688 -1331 1869 -1331 
Q 1566 -1331 1297 -1286 
Q 1028 -1241 775 -1147 
L 775 -588 
Q 1028 -725 1275 -790 
Q 1522 -856 1778 -856 
Q 2344 -856 2625 -561 
Q 2906 -266 2906 331 
L 2906 616 
Q 2728 306 2450 153 
Q 2172 0 1784 0 
Q 1141 0 747 490 
Q 353 981 353 1791 
Q 353 2603 747 3093 
Q 1141 3584 1784 3584 
Q 2172 3584 2450 3431 
Q 2728 3278 2906 2969 
L 2906 3500 
L 3481 3500 
L 3481 434 
z
" transform="scale(0.015625)"/>
       <path id="DejaVuSans-72" d="M 2631 2963 
Q 2534 3019 2420 3045 
Q 2306 3072 2169 3072 
Q 1681 3072 1420 2755 
Q 1159 2438 1159 1844 
L 1159 0 
L 581 0 
L 581 3500 
L 1159 3500 
L 1159 2956 
Q 1341 3275 1631 3429 
Q 1922 3584 2338 3584 
Q 2397 3584 2469 3576 
Q 2541 3569 2628 3553 
L 2631 2963 
z
" transform="scale(0.015625)"/>
       <path id="DejaVuSans-61" d="M 2194 1759 
Q 1497 1759 1228 1600 
Q 959 1441 959 1056 
Q 959 750 1161 570 
Q 1363 391 1709 391 
Q 2188 391 2477 730 
Q 2766 1069 2766 1631 
L 2766 1759 
L 2194 1759 
z
M 3341 1997 
L 3341 0 
L 2766 0 
L 2766 531 
Q 2569 213 2275 61 
Q 1981 -91 1556 -91 
Q 1019 -91 701 211 
Q 384 513 384 1019 
Q 384 1609 779 1909 
Q 1175 2209 1959 2209 
L 2766 2209 
L 2766 2266 
Q 2766 2663 2505 2880 
Q 2244 3097 1772 3097 
Q 1472 3097 1187 3025 
Q 903 2953 641 2809 
L 641 3341 
Q 956 3463 1253 3523 
Q 1550 3584 1831 3584 
Q 2591 3584 2966 3190 
Q 3341 2797 3341 1997 
z
" transform="scale(0.015625)"/>
       <path id="DejaVuSans-6e" d="M 3513 2113 
L 3513 0 
L 2938 0 
L 2938 2094 
Q 2938 2591 2744 2837 
Q 2550 3084 2163 3084 
Q 1697 3084 1428 2787 
Q 1159 2491 1159 1978 
L 1159 0 
L 581 0 
L 581 3500 
L 1159 3500 
L 1159 2956 
Q 1366 3272 1645 3428 
Q 1925 3584 2291 3584 
Q 2894 3584 3203 3211 
Q 3513 2838 3513 2113 
z
" transform="scale(0.015625)"/>
      </defs>
      <use xlink:href="#DejaVuSans-4e"/>
      <use xlink:href="#DejaVuSans-6f" x="74.804688"/>
      <use xlink:href="#DejaVuSans-20" x="135.986328"/>
      <use xlink:href="#DejaVuSans-6d" x="167.773438"/>
      <use xlink:href="#DejaVuSans-69" x="265.185547"/>
      <use xlink:href="#DejaVuSans-67" x="292.96875"/>
      <use xlink:href="#DejaVuSans-72" x="356.445312"/>
      <use xlink:href="#DejaVuSans-61" x="397.558594"/>
      <use xlink:href="#DejaVuSans-74" x="458.837891"/>
      <use xlink:href="#DejaVuSans-69" x="498.046875"/>
      <use xlink:href="#DejaVuSans-6f" x="525.830078"/>
      <use xlink:href="#DejaVuSans-6e" x="587.011719"/>
     </g>
    </g>
    <g id="line2d_21">
     <path d="M 312.680938 248.969937 
L 322.680938 248.969937 
L 332.680938 248.969937 
" style="fill: none; stroke: #2ca02c; stroke-width: 1.5; stroke-linecap: square"/>
    </g>
    <g id="text_15">
     <!-- DNS TTL 1s -->
     <g transform="translate(340.680938 252.469937) scale(0.1 -0.1)">
      <defs>
       <path id="DejaVuSans-44" d="M 1259 4147 
L 1259 519 
L 2022 519 
Q 2988 519 3436 956 
Q 3884 1394 3884 2338 
Q 3884 3275 3436 3711 
Q 2988 4147 2022 4147 
L 1259 4147 
z
M 628 4666 
L 1925 4666 
Q 3281 4666 3915 4102 
Q 4550 3538 4550 2338 
Q 4550 1131 3912 565 
Q 3275 0 1925 0 
L 628 0 
L 628 4666 
z
" transform="scale(0.015625)"/>
       <path id="DejaVuSans-54" d="M -19 4666 
L 3928 4666 
L 3928 4134 
L 2272 4134 
L 2272 0 
L 1638 0 
L 1638 4134 
L -19 4134 
L -19 4666 
z
" transform="scale(0.015625)"/>
       <path id="DejaVuSans-4c" d="M 628 4666 
L 1259 4666 
L 1259 531 
L 3531 531 
L 3531 0 
L 628 0 
L 628 4666 
z
" transform="scale(0.015625)"/>
       <path id="DejaVuSans-73" d="M 2834 3397 
L 2834 2853 
Q 2591 2978 2328 3040 
Q 2066 3103 1784 3103 
Q 1356 3103 1142 2972 
Q 928 2841 928 2578 
Q 928 2378 1081 2264 
Q 1234 2150 1697 2047 
L 1894 2003 
Q 2506 1872 2764 1633 
Q 3022 1394 3022 966 
Q 3022 478 2636 193 
Q 2250 -91 1575 -91 
Q 1294 -91 989 -36 
Q 684 19 347 128 
L 347 722 
Q 666 556 975 473 
Q 1284 391 1588 391 
Q 1994 391 2212 530 
Q 2431 669 2431 922 
Q 2431 1156 2273 1281 
Q 2116 1406 1581 1522 
L 1381 1569 
Q 847 1681 609 1914 
Q 372 2147 372 2553 
Q 372 3047 722 3315 
Q 1072 3584 1716 3584 
Q 2034 3584 2315 3537 
Q 2597 3491 2834 3397 
z
" transform="scale(0.015625)"/>
      </defs>
      <use xlink:href="#DejaVuSans-44"/>
      <use xlink:href="#DejaVuSans-4e" x="77.001953"/>
      <use xlink:href="#DejaVuSans-53" x="151.806641"/>
      <use xlink:href="#DejaVuSans-20" x="215.283203"/>
      <use xlink:href="#DejaVuSans-54" x="247.070312"/>
      <use xlink:href="#DejaVuSans-54" x="306.404297"/>
      <use xlink:href="#DejaVuSans-4c" x="367.488281"/>
      <use xlink:href="#DejaVuSans-20" x="423.201172"/>
      <use xlink:href="#DejaVuSans-31" x="454.988281"/>
      <use xlink:href="#DejaVuSans-73" x="518.611328"/>
     </g>
    </g>
    <g id="line2d_22">
     <path d="M 312.680938 263.648062 
L 322.680938 263.648062 
L 332.680938 263.648062 
" style="fill: none; stroke: #d62728; stroke-width: 1.5; stroke-linecap: square"/>
    </g>
    <g id="text_16">
     <!-- DNS TTL 20s -->
     <g transform="translate(340.680938 267.148062) scale(0.1 -0.1)">
      <use xlink:href="#DejaVuSans-44"/>
      <use xlink:href="#DejaVuSans-4e" x="77.001953"/>
      <use xlink:href="#DejaVuSans-53" x="151.806641"/>
      <use xlink:href="#DejaVuSans-20" x="215.283203"/>
      <use xlink:href="#DejaVuSans-54" x="247.070312"/>
      <use xlink:href="#DejaVuSans-54" x="306.404297"/>
      <use xlink:href="#DejaVuSans-4c" x="367.488281"/>
      <use xlink:href="#DejaVuSans-20" x="423.201172"/>
      <use xlink:href="#DejaVuSans-32" x="454.988281"/>
      <use xlink:href="#DejaVuSans-30" x="518.611328"/>
      <use xlink:href="#DejaVuSans-73" x="582.234375"/>
     </g>
    </g>
    <g id="line2d_23">
     <path d="M 312.680938 278.326188 
L 322.680938 278.326188 
L 332.680938 278.326188 
" style="fill: none; stroke: #9467bd; stroke-width: 1.5; stroke-linecap: square"/>
    </g>
    <g id="text_17">
     <!-- DNS TTL 40s -->
     <g transform="translate(340.680938 281.826188) scale(0.1 -0.1)">
      <use xlink:href="#DejaVuSans-44"/>
      <use xlink:href="#DejaVuSans-4e" x="77.001953"/>
      <use xlink:href="#DejaVuSans-53" x="151.806641"/>
      <use xlink:href="#DejaVuSans-20" x="215.283203"/>
      <use xlink:href="#DejaVuSans-54" x="247.070312"/>
      <use xlink:href="#DejaVuSans-54" x="306.404297"/>
      <use xlink:href="#DejaVuSans-4c" x="367.488281"/>
      <use xlink:href="#DejaVuSans-20" x="423.201172"/>
      <use xlink:href="#DejaVuSans-34" x="454.988281"/>
      <use xlink:href="#DejaVuSans-30" x="518.611328"/>
      <use xlink:href="#DejaVuSans-73" x="582.234375"/>
     </g>
    </g>
    <g id="line2d_24">
     <path d="M 312.680938 293.004312 
L 322.680938 293.004312 
L 332.680938 293.004312 
" style="fill: none; stroke: #8c564b; stroke-width: 1.5; stroke-linecap: square"/>
    </g>
    <g id="text_18">
     <!-- DNS TTL 60s -->
     <g transform="translate(340.680938 296.504312) scale(0.1 -0.1)">
      <use xlink:href="#DejaVuSans-44"/>
      <use xlink:href="#DejaVuSans-4e" x="77.001953"/>
      <use xlink:href="#DejaVuSans-53" x="151.806641"/>
      <use xlink:href="#DejaVuSans-20" x="215.283203"/>
      <use xlink:href="#DejaVuSans-54" x="247.070312"/>
      <use xlink:href="#DejaVuSans-54" x="306.404297"/>
      <use xlink:href="#DejaVuSans-4c" x="367.488281"/>
      <use xlink:href="#DejaVuSans-20" x="423.201172"/>
      <use xlink:href="#DejaVuSans-36" x="454.988281"/>
      <use xlink:href="#DejaVuSans-30" x="518.611328"/>
      <use xlink:href="#DejaVuSans-73" x="582.234375"/>
     </g>
    </g>
   </g>
  </g>
 </g>
 <defs>
  <clipPath id="p12654c2d25">
   <rect x="57.6" y="41.472" width="357.12" height="266.112"/>
  </clipPath>
 </defs>
</svg>
