<?xml version="1.0" encoding="utf-8" standalone="no"?>
<!DOCTYPE svg PUBLIC "-//W3C//DTD SVG 1.1//EN"
  "http://www.w3.org/Graphics/SVG/1.1/DTD/svg11.dtd">
<svg xmlns:xlink="http://www.w3.org/1999/xlink" width="460.8pt" height="345.6pt" viewBox="0 0 460.8 345.6" xmlns="http://www.w3.org/2000/svg" version="1.1">
 <metadata>
  <rdf:RDF xmlns:dc="http://purl.org/dc/elements/1.1/" xmlns:cc="http://creativecommons.org/ns#" xmlns:rdf="http://www.w3.org/1999/02/22-rdf-syntax-ns#">
   <cc:Work>
    <dc:type rdf:resource="http://purl.org/dc/dcmitype/StillImage"/>
    <dc:date>2023-07-14T13:45:29.813412</dc:date>
    <dc:format>image/svg+xml</dc:format>
    <dc:creator>
     <cc:Agent>
      <dc:title>Matplotlib v3.7.1, https://matplotlib.org/</dc:title>
     </cc:Agent>
    </dc:creator>
   </cc:Work>
  </rdf:RDF>
 </metadata>
 <defs>
  <style type="text/css">*{stroke-linejoin: round; stroke-linecap: butt}</style>
 </defs>
 <g id="figure_1">
  <g id="patch_1">
   <path d="M 0 345.6 
L 460.8 345.6 
L 460.8 0 
L 0 0 
z
" style="fill: #ffffff"/>
  </g>
  <g id="axes_1">
   <g id="patch_2">
    <path d="M 57.6 307.584 
L 414.72 307.584 
L 414.72 41.472 
L 57.6 41.472 
z
" style="fill: #ffffff"/>
   </g>
   <g id="matplotlib.axis_1">
    <g id="xtick_1">
     <g id="line2d_1">
      <defs>
       <path id="m6224e61b91" d="M 0 0 
L 0 3.5 
" style="stroke: #000000; stroke-width: 0.8"/>
      </defs>
      <g>
       <use xlink:href="#m6224e61b91" x="63.52421" y="307.584" style="stroke: #000000; stroke-width: 0.8"/>
      </g>
     </g>
     <g id="text_1">
      <!-- 0 -->
      <g transform="translate(60.34296 322.182437) scale(0.1 -0.1)">
       <defs>
        <path id="DejaVuSans-30" d="M 2034 4250 
Q 1547 4250 1301 3770 
Q 1056 3291 1056 2328 
Q 1056 1369 1301 889 
Q 1547 409 2034 409 
Q 2525 409 2770 889 
Q 3016 1369 3016 2328 
Q 3016 3291 2770 3770 
Q 2525 4250 2034 4250 
z
M 2034 4750 
Q 2819 4750 3233 4129 
Q 3647 3509 3647 2328 
Q 3647 1150 3233 529 
Q 2819 -91 2034 -91 
Q 1250 -91 836 529 
Q 422 1150 422 2328 
Q 422 3509 836 4129 
Q 1250 4750 2034 4750 
z
" transform="scale(0.015625)"/>
       </defs>
       <use xlink:href="#DejaVuSans-30"/>
      </g>
     </g>
    </g>
    <g id="xtick_2">
     <g id="line2d_2">
      <g>
       <use xlink:href="#m6224e61b91" x="105.314854" y="307.584" style="stroke: #000000; stroke-width: 0.8"/>
      </g>
     </g>
     <g id="text_2">
      <!-- 50 -->
      <g transform="translate(98.952354 322.182437) scale(0.1 -0.1)">
       <defs>
        <path id="DejaVuSans-35" d="M 691 4666 
L 3169 4666 
L 3169 4134 
L 1269 4134 
L 1269 2991 
Q 1406 3038 1543 3061 
Q 1681 3084 1819 3084 
Q 2600 3084 3056 2656 
Q 3513 2228 3513 1497 
Q 3513 744 3044 326 
Q 2575 -91 1722 -91 
Q 1428 -91 1123 -41 
Q 819 9 494 109 
L 494 744 
Q 775 591 1075 516 
Q 1375 441 1709 441 
Q 2250 441 2565 725 
Q 2881 1009 2881 1497 
Q 2881 1984 2565 2268 
Q 2250 2553 1709 2553 
Q 1456 2553 1204 2497 
Q 953 2441 691 2322 
L 691 4666 
z
" transform="scale(0.015625)"/>
       </defs>
       <use xlink:href="#DejaVuSans-35"/>
       <use xlink:href="#DejaVuSans-30" x="63.623047"/>
      </g>
     </g>
    </g>
    <g id="xtick_3">
     <g id="line2d_3">
      <g>
       <use xlink:href="#m6224e61b91" x="147.105499" y="307.584" style="stroke: #000000; stroke-width: 0.8"/>
      </g>
     </g>
     <g id="text_3">
      <!-- 100 -->
      <g transform="translate(137.561749 322.182437) scale(0.1 -0.1)">
       <defs>
        <path id="DejaVuSans-31" d="M 794 531 
L 1825 531 
L 1825 4091 
L 703 3866 
L 703 4441 
L 1819 4666 
L 2450 4666 
L 2450 531 
L 3481 531 
L 3481 0 
L 794 0 
L 794 531 
z
" transform="scale(0.015625)"/>
       </defs>
       <use xlink:href="#DejaVuSans-31"/>
       <use xlink:href="#DejaVuSans-30" x="63.623047"/>
       <use xlink:href="#DejaVuSans-30" x="127.246094"/>
      </g>
     </g>
    </g>
    <g id="xtick_4">
     <g id="line2d_4">
      <g>
       <use xlink:href="#m6224e61b91" x="188.896144" y="307.584" style="stroke: #000000; stroke-width: 0.8"/>
      </g>
     </g>
     <g id="text_4">
      <!-- 150 -->
      <g transform="translate(179.352394 322.182437) scale(0.1 -0.1)">
       <use xlink:href="#DejaVuSans-31"/>
       <use xlink:href="#DejaVuSans-35" x="63.623047"/>
       <use xlink:href="#DejaVuSans-30" x="127.246094"/>
      </g>
     </g>
    </g>
    <g id="xtick_5">
     <g id="line2d_5">
      <g>
       <use xlink:href="#m6224e61b91" x="230.686788" y="307.584" style="stroke: #000000; stroke-width: 0.8"/>
      </g>
     </g>
     <g id="text_5">
      <!-- 200 -->
      <g transform="translate(221.143038 322.182437) scale(0.1 -0.1)">
       <defs>
        <path id="DejaVuSans-32" d="M 1228 531 
L 3431 531 
L 3431 0 
L 469 0 
L 469 531 
Q 828 903 1448 1529 
Q 2069 2156 2228 2338 
Q 2531 2678 2651 2914 
Q 2772 3150 2772 3378 
Q 2772 3750 2511 3984 
Q 2250 4219 1831 4219 
Q 1534 4219 1204 4116 
Q 875 4013 500 3803 
L 500 4441 
Q 881 4594 1212 4672 
Q 1544 4750 1819 4750 
Q 2544 4750 2975 4387 
Q 3406 4025 3406 3419 
Q 3406 3131 3298 2873 
Q 3191 2616 2906 2266 
Q 2828 2175 2409 1742 
Q 1991 1309 1228 531 
z
" transform="scale(0.015625)"/>
       </defs>
       <use xlink:href="#DejaVuSans-32"/>
       <use xlink:href="#DejaVuSans-30" x="63.623047"/>
       <use xlink:href="#DejaVuSans-30" x="127.246094"/>
      </g>
     </g>
    </g>
    <g id="xtick_6">
     <g id="line2d_6">
      <g>
       <use xlink:href="#m6224e61b91" x="272.477433" y="307.584" style="stroke: #000000; stroke-width: 0.8"/>
      </g>
     </g>
     <g id="text_6">
      <!-- 250 -->
      <g transform="translate(262.933683 322.182437) scale(0.1 -0.1)">
       <use xlink:href="#DejaVuSans-32"/>
       <use xlink:href="#DejaVuSans-35" x="63.623047"/>
       <use xlink:href="#DejaVuSans-30" x="127.246094"/>
      </g>
     </g>
    </g>
    <g id="xtick_7">
     <g id="line2d_7">
      <g>
       <use xlink:href="#m6224e61b91" x="314.268078" y="307.584" style="stroke: #000000; stroke-width: 0.8"/>
      </g>
     </g>
     <g id="text_7">
      <!-- 300 -->
      <g transform="translate(304.724328 322.182437) scale(0.1 -0.1)">
       <defs>
        <path id="DejaVuSans-33" d="M 2597 2516 
Q 3050 2419 3304 2112 
Q 3559 1806 3559 1356 
Q 3559 666 3084 287 
Q 2609 -91 1734 -91 
Q 1441 -91 1130 -33 
Q 819 25 488 141 
L 488 750 
Q 750 597 1062 519 
Q 1375 441 1716 441 
Q 2309 441 2620 675 
Q 2931 909 2931 1356 
Q 2931 1769 2642 2001 
Q 2353 2234 1838 2234 
L 1294 2234 
L 1294 2753 
L 1863 2753 
Q 2328 2753 2575 2939 
Q 2822 3125 2822 3475 
Q 2822 3834 2567 4026 
Q 2313 4219 1838 4219 
Q 1578 4219 1281 4162 
Q 984 4106 628 3988 
L 628 4550 
Q 988 4650 1302 4700 
Q 1616 4750 1894 4750 
Q 2613 4750 3031 4423 
Q 3450 4097 3450 3541 
Q 3450 3153 3228 2886 
Q 3006 2619 2597 2516 
z
" transform="scale(0.015625)"/>
       </defs>
       <use xlink:href="#DejaVuSans-33"/>
       <use xlink:href="#DejaVuSans-30" x="63.623047"/>
       <use xlink:href="#DejaVuSans-30" x="127.246094"/>
      </g>
     </g>
    </g>
    <g id="xtick_8">
     <g id="line2d_8">
      <g>
       <use xlink:href="#m6224e61b91" x="356.058722" y="307.584" style="stroke: #000000; stroke-width: 0.8"/>
      </g>
     </g>
     <g id="text_8">
      <!-- 350 -->
      <g transform="translate(346.514972 322.182437) scale(0.1 -0.1)">
       <use xlink:href="#DejaVuSans-33"/>
       <use xlink:href="#DejaVuSans-35" x="63.623047"/>
       <use xlink:href="#DejaVuSans-30" x="127.246094"/>
      </g>
     </g>
    </g>
    <g id="xtick_9">
     <g id="line2d_9">
      <g>
       <use xlink:href="#m6224e61b91" x="397.849367" y="307.584" style="stroke: #000000; stroke-width: 0.8"/>
      </g>
     </g>
     <g id="text_9">
      <!-- 400 -->
      <g transform="translate(388.305617 322.182437) scale(0.1 -0.1)">
       <defs>
        <path id="DejaVuSans-34" d="M 2419 4116 
L 825 1625 
L 2419 1625 
L 2419 4116 
z
M 2253 4666 
L 3047 4666 
L 3047 1625 
L 3713 1625 
L 3713 1100 
L 3047 1100 
L 3047 0 
L 2419 0 
L 2419 1100 
L 313 1100 
L 313 1709 
L 2253 4666 
z
" transform="scale(0.015625)"/>
       </defs>
       <use xlink:href="#DejaVuSans-34"/>
       <use xlink:href="#DejaVuSans-30" x="63.623047"/>
       <use xlink:href="#DejaVuSans-30" x="127.246094"/>
      </g>
     </g>
    </g>
   </g>
   <g id="matplotlib.axis_2">
    <g id="ytick_1">
     <g id="line2d_10">
      <defs>
       <path id="m7fbf6ea3cb" d="M 0 0 
L -3.5 0 
" style="stroke: #000000; stroke-width: 0.8"/>
      </defs>
      <g>
       <use xlink:href="#m7fbf6ea3cb" x="57.6" y="295.513203" style="stroke: #000000; stroke-width: 0.8"/>
      </g>
     </g>
     <g id="text_10">
      <!-- 0.0 -->
      <g transform="translate(34.696875 299.312421) scale(0.1 -0.1)">
       <defs>
        <path id="DejaVuSans-2e" d="M 684 794 
L 1344 794 
L 1344 0 
L 684 0 
L 684 794 
z
" transform="scale(0.015625)"/>
       </defs>
       <use xlink:href="#DejaVuSans-30"/>
       <use xlink:href="#DejaVuSans-2e" x="63.623047"/>
       <use xlink:href="#DejaVuSans-30" x="95.410156"/>
      </g>
     </g>
    </g>
    <g id="ytick_2">
     <g id="line2d_11">
      <g>
       <use xlink:href="#m7fbf6ea3cb" x="57.6" y="247.124162" style="stroke: #000000; stroke-width: 0.8"/>
      </g>
     </g>
     <g id="text_11">
      <!-- 0.2 -->
      <g transform="translate(34.696875 250.923381) scale(0.1 -0.1)">
       <use xlink:href="#DejaVuSans-30"/>
       <use xlink:href="#DejaVuSans-2e" x="63.623047"/>
       <use xlink:href="#DejaVuSans-32" x="95.410156"/>
      </g>
     </g>
    </g>
    <g id="ytick_3">
     <g id="line2d_12">
      <g>
       <use xlink:href="#m7fbf6ea3cb" x="57.6" y="198.735122" style="stroke: #000000; stroke-width: 0.8"/>
      </g>
     </g>
     <g id="text_12">
      <!-- 0.4 -->
      <g transform="translate(34.696875 202.53434) scale(0.1 -0.1)">
       <use xlink:href="#DejaVuSans-30"/>
       <use xlink:href="#DejaVuSans-2e" x="63.623047"/>
       <use xlink:href="#DejaVuSans-34" x="95.410156"/>
      </g>
     </g>
    </g>
    <g id="ytick_4">
     <g id="line2d_13">
      <g>
       <use xlink:href="#m7fbf6ea3cb" x="57.6" y="150.346081" style="stroke: #000000; stroke-width: 0.8"/>
      </g>
     </g>
     <g id="text_13">
      <!-- 0.6 -->
      <g transform="translate(34.696875 154.1453) scale(0.1 -0.1)">
       <defs>
        <path id="DejaVuSans-36" d="M 2113 2584 
Q 1688 2584 1439 2293 
Q 1191 2003 1191 1497 
Q 1191 994 1439 701 
Q 1688 409 2113 409 
Q 2538 409 2786 701 
Q 3034 994 3034 1497 
Q 3034 2003 2786 2293 
Q 2538 2584 2113 2584 
z
M 3366 4563 
L 3366 3988 
Q 3128 4100 2886 4159 
Q 2644 4219 2406 4219 
Q 1781 4219 1451 3797 
Q 1122 3375 1075 2522 
Q 1259 2794 1537 2939 
Q 1816 3084 2150 3084 
Q 2853 3084 3261 2657 
Q 3669 2231 3669 1497 
Q 3669 778 3244 343 
Q 2819 -91 2113 -91 
Q 1303 -91 875 529 
Q 447 1150 447 2328 
Q 447 3434 972 4092 
Q 1497 4750 2381 4750 
Q 2619 4750 2861 4703 
Q 3103 4656 3366 4563 
z
" transform="scale(0.015625)"/>
       </defs>
       <use xlink:href="#DejaVuSans-30"/>
       <use xlink:href="#DejaVuSans-2e" x="63.623047"/>
       <use xlink:href="#DejaVuSans-36" x="95.410156"/>
      </g>
     </g>
    </g>
    <g id="ytick_5">
     <g id="line2d_14">
      <g>
       <use xlink:href="#m7fbf6ea3cb" x="57.6" y="101.957041" style="stroke: #000000; stroke-width: 0.8"/>
      </g>
     </g>
     <g id="text_14">
      <!-- 0.8 -->
      <g transform="translate(34.696875 105.756259) scale(0.1 -0.1)">
       <defs>
        <path id="DejaVuSans-38" d="M 2034 2216 
Q 1584 2216 1326 1975 
Q 1069 1734 1069 1313 
Q 1069 891 1326 650 
Q 1584 409 2034 409 
Q 2484 409 2743 651 
Q 3003 894 3003 1313 
Q 3003 1734 2745 1975 
Q 2488 2216 2034 2216 
z
M 1403 2484 
Q 997 2584 770 2862 
Q 544 3141 544 3541 
Q 544 4100 942 4425 
Q 1341 4750 2034 4750 
Q 2731 4750 3128 4425 
Q 3525 4100 3525 3541 
Q 3525 3141 3298 2862 
Q 3072 2584 2669 2484 
Q 3125 2378 3379 2068 
Q 3634 1759 3634 1313 
Q 3634 634 3220 271 
Q 2806 -91 2034 -91 
Q 1263 -91 848 271 
Q 434 634 434 1313 
Q 434 1759 690 2068 
Q 947 2378 1403 2484 
z
M 1172 3481 
Q 1172 3119 1398 2916 
Q 1625 2713 2034 2713 
Q 2441 2713 2670 2916 
Q 2900 3119 2900 3481 
Q 2900 3844 2670 4047 
Q 2441 4250 2034 4250 
Q 1625 4250 1398 4047 
Q 1172 3844 1172 3481 
z
" transform="scale(0.015625)"/>
       </defs>
       <use xlink:href="#DejaVuSans-30"/>
       <use xlink:href="#DejaVuSans-2e" x="63.623047"/>
       <use xlink:href="#DejaVuSans-38" x="95.410156"/>
      </g>
     </g>
    </g>
    <g id="ytick_6">
     <g id="line2d_15">
      <g>
       <use xlink:href="#m7fbf6ea3cb" x="57.6" y="53.568" style="stroke: #000000; stroke-width: 0.8"/>
      </g>
     </g>
     <g id="text_15">
      <!-- 1.0 -->
      <g transform="translate(34.696875 57.367219) scale(0.1 -0.1)">
       <use xlink:href="#DejaVuSans-31"/>
       <use xlink:href="#DejaVuSans-2e" x="63.623047"/>
       <use xlink:href="#DejaVuSans-30" x="95.410156"/>
      </g>
     </g>
    </g>
   </g>
   <g id="line2d_16">
    <path d="M 73.832727 295.488 
L 74.018996 295.387189 
L 74.526164 295.185568 
L 74.828385 294.706719 
L 75.000724 293.774221 
L 75.347758 287.246742 
L 75.614389 275.42671 
L 75.658709 273.133271 
L 76.236082 221.770321 
L 76.347423 208.89178 
L 77.631579 83.004666 
L 77.653322 82.046967 
L 77.990635 71.991119 
L 79.082546 59.188185 
L 79.281473 58.154878 
L 79.414476 57.550015 
L 79.592726 56.945152 
L 80.239799 55.659818 
L 80.524928 55.357386 
L 80.632262 55.231373 
L 80.766171 55.155765 
L 81.107261 54.979347 
L 81.170566 54.903739 
L 82.303612 54.676916 
L 82.329159 54.651713 
L 84.874249 54.450092 
L 85.014223 54.424889 
L 108.066431 54.198066 
L 172.559613 54.04685 
L 172.729911 53.920837 
L 175.291536 53.568 
L 175.291536 53.568 
" clip-path="url(#p9bf72e767e)" style="fill: none; stroke: #1f77b4; stroke-width: 1.5; stroke-linecap: square"/>
   </g>
   <g id="line2d_17">
    <path d="M 74.534454 295.488 
L 74.645193 295.437595 
L 74.964608 295.210771 
L 75.29259 294.001045 
L 75.405084 292.89213 
L 75.440276 292.51409 
L 75.602726 289.691396 
L 75.640746 288.985723 
L 75.753723 285.280937 
L 75.987825 275.955965 
L 76.067962 271.898343 
L 76.265442 260.783985 
L 76.383687 254.281708 
L 76.495407 247.275378 
L 76.72995 232.783868 
L 77.712743 188.45245 
L 77.770592 187.469548 
L 78.296519 180.891663 
L 78.772494 178.497413 
L 78.843658 178.320995 
L 79.058749 177.539714 
L 79.488676 176.708027 
L 79.667773 176.279582 
L 79.781693 176.052759 
L 79.899675 175.825935 
L 80.134447 175.649517 
L 80.467154 175.347085 
L 81.98751 175.095059 
L 82.012597 175.044654 
L 83.93428 174.843033 
L 83.990458 174.792628 
L 89.099759 174.591007 
L 118.793566 174.515399 
L 171.033659 174.389386 
L 171.19984 174.23817 
L 171.286724 174.036549 
L 171.495005 173.230065 
L 171.576072 172.751215 
L 171.795414 169.7269 
L 171.849661 168.643187 
L 172.031354 163.703472 
L 172.060541 162.745773 
L 172.184449 158.360516 
L 172.284013 154.605325 
L 172.401874 148.934734 
L 172.486505 143.944614 
L 172.608 136.913082 
L 172.738618 129.201078 
L 172.887179 120.153336 
L 173.064836 109.669044 
L 173.702726 75.847121 
L 173.790752 73.049629 
L 174.405496 61.834461 
L 174.529996 60.523925 
L 174.638638 59.818251 
L 174.877081 58.507715 
L 175.09903 57.676028 
L 175.646338 55.987452 
L 175.72193 55.735426 
L 176.157597 54.979347 
L 176.651954 54.550902 
L 176.708 54.450092 
L 178.749992 54.04685 
L 180.784125 53.870432 
L 181.261646 53.794824 
L 190.134769 53.568 
L 190.134769 53.568 
" clip-path="url(#p9bf72e767e)" style="fill: none; stroke: #ff7f0e; stroke-width: 1.5; stroke-linecap: square"/>
   </g>
   <g id="line2d_18">
    <path d="M 90.180816 295.488 
L 91.124186 295.311582 
L 92.0546 295.109961 
L 92.206225 294.958745 
L 92.490696 294.706719 
L 92.702131 294.177463 
L 92.828664 293.875032 
L 92.939345 293.421385 
L 92.990923 293.194561 
L 93.379285 289.867815 
L 93.428546 289.262952 
L 93.699206 285.40695 
L 93.849566 282.256622 
L 93.928819 280.391627 
L 95.159655 217.561483 
L 95.303728 207.304014 
L 95.550025 190.115824 
L 95.695438 179.480316 
L 95.878416 164.661172 
L 96.030776 152.841141 
L 96.108413 147.725008 
L 96.286764 135.753761 
L 96.328304 133.05708 
L 96.489079 123.328867 
L 97.701884 74.864218 
L 97.861023 71.814701 
L 98.028638 69.11802 
L 98.388456 65.009992 
L 98.571212 63.397024 
L 98.615925 63.06939 
L 99.416696 58.608525 
L 99.511352 58.356499 
L 100.000143 57.171975 
L 100.139864 56.970354 
L 100.224698 56.793936 
L 100.725876 56.189073 
L 100.820753 56.088263 
L 100.955891 55.937047 
L 101.043511 55.861439 
L 101.428036 55.634615 
L 102.141644 55.382589 
L 102.662823 55.10536 
L 103.978597 54.777726 
L 105.098089 54.62651 
L 107.260033 54.248471 
L 111.932202 54.172863 
L 145.811346 54.097255 
L 383.854085 53.971242 
L 384.228647 53.845229 
L 387.475928 53.568 
L 387.475928 53.568 
" clip-path="url(#p9bf72e767e)" style="fill: none; stroke: #2ca02c; stroke-width: 1.5; stroke-linecap: square"/>
   </g>
   <g id="line2d_19">
    <path d="M 90.490973 295.488 
L 91.326281 295.336784 
L 91.552119 295.261176 
L 91.890868 295.109961 
L 92.481909 294.656313 
L 92.705441 294.152261 
L 92.77639 293.849829 
L 92.904114 293.194561 
L 93.096443 291.858822 
L 93.220518 290.749906 
L 93.262553 290.371867 
L 93.576605 285.40695 
L 93.623386 284.550061 
L 94.467664 255.214205 
L 94.592406 248.661522 
L 94.782576 237.723583 
L 94.918807 226.810846 
L 96.91844 95.530371 
L 96.993761 92.581664 
L 97.189011 86.129792 
L 97.714618 74.334963 
L 97.766561 73.679695 
L 97.922413 71.285446 
L 98.452312 65.816476 
L 98.715802 64.279116 
L 98.907736 63.245808 
L 100.028938 59.969467 
L 100.172703 59.742643 
L 100.445515 59.415009 
L 100.67961 59.162983 
L 100.835341 58.885754 
L 101.702722 58.406904 
L 102.095545 58.205283 
L 102.398244 58.028865 
L 103.805972 57.676028 
L 103.89298 57.575217 
L 104.468018 57.373596 
L 104.527395 57.297989 
L 105.432534 57.071165 
L 105.449176 57.045962 
L 109.236906 56.617518 
L 142.908914 56.516707 
L 381.857713 56.390694 
L 382.54032 56.214276 
L 383.213532 55.836236 
L 383.276921 55.710223 
L 383.694406 55.458197 
L 384.107711 54.979347 
L 384.256887 54.828131 
L 384.339536 54.676916 
L 384.561581 54.550902 
L 384.696938 54.424889 
L 385.55041 53.996445 
L 387.998881 53.643608 
L 388.851647 53.568 
L 388.851647 53.568 
" clip-path="url(#p9bf72e767e)" style="fill: none; stroke: #d62728; stroke-width: 1.5; stroke-linecap: square"/>
   </g>
   <g id="line2d_20">
    <path d="M 90.149773 295.488 
L 91.437474 295.261176 
L 91.58051 295.185568 
L 92.030756 295.034353 
L 92.129272 294.883137 
L 92.333843 294.681516 
L 92.499599 294.404287 
L 92.652534 294.05145 
L 92.744976 293.547398 
L 92.891088 292.589698 
L 93.03117 291.581593 
L 93.422568 288.456468 
L 93.887819 278.022581 
L 94.281998 262.27094 
L 94.441494 255.012584 
L 94.843039 229.961174 
L 94.906793 225.147473 
L 95.086307 211.916095 
L 95.135032 208.009688 
L 96.55427 110.601541 
L 96.594353 108.686141 
L 96.813999 98.554686 
L 96.845467 97.445771 
L 96.968449 92.884095 
L 97.143114 87.389923 
L 97.30841 82.954261 
L 97.524843 78.947044 
L 97.663531 76.552794 
L 97.960475 72.67159 
L 98.164519 70.378151 
L 98.519869 67.656268 
L 98.743598 66.446542 
L 98.846112 66.018097 
L 98.938929 65.690463 
L 99.129974 64.732763 
L 99.287027 64.178305 
L 99.430927 63.699455 
L 99.685386 63.06939 
L 99.804934 62.943377 
L 99.905254 62.817363 
L 100.042685 62.59054 
L 100.158325 62.237703 
L 101.544925 61.05318 
L 102.012163 60.876761 
L 102.670043 60.57433 
L 105.772301 59.969467 
L 105.874426 59.868656 
L 107.798602 59.692238 
L 114.191819 59.641833 
L 175.679447 59.541022 
L 382.035988 59.415009 
L 382.655502 59.188185 
L 383.454224 58.381701 
L 384.539877 56.365491 
L 384.902132 55.4834 
L 385.192947 54.954144 
L 385.306996 54.702118 
L 385.515568 54.450092 
L 385.68185 54.273674 
L 386.216291 54.04685 
L 386.881593 53.895634 
L 388.145308 53.719216 
L 389.006237 53.618405 
L 391.641491 53.568 
L 391.641491 53.568 
" clip-path="url(#p9bf72e767e)" style="fill: none; stroke: #9467bd; stroke-width: 1.5; stroke-linecap: square"/>
   </g>
   <g id="line2d_21">
    <path d="M 88.818567 295.488 
L 90.912351 295.336784 
L 91.027671 295.261176 
L 91.608301 295.084758 
L 91.783352 294.983947 
L 92.184541 294.731921 
L 92.489823 294.328679 
L 92.823499 293.47179 
L 92.882362 293.244966 
L 93.030411 292.665306 
L 93.260038 291.127946 
L 93.329873 290.548285 
L 93.441921 289.313357 
L 93.509071 288.431265 
L 94.151169 274.116174 
L 94.288043 268.949636 
L 94.380754 264.791202 
L 94.631354 252.467119 
L 94.663383 250.728138 
L 94.83723 240.017022 
L 94.874098 237.874799 
L 96.550945 120.430565 
L 96.649032 115.86889 
L 96.768162 109.795057 
L 96.857535 105.510611 
L 97.01451 99.335967 
L 97.147011 94.698684 
L 97.287898 90.81748 
L 97.339648 89.355728 
L 97.509443 84.718445 
L 97.793663 79.703122 
L 97.833196 78.972246 
L 97.971036 76.981239 
L 98.629457 71.109027 
L 98.849871 69.672478 
L 98.985278 68.966804 
L 99.758052 66.496947 
L 100.042293 66.14411 
L 100.164217 65.917286 
L 100.290352 65.715665 
L 101.028234 64.70756 
L 101.506653 64.304318 
L 101.881778 64.102697 
L 102.274365 63.825468 
L 103.671401 63.447429 
L 103.793535 63.397024 
L 104.70757 63.195403 
L 105.055635 63.06939 
L 109.622099 62.716553 
L 110.823685 62.69135 
L 147.156521 62.565337 
L 382.011586 62.439324 
L 382.46241 62.2125 
L 382.562622 62.11169 
L 382.74045 61.910069 
L 383.091065 61.406016 
L 383.505423 60.498722 
L 383.647465 60.171088 
L 383.822471 59.717441 
L 383.955697 59.213388 
L 384.09855 58.835349 
L 384.234854 58.331296 
L 384.315296 58.104473 
L 384.476207 57.650825 
L 384.65844 57.272786 
L 384.77373 56.945152 
L 384.912665 56.64272 
L 385.083071 56.239478 
L 385.261975 55.962249 
L 385.864383 54.777726 
L 386.390616 54.198066 
L 386.715698 54.072053 
L 388.128482 53.769621 
L 390.943865 53.668811 
L 393.168547 53.593203 
L 398.487273 53.568 
L 398.487273 53.568 
" clip-path="url(#p9bf72e767e)" style="fill: none; stroke: #8c564b; stroke-width: 1.5; stroke-linecap: square"/>
   </g>
   <g id="patch_3">
    <path d="M 57.6 307.584 
L 57.6 41.472 
" style="fill: none; stroke: #000000; stroke-width: 0.8; stroke-linejoin: miter; stroke-linecap: square"/>
   </g>
   <g id="patch_4">
    <path d="M 414.72 307.584 
L 414.72 41.472 
" style="fill: none; stroke: #000000; stroke-width: 0.8; stroke-linejoin: miter; stroke-linecap: square"/>
   </g>
   <g id="patch_5">
    <path d="M 57.6 307.584 
L 414.72 307.584 
" style="fill: none; stroke: #000000; stroke-width: 0.8; stroke-linejoin: miter; stroke-linecap: square"/>
   </g>
   <g id="patch_6">
    <path d="M 57.6 41.472 
L 414.72 41.472 
" style="fill: none; stroke: #000000; stroke-width: 0.8; stroke-linejoin: miter; stroke-linecap: square"/>
   </g>
   <g id="legend_1">
    <g id="patch_7">
     <path d="M 310.680938 302.584 
L 407.72 302.584 
Q 409.72 302.584 409.72 300.584 
L 409.72 213.51525 
Q 409.72 211.51525 407.72 211.51525 
L 310.680938 211.51525 
Q 308.680938 211.51525 308.680938 213.51525 
L 308.680938 300.584 
Q 308.680938 302.584 310.680938 302.584 
z
" style="fill: #ffffff; opacity: 0.8; stroke: #cccccc; stroke-linejoin: miter"/>
    </g>
    <g id="line2d_22">
     <path d="M 312.680938 219.613687 
L 322.680938 219.613687 
L 332.680938 219.613687 
" style="fill: none; stroke: #1f77b4; stroke-width: 1.5; stroke-linecap: square"/>
    </g>
    <g id="text_16">
     <!-- Alt-Svc -->
     <g transform="translate(340.680938 223.113687) scale(0.1 -0.1)">
      <defs>
       <path id="DejaVuSans-41" d="M 2188 4044 
L 1331 1722 
L 3047 1722 
L 2188 4044 
z
M 1831 4666 
L 2547 4666 
L 4325 0 
L 3669 0 
L 3244 1197 
L 1141 1197 
L 716 0 
L 50 0 
L 1831 4666 
z
" transform="scale(0.015625)"/>
       <path id="DejaVuSans-6c" d="M 603 4863 
L 1178 4863 
L 1178 0 
L 603 0 
L 603 4863 
z
" transform="scale(0.015625)"/>
       <path id="DejaVuSans-74" d="M 1172 4494 
L 1172 3500 
L 2356 3500 
L 2356 3053 
L 1172 3053 
L 1172 1153 
Q 1172 725 1289 603 
Q 1406 481 1766 481 
L 2356 481 
L 2356 0 
L 1766 0 
Q 1100 0 847 248 
Q 594 497 594 1153 
L 594 3053 
L 172 3053 
L 172 3500 
L 594 3500 
L 594 4494 
L 1172 4494 
z
" transform="scale(0.015625)"/>
       <path id="DejaVuSans-2d" d="M 313 2009 
L 1997 2009 
L 1997 1497 
L 313 1497 
L 313 2009 
z
" transform="scale(0.015625)"/>
       <path id="DejaVuSans-53" d="M 3425 4513 
L 3425 3897 
Q 3066 4069 2747 4153 
Q 2428 4238 2131 4238 
Q 1616 4238 1336 4038 
Q 1056 3838 1056 3469 
Q 1056 3159 1242 3001 
Q 1428 2844 1947 2747 
L 2328 2669 
Q 3034 2534 3370 2195 
Q 3706 1856 3706 1288 
Q 3706 609 3251 259 
Q 2797 -91 1919 -91 
Q 1588 -91 1214 -16 
Q 841 59 441 206 
L 441 856 
Q 825 641 1194 531 
Q 1563 422 1919 422 
Q 2459 422 2753 634 
Q 3047 847 3047 1241 
Q 3047 1584 2836 1778 
Q 2625 1972 2144 2069 
L 1759 2144 
Q 1053 2284 737 2584 
Q 422 2884 422 3419 
Q 422 4038 858 4394 
Q 1294 4750 2059 4750 
Q 2388 4750 2728 4690 
Q 3069 4631 3425 4513 
z
" transform="scale(0.015625)"/>
       <path id="DejaVuSans-76" d="M 191 3500 
L 800 3500 
L 1894 563 
L 2988 3500 
L 3597 3500 
L 2284 0 
L 1503 0 
L 191 3500 
z
" transform="scale(0.015625)"/>
       <path id="DejaVuSans-63" d="M 3122 3366 
L 3122 2828 
Q 2878 2963 2633 3030 
Q 2388 3097 2138 3097 
Q 1578 3097 1268 2742 
Q 959 2388 959 1747 
Q 959 1106 1268 751 
Q 1578 397 2138 397 
Q 2388 397 2633 464 
Q 2878 531 3122 666 
L 3122 134 
Q 2881 22 2623 -34 
Q 2366 -91 2075 -91 
Q 1284 -91 818 406 
Q 353 903 353 1747 
Q 353 2603 823 3093 
Q 1294 3584 2113 3584 
Q 2378 3584 2631 3529 
Q 2884 3475 3122 3366 
z
" transform="scale(0.015625)"/>
      </defs>
      <use xlink:href="#DejaVuSans-41"/>
      <use xlink:href="#DejaVuSans-6c" x="68.408203"/>
      <use xlink:href="#DejaVuSans-74" x="96.191406"/>
      <use xlink:href="#DejaVuSans-2d" x="135.400391"/>
      <use xlink:href="#DejaVuSans-53" x="171.484375"/>
      <use xlink:href="#DejaVuSans-76" x="234.960938"/>
      <use xlink:href="#DejaVuSans-63" x="294.140625"/>
     </g>
    </g>
    <g id="line2d_23">
     <path d="M 312.680938 234.291812 
L 322.680938 234.291812 
L 332.680938 234.291812 
" style="fill: none; stroke: #ff7f0e; stroke-width: 1.5; stroke-linecap: square"/>
    </g>
    <g id="text_17">
     <!-- No migration -->
     <g transform="translate(340.680938 237.791812) scale(0.1 -0.1)">
      <defs>
       <path id="DejaVuSans-4e" d="M 628 4666 
L 1478 4666 
L 3547 763 
L 3547 4666 
L 4159 4666 
L 4159 0 
L 3309 0 
L 1241 3903 
L 1241 0 
L 628 0 
L 628 4666 
z
" transform="scale(0.015625)"/>
       <path id="DejaVuSans-6f" d="M 1959 3097 
Q 1497 3097 1228 2736 
Q 959 2375 959 1747 
Q 959 1119 1226 758 
Q 1494 397 1959 397 
Q 2419 397 2687 759 
Q 2956 1122 2956 1747 
Q 2956 2369 2687 2733 
Q 2419 3097 1959 3097 
z
M 1959 3584 
Q 2709 3584 3137 3096 
Q 3566 2609 3566 1747 
Q 3566 888 3137 398 
Q 2709 -91 1959 -91 
Q 1206 -91 779 398 
Q 353 888 353 1747 
Q 353 2609 779 3096 
Q 1206 3584 1959 3584 
z
" transform="scale(0.015625)"/>
       <path id="DejaVuSans-20" transform="scale(0.015625)"/>
       <path id="DejaVuSans-6d" d="M 3328 2828 
Q 3544 3216 3844 3400 
Q 4144 3584 4550 3584 
Q 5097 3584 5394 3201 
Q 5691 2819 5691 2113 
L 5691 0 
L 5113 0 
L 5113 2094 
Q 5113 2597 4934 2840 
Q 4756 3084 4391 3084 
Q 3944 3084 3684 2787 
Q 3425 2491 3425 1978 
L 3425 0 
L 2847 0 
L 2847 2094 
Q 2847 2600 2669 2842 
Q 2491 3084 2119 3084 
Q 1678 3084 1418 2786 
Q 1159 2488 1159 1978 
L 1159 0 
L 581 0 
L 581 3500 
L 1159 3500 
L 1159 2956 
Q 1356 3278 1631 3431 
Q 1906 3584 2284 3584 
Q 2666 3584 2933 3390 
Q 3200 3197 3328 2828 
z
" transform="scale(0.015625)"/>
       <path id="DejaVuSans-69" d="M 603 3500 
L 1178 3500 
L 1178 0 
L 603 0 
L 603 3500 
z
M 603 4863 
L 1178 4863 
L 1178 4134 
L 603 4134 
L 603 4863 
z
" transform="scale(0.015625)"/>
       <path id="DejaVuSans-67" d="M 2906 1791 
Q 2906 2416 2648 2759 
Q 2391 3103 1925 3103 
Q 1463 3103 1205 2759 
Q 947 2416 947 1791 
Q 947 1169 1205 825 
Q 1463 481 1925 481 
Q 2391 481 2648 825 
Q 2906 1169 2906 1791 
z
M 3481 434 
Q 3481 -459 3084 -895 
Q 2688 -1331 1869 -1331 
Q 1566 -1331 1297 -1286 
Q 1028 -1241 775 -1147 
L 775 -588 
Q 1028 -725 1275 -790 
Q 1522 -856 1778 -856 
Q 2344 -856 2625 -561 
Q 2906 -266 2906 331 
L 2906 616 
Q 2728 306 2450 153 
Q 2172 0 1784 0 
Q 1141 0 747 490 
Q 353 981 353 1791 
Q 353 2603 747 3093 
Q 1141 3584 1784 3584 
Q 2172 3584 2450 3431 
Q 2728 3278 2906 2969 
L 2906 3500 
L 3481 3500 
L 3481 434 
z
" transform="scale(0.015625)"/>
       <path id="DejaVuSans-72" d="M 2631 2963 
Q 2534 3019 2420 3045 
Q 2306 3072 2169 3072 
Q 1681 3072 1420 2755 
Q 1159 2438 1159 1844 
L 1159 0 
L 581 0 
L 581 3500 
L 1159 3500 
L 1159 2956 
Q 1341 3275 1631 3429 
Q 1922 3584 2338 3584 
Q 2397 3584 2469 3576 
Q 2541 3569 2628 3553 
L 2631 2963 
z
" transform="scale(0.015625)"/>
       <path id="DejaVuSans-61" d="M 2194 1759 
Q 1497 1759 1228 1600 
Q 959 1441 959 1056 
Q 959 750 1161 570 
Q 1363 391 1709 391 
Q 2188 391 2477 730 
Q 2766 1069 2766 1631 
L 2766 1759 
L 2194 1759 
z
M 3341 1997 
L 3341 0 
L 2766 0 
L 2766 531 
Q 2569 213 2275 61 
Q 1981 -91 1556 -91 
Q 1019 -91 701 211 
Q 384 513 384 1019 
Q 384 1609 779 1909 
Q 1175 2209 1959 2209 
L 2766 2209 
L 2766 2266 
Q 2766 2663 2505 2880 
Q 2244 3097 1772 3097 
Q 1472 3097 1187 3025 
Q 903 2953 641 2809 
L 641 3341 
Q 956 3463 1253 3523 
Q 1550 3584 1831 3584 
Q 2591 3584 2966 3190 
Q 3341 2797 3341 1997 
z
" transform="scale(0.015625)"/>
       <path id="DejaVuSans-6e" d="M 3513 2113 
L 3513 0 
L 2938 0 
L 2938 2094 
Q 2938 2591 2744 2837 
Q 2550 3084 2163 3084 
Q 1697 3084 1428 2787 
Q 1159 2491 1159 1978 
L 1159 0 
L 581 0 
L 581 3500 
L 1159 3500 
L 1159 2956 
Q 1366 3272 1645 3428 
Q 1925 3584 2291 3584 
Q 2894 3584 3203 3211 
Q 3513 2838 3513 2113 
z
" transform="scale(0.015625)"/>
      </defs>
      <use xlink:href="#DejaVuSans-4e"/>
      <use xlink:href="#DejaVuSans-6f" x="74.804688"/>
      <use xlink:href="#DejaVuSans-20" x="135.986328"/>
      <use xlink:href="#DejaVuSans-6d" x="167.773438"/>
      <use xlink:href="#DejaVuSans-69" x="265.185547"/>
      <use xlink:href="#DejaVuSans-67" x="292.96875"/>
      <use xlink:href="#DejaVuSans-72" x="356.445312"/>
      <use xlink:href="#DejaVuSans-61" x="397.558594"/>
      <use xlink:href="#DejaVuSans-74" x="458.837891"/>
      <use xlink:href="#DejaVuSans-69" x="498.046875"/>
      <use xlink:href="#DejaVuSans-6f" x="525.830078"/>
      <use xlink:href="#DejaVuSans-6e" x="587.011719"/>
     </g>
    </g>
    <g id="line2d_24">
     <path d="M 312.680938 248.969937 
L 322.680938 248.969937 
L 332.680938 248.969937 
" style="fill: none; stroke: #2ca02c; stroke-width: 1.5; stroke-linecap: square"/>
    </g>
    <g id="text_18">
     <!-- DNS TTL 1s -->
     <g transform="translate(340.680938 252.469937) scale(0.1 -0.1)">
      <defs>
       <path id="DejaVuSans-44" d="M 1259 4147 
L 1259 519 
L 2022 519 
Q 2988 519 3436 956 
Q 3884 1394 3884 2338 
Q 3884 3275 3436 3711 
Q 2988 4147 2022 4147 
L 1259 4147 
z
M 628 4666 
L 1925 4666 
Q 3281 4666 3915 4102 
Q 4550 3538 4550 2338 
Q 4550 1131 3912 565 
Q 3275 0 1925 0 
L 628 0 
L 628 4666 
z
" transform="scale(0.015625)"/>
       <path id="DejaVuSans-54" d="M -19 4666 
L 3928 4666 
L 3928 4134 
L 2272 4134 
L 2272 0 
L 1638 0 
L 1638 4134 
L -19 4134 
L -19 4666 
z
" transform="scale(0.015625)"/>
       <path id="DejaVuSans-4c" d="M 628 4666 
L 1259 4666 
L 1259 531 
L 3531 531 
L 3531 0 
L 628 0 
L 628 4666 
z
" transform="scale(0.015625)"/>
       <path id="DejaVuSans-73" d="M 2834 3397 
L 2834 2853 
Q 2591 2978 2328 3040 
Q 2066 3103 1784 3103 
Q 1356 3103 1142 2972 
Q 928 2841 928 2578 
Q 928 2378 1081 2264 
Q 1234 2150 1697 2047 
L 1894 2003 
Q 2506 1872 2764 1633 
Q 3022 1394 3022 966 
Q 3022 478 2636 193 
Q 2250 -91 1575 -91 
Q 1294 -91 989 -36 
Q 684 19 347 128 
L 347 722 
Q 666 556 975 473 
Q 1284 391 1588 391 
Q 1994 391 2212 530 
Q 2431 669 2431 922 
Q 2431 1156 2273 1281 
Q 2116 1406 1581 1522 
L 1381 1569 
Q 847 1681 609 1914 
Q 372 2147 372 2553 
Q 372 3047 722 3315 
Q 1072 3584 1716 3584 
Q 2034 3584 2315 3537 
Q 2597 3491 2834 3397 
z
" transform="scale(0.015625)"/>
      </defs>
      <use xlink:href="#DejaVuSans-44"/>
      <use xlink:href="#DejaVuSans-4e" x="77.001953"/>
      <use xlink:href="#DejaVuSans-53" x="151.806641"/>
      <use xlink:href="#DejaVuSans-20" x="215.283203"/>
      <use xlink:href="#DejaVuSans-54" x="247.070312"/>
      <use xlink:href="#DejaVuSans-54" x="306.404297"/>
      <use xlink:href="#DejaVuSans-4c" x="367.488281"/>
      <use xlink:href="#DejaVuSans-20" x="423.201172"/>
      <use xlink:href="#DejaVuSans-31" x="454.988281"/>
      <use xlink:href="#DejaVuSans-73" x="518.611328"/>
     </g>
    </g>
    <g id="line2d_25">
     <path d="M 312.680938 263.648062 
L 322.680938 263.648062 
L 332.680938 263.648062 
" style="fill: none; stroke: #d62728; stroke-width: 1.5; stroke-linecap: square"/>
    </g>
    <g id="text_19">
     <!-- DNS TTL 20s -->
     <g transform="translate(340.680938 267.148062) scale(0.1 -0.1)">
      <use xlink:href="#DejaVuSans-44"/>
      <use xlink:href="#DejaVuSans-4e" x="77.001953"/>
      <use xlink:href="#DejaVuSans-53" x="151.806641"/>
      <use xlink:href="#DejaVuSans-20" x="215.283203"/>
      <use xlink:href="#DejaVuSans-54" x="247.070312"/>
      <use xlink:href="#DejaVuSans-54" x="306.404297"/>
      <use xlink:href="#DejaVuSans-4c" x="367.488281"/>
      <use xlink:href="#DejaVuSans-20" x="423.201172"/>
      <use xlink:href="#DejaVuSans-32" x="454.988281"/>
      <use xlink:href="#DejaVuSans-30" x="518.611328"/>
      <use xlink:href="#DejaVuSans-73" x="582.234375"/>
     </g>
    </g>
    <g id="line2d_26">
     <path d="M 312.680938 278.326188 
L 322.680938 278.326188 
L 332.680938 278.326188 
" style="fill: none; stroke: #9467bd; stroke-width: 1.5; stroke-linecap: square"/>
    </g>
    <g id="text_20">
     <!-- DNS TTL 40s -->
     <g transform="translate(340.680938 281.826188) scale(0.1 -0.1)">
      <use xlink:href="#DejaVuSans-44"/>
      <use xlink:href="#DejaVuSans-4e" x="77.001953"/>
      <use xlink:href="#DejaVuSans-53" x="151.806641"/>
      <use xlink:href="#DejaVuSans-20" x="215.283203"/>
      <use xlink:href="#DejaVuSans-54" x="247.070312"/>
      <use xlink:href="#DejaVuSans-54" x="306.404297"/>
      <use xlink:href="#DejaVuSans-4c" x="367.488281"/>
      <use xlink:href="#DejaVuSans-20" x="423.201172"/>
      <use xlink:href="#DejaVuSans-34" x="454.988281"/>
      <use xlink:href="#DejaVuSans-30" x="518.611328"/>
      <use xlink:href="#DejaVuSans-73" x="582.234375"/>
     </g>
    </g>
    <g id="line2d_27">
     <path d="M 312.680938 293.004312 
L 322.680938 293.004312 
L 332.680938 293.004312 
" style="fill: none; stroke: #8c564b; stroke-width: 1.5; stroke-linecap: square"/>
    </g>
    <g id="text_21">
     <!-- DNS TTL 60s -->
     <g transform="translate(340.680938 296.504312) scale(0.1 -0.1)">
      <use xlink:href="#DejaVuSans-44"/>
      <use xlink:href="#DejaVuSans-4e" x="77.001953"/>
      <use xlink:href="#DejaVuSans-53" x="151.806641"/>
      <use xlink:href="#DejaVuSans-20" x="215.283203"/>
      <use xlink:href="#DejaVuSans-54" x="247.070312"/>
      <use xlink:href="#DejaVuSans-54" x="306.404297"/>
      <use xlink:href="#DejaVuSans-4c" x="367.488281"/>
      <use xlink:href="#DejaVuSans-20" x="423.201172"/>
      <use xlink:href="#DejaVuSans-36" x="454.988281"/>
      <use xlink:href="#DejaVuSans-30" x="518.611328"/>
      <use xlink:href="#DejaVuSans-73" x="582.234375"/>
     </g>
    </g>
   </g>
  </g>
 </g>
 <defs>
  <clipPath id="p9bf72e767e">
   <rect x="57.6" y="41.472" width="357.12" height="266.112"/>
  </clipPath>
 </defs>
</svg>
