<?xml version="1.0" encoding="utf-8" standalone="no"?>
<!DOCTYPE svg PUBLIC "-//W3C//DTD SVG 1.1//EN"
  "http://www.w3.org/Graphics/SVG/1.1/DTD/svg11.dtd">
<svg xmlns:xlink="http://www.w3.org/1999/xlink" width="460.8pt" height="345.6pt" viewBox="0 0 460.8 345.6" xmlns="http://www.w3.org/2000/svg" version="1.1">
 <metadata>
  <rdf:RDF xmlns:dc="http://purl.org/dc/elements/1.1/" xmlns:cc="http://creativecommons.org/ns#" xmlns:rdf="http://www.w3.org/1999/02/22-rdf-syntax-ns#">
   <cc:Work>
    <dc:type rdf:resource="http://purl.org/dc/dcmitype/StillImage"/>
    <dc:date>2023-07-15T16:13:28.923376</dc:date>
    <dc:format>image/svg+xml</dc:format>
    <dc:creator>
     <cc:Agent>
      <dc:title>Matplotlib v3.7.1, https://matplotlib.org/</dc:title>
     </cc:Agent>
    </dc:creator>
   </cc:Work>
  </rdf:RDF>
 </metadata>
 <defs>
  <style type="text/css">*{stroke-linejoin: round; stroke-linecap: butt}</style>
 </defs>
 <g id="figure_1">
  <g id="patch_1">
   <path d="M 0 345.6 
L 460.8 345.6 
L 460.8 0 
L 0 0 
z
" style="fill: #ffffff"/>
  </g>
  <g id="axes_1">
   <g id="patch_2">
    <path d="M 57.6 307.584 
L 414.72 307.584 
L 414.72 41.472 
L 57.6 41.472 
z
" style="fill: #ffffff"/>
   </g>
   <g id="matplotlib.axis_1">
    <g id="xtick_1">
     <g id="line2d_1">
      <defs>
       <path id="m40a45ad654" d="M 0 0 
L 0 3.5 
" style="stroke: #000000; stroke-width: 0.8"/>
      </defs>
      <g>
       <use xlink:href="#m40a45ad654" x="101.555563" y="307.584" style="stroke: #000000; stroke-width: 0.8"/>
      </g>
     </g>
     <g id="text_1">
      <!-- 20 -->
      <g transform="translate(95.193063 322.182437) scale(0.1 -0.1)">
       <defs>
        <path id="DejaVuSans-32" d="M 1228 531 
L 3431 531 
L 3431 0 
L 469 0 
L 469 531 
Q 828 903 1448 1529 
Q 2069 2156 2228 2338 
Q 2531 2678 2651 2914 
Q 2772 3150 2772 3378 
Q 2772 3750 2511 3984 
Q 2250 4219 1831 4219 
Q 1534 4219 1204 4116 
Q 875 4013 500 3803 
L 500 4441 
Q 881 4594 1212 4672 
Q 1544 4750 1819 4750 
Q 2544 4750 2975 4387 
Q 3406 4025 3406 3419 
Q 3406 3131 3298 2873 
Q 3191 2616 2906 2266 
Q 2828 2175 2409 1742 
Q 1991 1309 1228 531 
z
" transform="scale(0.015625)"/>
        <path id="DejaVuSans-30" d="M 2034 4250 
Q 1547 4250 1301 3770 
Q 1056 3291 1056 2328 
Q 1056 1369 1301 889 
Q 1547 409 2034 409 
Q 2525 409 2770 889 
Q 3016 1369 3016 2328 
Q 3016 3291 2770 3770 
Q 2525 4250 2034 4250 
z
M 2034 4750 
Q 2819 4750 3233 4129 
Q 3647 3509 3647 2328 
Q 3647 1150 3233 529 
Q 2819 -91 2034 -91 
Q 1250 -91 836 529 
Q 422 1150 422 2328 
Q 422 3509 836 4129 
Q 1250 4750 2034 4750 
z
" transform="scale(0.015625)"/>
       </defs>
       <use xlink:href="#DejaVuSans-32"/>
       <use xlink:href="#DejaVuSans-30" x="63.623047"/>
      </g>
     </g>
    </g>
    <g id="xtick_2">
     <g id="line2d_2">
      <g>
       <use xlink:href="#m40a45ad654" x="169.02644" y="307.584" style="stroke: #000000; stroke-width: 0.8"/>
      </g>
     </g>
     <g id="text_2">
      <!-- 40 -->
      <g transform="translate(162.66394 322.182437) scale(0.1 -0.1)">
       <defs>
        <path id="DejaVuSans-34" d="M 2419 4116 
L 825 1625 
L 2419 1625 
L 2419 4116 
z
M 2253 4666 
L 3047 4666 
L 3047 1625 
L 3713 1625 
L 3713 1100 
L 3047 1100 
L 3047 0 
L 2419 0 
L 2419 1100 
L 313 1100 
L 313 1709 
L 2253 4666 
z
" transform="scale(0.015625)"/>
       </defs>
       <use xlink:href="#DejaVuSans-34"/>
       <use xlink:href="#DejaVuSans-30" x="63.623047"/>
      </g>
     </g>
    </g>
    <g id="xtick_3">
     <g id="line2d_3">
      <g>
       <use xlink:href="#m40a45ad654" x="236.497317" y="307.584" style="stroke: #000000; stroke-width: 0.8"/>
      </g>
     </g>
     <g id="text_3">
      <!-- 60 -->
      <g transform="translate(230.134817 322.182437) scale(0.1 -0.1)">
       <defs>
        <path id="DejaVuSans-36" d="M 2113 2584 
Q 1688 2584 1439 2293 
Q 1191 2003 1191 1497 
Q 1191 994 1439 701 
Q 1688 409 2113 409 
Q 2538 409 2786 701 
Q 3034 994 3034 1497 
Q 3034 2003 2786 2293 
Q 2538 2584 2113 2584 
z
M 3366 4563 
L 3366 3988 
Q 3128 4100 2886 4159 
Q 2644 4219 2406 4219 
Q 1781 4219 1451 3797 
Q 1122 3375 1075 2522 
Q 1259 2794 1537 2939 
Q 1816 3084 2150 3084 
Q 2853 3084 3261 2657 
Q 3669 2231 3669 1497 
Q 3669 778 3244 343 
Q 2819 -91 2113 -91 
Q 1303 -91 875 529 
Q 447 1150 447 2328 
Q 447 3434 972 4092 
Q 1497 4750 2381 4750 
Q 2619 4750 2861 4703 
Q 3103 4656 3366 4563 
z
" transform="scale(0.015625)"/>
       </defs>
       <use xlink:href="#DejaVuSans-36"/>
       <use xlink:href="#DejaVuSans-30" x="63.623047"/>
      </g>
     </g>
    </g>
    <g id="xtick_4">
     <g id="line2d_4">
      <g>
       <use xlink:href="#m40a45ad654" x="303.968195" y="307.584" style="stroke: #000000; stroke-width: 0.8"/>
      </g>
     </g>
     <g id="text_4">
      <!-- 80 -->
      <g transform="translate(297.605695 322.182437) scale(0.1 -0.1)">
       <defs>
        <path id="DejaVuSans-38" d="M 2034 2216 
Q 1584 2216 1326 1975 
Q 1069 1734 1069 1313 
Q 1069 891 1326 650 
Q 1584 409 2034 409 
Q 2484 409 2743 651 
Q 3003 894 3003 1313 
Q 3003 1734 2745 1975 
Q 2488 2216 2034 2216 
z
M 1403 2484 
Q 997 2584 770 2862 
Q 544 3141 544 3541 
Q 544 4100 942 4425 
Q 1341 4750 2034 4750 
Q 2731 4750 3128 4425 
Q 3525 4100 3525 3541 
Q 3525 3141 3298 2862 
Q 3072 2584 2669 2484 
Q 3125 2378 3379 2068 
Q 3634 1759 3634 1313 
Q 3634 634 3220 271 
Q 2806 -91 2034 -91 
Q 1263 -91 848 271 
Q 434 634 434 1313 
Q 434 1759 690 2068 
Q 947 2378 1403 2484 
z
M 1172 3481 
Q 1172 3119 1398 2916 
Q 1625 2713 2034 2713 
Q 2441 2713 2670 2916 
Q 2900 3119 2900 3481 
Q 2900 3844 2670 4047 
Q 2441 4250 2034 4250 
Q 1625 4250 1398 4047 
Q 1172 3844 1172 3481 
z
" transform="scale(0.015625)"/>
       </defs>
       <use xlink:href="#DejaVuSans-38"/>
       <use xlink:href="#DejaVuSans-30" x="63.623047"/>
      </g>
     </g>
    </g>
    <g id="xtick_5">
     <g id="line2d_5">
      <g>
       <use xlink:href="#m40a45ad654" x="371.439072" y="307.584" style="stroke: #000000; stroke-width: 0.8"/>
      </g>
     </g>
     <g id="text_5">
      <!-- 100 -->
      <g transform="translate(361.895322 322.182437) scale(0.1 -0.1)">
       <defs>
        <path id="DejaVuSans-31" d="M 794 531 
L 1825 531 
L 1825 4091 
L 703 3866 
L 703 4441 
L 1819 4666 
L 2450 4666 
L 2450 531 
L 3481 531 
L 3481 0 
L 794 0 
L 794 531 
z
" transform="scale(0.015625)"/>
       </defs>
       <use xlink:href="#DejaVuSans-31"/>
       <use xlink:href="#DejaVuSans-30" x="63.623047"/>
       <use xlink:href="#DejaVuSans-30" x="127.246094"/>
      </g>
     </g>
    </g>
    <g id="text_6">
     <!-- Response time (ms) -->
     <g transform="translate(186.295156 335.860562) scale(0.1 -0.1)">
      <defs>
       <path id="DejaVuSans-52" d="M 2841 2188 
Q 3044 2119 3236 1894 
Q 3428 1669 3622 1275 
L 4263 0 
L 3584 0 
L 2988 1197 
Q 2756 1666 2539 1819 
Q 2322 1972 1947 1972 
L 1259 1972 
L 1259 0 
L 628 0 
L 628 4666 
L 2053 4666 
Q 2853 4666 3247 4331 
Q 3641 3997 3641 3322 
Q 3641 2881 3436 2590 
Q 3231 2300 2841 2188 
z
M 1259 4147 
L 1259 2491 
L 2053 2491 
Q 2509 2491 2742 2702 
Q 2975 2913 2975 3322 
Q 2975 3731 2742 3939 
Q 2509 4147 2053 4147 
L 1259 4147 
z
" transform="scale(0.015625)"/>
       <path id="DejaVuSans-65" d="M 3597 1894 
L 3597 1613 
L 953 1613 
Q 991 1019 1311 708 
Q 1631 397 2203 397 
Q 2534 397 2845 478 
Q 3156 559 3463 722 
L 3463 178 
Q 3153 47 2828 -22 
Q 2503 -91 2169 -91 
Q 1331 -91 842 396 
Q 353 884 353 1716 
Q 353 2575 817 3079 
Q 1281 3584 2069 3584 
Q 2775 3584 3186 3129 
Q 3597 2675 3597 1894 
z
M 3022 2063 
Q 3016 2534 2758 2815 
Q 2500 3097 2075 3097 
Q 1594 3097 1305 2825 
Q 1016 2553 972 2059 
L 3022 2063 
z
" transform="scale(0.015625)"/>
       <path id="DejaVuSans-73" d="M 2834 3397 
L 2834 2853 
Q 2591 2978 2328 3040 
Q 2066 3103 1784 3103 
Q 1356 3103 1142 2972 
Q 928 2841 928 2578 
Q 928 2378 1081 2264 
Q 1234 2150 1697 2047 
L 1894 2003 
Q 2506 1872 2764 1633 
Q 3022 1394 3022 966 
Q 3022 478 2636 193 
Q 2250 -91 1575 -91 
Q 1294 -91 989 -36 
Q 684 19 347 128 
L 347 722 
Q 666 556 975 473 
Q 1284 391 1588 391 
Q 1994 391 2212 530 
Q 2431 669 2431 922 
Q 2431 1156 2273 1281 
Q 2116 1406 1581 1522 
L 1381 1569 
Q 847 1681 609 1914 
Q 372 2147 372 2553 
Q 372 3047 722 3315 
Q 1072 3584 1716 3584 
Q 2034 3584 2315 3537 
Q 2597 3491 2834 3397 
z
" transform="scale(0.015625)"/>
       <path id="DejaVuSans-70" d="M 1159 525 
L 1159 -1331 
L 581 -1331 
L 581 3500 
L 1159 3500 
L 1159 2969 
Q 1341 3281 1617 3432 
Q 1894 3584 2278 3584 
Q 2916 3584 3314 3078 
Q 3713 2572 3713 1747 
Q 3713 922 3314 415 
Q 2916 -91 2278 -91 
Q 1894 -91 1617 61 
Q 1341 213 1159 525 
z
M 3116 1747 
Q 3116 2381 2855 2742 
Q 2594 3103 2138 3103 
Q 1681 3103 1420 2742 
Q 1159 2381 1159 1747 
Q 1159 1113 1420 752 
Q 1681 391 2138 391 
Q 2594 391 2855 752 
Q 3116 1113 3116 1747 
z
" transform="scale(0.015625)"/>
       <path id="DejaVuSans-6f" d="M 1959 3097 
Q 1497 3097 1228 2736 
Q 959 2375 959 1747 
Q 959 1119 1226 758 
Q 1494 397 1959 397 
Q 2419 397 2687 759 
Q 2956 1122 2956 1747 
Q 2956 2369 2687 2733 
Q 2419 3097 1959 3097 
z
M 1959 3584 
Q 2709 3584 3137 3096 
Q 3566 2609 3566 1747 
Q 3566 888 3137 398 
Q 2709 -91 1959 -91 
Q 1206 -91 779 398 
Q 353 888 353 1747 
Q 353 2609 779 3096 
Q 1206 3584 1959 3584 
z
" transform="scale(0.015625)"/>
       <path id="DejaVuSans-6e" d="M 3513 2113 
L 3513 0 
L 2938 0 
L 2938 2094 
Q 2938 2591 2744 2837 
Q 2550 3084 2163 3084 
Q 1697 3084 1428 2787 
Q 1159 2491 1159 1978 
L 1159 0 
L 581 0 
L 581 3500 
L 1159 3500 
L 1159 2956 
Q 1366 3272 1645 3428 
Q 1925 3584 2291 3584 
Q 2894 3584 3203 3211 
Q 3513 2838 3513 2113 
z
" transform="scale(0.015625)"/>
       <path id="DejaVuSans-20" transform="scale(0.015625)"/>
       <path id="DejaVuSans-74" d="M 1172 4494 
L 1172 3500 
L 2356 3500 
L 2356 3053 
L 1172 3053 
L 1172 1153 
Q 1172 725 1289 603 
Q 1406 481 1766 481 
L 2356 481 
L 2356 0 
L 1766 0 
Q 1100 0 847 248 
Q 594 497 594 1153 
L 594 3053 
L 172 3053 
L 172 3500 
L 594 3500 
L 594 4494 
L 1172 4494 
z
" transform="scale(0.015625)"/>
       <path id="DejaVuSans-69" d="M 603 3500 
L 1178 3500 
L 1178 0 
L 603 0 
L 603 3500 
z
M 603 4863 
L 1178 4863 
L 1178 4134 
L 603 4134 
L 603 4863 
z
" transform="scale(0.015625)"/>
       <path id="DejaVuSans-6d" d="M 3328 2828 
Q 3544 3216 3844 3400 
Q 4144 3584 4550 3584 
Q 5097 3584 5394 3201 
Q 5691 2819 5691 2113 
L 5691 0 
L 5113 0 
L 5113 2094 
Q 5113 2597 4934 2840 
Q 4756 3084 4391 3084 
Q 3944 3084 3684 2787 
Q 3425 2491 3425 1978 
L 3425 0 
L 2847 0 
L 2847 2094 
Q 2847 2600 2669 2842 
Q 2491 3084 2119 3084 
Q 1678 3084 1418 2786 
Q 1159 2488 1159 1978 
L 1159 0 
L 581 0 
L 581 3500 
L 1159 3500 
L 1159 2956 
Q 1356 3278 1631 3431 
Q 1906 3584 2284 3584 
Q 2666 3584 2933 3390 
Q 3200 3197 3328 2828 
z
" transform="scale(0.015625)"/>
       <path id="DejaVuSans-28" d="M 1984 4856 
Q 1566 4138 1362 3434 
Q 1159 2731 1159 2009 
Q 1159 1288 1364 580 
Q 1569 -128 1984 -844 
L 1484 -844 
Q 1016 -109 783 600 
Q 550 1309 550 2009 
Q 550 2706 781 3412 
Q 1013 4119 1484 4856 
L 1984 4856 
z
" transform="scale(0.015625)"/>
       <path id="DejaVuSans-29" d="M 513 4856 
L 1013 4856 
Q 1481 4119 1714 3412 
Q 1947 2706 1947 2009 
Q 1947 1309 1714 600 
Q 1481 -109 1013 -844 
L 513 -844 
Q 928 -128 1133 580 
Q 1338 1288 1338 2009 
Q 1338 2731 1133 3434 
Q 928 4138 513 4856 
z
" transform="scale(0.015625)"/>
      </defs>
      <use xlink:href="#DejaVuSans-52"/>
      <use xlink:href="#DejaVuSans-65" x="64.982422"/>
      <use xlink:href="#DejaVuSans-73" x="126.505859"/>
      <use xlink:href="#DejaVuSans-70" x="178.605469"/>
      <use xlink:href="#DejaVuSans-6f" x="242.082031"/>
      <use xlink:href="#DejaVuSans-6e" x="303.263672"/>
      <use xlink:href="#DejaVuSans-73" x="366.642578"/>
      <use xlink:href="#DejaVuSans-65" x="418.742188"/>
      <use xlink:href="#DejaVuSans-20" x="480.265625"/>
      <use xlink:href="#DejaVuSans-74" x="512.052734"/>
      <use xlink:href="#DejaVuSans-69" x="551.261719"/>
      <use xlink:href="#DejaVuSans-6d" x="579.044922"/>
      <use xlink:href="#DejaVuSans-65" x="676.457031"/>
      <use xlink:href="#DejaVuSans-20" x="737.980469"/>
      <use xlink:href="#DejaVuSans-28" x="769.767578"/>
      <use xlink:href="#DejaVuSans-6d" x="808.78125"/>
      <use xlink:href="#DejaVuSans-73" x="906.193359"/>
      <use xlink:href="#DejaVuSans-29" x="958.292969"/>
     </g>
    </g>
   </g>
   <g id="matplotlib.axis_2">
    <g id="ytick_1">
     <g id="line2d_6">
      <defs>
       <path id="md44c108efd" d="M 0 0 
L -3.5 0 
" style="stroke: #000000; stroke-width: 0.8"/>
      </defs>
      <g>
       <use xlink:href="#md44c108efd" x="57.6" y="295.513203" style="stroke: #000000; stroke-width: 0.8"/>
      </g>
     </g>
     <g id="text_7">
      <!-- 0.0 -->
      <g transform="translate(34.696875 299.312421) scale(0.1 -0.1)">
       <defs>
        <path id="DejaVuSans-2e" d="M 684 794 
L 1344 794 
L 1344 0 
L 684 0 
L 684 794 
z
" transform="scale(0.015625)"/>
       </defs>
       <use xlink:href="#DejaVuSans-30"/>
       <use xlink:href="#DejaVuSans-2e" x="63.623047"/>
       <use xlink:href="#DejaVuSans-30" x="95.410156"/>
      </g>
     </g>
    </g>
    <g id="ytick_2">
     <g id="line2d_7">
      <g>
       <use xlink:href="#md44c108efd" x="57.6" y="247.124162" style="stroke: #000000; stroke-width: 0.8"/>
      </g>
     </g>
     <g id="text_8">
      <!-- 0.2 -->
      <g transform="translate(34.696875 250.923381) scale(0.1 -0.1)">
       <use xlink:href="#DejaVuSans-30"/>
       <use xlink:href="#DejaVuSans-2e" x="63.623047"/>
       <use xlink:href="#DejaVuSans-32" x="95.410156"/>
      </g>
     </g>
    </g>
    <g id="ytick_3">
     <g id="line2d_8">
      <g>
       <use xlink:href="#md44c108efd" x="57.6" y="198.735122" style="stroke: #000000; stroke-width: 0.8"/>
      </g>
     </g>
     <g id="text_9">
      <!-- 0.4 -->
      <g transform="translate(34.696875 202.53434) scale(0.1 -0.1)">
       <use xlink:href="#DejaVuSans-30"/>
       <use xlink:href="#DejaVuSans-2e" x="63.623047"/>
       <use xlink:href="#DejaVuSans-34" x="95.410156"/>
      </g>
     </g>
    </g>
    <g id="ytick_4">
     <g id="line2d_9">
      <g>
       <use xlink:href="#md44c108efd" x="57.6" y="150.346081" style="stroke: #000000; stroke-width: 0.8"/>
      </g>
     </g>
     <g id="text_10">
      <!-- 0.6 -->
      <g transform="translate(34.696875 154.1453) scale(0.1 -0.1)">
       <use xlink:href="#DejaVuSans-30"/>
       <use xlink:href="#DejaVuSans-2e" x="63.623047"/>
       <use xlink:href="#DejaVuSans-36" x="95.410156"/>
      </g>
     </g>
    </g>
    <g id="ytick_5">
     <g id="line2d_10">
      <g>
       <use xlink:href="#md44c108efd" x="57.6" y="101.957041" style="stroke: #000000; stroke-width: 0.8"/>
      </g>
     </g>
     <g id="text_11">
      <!-- 0.8 -->
      <g transform="translate(34.696875 105.756259) scale(0.1 -0.1)">
       <use xlink:href="#DejaVuSans-30"/>
       <use xlink:href="#DejaVuSans-2e" x="63.623047"/>
       <use xlink:href="#DejaVuSans-38" x="95.410156"/>
      </g>
     </g>
    </g>
    <g id="ytick_6">
     <g id="line2d_11">
      <g>
       <use xlink:href="#md44c108efd" x="57.6" y="53.568" style="stroke: #000000; stroke-width: 0.8"/>
      </g>
     </g>
     <g id="text_12">
      <!-- 1.0 -->
      <g transform="translate(34.696875 57.367219) scale(0.1 -0.1)">
       <use xlink:href="#DejaVuSans-31"/>
       <use xlink:href="#DejaVuSans-2e" x="63.623047"/>
       <use xlink:href="#DejaVuSans-30" x="95.410156"/>
      </g>
     </g>
    </g>
    <g id="text_13">
     <!-- Probability -->
     <g transform="translate(28.617187 200.956906) rotate(-90) scale(0.1 -0.1)">
      <defs>
       <path id="DejaVuSans-50" d="M 1259 4147 
L 1259 2394 
L 2053 2394 
Q 2494 2394 2734 2622 
Q 2975 2850 2975 3272 
Q 2975 3691 2734 3919 
Q 2494 4147 2053 4147 
L 1259 4147 
z
M 628 4666 
L 2053 4666 
Q 2838 4666 3239 4311 
Q 3641 3956 3641 3272 
Q 3641 2581 3239 2228 
Q 2838 1875 2053 1875 
L 1259 1875 
L 1259 0 
L 628 0 
L 628 4666 
z
" transform="scale(0.015625)"/>
       <path id="DejaVuSans-72" d="M 2631 2963 
Q 2534 3019 2420 3045 
Q 2306 3072 2169 3072 
Q 1681 3072 1420 2755 
Q 1159 2438 1159 1844 
L 1159 0 
L 581 0 
L 581 3500 
L 1159 3500 
L 1159 2956 
Q 1341 3275 1631 3429 
Q 1922 3584 2338 3584 
Q 2397 3584 2469 3576 
Q 2541 3569 2628 3553 
L 2631 2963 
z
" transform="scale(0.015625)"/>
       <path id="DejaVuSans-62" d="M 3116 1747 
Q 3116 2381 2855 2742 
Q 2594 3103 2138 3103 
Q 1681 3103 1420 2742 
Q 1159 2381 1159 1747 
Q 1159 1113 1420 752 
Q 1681 391 2138 391 
Q 2594 391 2855 752 
Q 3116 1113 3116 1747 
z
M 1159 2969 
Q 1341 3281 1617 3432 
Q 1894 3584 2278 3584 
Q 2916 3584 3314 3078 
Q 3713 2572 3713 1747 
Q 3713 922 3314 415 
Q 2916 -91 2278 -91 
Q 1894 -91 1617 61 
Q 1341 213 1159 525 
L 1159 0 
L 581 0 
L 581 4863 
L 1159 4863 
L 1159 2969 
z
" transform="scale(0.015625)"/>
       <path id="DejaVuSans-61" d="M 2194 1759 
Q 1497 1759 1228 1600 
Q 959 1441 959 1056 
Q 959 750 1161 570 
Q 1363 391 1709 391 
Q 2188 391 2477 730 
Q 2766 1069 2766 1631 
L 2766 1759 
L 2194 1759 
z
M 3341 1997 
L 3341 0 
L 2766 0 
L 2766 531 
Q 2569 213 2275 61 
Q 1981 -91 1556 -91 
Q 1019 -91 701 211 
Q 384 513 384 1019 
Q 384 1609 779 1909 
Q 1175 2209 1959 2209 
L 2766 2209 
L 2766 2266 
Q 2766 2663 2505 2880 
Q 2244 3097 1772 3097 
Q 1472 3097 1187 3025 
Q 903 2953 641 2809 
L 641 3341 
Q 956 3463 1253 3523 
Q 1550 3584 1831 3584 
Q 2591 3584 2966 3190 
Q 3341 2797 3341 1997 
z
" transform="scale(0.015625)"/>
       <path id="DejaVuSans-6c" d="M 603 4863 
L 1178 4863 
L 1178 0 
L 603 0 
L 603 4863 
z
" transform="scale(0.015625)"/>
       <path id="DejaVuSans-79" d="M 2059 -325 
Q 1816 -950 1584 -1140 
Q 1353 -1331 966 -1331 
L 506 -1331 
L 506 -850 
L 844 -850 
Q 1081 -850 1212 -737 
Q 1344 -625 1503 -206 
L 1606 56 
L 191 3500 
L 800 3500 
L 1894 763 
L 2988 3500 
L 3597 3500 
L 2059 -325 
z
" transform="scale(0.015625)"/>
      </defs>
      <use xlink:href="#DejaVuSans-50"/>
      <use xlink:href="#DejaVuSans-72" x="58.552734"/>
      <use xlink:href="#DejaVuSans-6f" x="97.416016"/>
      <use xlink:href="#DejaVuSans-62" x="158.597656"/>
      <use xlink:href="#DejaVuSans-61" x="222.074219"/>
      <use xlink:href="#DejaVuSans-62" x="283.353516"/>
      <use xlink:href="#DejaVuSans-69" x="346.830078"/>
      <use xlink:href="#DejaVuSans-6c" x="374.613281"/>
      <use xlink:href="#DejaVuSans-69" x="402.396484"/>
      <use xlink:href="#DejaVuSans-74" x="430.179688"/>
      <use xlink:href="#DejaVuSans-79" x="469.388672"/>
     </g>
    </g>
   </g>
   <g id="line2d_12">
    <path d="M 75.551663 295.488 
L 77.91313 295.160366 
L 77.973553 295.109961 
L 79.061413 294.857934 
L 79.168506 294.656313 
L 79.932125 293.774221 
L 80.322994 292.539293 
L 80.415726 292.287267 
L 80.537848 291.959632 
L 81.157949 289.464573 
L 81.389921 287.90201 
L 81.592216 286.389852 
L 81.726317 285.356545 
L 81.822939 284.600466 
L 82.06301 282.181014 
L 82.176446 280.643654 
L 82.261834 279.660751 
L 83.830424 251.156582 
L 83.945296 248.989156 
L 84.342558 238.832498 
L 85.738817 201.305789 
L 85.869026 197.096951 
L 86.15658 188.099614 
L 86.323523 182.807062 
L 86.517701 176.808838 
L 86.715711 170.432573 
L 87.058672 160.779968 
L 87.182579 156.923966 
L 87.381993 150.875336 
L 87.838433 137.946389 
L 87.869224 137.316324 
L 87.944659 135.07329 
L 88.225267 126.90764 
L 88.275068 125.924737 
L 88.44194 121.186644 
L 88.651329 115.541256 
L 88.820057 111.155999 
L 88.905644 108.988573 
L 89.026032 106.417905 
L 90.502922 81.517711 
L 90.594217 80.282783 
L 90.796765 77.812926 
L 91.212095 74.259355 
L 91.484357 72.217943 
L 91.592651 71.335851 
L 91.643808 70.983014 
L 91.764233 70.327746 
L 92.050674 68.261131 
L 92.155223 67.631065 
L 92.239332 67.303431 
L 92.504675 65.917286 
L 92.679401 65.0856 
L 92.792179 64.833573 
L 92.987409 64.203508 
L 93.135552 63.775063 
L 93.389687 62.792161 
L 93.507279 62.388919 
L 93.843102 61.784056 
L 94.15923 61.406016 
L 94.32227 61.15399 
L 94.438805 61.078382 
L 94.941015 60.624735 
L 94.995356 60.523925 
L 95.233326 60.347506 
L 95.679541 60.120683 
L 95.681734 60.09548 
L 96.019142 59.919062 
L 97.595457 59.087375 
L 98.330529 58.885754 
L 99.240263 58.55812 
L 99.368312 58.432107 
L 100.889264 58.129675 
L 102.958525 57.902852 
L 103.690284 57.701231 
L 105.583557 57.49961 
L 106.332828 57.272786 
L 106.351757 57.247583 
L 108.294362 56.844341 
L 108.30399 56.819139 
L 108.932623 56.617518 
L 109.336878 56.54191 
L 111.658956 56.16387 
L 113.834129 55.533805 
L 115.375757 55.281779 
L 115.412475 55.256576 
L 126.400239 54.576105 
L 149.697326 54.172863 
L 155.24971 53.694013 
L 251.334072 53.568 
L 251.334072 53.568 
" clip-path="url(#p6e89e80f66)" style="fill: none; stroke: #1f77b4; stroke-width: 1.5; stroke-linecap: square"/>
   </g>
   <g id="line2d_13">
    <path d="M 73.832727 295.488 
L 74.313592 295.437595 
L 77.960582 295.261176 
L 77.976333 295.235974 
L 78.966151 294.983947 
L 79.151281 294.883137 
L 79.510456 294.731921 
L 80.217689 294.253071 
L 80.514776 293.824627 
L 80.822454 293.396182 
L 80.954892 293.068548 
L 81.406087 291.531188 
L 81.538367 290.951527 
L 81.636753 290.623893 
L 81.787297 289.943422 
L 81.916764 289.338559 
L 83.407985 277.216097 
L 83.869854 271.192669 
L 83.982267 269.680512 
L 84.039523 268.924433 
L 85.565592 247.19977 
L 85.881896 242.10884 
L 85.910942 241.604787 
L 86.064469 239.336551 
L 86.229486 236.665073 
L 86.614839 230.616443 
L 86.783843 227.919762 
L 87.187707 221.493092 
L 87.339877 219.224856 
L 89.270769 194.349865 
L 89.344805 193.845812 
L 89.912647 189.082516 
L 89.974743 188.754882 
L 90.045308 188.124816 
L 90.243864 186.763875 
L 90.311845 186.43624 
L 90.603579 184.949286 
L 90.657205 184.772867 
L 90.708651 184.268815 
L 90.828132 183.865573 
L 91.124538 182.681049 
L 91.304446 181.849363 
L 91.953188 180.160787 
L 92.057667 179.984368 
L 92.898253 178.547819 
L 93.093639 178.3714 
L 93.151232 178.295792 
L 93.334672 178.094171 
L 93.488478 177.917753 
L 93.721482 177.79174 
L 93.844029 177.590119 
L 94.494003 177.186877 
L 99.359811 176.380393 
L 101.359998 176.203975 
L 104.791382 175.725125 
L 107.387982 175.498301 
L 108.914358 175.347085 
L 113.718801 174.969046 
L 114.30626 174.893438 
L 117.46078 174.591007 
L 142.516805 174.464993 
L 143.134572 174.212967 
L 143.308306 174.086954 
L 143.650471 173.910536 
L 143.904951 173.633307 
L 144.217631 173.255267 
L 144.310576 173.053646 
L 144.413432 172.80162 
L 144.563059 172.625202 
L 144.758623 172.297568 
L 145.705634 169.323658 
L 145.951478 168.164337 
L 146.00568 167.887108 
L 146.306752 166.248938 
L 146.417209 165.417251 
L 146.952 160.981589 
L 147.372586 156.67194 
L 147.536925 154.857351 
L 147.60697 154.050867 
L 147.924515 150.295676 
L 148.007481 149.337976 
L 148.144679 148.077845 
L 148.250696 146.666498 
L 148.466043 143.465764 
L 148.937411 137.039095 
L 148.984506 136.383827 
L 149.361995 131.318099 
L 149.422939 130.486412 
L 149.751545 125.798724 
L 149.794099 125.294672 
L 150.392873 114.759974 
L 150.506723 113.046196 
L 150.702611 109.618639 
L 150.760572 108.434115 
L 150.898678 106.669931 
L 151.050454 104.074061 
L 151.403506 98.756307 
L 151.450111 98.075836 
L 151.615995 96.034424 
L 152.98307 78.266573 
L 153.184366 76.603199 
L 153.322189 75.141447 
L 153.545821 73.175642 
L 154.552159 66.118907 
L 154.791407 64.808371 
L 154.912103 63.976684 
L 155.390518 62.086487 
L 155.472377 61.733651 
L 155.619042 61.355611 
L 155.712655 60.977572 
L 156.797215 58.381701 
L 158.279274 56.617518 
L 159.251495 56.16387 
L 160.16385 55.911844 
L 160.168921 55.886642 
L 161.907318 55.634615 
L 162.337728 55.559007 
L 163.354184 55.357386 
L 163.46322 55.281779 
L 165.174872 54.903739 
L 170.292393 54.651713 
L 175.726517 54.122458 
L 175.773201 54.072053 
L 178.755781 53.769621 
L 186.502197 53.593203 
L 215.079824 53.568 
L 215.079824 53.568 
" clip-path="url(#p6e89e80f66)" style="fill: none; stroke: #ff7f0e; stroke-width: 1.5; stroke-linecap: square"/>
   </g>
   <g id="line2d_14">
    <path d="M 139.499518 295.488 
L 147.03562 295.336784 
L 149.194911 295.185568 
L 150.476638 294.807529 
L 151.105504 294.580705 
L 151.734062 294.227869 
L 151.817392 294.076653 
L 152.394919 293.673411 
L 152.540704 293.547398 
L 153.190914 292.866927 
L 153.374489 292.640103 
L 153.923563 291.808417 
L 154.059163 291.430377 
L 154.124046 291.279162 
L 154.330463 290.749906 
L 154.391167 290.548285 
L 154.622791 289.993828 
L 154.851153 289.514978 
L 155.180465 288.506873 
L 157.382498 275.477116 
L 157.542576 273.738134 
L 157.593878 273.360095 
L 157.728624 272.074761 
L 157.782715 271.469898 
L 157.917482 270.033348 
L 158.26269 266.051334 
L 159.48319 251.408608 
L 159.598157 249.846046 
L 159.645401 249.21598 
L 159.894614 245.612005 
L 160.079859 243.142147 
L 160.206907 240.899114 
L 160.319279 238.908106 
L 160.535955 235.455347 
L 160.662949 232.935084 
L 163.438397 182.202199 
L 163.569234 179.606329 
L 163.873777 174.137359 
L 163.989844 171.818718 
L 164.115107 169.14724 
L 166.056784 134.392819 
L 166.128674 133.258701 
L 166.240719 131.696138 
L 167.176446 116.725779 
L 167.386564 113.751869 
L 167.632026 110.601541 
L 168.792174 97.34496 
L 168.816568 96.992123 
L 169.044408 94.345848 
L 169.127302 93.488958 
L 169.519841 89.532146 
L 169.628537 88.725662 
L 169.724312 87.74276 
L 169.841687 86.911073 
L 170.77234 80.181972 
L 170.841835 79.77873 
L 171.006218 78.594207 
L 172.491086 70.705785 
L 172.879361 69.445654 
L 173.412614 67.555457 
L 173.650847 66.698568 
L 173.707623 66.496947 
L 173.816569 66.169313 
L 174.04238 65.589652 
L 174.199226 65.236816 
L 174.382238 64.934384 
L 174.545629 64.581547 
L 174.707164 64.304318 
L 175.981847 61.884866 
L 176.087638 61.733651 
L 176.205098 61.506827 
L 176.438673 61.103585 
L 176.594969 60.952369 
L 176.701387 60.725546 
L 176.99886 60.498722 
L 177.09456 60.347506 
L 177.137273 60.246696 
L 177.498468 60.09548 
L 177.623701 59.893859 
L 177.757576 59.692238 
L 178.357349 59.162983 
L 180.970911 57.398799 
L 181.673549 57.222381 
L 181.674214 57.197178 
L 182.413917 56.970354 
L 184.17319 56.340289 
L 186.182196 55.987452 
L 186.289151 55.937047 
L 186.334451 55.886642 
L 188.402858 55.659818 
L 188.570051 55.609413 
L 193.653071 55.180968 
L 197.570342 54.979347 
L 202.519017 54.777726 
L 202.673596 54.727321 
L 206.374944 54.550902 
L 206.432979 54.5257 
L 218.217284 54.14766 
L 354.457296 54.021647 
L 369.064755 53.593203 
L 372.764473 53.568 
L 372.764473 53.568 
" clip-path="url(#p6e89e80f66)" style="fill: none; stroke: #2ca02c; stroke-width: 1.5; stroke-linecap: square"/>
   </g>
   <g id="line2d_15">
    <path d="M 135.76239 295.488 
L 146.550292 295.286379 
L 148.931626 295.059555 
L 149.006852 295.00915 
L 150.49328 294.757124 
L 150.598113 294.706719 
L 151.341999 294.505098 
L 151.348436 294.479895 
L 151.666713 294.328679 
L 151.766816 294.227869 
L 152.072206 294.026248 
L 152.288035 293.673411 
L 152.475756 293.522195 
L 152.670234 293.345777 
L 152.745242 293.194561 
L 153.036608 292.967737 
L 153.168716 292.766116 
L 153.294994 292.51409 
L 153.414043 292.438482 
L 153.686295 292.010038 
L 153.869259 291.631998 
L 154.29579 290.87592 
L 154.447697 290.623893 
L 155.35734 287.448363 
L 155.541552 286.641879 
L 155.593572 286.440258 
L 155.64708 286.137826 
L 155.783698 285.558166 
L 157.02354 277.34211 
L 159.255119 253.046779 
L 159.366024 251.71104 
L 159.418594 251.030569 
L 159.537538 249.039562 
L 159.741256 246.015247 
L 160.031321 241.403166 
L 160.143592 239.512969 
L 160.751457 230.087187 
L 160.779323 229.53273 
L 160.957797 226.306794 
L 161.134223 223.282479 
L 161.351354 219.023235 
L 161.390909 218.342764 
L 161.512681 215.973717 
L 161.884159 209.421035 
L 161.97516 207.782864 
L 162.121427 204.607333 
L 163.679424 173.960941 
L 163.726491 173.154457 
L 163.904611 169.575684 
L 164.032755 166.879003 
L 164.176141 164.15712 
L 164.288827 162.266923 
L 165.878482 134.241604 
L 165.931726 133.435119 
L 168.564524 100.092046 
L 168.88217 96.7653 
L 168.992296 95.681587 
L 169.267497 92.934501 
L 169.432534 91.472748 
L 169.512561 90.767075 
L 169.666212 89.632957 
L 169.798543 88.524041 
L 169.907168 87.566341 
L 172.060788 74.965029 
L 172.128886 74.612192 
L 172.230457 74.360166 
L 172.334925 73.931721 
L 172.561728 72.948819 
L 173.347626 70.378151 
L 173.484733 70.100922 
L 174.552059 67.303431 
L 174.695417 66.950594 
L 175.216259 65.917286 
L 175.27511 65.766071 
L 175.387257 65.337626 
L 175.474176 65.18641 
L 175.642759 64.808371 
L 176.267937 64.027089 
L 176.623175 63.775063 
L 178.688766 61.305206 
L 178.943856 61.15399 
L 179.512602 60.901964 
L 179.633995 60.851559 
L 180.111261 60.498722 
L 180.953027 59.919062 
L 181.218455 59.717441 
L 181.802773 59.364604 
L 182.271381 59.13778 
L 182.308733 59.087375 
L 185.243733 58.381701 
L 186.509339 58.003662 
L 188.613732 57.827244 
L 188.891327 57.726433 
L 190.974693 57.575217 
L 196.220948 57.373596 
L 196.444138 57.348394 
L 200.868582 57.197178 
L 202.016211 57.12157 
L 209.270588 56.819139 
L 209.299382 56.793936 
L 217.932476 56.667923 
L 226.097957 56.617518 
L 350.848249 56.415897 
L 352.263116 56.239478 
L 352.304075 56.214276 
L 353.151175 56.037857 
L 353.156677 56.012655 
L 353.947304 55.836236 
L 354.037493 55.785831 
L 357.264307 55.130563 
L 357.46192 55.054955 
L 357.944707 54.878537 
L 361.672787 54.349281 
L 361.690613 54.324079 
L 362.810815 54.172863 
L 364.692561 53.920837 
L 376.082394 53.618405 
L 382.097848 53.568 
L 382.097848 53.568 
" clip-path="url(#p6e89e80f66)" style="fill: none; stroke: #d62728; stroke-width: 1.5; stroke-linecap: square"/>
   </g>
   <g id="line2d_16">
    <path d="M 139.013575 295.488 
L 143.287613 295.336784 
L 147.522176 295.160366 
L 149.231551 294.883137 
L 150.436048 294.5303 
L 150.965387 294.202666 
L 152.381152 292.967737 
L 152.942037 292.161253 
L 153.244189 291.783214 
L 153.474825 291.153148 
L 153.781152 290.573488 
L 153.886849 290.145043 
L 153.967321 289.943422 
L 154.114543 289.514978 
L 154.218542 289.136938 
L 156.118954 280.164804 
L 156.665947 276.056776 
L 156.703063 275.678737 
L 156.842178 274.695834 
L 157.316181 270.764225 
L 158.875285 251.837053 
L 159.126732 248.485104 
L 159.165089 248.15747 
L 159.363177 245.612005 
L 159.500389 243.696605 
L 160.002993 235.455347 
L 160.110501 233.993594 
L 161.941347 201.98626 
L 162.071694 199.440795 
L 163.499745 171.869123 
L 163.673429 168.315553 
L 163.802929 165.719682 
L 164.232084 157.680045 
L 164.362897 155.865456 
L 164.389038 155.462214 
L 164.598185 151.656618 
L 165.072306 143.717791 
L 165.153834 142.583672 
L 165.336107 139.508952 
L 165.397144 138.400037 
L 165.551329 135.904977 
L 166.450051 122.169546 
L 166.539463 121.085833 
L 166.7117 118.515165 
L 166.819626 117.129021 
L 167.108307 113.298222 
L 167.298737 110.929175 
L 167.602892 107.299997 
L 167.657125 106.871552 
L 167.769754 105.435003 
L 168.081966 102.259472 
L 168.306708 99.991236 
L 168.731825 96.084829 
L 169.167296 92.25403 
L 169.24483 91.649167 
L 169.445839 89.960591 
L 169.517044 89.506944 
L 169.999309 86.104589 
L 170.042555 85.852563 
L 170.225421 84.693242 
L 170.298445 84.214392 
L 170.717348 81.744535 
L 170.845306 81.341293 
L 170.957885 80.63562 
L 171.040672 80.282783 
L 171.160234 79.350286 
L 171.403706 78.266573 
L 171.464868 77.989344 
L 171.603335 77.586102 
L 171.667078 77.384481 
L 171.803126 76.603199 
L 171.900004 76.174755 
L 172.01794 75.670702 
L 172.322406 74.486179 
L 172.432893 74.057734 
L 172.515983 73.654492 
L 172.659487 73.276453 
L 172.78168 73.049629 
L 172.817096 72.797603 
L 172.963312 72.293551 
L 173.071559 72.066727 
L 173.254368 71.436661 
L 173.714128 70.504164 
L 174.194804 69.11802 
L 174.518782 68.563562 
L 174.640432 68.336738 
L 175.095051 67.782281 
L 175.220246 67.555457 
L 176.534404 65.740868 
L 176.785547 65.56445 
L 176.883842 65.463639 
L 177.253437 65.0856 
L 177.408867 64.909181 
L 177.692841 64.757966 
L 177.748043 64.70756 
L 178.350976 64.405129 
L 178.461625 64.279116 
L 179.183756 63.901076 
L 179.569294 63.623847 
L 180.748554 62.968579 
L 181.550924 62.69135 
L 182.821262 62.2125 
L 183.228938 61.935272 
L 184.000606 61.708448 
L 184.459675 61.506827 
L 186.858382 61.078382 
L 193.669591 60.498722 
L 196.928657 60.271898 
L 202.255348 60.070277 
L 210.028276 59.919062 
L 214.639853 59.843454 
L 233.476339 59.717441 
L 271.49689 59.61663 
L 345.232806 59.490617 
L 348.045731 59.263793 
L 350.268306 58.885754 
L 350.337406 58.810146 
L 351.19489 58.583322 
L 351.934273 58.230486 
L 352.081886 58.154878 
L 353.283833 57.902852 
L 353.348625 57.827244 
L 354.266958 57.49961 
L 354.303972 57.449204 
L 354.59963 57.297989 
L 354.670609 57.197178 
L 355.916189 56.743531 
L 356.134609 56.516707 
L 356.374529 56.415897 
L 356.989428 56.264681 
L 357.730737 55.987452 
L 358.040452 55.760628 
L 358.606033 55.58421 
L 361.299407 54.676916 
L 362.283021 54.475295 
L 362.323874 54.450092 
L 363.759226 54.273674 
L 365.243174 54.072053 
L 366.827447 53.920837 
L 367.163732 53.870432 
L 367.748462 53.820026 
L 375.293255 53.643608 
L 375.609079 53.593203 
L 381.813633 53.568 
L 381.813633 53.568 
" clip-path="url(#p6e89e80f66)" style="fill: none; stroke: #9467bd; stroke-width: 1.5; stroke-linecap: square"/>
   </g>
   <g id="line2d_17">
    <path d="M 142.012103 295.488 
L 143.155839 295.437595 
L 147.19559 295.261176 
L 149.095479 294.958745 
L 149.86939 294.631111 
L 150.207304 294.404287 
L 150.744477 294.253071 
L 150.938803 294.076653 
L 152.253433 292.917332 
L 152.463352 292.488888 
L 152.838952 292.010038 
L 153.084303 291.606796 
L 153.221728 291.253959 
L 153.60675 290.271057 
L 153.71302 289.968625 
L 154.126543 288.809304 
L 154.26027 288.280049 
L 154.34331 288.103631 
L 154.653693 286.969513 
L 154.764517 286.616676 
L 155.024816 285.306139 
L 155.138451 284.751682 
L 155.244015 284.146819 
L 155.313764 283.86959 
L 155.424601 283.214321 
L 155.549831 282.458243 
L 155.672638 281.85338 
L 155.738027 281.500543 
L 155.886139 280.366425 
L 156.372368 276.938868 
L 157.788858 264.564379 
L 157.955761 262.926208 
L 158.287934 259.523854 
L 158.444965 257.230415 
L 158.621773 254.911773 
L 158.887473 251.055772 
L 158.999272 249.21598 
L 159.366742 244.477886 
L 159.388657 244.049442 
L 159.51165 242.10884 
L 159.653909 239.764996 
L 159.823315 237.320341 
L 159.859314 236.816288 
L 159.915028 236.06021 
L 165.683484 131.166883 
L 165.831448 129.175876 
L 165.996704 126.983247 
L 166.072002 126.075953 
L 166.548376 119.296447 
L 166.618799 118.036315 
L 166.756268 116.196524 
L 168.021465 101.478191 
L 168.343925 98.30266 
L 168.646663 95.505168 
L 168.733421 94.723887 
L 168.974798 93.085716 
L 169.024747 92.682474 
L 169.210116 91.346735 
L 169.465743 89.506944 
L 169.692057 87.793165 
L 169.865133 86.533034 
L 170.00019 85.751752 
L 170.147813 84.743647 
L 170.19934 84.516824 
L 170.360771 83.659935 
L 170.481547 83.080274 
L 170.701324 82.223385 
L 170.843839 81.366496 
L 171.321303 79.451096 
L 171.450217 78.947044 
L 171.628805 78.064952 
L 172.193968 76.12435 
L 172.274326 75.847121 
L 172.403357 75.544689 
L 173.071822 73.679695 
L 173.202773 73.478074 
L 173.451207 72.7724 
L 173.610196 72.419564 
L 173.720291 72.167537 
L 173.82701 72.016322 
L 173.954773 71.71389 
L 174.151535 71.23504 
L 174.336125 70.907406 
L 174.414823 70.831798 
L 174.526791 70.705785 
L 174.719289 70.352948 
L 174.903933 70.025314 
L 175.047288 69.848896 
L 175.230954 69.59687 
L 175.60902 69.244033 
L 175.686453 69.092817 
L 175.88754 68.941601 
L 176.614029 68.16032 
L 176.974634 67.757078 
L 177.118334 67.605862 
L 177.210242 67.404241 
L 177.277305 67.303431 
L 177.490567 67.152215 
L 178.31273 66.597757 
L 178.541237 66.446542 
L 178.642433 66.270123 
L 179.544161 65.841679 
L 179.605874 65.766071 
L 180.353319 65.539247 
L 180.572269 65.362829 
L 181.679696 64.808371 
L 182.360119 64.631952 
L 182.383295 64.60675 
L 190.50827 63.54824 
L 200.396485 63.1702 
L 209.193908 62.867769 
L 209.888116 62.792161 
L 219.495503 62.69135 
L 242.712576 62.640945 
L 347.756295 62.514932 
L 347.76455 62.489729 
L 348.87902 62.288108 
L 348.929205 62.262906 
L 349.681586 62.136893 
L 349.876567 62.086487 
L 350.656588 61.809258 
L 351.256869 61.607637 
L 351.964274 61.406016 
L 351.997642 61.355611 
L 352.478406 61.128788 
L 352.56995 60.952369 
L 353.979569 60.171088 
L 354.170734 59.994669 
L 354.576716 59.767846 
L 355.400715 59.339401 
L 355.626624 59.213388 
L 355.869796 59.062172 
L 356.164684 58.835349 
L 356.3562 58.65893 
L 356.900913 58.331296 
L 358.071893 57.197178 
L 358.445658 57.045962 
L 358.801935 56.667923 
L 359.029366 56.491505 
L 360.702138 55.407792 
L 361.036004 55.256576 
L 361.252916 55.130563 
L 362.953958 54.676916 
L 363.067724 54.601308 
L 364.15915 54.399687 
L 364.360263 54.324079 
L 366.273194 54.04685 
L 379.733823 53.618405 
L 398.487273 53.568 
L 398.487273 53.568 
" clip-path="url(#p6e89e80f66)" style="fill: none; stroke: #8c564b; stroke-width: 1.5; stroke-linecap: square"/>
   </g>
   <g id="patch_3">
    <path d="M 57.6 307.584 
L 57.6 41.472 
" style="fill: none; stroke: #000000; stroke-width: 0.8; stroke-linejoin: miter; stroke-linecap: square"/>
   </g>
   <g id="patch_4">
    <path d="M 414.72 307.584 
L 414.72 41.472 
" style="fill: none; stroke: #000000; stroke-width: 0.8; stroke-linejoin: miter; stroke-linecap: square"/>
   </g>
   <g id="patch_5">
    <path d="M 57.6 307.584 
L 414.72 307.584 
" style="fill: none; stroke: #000000; stroke-width: 0.8; stroke-linejoin: miter; stroke-linecap: square"/>
   </g>
   <g id="patch_6">
    <path d="M 57.6 41.472 
L 414.72 41.472 
" style="fill: none; stroke: #000000; stroke-width: 0.8; stroke-linejoin: miter; stroke-linecap: square"/>
   </g>
   <g id="legend_1">
    <g id="patch_7">
     <path d="M 310.680938 302.584 
L 407.72 302.584 
Q 409.72 302.584 409.72 300.584 
L 409.72 213.51525 
Q 409.72 211.51525 407.72 211.51525 
L 310.680938 211.51525 
Q 308.680938 211.51525 308.680938 213.51525 
L 308.680938 300.584 
Q 308.680938 302.584 310.680938 302.584 
z
" style="fill: #ffffff; opacity: 0.8; stroke: #cccccc; stroke-linejoin: miter"/>
    </g>
    <g id="line2d_18">
     <path d="M 312.680938 219.613687 
L 322.680938 219.613687 
L 332.680938 219.613687 
" style="fill: none; stroke: #1f77b4; stroke-width: 1.5; stroke-linecap: square"/>
    </g>
    <g id="text_14">
     <!-- Alt-Svc -->
     <g transform="translate(340.680938 223.113687) scale(0.1 -0.1)">
      <defs>
       <path id="DejaVuSans-41" d="M 2188 4044 
L 1331 1722 
L 3047 1722 
L 2188 4044 
z
M 1831 4666 
L 2547 4666 
L 4325 0 
L 3669 0 
L 3244 1197 
L 1141 1197 
L 716 0 
L 50 0 
L 1831 4666 
z
" transform="scale(0.015625)"/>
       <path id="DejaVuSans-2d" d="M 313 2009 
L 1997 2009 
L 1997 1497 
L 313 1497 
L 313 2009 
z
" transform="scale(0.015625)"/>
       <path id="DejaVuSans-53" d="M 3425 4513 
L 3425 3897 
Q 3066 4069 2747 4153 
Q 2428 4238 2131 4238 
Q 1616 4238 1336 4038 
Q 1056 3838 1056 3469 
Q 1056 3159 1242 3001 
Q 1428 2844 1947 2747 
L 2328 2669 
Q 3034 2534 3370 2195 
Q 3706 1856 3706 1288 
Q 3706 609 3251 259 
Q 2797 -91 1919 -91 
Q 1588 -91 1214 -16 
Q 841 59 441 206 
L 441 856 
Q 825 641 1194 531 
Q 1563 422 1919 422 
Q 2459 422 2753 634 
Q 3047 847 3047 1241 
Q 3047 1584 2836 1778 
Q 2625 1972 2144 2069 
L 1759 2144 
Q 1053 2284 737 2584 
Q 422 2884 422 3419 
Q 422 4038 858 4394 
Q 1294 4750 2059 4750 
Q 2388 4750 2728 4690 
Q 3069 4631 3425 4513 
z
" transform="scale(0.015625)"/>
       <path id="DejaVuSans-76" d="M 191 3500 
L 800 3500 
L 1894 563 
L 2988 3500 
L 3597 3500 
L 2284 0 
L 1503 0 
L 191 3500 
z
" transform="scale(0.015625)"/>
       <path id="DejaVuSans-63" d="M 3122 3366 
L 3122 2828 
Q 2878 2963 2633 3030 
Q 2388 3097 2138 3097 
Q 1578 3097 1268 2742 
Q 959 2388 959 1747 
Q 959 1106 1268 751 
Q 1578 397 2138 397 
Q 2388 397 2633 464 
Q 2878 531 3122 666 
L 3122 134 
Q 2881 22 2623 -34 
Q 2366 -91 2075 -91 
Q 1284 -91 818 406 
Q 353 903 353 1747 
Q 353 2603 823 3093 
Q 1294 3584 2113 3584 
Q 2378 3584 2631 3529 
Q 2884 3475 3122 3366 
z
" transform="scale(0.015625)"/>
      </defs>
      <use xlink:href="#DejaVuSans-41"/>
      <use xlink:href="#DejaVuSans-6c" x="68.408203"/>
      <use xlink:href="#DejaVuSans-74" x="96.191406"/>
      <use xlink:href="#DejaVuSans-2d" x="135.400391"/>
      <use xlink:href="#DejaVuSans-53" x="171.484375"/>
      <use xlink:href="#DejaVuSans-76" x="234.960938"/>
      <use xlink:href="#DejaVuSans-63" x="294.140625"/>
     </g>
    </g>
    <g id="line2d_19">
     <path d="M 312.680938 234.291812 
L 322.680938 234.291812 
L 332.680938 234.291812 
" style="fill: none; stroke: #ff7f0e; stroke-width: 1.5; stroke-linecap: square"/>
    </g>
    <g id="text_15">
     <!-- No migration -->
     <g transform="translate(340.680938 237.791812) scale(0.1 -0.1)">
      <defs>
       <path id="DejaVuSans-4e" d="M 628 4666 
L 1478 4666 
L 3547 763 
L 3547 4666 
L 4159 4666 
L 4159 0 
L 3309 0 
L 1241 3903 
L 1241 0 
L 628 0 
L 628 4666 
z
" transform="scale(0.015625)"/>
       <path id="DejaVuSans-67" d="M 2906 1791 
Q 2906 2416 2648 2759 
Q 2391 3103 1925 3103 
Q 1463 3103 1205 2759 
Q 947 2416 947 1791 
Q 947 1169 1205 825 
Q 1463 481 1925 481 
Q 2391 481 2648 825 
Q 2906 1169 2906 1791 
z
M 3481 434 
Q 3481 -459 3084 -895 
Q 2688 -1331 1869 -1331 
Q 1566 -1331 1297 -1286 
Q 1028 -1241 775 -1147 
L 775 -588 
Q 1028 -725 1275 -790 
Q 1522 -856 1778 -856 
Q 2344 -856 2625 -561 
Q 2906 -266 2906 331 
L 2906 616 
Q 2728 306 2450 153 
Q 2172 0 1784 0 
Q 1141 0 747 490 
Q 353 981 353 1791 
Q 353 2603 747 3093 
Q 1141 3584 1784 3584 
Q 2172 3584 2450 3431 
Q 2728 3278 2906 2969 
L 2906 3500 
L 3481 3500 
L 3481 434 
z
" transform="scale(0.015625)"/>
      </defs>
      <use xlink:href="#DejaVuSans-4e"/>
      <use xlink:href="#DejaVuSans-6f" x="74.804688"/>
      <use xlink:href="#DejaVuSans-20" x="135.986328"/>
      <use xlink:href="#DejaVuSans-6d" x="167.773438"/>
      <use xlink:href="#DejaVuSans-69" x="265.185547"/>
      <use xlink:href="#DejaVuSans-67" x="292.96875"/>
      <use xlink:href="#DejaVuSans-72" x="356.445312"/>
      <use xlink:href="#DejaVuSans-61" x="397.558594"/>
      <use xlink:href="#DejaVuSans-74" x="458.837891"/>
      <use xlink:href="#DejaVuSans-69" x="498.046875"/>
      <use xlink:href="#DejaVuSans-6f" x="525.830078"/>
      <use xlink:href="#DejaVuSans-6e" x="587.011719"/>
     </g>
    </g>
    <g id="line2d_20">
     <path d="M 312.680938 248.969937 
L 322.680938 248.969937 
L 332.680938 248.969937 
" style="fill: none; stroke: #2ca02c; stroke-width: 1.5; stroke-linecap: square"/>
    </g>
    <g id="text_16">
     <!-- DNS TTL 1s -->
     <g transform="translate(340.680938 252.469937) scale(0.1 -0.1)">
      <defs>
       <path id="DejaVuSans-44" d="M 1259 4147 
L 1259 519 
L 2022 519 
Q 2988 519 3436 956 
Q 3884 1394 3884 2338 
Q 3884 3275 3436 3711 
Q 2988 4147 2022 4147 
L 1259 4147 
z
M 628 4666 
L 1925 4666 
Q 3281 4666 3915 4102 
Q 4550 3538 4550 2338 
Q 4550 1131 3912 565 
Q 3275 0 1925 0 
L 628 0 
L 628 4666 
z
" transform="scale(0.015625)"/>
       <path id="DejaVuSans-54" d="M -19 4666 
L 3928 4666 
L 3928 4134 
L 2272 4134 
L 2272 0 
L 1638 0 
L 1638 4134 
L -19 4134 
L -19 4666 
z
" transform="scale(0.015625)"/>
       <path id="DejaVuSans-4c" d="M 628 4666 
L 1259 4666 
L 1259 531 
L 3531 531 
L 3531 0 
L 628 0 
L 628 4666 
z
" transform="scale(0.015625)"/>
      </defs>
      <use xlink:href="#DejaVuSans-44"/>
      <use xlink:href="#DejaVuSans-4e" x="77.001953"/>
      <use xlink:href="#DejaVuSans-53" x="151.806641"/>
      <use xlink:href="#DejaVuSans-20" x="215.283203"/>
      <use xlink:href="#DejaVuSans-54" x="247.070312"/>
      <use xlink:href="#DejaVuSans-54" x="306.404297"/>
      <use xlink:href="#DejaVuSans-4c" x="367.488281"/>
      <use xlink:href="#DejaVuSans-20" x="423.201172"/>
      <use xlink:href="#DejaVuSans-31" x="454.988281"/>
      <use xlink:href="#DejaVuSans-73" x="518.611328"/>
     </g>
    </g>
    <g id="line2d_21">
     <path d="M 312.680938 263.648062 
L 322.680938 263.648062 
L 332.680938 263.648062 
" style="fill: none; stroke: #d62728; stroke-width: 1.5; stroke-linecap: square"/>
    </g>
    <g id="text_17">
     <!-- DNS TTL 20s -->
     <g transform="translate(340.680938 267.148062) scale(0.1 -0.1)">
      <use xlink:href="#DejaVuSans-44"/>
      <use xlink:href="#DejaVuSans-4e" x="77.001953"/>
      <use xlink:href="#DejaVuSans-53" x="151.806641"/>
      <use xlink:href="#DejaVuSans-20" x="215.283203"/>
      <use xlink:href="#DejaVuSans-54" x="247.070312"/>
      <use xlink:href="#DejaVuSans-54" x="306.404297"/>
      <use xlink:href="#DejaVuSans-4c" x="367.488281"/>
      <use xlink:href="#DejaVuSans-20" x="423.201172"/>
      <use xlink:href="#DejaVuSans-32" x="454.988281"/>
      <use xlink:href="#DejaVuSans-30" x="518.611328"/>
      <use xlink:href="#DejaVuSans-73" x="582.234375"/>
     </g>
    </g>
    <g id="line2d_22">
     <path d="M 312.680938 278.326188 
L 322.680938 278.326188 
L 332.680938 278.326188 
" style="fill: none; stroke: #9467bd; stroke-width: 1.5; stroke-linecap: square"/>
    </g>
    <g id="text_18">
     <!-- DNS TTL 40s -->
     <g transform="translate(340.680938 281.826188) scale(0.1 -0.1)">
      <use xlink:href="#DejaVuSans-44"/>
      <use xlink:href="#DejaVuSans-4e" x="77.001953"/>
      <use xlink:href="#DejaVuSans-53" x="151.806641"/>
      <use xlink:href="#DejaVuSans-20" x="215.283203"/>
      <use xlink:href="#DejaVuSans-54" x="247.070312"/>
      <use xlink:href="#DejaVuSans-54" x="306.404297"/>
      <use xlink:href="#DejaVuSans-4c" x="367.488281"/>
      <use xlink:href="#DejaVuSans-20" x="423.201172"/>
      <use xlink:href="#DejaVuSans-34" x="454.988281"/>
      <use xlink:href="#DejaVuSans-30" x="518.611328"/>
      <use xlink:href="#DejaVuSans-73" x="582.234375"/>
     </g>
    </g>
    <g id="line2d_23">
     <path d="M 312.680938 293.004312 
L 322.680938 293.004312 
L 332.680938 293.004312 
" style="fill: none; stroke: #8c564b; stroke-width: 1.5; stroke-linecap: square"/>
    </g>
    <g id="text_19">
     <!-- DNS TTL 60s -->
     <g transform="translate(340.680938 296.504312) scale(0.1 -0.1)">
      <use xlink:href="#DejaVuSans-44"/>
      <use xlink:href="#DejaVuSans-4e" x="77.001953"/>
      <use xlink:href="#DejaVuSans-53" x="151.806641"/>
      <use xlink:href="#DejaVuSans-20" x="215.283203"/>
      <use xlink:href="#DejaVuSans-54" x="247.070312"/>
      <use xlink:href="#DejaVuSans-54" x="306.404297"/>
      <use xlink:href="#DejaVuSans-4c" x="367.488281"/>
      <use xlink:href="#DejaVuSans-20" x="423.201172"/>
      <use xlink:href="#DejaVuSans-36" x="454.988281"/>
      <use xlink:href="#DejaVuSans-30" x="518.611328"/>
      <use xlink:href="#DejaVuSans-73" x="582.234375"/>
     </g>
    </g>
   </g>
  </g>
 </g>
 <defs>
  <clipPath id="p6e89e80f66">
   <rect x="57.6" y="41.472" width="357.12" height="266.112"/>
  </clipPath>
 </defs>
</svg>
