<?xml version="1.0" encoding="utf-8" standalone="no"?>
<!DOCTYPE svg PUBLIC "-//W3C//DTD SVG 1.1//EN"
  "http://www.w3.org/Graphics/SVG/1.1/DTD/svg11.dtd">
<svg xmlns:xlink="http://www.w3.org/1999/xlink" width="460.8pt" height="345.6pt" viewBox="0 0 460.8 345.6" xmlns="http://www.w3.org/2000/svg" version="1.1">
 <metadata>
  <rdf:RDF xmlns:dc="http://purl.org/dc/elements/1.1/" xmlns:cc="http://creativecommons.org/ns#" xmlns:rdf="http://www.w3.org/1999/02/22-rdf-syntax-ns#">
   <cc:Work>
    <dc:type rdf:resource="http://purl.org/dc/dcmitype/StillImage"/>
    <dc:date>2023-07-15T16:15:10.784599</dc:date>
    <dc:format>image/svg+xml</dc:format>
    <dc:creator>
     <cc:Agent>
      <dc:title>Matplotlib v3.7.1, https://matplotlib.org/</dc:title>
     </cc:Agent>
    </dc:creator>
   </cc:Work>
  </rdf:RDF>
 </metadata>
 <defs>
  <style type="text/css">*{stroke-linejoin: round; stroke-linecap: butt}</style>
 </defs>
 <g id="figure_1">
  <g id="patch_1">
   <path d="M 0 345.6 
L 460.8 345.6 
L 460.8 0 
L 0 0 
z
" style="fill: #ffffff"/>
  </g>
  <g id="axes_1">
   <g id="patch_2">
    <path d="M 57.6 307.584 
L 414.72 307.584 
L 414.72 41.472 
L 57.6 41.472 
z
" style="fill: #ffffff"/>
   </g>
   <g id="matplotlib.axis_1">
    <g id="xtick_1">
     <g id="line2d_1">
      <defs>
       <path id="m437b379489" d="M 0 0 
L 0 3.5 
" style="stroke: #000000; stroke-width: 0.8"/>
      </defs>
      <g>
       <use xlink:href="#m437b379489" x="96.302928" y="307.584" style="stroke: #000000; stroke-width: 0.8"/>
      </g>
     </g>
     <g id="text_1">
      <!-- 20 -->
      <g transform="translate(89.940428 322.182437) scale(0.1 -0.1)">
       <defs>
        <path id="DejaVuSans-32" d="M 1228 531 
L 3431 531 
L 3431 0 
L 469 0 
L 469 531 
Q 828 903 1448 1529 
Q 2069 2156 2228 2338 
Q 2531 2678 2651 2914 
Q 2772 3150 2772 3378 
Q 2772 3750 2511 3984 
Q 2250 4219 1831 4219 
Q 1534 4219 1204 4116 
Q 875 4013 500 3803 
L 500 4441 
Q 881 4594 1212 4672 
Q 1544 4750 1819 4750 
Q 2544 4750 2975 4387 
Q 3406 4025 3406 3419 
Q 3406 3131 3298 2873 
Q 3191 2616 2906 2266 
Q 2828 2175 2409 1742 
Q 1991 1309 1228 531 
z
" transform="scale(0.015625)"/>
        <path id="DejaVuSans-30" d="M 2034 4250 
Q 1547 4250 1301 3770 
Q 1056 3291 1056 2328 
Q 1056 1369 1301 889 
Q 1547 409 2034 409 
Q 2525 409 2770 889 
Q 3016 1369 3016 2328 
Q 3016 3291 2770 3770 
Q 2525 4250 2034 4250 
z
M 2034 4750 
Q 2819 4750 3233 4129 
Q 3647 3509 3647 2328 
Q 3647 1150 3233 529 
Q 2819 -91 2034 -91 
Q 1250 -91 836 529 
Q 422 1150 422 2328 
Q 422 3509 836 4129 
Q 1250 4750 2034 4750 
z
" transform="scale(0.015625)"/>
       </defs>
       <use xlink:href="#DejaVuSans-32"/>
       <use xlink:href="#DejaVuSans-30" x="63.623047"/>
      </g>
     </g>
    </g>
    <g id="xtick_2">
     <g id="line2d_2">
      <g>
       <use xlink:href="#m437b379489" x="154.715157" y="307.584" style="stroke: #000000; stroke-width: 0.8"/>
      </g>
     </g>
     <g id="text_2">
      <!-- 40 -->
      <g transform="translate(148.352657 322.182437) scale(0.1 -0.1)">
       <defs>
        <path id="DejaVuSans-34" d="M 2419 4116 
L 825 1625 
L 2419 1625 
L 2419 4116 
z
M 2253 4666 
L 3047 4666 
L 3047 1625 
L 3713 1625 
L 3713 1100 
L 3047 1100 
L 3047 0 
L 2419 0 
L 2419 1100 
L 313 1100 
L 313 1709 
L 2253 4666 
z
" transform="scale(0.015625)"/>
       </defs>
       <use xlink:href="#DejaVuSans-34"/>
       <use xlink:href="#DejaVuSans-30" x="63.623047"/>
      </g>
     </g>
    </g>
    <g id="xtick_3">
     <g id="line2d_3">
      <g>
       <use xlink:href="#m437b379489" x="213.127386" y="307.584" style="stroke: #000000; stroke-width: 0.8"/>
      </g>
     </g>
     <g id="text_3">
      <!-- 60 -->
      <g transform="translate(206.764886 322.182437) scale(0.1 -0.1)">
       <defs>
        <path id="DejaVuSans-36" d="M 2113 2584 
Q 1688 2584 1439 2293 
Q 1191 2003 1191 1497 
Q 1191 994 1439 701 
Q 1688 409 2113 409 
Q 2538 409 2786 701 
Q 3034 994 3034 1497 
Q 3034 2003 2786 2293 
Q 2538 2584 2113 2584 
z
M 3366 4563 
L 3366 3988 
Q 3128 4100 2886 4159 
Q 2644 4219 2406 4219 
Q 1781 4219 1451 3797 
Q 1122 3375 1075 2522 
Q 1259 2794 1537 2939 
Q 1816 3084 2150 3084 
Q 2853 3084 3261 2657 
Q 3669 2231 3669 1497 
Q 3669 778 3244 343 
Q 2819 -91 2113 -91 
Q 1303 -91 875 529 
Q 447 1150 447 2328 
Q 447 3434 972 4092 
Q 1497 4750 2381 4750 
Q 2619 4750 2861 4703 
Q 3103 4656 3366 4563 
z
" transform="scale(0.015625)"/>
       </defs>
       <use xlink:href="#DejaVuSans-36"/>
       <use xlink:href="#DejaVuSans-30" x="63.623047"/>
      </g>
     </g>
    </g>
    <g id="xtick_4">
     <g id="line2d_4">
      <g>
       <use xlink:href="#m437b379489" x="271.539616" y="307.584" style="stroke: #000000; stroke-width: 0.8"/>
      </g>
     </g>
     <g id="text_4">
      <!-- 80 -->
      <g transform="translate(265.177116 322.182437) scale(0.1 -0.1)">
       <defs>
        <path id="DejaVuSans-38" d="M 2034 2216 
Q 1584 2216 1326 1975 
Q 1069 1734 1069 1313 
Q 1069 891 1326 650 
Q 1584 409 2034 409 
Q 2484 409 2743 651 
Q 3003 894 3003 1313 
Q 3003 1734 2745 1975 
Q 2488 2216 2034 2216 
z
M 1403 2484 
Q 997 2584 770 2862 
Q 544 3141 544 3541 
Q 544 4100 942 4425 
Q 1341 4750 2034 4750 
Q 2731 4750 3128 4425 
Q 3525 4100 3525 3541 
Q 3525 3141 3298 2862 
Q 3072 2584 2669 2484 
Q 3125 2378 3379 2068 
Q 3634 1759 3634 1313 
Q 3634 634 3220 271 
Q 2806 -91 2034 -91 
Q 1263 -91 848 271 
Q 434 634 434 1313 
Q 434 1759 690 2068 
Q 947 2378 1403 2484 
z
M 1172 3481 
Q 1172 3119 1398 2916 
Q 1625 2713 2034 2713 
Q 2441 2713 2670 2916 
Q 2900 3119 2900 3481 
Q 2900 3844 2670 4047 
Q 2441 4250 2034 4250 
Q 1625 4250 1398 4047 
Q 1172 3844 1172 3481 
z
" transform="scale(0.015625)"/>
       </defs>
       <use xlink:href="#DejaVuSans-38"/>
       <use xlink:href="#DejaVuSans-30" x="63.623047"/>
      </g>
     </g>
    </g>
    <g id="xtick_5">
     <g id="line2d_5">
      <g>
       <use xlink:href="#m437b379489" x="329.951845" y="307.584" style="stroke: #000000; stroke-width: 0.8"/>
      </g>
     </g>
     <g id="text_5">
      <!-- 100 -->
      <g transform="translate(320.408095 322.182437) scale(0.1 -0.1)">
       <defs>
        <path id="DejaVuSans-31" d="M 794 531 
L 1825 531 
L 1825 4091 
L 703 3866 
L 703 4441 
L 1819 4666 
L 2450 4666 
L 2450 531 
L 3481 531 
L 3481 0 
L 794 0 
L 794 531 
z
" transform="scale(0.015625)"/>
       </defs>
       <use xlink:href="#DejaVuSans-31"/>
       <use xlink:href="#DejaVuSans-30" x="63.623047"/>
       <use xlink:href="#DejaVuSans-30" x="127.246094"/>
      </g>
     </g>
    </g>
    <g id="xtick_6">
     <g id="line2d_6">
      <g>
       <use xlink:href="#m437b379489" x="388.364074" y="307.584" style="stroke: #000000; stroke-width: 0.8"/>
      </g>
     </g>
     <g id="text_6">
      <!-- 120 -->
      <g transform="translate(378.820324 322.182437) scale(0.1 -0.1)">
       <use xlink:href="#DejaVuSans-31"/>
       <use xlink:href="#DejaVuSans-32" x="63.623047"/>
       <use xlink:href="#DejaVuSans-30" x="127.246094"/>
      </g>
     </g>
    </g>
    <g id="text_7">
     <!-- Response time (ms) -->
     <g transform="translate(186.295156 335.860562) scale(0.1 -0.1)">
      <defs>
       <path id="DejaVuSans-52" d="M 2841 2188 
Q 3044 2119 3236 1894 
Q 3428 1669 3622 1275 
L 4263 0 
L 3584 0 
L 2988 1197 
Q 2756 1666 2539 1819 
Q 2322 1972 1947 1972 
L 1259 1972 
L 1259 0 
L 628 0 
L 628 4666 
L 2053 4666 
Q 2853 4666 3247 4331 
Q 3641 3997 3641 3322 
Q 3641 2881 3436 2590 
Q 3231 2300 2841 2188 
z
M 1259 4147 
L 1259 2491 
L 2053 2491 
Q 2509 2491 2742 2702 
Q 2975 2913 2975 3322 
Q 2975 3731 2742 3939 
Q 2509 4147 2053 4147 
L 1259 4147 
z
" transform="scale(0.015625)"/>
       <path id="DejaVuSans-65" d="M 3597 1894 
L 3597 1613 
L 953 1613 
Q 991 1019 1311 708 
Q 1631 397 2203 397 
Q 2534 397 2845 478 
Q 3156 559 3463 722 
L 3463 178 
Q 3153 47 2828 -22 
Q 2503 -91 2169 -91 
Q 1331 -91 842 396 
Q 353 884 353 1716 
Q 353 2575 817 3079 
Q 1281 3584 2069 3584 
Q 2775 3584 3186 3129 
Q 3597 2675 3597 1894 
z
M 3022 2063 
Q 3016 2534 2758 2815 
Q 2500 3097 2075 3097 
Q 1594 3097 1305 2825 
Q 1016 2553 972 2059 
L 3022 2063 
z
" transform="scale(0.015625)"/>
       <path id="DejaVuSans-73" d="M 2834 3397 
L 2834 2853 
Q 2591 2978 2328 3040 
Q 2066 3103 1784 3103 
Q 1356 3103 1142 2972 
Q 928 2841 928 2578 
Q 928 2378 1081 2264 
Q 1234 2150 1697 2047 
L 1894 2003 
Q 2506 1872 2764 1633 
Q 3022 1394 3022 966 
Q 3022 478 2636 193 
Q 2250 -91 1575 -91 
Q 1294 -91 989 -36 
Q 684 19 347 128 
L 347 722 
Q 666 556 975 473 
Q 1284 391 1588 391 
Q 1994 391 2212 530 
Q 2431 669 2431 922 
Q 2431 1156 2273 1281 
Q 2116 1406 1581 1522 
L 1381 1569 
Q 847 1681 609 1914 
Q 372 2147 372 2553 
Q 372 3047 722 3315 
Q 1072 3584 1716 3584 
Q 2034 3584 2315 3537 
Q 2597 3491 2834 3397 
z
" transform="scale(0.015625)"/>
       <path id="DejaVuSans-70" d="M 1159 525 
L 1159 -1331 
L 581 -1331 
L 581 3500 
L 1159 3500 
L 1159 2969 
Q 1341 3281 1617 3432 
Q 1894 3584 2278 3584 
Q 2916 3584 3314 3078 
Q 3713 2572 3713 1747 
Q 3713 922 3314 415 
Q 2916 -91 2278 -91 
Q 1894 -91 1617 61 
Q 1341 213 1159 525 
z
M 3116 1747 
Q 3116 2381 2855 2742 
Q 2594 3103 2138 3103 
Q 1681 3103 1420 2742 
Q 1159 2381 1159 1747 
Q 1159 1113 1420 752 
Q 1681 391 2138 391 
Q 2594 391 2855 752 
Q 3116 1113 3116 1747 
z
" transform="scale(0.015625)"/>
       <path id="DejaVuSans-6f" d="M 1959 3097 
Q 1497 3097 1228 2736 
Q 959 2375 959 1747 
Q 959 1119 1226 758 
Q 1494 397 1959 397 
Q 2419 397 2687 759 
Q 2956 1122 2956 1747 
Q 2956 2369 2687 2733 
Q 2419 3097 1959 3097 
z
M 1959 3584 
Q 2709 3584 3137 3096 
Q 3566 2609 3566 1747 
Q 3566 888 3137 398 
Q 2709 -91 1959 -91 
Q 1206 -91 779 398 
Q 353 888 353 1747 
Q 353 2609 779 3096 
Q 1206 3584 1959 3584 
z
" transform="scale(0.015625)"/>
       <path id="DejaVuSans-6e" d="M 3513 2113 
L 3513 0 
L 2938 0 
L 2938 2094 
Q 2938 2591 2744 2837 
Q 2550 3084 2163 3084 
Q 1697 3084 1428 2787 
Q 1159 2491 1159 1978 
L 1159 0 
L 581 0 
L 581 3500 
L 1159 3500 
L 1159 2956 
Q 1366 3272 1645 3428 
Q 1925 3584 2291 3584 
Q 2894 3584 3203 3211 
Q 3513 2838 3513 2113 
z
" transform="scale(0.015625)"/>
       <path id="DejaVuSans-20" transform="scale(0.015625)"/>
       <path id="DejaVuSans-74" d="M 1172 4494 
L 1172 3500 
L 2356 3500 
L 2356 3053 
L 1172 3053 
L 1172 1153 
Q 1172 725 1289 603 
Q 1406 481 1766 481 
L 2356 481 
L 2356 0 
L 1766 0 
Q 1100 0 847 248 
Q 594 497 594 1153 
L 594 3053 
L 172 3053 
L 172 3500 
L 594 3500 
L 594 4494 
L 1172 4494 
z
" transform="scale(0.015625)"/>
       <path id="DejaVuSans-69" d="M 603 3500 
L 1178 3500 
L 1178 0 
L 603 0 
L 603 3500 
z
M 603 4863 
L 1178 4863 
L 1178 4134 
L 603 4134 
L 603 4863 
z
" transform="scale(0.015625)"/>
       <path id="DejaVuSans-6d" d="M 3328 2828 
Q 3544 3216 3844 3400 
Q 4144 3584 4550 3584 
Q 5097 3584 5394 3201 
Q 5691 2819 5691 2113 
L 5691 0 
L 5113 0 
L 5113 2094 
Q 5113 2597 4934 2840 
Q 4756 3084 4391 3084 
Q 3944 3084 3684 2787 
Q 3425 2491 3425 1978 
L 3425 0 
L 2847 0 
L 2847 2094 
Q 2847 2600 2669 2842 
Q 2491 3084 2119 3084 
Q 1678 3084 1418 2786 
Q 1159 2488 1159 1978 
L 1159 0 
L 581 0 
L 581 3500 
L 1159 3500 
L 1159 2956 
Q 1356 3278 1631 3431 
Q 1906 3584 2284 3584 
Q 2666 3584 2933 3390 
Q 3200 3197 3328 2828 
z
" transform="scale(0.015625)"/>
       <path id="DejaVuSans-28" d="M 1984 4856 
Q 1566 4138 1362 3434 
Q 1159 2731 1159 2009 
Q 1159 1288 1364 580 
Q 1569 -128 1984 -844 
L 1484 -844 
Q 1016 -109 783 600 
Q 550 1309 550 2009 
Q 550 2706 781 3412 
Q 1013 4119 1484 4856 
L 1984 4856 
z
" transform="scale(0.015625)"/>
       <path id="DejaVuSans-29" d="M 513 4856 
L 1013 4856 
Q 1481 4119 1714 3412 
Q 1947 2706 1947 2009 
Q 1947 1309 1714 600 
Q 1481 -109 1013 -844 
L 513 -844 
Q 928 -128 1133 580 
Q 1338 1288 1338 2009 
Q 1338 2731 1133 3434 
Q 928 4138 513 4856 
z
" transform="scale(0.015625)"/>
      </defs>
      <use xlink:href="#DejaVuSans-52"/>
      <use xlink:href="#DejaVuSans-65" x="64.982422"/>
      <use xlink:href="#DejaVuSans-73" x="126.505859"/>
      <use xlink:href="#DejaVuSans-70" x="178.605469"/>
      <use xlink:href="#DejaVuSans-6f" x="242.082031"/>
      <use xlink:href="#DejaVuSans-6e" x="303.263672"/>
      <use xlink:href="#DejaVuSans-73" x="366.642578"/>
      <use xlink:href="#DejaVuSans-65" x="418.742188"/>
      <use xlink:href="#DejaVuSans-20" x="480.265625"/>
      <use xlink:href="#DejaVuSans-74" x="512.052734"/>
      <use xlink:href="#DejaVuSans-69" x="551.261719"/>
      <use xlink:href="#DejaVuSans-6d" x="579.044922"/>
      <use xlink:href="#DejaVuSans-65" x="676.457031"/>
      <use xlink:href="#DejaVuSans-20" x="737.980469"/>
      <use xlink:href="#DejaVuSans-28" x="769.767578"/>
      <use xlink:href="#DejaVuSans-6d" x="808.78125"/>
      <use xlink:href="#DejaVuSans-73" x="906.193359"/>
      <use xlink:href="#DejaVuSans-29" x="958.292969"/>
     </g>
    </g>
   </g>
   <g id="matplotlib.axis_2">
    <g id="ytick_1">
     <g id="line2d_7">
      <defs>
       <path id="m0aafbd8929" d="M 0 0 
L -3.5 0 
" style="stroke: #000000; stroke-width: 0.8"/>
      </defs>
      <g>
       <use xlink:href="#m0aafbd8929" x="57.6" y="295.513203" style="stroke: #000000; stroke-width: 0.8"/>
      </g>
     </g>
     <g id="text_8">
      <!-- 0.0 -->
      <g transform="translate(34.696875 299.312421) scale(0.1 -0.1)">
       <defs>
        <path id="DejaVuSans-2e" d="M 684 794 
L 1344 794 
L 1344 0 
L 684 0 
L 684 794 
z
" transform="scale(0.015625)"/>
       </defs>
       <use xlink:href="#DejaVuSans-30"/>
       <use xlink:href="#DejaVuSans-2e" x="63.623047"/>
       <use xlink:href="#DejaVuSans-30" x="95.410156"/>
      </g>
     </g>
    </g>
    <g id="ytick_2">
     <g id="line2d_8">
      <g>
       <use xlink:href="#m0aafbd8929" x="57.6" y="247.124162" style="stroke: #000000; stroke-width: 0.8"/>
      </g>
     </g>
     <g id="text_9">
      <!-- 0.2 -->
      <g transform="translate(34.696875 250.923381) scale(0.1 -0.1)">
       <use xlink:href="#DejaVuSans-30"/>
       <use xlink:href="#DejaVuSans-2e" x="63.623047"/>
       <use xlink:href="#DejaVuSans-32" x="95.410156"/>
      </g>
     </g>
    </g>
    <g id="ytick_3">
     <g id="line2d_9">
      <g>
       <use xlink:href="#m0aafbd8929" x="57.6" y="198.735122" style="stroke: #000000; stroke-width: 0.8"/>
      </g>
     </g>
     <g id="text_10">
      <!-- 0.4 -->
      <g transform="translate(34.696875 202.53434) scale(0.1 -0.1)">
       <use xlink:href="#DejaVuSans-30"/>
       <use xlink:href="#DejaVuSans-2e" x="63.623047"/>
       <use xlink:href="#DejaVuSans-34" x="95.410156"/>
      </g>
     </g>
    </g>
    <g id="ytick_4">
     <g id="line2d_10">
      <g>
       <use xlink:href="#m0aafbd8929" x="57.6" y="150.346081" style="stroke: #000000; stroke-width: 0.8"/>
      </g>
     </g>
     <g id="text_11">
      <!-- 0.6 -->
      <g transform="translate(34.696875 154.1453) scale(0.1 -0.1)">
       <use xlink:href="#DejaVuSans-30"/>
       <use xlink:href="#DejaVuSans-2e" x="63.623047"/>
       <use xlink:href="#DejaVuSans-36" x="95.410156"/>
      </g>
     </g>
    </g>
    <g id="ytick_5">
     <g id="line2d_11">
      <g>
       <use xlink:href="#m0aafbd8929" x="57.6" y="101.957041" style="stroke: #000000; stroke-width: 0.8"/>
      </g>
     </g>
     <g id="text_12">
      <!-- 0.8 -->
      <g transform="translate(34.696875 105.756259) scale(0.1 -0.1)">
       <use xlink:href="#DejaVuSans-30"/>
       <use xlink:href="#DejaVuSans-2e" x="63.623047"/>
       <use xlink:href="#DejaVuSans-38" x="95.410156"/>
      </g>
     </g>
    </g>
    <g id="ytick_6">
     <g id="line2d_12">
      <g>
       <use xlink:href="#m0aafbd8929" x="57.6" y="53.568" style="stroke: #000000; stroke-width: 0.8"/>
      </g>
     </g>
     <g id="text_13">
      <!-- 1.0 -->
      <g transform="translate(34.696875 57.367219) scale(0.1 -0.1)">
       <use xlink:href="#DejaVuSans-31"/>
       <use xlink:href="#DejaVuSans-2e" x="63.623047"/>
       <use xlink:href="#DejaVuSans-30" x="95.410156"/>
      </g>
     </g>
    </g>
    <g id="text_14">
     <!-- Probability -->
     <g transform="translate(28.617187 200.956906) rotate(-90) scale(0.1 -0.1)">
      <defs>
       <path id="DejaVuSans-50" d="M 1259 4147 
L 1259 2394 
L 2053 2394 
Q 2494 2394 2734 2622 
Q 2975 2850 2975 3272 
Q 2975 3691 2734 3919 
Q 2494 4147 2053 4147 
L 1259 4147 
z
M 628 4666 
L 2053 4666 
Q 2838 4666 3239 4311 
Q 3641 3956 3641 3272 
Q 3641 2581 3239 2228 
Q 2838 1875 2053 1875 
L 1259 1875 
L 1259 0 
L 628 0 
L 628 4666 
z
" transform="scale(0.015625)"/>
       <path id="DejaVuSans-72" d="M 2631 2963 
Q 2534 3019 2420 3045 
Q 2306 3072 2169 3072 
Q 1681 3072 1420 2755 
Q 1159 2438 1159 1844 
L 1159 0 
L 581 0 
L 581 3500 
L 1159 3500 
L 1159 2956 
Q 1341 3275 1631 3429 
Q 1922 3584 2338 3584 
Q 2397 3584 2469 3576 
Q 2541 3569 2628 3553 
L 2631 2963 
z
" transform="scale(0.015625)"/>
       <path id="DejaVuSans-62" d="M 3116 1747 
Q 3116 2381 2855 2742 
Q 2594 3103 2138 3103 
Q 1681 3103 1420 2742 
Q 1159 2381 1159 1747 
Q 1159 1113 1420 752 
Q 1681 391 2138 391 
Q 2594 391 2855 752 
Q 3116 1113 3116 1747 
z
M 1159 2969 
Q 1341 3281 1617 3432 
Q 1894 3584 2278 3584 
Q 2916 3584 3314 3078 
Q 3713 2572 3713 1747 
Q 3713 922 3314 415 
Q 2916 -91 2278 -91 
Q 1894 -91 1617 61 
Q 1341 213 1159 525 
L 1159 0 
L 581 0 
L 581 4863 
L 1159 4863 
L 1159 2969 
z
" transform="scale(0.015625)"/>
       <path id="DejaVuSans-61" d="M 2194 1759 
Q 1497 1759 1228 1600 
Q 959 1441 959 1056 
Q 959 750 1161 570 
Q 1363 391 1709 391 
Q 2188 391 2477 730 
Q 2766 1069 2766 1631 
L 2766 1759 
L 2194 1759 
z
M 3341 1997 
L 3341 0 
L 2766 0 
L 2766 531 
Q 2569 213 2275 61 
Q 1981 -91 1556 -91 
Q 1019 -91 701 211 
Q 384 513 384 1019 
Q 384 1609 779 1909 
Q 1175 2209 1959 2209 
L 2766 2209 
L 2766 2266 
Q 2766 2663 2505 2880 
Q 2244 3097 1772 3097 
Q 1472 3097 1187 3025 
Q 903 2953 641 2809 
L 641 3341 
Q 956 3463 1253 3523 
Q 1550 3584 1831 3584 
Q 2591 3584 2966 3190 
Q 3341 2797 3341 1997 
z
" transform="scale(0.015625)"/>
       <path id="DejaVuSans-6c" d="M 603 4863 
L 1178 4863 
L 1178 0 
L 603 0 
L 603 4863 
z
" transform="scale(0.015625)"/>
       <path id="DejaVuSans-79" d="M 2059 -325 
Q 1816 -950 1584 -1140 
Q 1353 -1331 966 -1331 
L 506 -1331 
L 506 -850 
L 844 -850 
Q 1081 -850 1212 -737 
Q 1344 -625 1503 -206 
L 1606 56 
L 191 3500 
L 800 3500 
L 1894 763 
L 2988 3500 
L 3597 3500 
L 2059 -325 
z
" transform="scale(0.015625)"/>
      </defs>
      <use xlink:href="#DejaVuSans-50"/>
      <use xlink:href="#DejaVuSans-72" x="58.552734"/>
      <use xlink:href="#DejaVuSans-6f" x="97.416016"/>
      <use xlink:href="#DejaVuSans-62" x="158.597656"/>
      <use xlink:href="#DejaVuSans-61" x="222.074219"/>
      <use xlink:href="#DejaVuSans-62" x="283.353516"/>
      <use xlink:href="#DejaVuSans-69" x="346.830078"/>
      <use xlink:href="#DejaVuSans-6c" x="374.613281"/>
      <use xlink:href="#DejaVuSans-69" x="402.396484"/>
      <use xlink:href="#DejaVuSans-74" x="430.179688"/>
      <use xlink:href="#DejaVuSans-79" x="469.388672"/>
     </g>
    </g>
   </g>
   <g id="line2d_13">
    <path d="M 74.20087 295.488 
L 76.716624 295.084758 
L 77.045823 294.857934 
L 77.155273 294.731921 
L 77.478062 294.479895 
L 77.631981 294.202666 
L 78.233435 292.665306 
L 78.727114 289.993828 
L 78.892155 288.607683 
L 78.943158 288.229644 
L 79.125123 287.045121 
L 79.219424 286.062218 
L 79.360776 284.701276 
L 79.601382 282.004595 
L 80.098046 274.670632 
L 80.146315 273.964958 
L 80.327125 270.108956 
L 80.389932 269.000041 
L 80.758449 260.204325 
L 80.829581 258.893788 
L 80.952205 255.642649 
L 81.03355 253.550832 
L 81.205329 248.837941 
L 81.250707 247.527404 
L 81.380297 243.217755 
L 81.413732 242.335663 
L 81.625447 236.16102 
L 81.803929 230.389619 
L 81.8719 227.99537 
L 82.161315 217.813509 
L 82.326198 212.44535 
L 82.374298 211.286029 
L 82.560601 205.010575 
L 82.622889 202.742339 
L 82.824756 195.736009 
L 83.144513 184.394828 
L 83.181257 182.78186 
L 83.295543 178.396603 
L 83.320261 177.539714 
L 83.444503 173.078849 
L 83.479335 171.793515 
L 83.952202 154.328096 
L 84.095899 149.463989 
L 84.217408 145.028327 
L 84.27724 142.936509 
L 84.397359 139.534155 
L 84.871053 124.664606 
L 84.989945 121.010225 
L 85.020144 120.00212 
L 85.387779 109.669044 
L 85.426731 108.837357 
L 85.550466 106.165879 
L 85.835626 99.663602 
L 85.925922 97.647392 
L 86.042644 94.925508 
L 86.145876 92.758082 
L 86.27049 90.540251 
L 86.337804 89.28012 
L 86.464941 87.011884 
L 86.623534 84.567229 
L 86.703561 83.3323 
L 86.938656 80.181972 
L 86.978178 79.703122 
L 87.188774 77.28367 
L 87.653768 72.948819 
L 87.852962 71.361053 
L 89.079131 65.488842 
L 89.264981 65.161208 
L 89.339366 64.959587 
L 89.444906 64.783168 
L 89.634561 64.480737 
L 90.439198 63.195403 
L 90.63794 62.943377 
L 90.938845 62.666148 
L 92.333598 61.859664 
L 92.880511 61.708448 
L 92.895287 61.683245 
L 93.238935 61.53203 
L 93.330843 61.406016 
L 94.271377 61.179193 
L 94.387123 61.05318 
L 95.212596 60.599532 
L 95.256849 60.549127 
L 96.01346 60.322304 
L 96.035473 60.271898 
L 96.483456 60.09548 
L 97.486438 59.843454 
L 97.702777 59.717441 
L 100.478225 58.835349 
L 100.546217 58.784943 
L 103.29771 58.331296 
L 104.36826 58.104473 
L 104.683774 57.978459 
L 106.12481 57.726433 
L 106.47795 57.650825 
L 107.242411 57.49961 
L 107.362953 57.449204 
L 113.873414 56.919949 
L 134.588026 56.667923 
L 136.817437 56.189073 
L 137.463 55.911844 
L 137.713901 55.785831 
L 137.823672 55.685021 
L 139.683033 54.727321 
L 140.543395 54.500497 
L 141.822491 54.172863 
L 143.341204 54.072053 
L 156.363173 53.996445 
L 170.445486 53.794824 
L 173.406463 53.694013 
L 198.988598 53.568 
L 198.988598 53.568 
" clip-path="url(#p091fabbf41)" style="fill: none; stroke: #1f77b4; stroke-width: 1.5; stroke-linecap: square"/>
   </g>
   <g id="line2d_14">
    <path d="M 73.832727 295.488 
L 73.887924 295.462797 
L 76.295092 295.235974 
L 76.447221 295.135163 
L 76.989251 294.958745 
L 77.558496 294.555503 
L 77.739702 294.278274 
L 77.894451 294.001045 
L 77.999502 293.723816 
L 78.234153 293.169358 
L 78.369652 292.51409 
L 78.485924 291.93443 
L 79.015422 289.288154 
L 79.068808 289.061331 
L 80.045373 280.593248 
L 80.538591 274.595024 
L 80.584407 274.065769 
L 80.701132 272.856043 
L 80.847306 270.865035 
L 81.071285 267.009033 
L 81.300231 263.379855 
L 81.445576 260.73358 
L 83.004545 233.413934 
L 83.045603 232.733463 
L 84.656361 204.758549 
L 84.723404 203.574026 
L 86.293361 187.343535 
L 86.374461 186.839482 
L 86.511262 185.831377 
L 86.674121 185.050096 
L 87.404774 182.050984 
L 87.513079 181.72335 
L 87.706996 181.042879 
L 87.858675 180.740447 
L 88.039338 180.337205 
L 88.137298 180.059976 
L 88.486031 179.278695 
L 89.462318 178.27059 
L 89.634357 178.094171 
L 90.587755 177.539714 
L 90.984135 177.363295 
L 91.13874 177.237282 
L 91.196712 177.161674 
L 91.657981 177.035661 
L 91.859168 176.934851 
L 91.994912 176.884445 
L 93.197214 176.632419 
L 96.989312 175.77553 
L 99.912497 175.523504 
L 99.989931 175.498301 
L 103.564082 175.29668 
L 103.608533 175.271477 
L 110.962741 174.742222 
L 118.544987 174.591007 
L 131.596371 174.439791 
L 131.605857 174.389386 
L 132.070903 174.23817 
L 132.362351 174.112157 
L 132.999745 173.582902 
L 133.115763 173.17966 
L 133.419767 172.599999 
L 133.5283 172.373176 
L 133.670685 171.995136 
L 133.888014 171.037436 
L 134.146911 170.180547 
L 134.348574 168.895213 
L 134.521024 167.937513 
L 134.653164 166.979814 
L 134.701167 166.576572 
L 134.94743 164.509956 
L 135.519973 159.620647 
L 135.632457 157.755653 
L 135.83173 154.832148 
L 136.001503 152.337088 
L 136.14128 150.497297 
L 136.363837 146.893321 
L 136.393194 146.490079 
L 136.590482 143.692588 
L 136.637942 142.860901 
L 136.878466 138.904089 
L 136.917622 138.248821 
L 137.078796 135.879774 
L 137.229988 133.107485 
L 137.549812 127.865339 
L 137.592211 127.159666 
L 137.715408 124.967037 
L 138.57672 108.86256 
L 138.724225 106.115474 
L 138.887943 103.091159 
L 138.926045 102.561904 
L 139.092824 99.890425 
L 139.155959 98.932725 
L 139.988114 84.617634 
L 140.0151 84.365608 
L 140.134673 82.425006 
L 140.886333 73.074832 
L 141.139895 70.151327 
L 141.198865 69.672478 
L 141.448598 67.379039 
L 141.505272 67.051405 
L 141.634994 66.194515 
L 142.733638 60.624735 
L 142.926328 60.070277 
L 143.017831 59.919062 
L 143.142421 59.692238 
L 143.802672 58.255688 
L 143.981735 58.054067 
L 144.168391 57.701231 
L 144.391187 57.550015 
L 144.795578 57.297989 
L 145.330231 56.970354 
L 146.061137 56.793936 
L 146.450709 56.617518 
L 147.444117 56.415897 
L 147.46367 56.390694 
L 147.829523 56.239478 
L 148.218759 56.06306 
L 148.629867 55.911844 
L 149.151217 55.710223 
L 150.621751 55.332184 
L 152.267013 55.180968 
L 152.810544 55.10536 
L 153.763566 54.954144 
L 153.96156 54.878537 
L 158.962494 54.349281 
L 161.381441 54.14766 
L 161.586167 54.122458 
L 169.561717 53.895634 
L 170.563253 53.820026 
L 211.460269 53.568 
L 211.460269 53.568 
" clip-path="url(#p091fabbf41)" style="fill: none; stroke: #ff7f0e; stroke-width: 1.5; stroke-linecap: square"/>
   </g>
   <g id="line2d_15">
    <path d="M 134.137358 295.488 
L 137.496009 295.185568 
L 137.691178 295.034353 
L 139.05006 294.706719 
L 139.225837 294.5303 
L 139.606726 294.202666 
L 139.66397 294.152261 
L 139.816113 293.975842 
L 140.166452 293.723816 
L 140.254193 293.5726 
L 140.385384 293.396182 
L 140.617336 292.866927 
L 140.863739 292.41328 
L 141.02555 291.808417 
L 141.199087 291.480783 
L 141.64894 290.523083 
L 142.153452 288.632886 
L 142.334711 288.028023 
L 142.477789 287.649984 
L 142.590595 287.246742 
L 142.647112 286.94431 
L 142.934508 285.331342 
L 143.015777 284.852492 
L 143.747782 280.139601 
L 144.062367 277.720149 
L 144.173309 276.812855 
L 144.371896 275.300697 
L 144.504606 274.116174 
L 145.339591 264.488771 
L 145.421392 263.480666 
L 145.67552 260.305135 
L 145.713202 259.851488 
L 145.9628 256.146702 
L 146.064499 254.836165 
L 146.304824 251.181785 
L 146.371093 250.072869 
L 146.441371 248.73713 
L 146.55453 246.62011 
L 146.919131 240.974722 
L 147.129549 237.21953 
L 147.334789 233.262718 
L 147.628346 227.818951 
L 147.714118 226.054767 
L 147.95034 221.291471 
L 149.310268 191.980818 
L 149.435229 189.158124 
L 149.486597 188.175222 
L 149.628749 184.999691 
L 149.68844 183.764762 
L 149.819818 181.042879 
L 150.196758 173.078849 
L 150.250704 171.818718 
L 152.109974 133.687146 
L 152.185607 132.452217 
L 152.310139 130.436007 
L 152.784671 122.169546 
L 152.865913 120.909415 
L 152.989671 118.918407 
L 153.208732 115.289229 
L 153.274854 114.407137 
L 153.391296 112.743764 
L 153.476274 111.660051 
L 153.708688 108.106481 
L 153.765123 107.400808 
L 153.88886 105.535813 
L 154.019634 104.099264 
L 154.061539 103.595211 
L 154.49966 97.92462 
L 154.699278 95.454763 
L 155.00409 92.455651 
L 156.094343 82.954261 
L 156.144834 82.75264 
L 156.294656 81.769738 
L 157.801893 72.621185 
L 157.875875 72.369158 
L 158.001388 71.587877 
L 158.241299 70.705785 
L 158.367901 70.403354 
L 158.862399 68.891196 
L 159.032925 68.311536 
L 159.224832 67.857889 
L 160.871619 63.422226 
L 161.221905 63.044187 
L 161.366169 62.792161 
L 161.564429 62.489729 
L 162.168756 61.910069 
L 162.373815 61.733651 
L 162.700152 61.305206 
L 162.988744 61.05318 
L 163.180094 60.901964 
L 163.675824 60.725546 
L 164.281144 60.397911 
L 164.399061 60.19629 
L 164.662146 59.994669 
L 164.950644 59.818251 
L 165.052927 59.767846 
L 166.067912 59.490617 
L 167.90191 58.784943 
L 169.054968 58.633728 
L 169.164275 58.583322 
L 172.171298 58.129675 
L 175.203422 57.776838 
L 175.317685 57.726433 
L 176.956081 57.49961 
L 177.040188 57.449204 
L 179.10834 57.297989 
L 180.199712 57.222381 
L 189.629522 56.718328 
L 190.250435 56.617518 
L 196.692054 56.491505 
L 197.941334 56.415897 
L 202.221738 56.390694 
L 310.114739 56.264681 
L 311.657459 56.088263 
L 315.865359 55.407792 
L 316.306903 55.256576 
L 317.954627 54.928942 
L 320.408686 54.349281 
L 323.284247 54.072053 
L 326.22775 53.920837 
L 326.277917 53.895634 
L 341.161379 53.593203 
L 344.942152 53.568 
L 344.942152 53.568 
" clip-path="url(#p091fabbf41)" style="fill: none; stroke: #2ca02c; stroke-width: 1.5; stroke-linecap: square"/>
   </g>
   <g id="line2d_16">
    <path d="M 129.978054 295.488 
L 135.848915 295.311582 
L 136.979005 295.059555 
L 137.98548 294.883137 
L 138.170752 294.757124 
L 138.582263 294.580705 
L 138.783785 294.42949 
L 139.346672 294.076653 
L 139.468744 294.001045 
L 139.769675 293.849829 
L 140.082969 293.5726 
L 140.256684 293.345777 
L 141.563725 291.379972 
L 141.862886 290.548285 
L 142.031257 289.993828 
L 142.094278 289.792207 
L 142.204195 289.414167 
L 142.529574 288.154036 
L 142.714145 287.372755 
L 142.781311 287.196336 
L 142.893021 286.818297 
L 143.015234 286.289042 
L 143.114614 285.734584 
L 143.207425 285.40695 
L 143.336513 284.776884 
L 143.398188 284.44925 
L 143.536114 283.819184 
L 143.628609 283.088308 
L 144.091669 279.761562 
L 144.251132 278.274607 
L 144.290218 277.997378 
L 144.419295 276.96407 
L 144.484827 276.586031 
L 144.828908 273.208879 
L 144.864828 272.982056 
L 144.987935 271.646316 
L 145.056952 270.839832 
L 145.215781 269.37808 
L 145.298577 268.31957 
L 146.275761 255.289813 
L 146.388526 253.576034 
L 146.437204 252.895563 
L 146.567226 250.879353 
L 146.61426 250.047667 
L 147.674094 230.843266 
L 147.74472 229.482324 
L 147.942501 225.50031 
L 147.996612 224.16457 
L 148.878832 206.270707 
L 149.198668 199.339985 
L 149.324979 196.618101 
L 149.38288 195.433578 
L 149.691232 188.578464 
L 149.764303 187.267927 
L 149.91491 184.243612 
L 150.090342 180.841258 
L 150.637782 168.970821 
L 150.685741 168.139134 
L 150.862333 164.610767 
L 151.435693 153.11837 
L 151.568569 150.522499 
L 151.839391 145.305556 
L 151.928482 143.465764 
L 152.050692 141.399149 
L 152.659809 130.864452 
L 152.777974 128.823039 
L 152.824426 128.192973 
L 152.989902 125.899535 
L 153.050654 125.017443 
L 153.42819 119.775297 
L 153.474975 119.246041 
L 153.641628 116.725779 
L 153.690621 116.070511 
L 153.834987 114.33153 
L 153.923549 113.071398 
L 154.138514 110.727554 
L 154.237044 109.744652 
L 154.383653 107.879657 
L 154.41705 107.652834 
L 154.788546 103.620414 
L 154.931598 102.662714 
L 155.038664 101.528596 
L 155.199117 100.167654 
L 155.743896 95.731992 
L 155.825092 95.101926 
L 155.954685 93.8922 
L 156.46663 90.212617 
L 156.616928 89.481741 
L 156.994174 87.238707 
L 157.060671 86.986681 
L 157.246352 86.154994 
L 157.554386 85.046079 
L 157.669148 84.642837 
L 157.766194 84.18919 
L 158.012726 83.181085 
L 158.149209 82.75264 
L 158.276577 82.248588 
L 158.385802 81.920953 
L 158.501289 81.442104 
L 158.608011 81.038862 
L 158.808432 80.15677 
L 158.970193 79.753528 
L 159.299477 78.695017 
L 159.403445 78.543802 
L 159.644527 77.989344 
L 159.818908 77.76252 
L 160.035317 77.485291 
L 160.147754 77.258468 
L 160.292485 77.056847 
L 160.380147 76.855226 
L 160.551421 76.678807 
L 160.782666 76.199957 
L 161.140403 75.595094 
L 161.238261 75.418676 
L 162.875921 73.175642 
L 162.96148 73.100035 
L 163.408778 72.923616 
L 164.131039 72.369158 
L 164.212308 72.268348 
L 164.926745 72.016322 
L 165.727842 71.512269 
L 166.194944 71.361053 
L 166.198175 71.335851 
L 166.996757 71.083825 
L 168.037071 70.781393 
L 169.287002 70.478962 
L 172.064676 70.100922 
L 173.532689 69.899301 
L 175.924529 69.59687 
L 179.413112 69.370046 
L 188.934749 68.689575 
L 199.962041 68.437549 
L 201.296687 68.412346 
L 308.617426 68.210725 
L 310.245521 67.983902 
L 310.286798 67.933496 
L 310.75081 67.807483 
L 311.001241 67.757078 
L 311.606354 67.605862 
L 313.606313 66.396136 
L 313.720316 66.320528 
L 313.897515 66.14411 
L 314.233269 65.917286 
L 314.548855 65.715665 
L 314.724849 65.463639 
L 315.599674 64.531142 
L 316.157023 63.523037 
L 316.280521 63.371821 
L 316.404518 63.144998 
L 316.640162 62.892971 
L 317.199991 62.136893 
L 317.652832 61.784056 
L 317.762708 61.557232 
L 318.351968 60.826356 
L 318.470004 60.599532 
L 318.786046 60.246696 
L 319.067988 59.818251 
L 319.180703 59.692238 
L 320.444399 58.154878 
L 320.708708 57.902852 
L 320.772287 57.802041 
L 321.035513 57.625623 
L 321.565508 57.12157 
L 322.309834 56.516707 
L 322.742902 56.390694 
L 323.513158 55.735426 
L 323.826838 55.559007 
L 324.21131 55.332184 
L 325.924523 54.878537 
L 327.433886 54.727321 
L 327.43414 54.702118 
L 329.110101 54.424889 
L 329.287137 54.374484 
L 335.504704 53.971242 
L 338.5529 53.870432 
L 343.032201 53.719216 
L 361.686786 53.568 
L 361.686786 53.568 
" clip-path="url(#p091fabbf41)" style="fill: none; stroke: #d62728; stroke-width: 1.5; stroke-linecap: square"/>
   </g>
   <g id="line2d_17">
    <path d="M 134.44177 295.488 
L 137.791922 295.185568 
L 138.411769 294.933542 
L 139.128993 294.731921 
L 140.051719 293.925437 
L 140.109161 293.824627 
L 140.308017 293.648208 
L 140.433717 293.295372 
L 140.578051 292.917332 
L 140.673318 292.715711 
L 140.802979 292.564495 
L 141.056018 291.959632 
L 141.185854 291.732809 
L 141.45863 290.951527 
L 141.515894 290.699501 
L 141.627468 290.271057 
L 141.779938 289.91822 
L 141.897297 289.514978 
L 141.976075 289.288154 
L 142.401707 287.574376 
L 142.607683 286.667081 
L 142.683076 286.36465 
L 142.90662 285.230532 
L 143.314933 282.91189 
L 143.502004 281.47534 
L 143.748988 279.963183 
L 143.957283 278.476228 
L 144.046187 277.946973 
L 144.610387 273.032461 
L 144.880255 270.260172 
L 144.935034 269.831727 
L 145.080883 268.243962 
L 145.215728 266.908223 
L 145.341411 265.522079 
L 145.439289 264.438366 
L 145.551788 262.926208 
L 145.801001 259.473448 
L 145.919268 257.684062 
L 146.467295 248.812738 
L 146.603188 246.368083 
L 146.650557 245.76322 
L 146.790519 243.469781 
L 146.982184 240.420264 
L 147.022996 239.638982 
L 147.147946 237.345543 
L 147.572968 229.305906 
L 147.631871 228.323004 
L 147.912518 222.879237 
L 148.033414 220.611 
L 148.197885 217.485875 
L 148.389927 213.680278 
L 148.44534 212.470552 
L 148.563347 210.151911 
L 148.813936 205.363412 
L 149.092302 200.070861 
L 149.234554 197.273369 
L 149.413339 193.366962 
L 149.620083 189.082516 
L 149.726715 187.091509 
L 150.047731 179.757545 
L 150.23137 176.002354 
L 150.403844 173.078849 
L 150.464043 171.944731 
L 150.588578 169.298455 
L 153.008206 129.175876 
L 153.065759 128.344189 
L 153.695125 120.102931 
L 153.756072 119.42246 
L 153.893311 117.708681 
L 154.105453 115.364837 
L 154.998862 106.543918 
L 155.112468 105.485408 
L 155.485398 102.461093 
L 155.5566 101.957041 
L 155.693702 100.873328 
L 155.866225 99.991236 
L 157.517197 91.119912 
L 157.594929 90.943493 
L 157.924263 89.456538 
L 158.411886 88.120799 
L 158.521713 87.893976 
L 158.722046 87.314315 
L 158.804547 87.037086 
L 159.033044 86.407021 
L 159.176899 86.129792 
L 159.31408 85.852563 
L 160.774693 82.601424 
L 160.896278 82.425006 
L 160.973271 82.27379 
L 161.276448 81.946156 
L 161.369855 81.668927 
L 161.554633 81.492509 
L 161.874355 81.240483 
L 162.040897 81.038862 
L 162.15729 80.912848 
L 163.002483 80.25758 
L 163.085337 80.15677 
L 163.328989 80.005554 
L 163.453101 79.829136 
L 163.859057 79.577109 
L 163.87366 79.551907 
L 164.30643 79.400691 
L 164.440557 79.274678 
L 165.147575 78.997449 
L 165.155826 78.972246 
L 165.524375 78.795828 
L 165.848224 78.669815 
L 166.366767 78.493396 
L 166.90854 78.266573 
L 167.912667 78.014547 
L 168.016103 77.964141 
L 168.88217 77.66171 
L 169.160928 77.611305 
L 172.76665 76.981239 
L 174.541135 76.779618 
L 186.752775 75.998336 
L 192.150319 75.847121 
L 194.356762 75.695905 
L 196.309883 75.6455 
L 206.907354 75.469081 
L 215.523105 75.443879 
L 307.507276 75.317866 
L 310.326548 74.839016 
L 310.684162 74.637395 
L 311.069362 74.410571 
L 311.168286 74.309761 
L 311.43011 74.082937 
L 311.538412 73.931721 
L 311.797356 73.755303 
L 312.272151 73.276453 
L 312.436833 73.074832 
L 312.597493 72.848008 
L 312.841031 72.646387 
L 313.084578 72.318753 
L 315.008773 68.790386 
L 315.120025 68.462752 
L 315.293278 68.16032 
L 315.406791 67.933496 
L 315.512032 67.757078 
L 315.649272 67.479849 
L 315.762556 67.278228 
L 315.856375 66.975797 
L 316.021451 66.774176 
L 316.137396 66.522149 
L 316.304826 66.219718 
L 316.857482 65.337626 
L 317.097953 65.035194 
L 317.206197 64.757966 
L 317.333448 64.531142 
L 317.443926 64.354724 
L 317.598099 63.976684 
L 317.820057 63.573442 
L 318.331897 62.867769 
L 318.726495 62.11169 
L 318.840948 61.834461 
L 319.192175 60.927167 
L 319.487685 60.448317 
L 319.605155 60.221493 
L 319.698308 60.019872 
L 320.380397 58.936159 
L 320.60453 58.684133 
L 320.723446 58.55812 
L 320.962658 58.331296 
L 321.354677 57.928054 
L 321.950704 57.272786 
L 322.037823 57.146773 
L 323.382329 56.113465 
L 323.455605 56.037857 
L 324.025226 55.861439 
L 324.22056 55.710223 
L 327.231208 54.676916 
L 329.805309 54.500497 
L 330.856154 54.273674 
L 335.190502 53.971242 
L 339.460266 53.794824 
L 364.359782 53.568 
L 364.359782 53.568 
" clip-path="url(#p091fabbf41)" style="fill: none; stroke: #9467bd; stroke-width: 1.5; stroke-linecap: square"/>
   </g>
   <g id="line2d_18">
    <path d="M 132.374854 295.488 
L 137.320249 295.210771 
L 138.375072 295.00915 
L 139.180378 294.656313 
L 139.721885 294.454692 
L 140.094515 293.975842 
L 140.188386 293.774221 
L 140.452768 293.597803 
L 140.775797 292.866927 
L 140.989384 292.690509 
L 141.155473 292.312469 
L 141.261433 292.136051 
L 141.483809 291.808417 
L 142.277012 289.716599 
L 142.603685 288.406062 
L 142.669428 288.204441 
L 142.907572 287.42316 
L 143.019019 286.767892 
L 143.100589 286.566271 
L 143.347813 285.180126 
L 143.472798 284.701276 
L 143.576024 284.046008 
L 143.719484 283.315132 
L 144.010383 281.223314 
L 144.190129 280.215209 
L 144.232159 279.862372 
L 144.444684 278.249404 
L 144.492932 277.795757 
L 144.716061 275.90556 
L 145.042991 273.284487 
L 145.163554 272.099964 
L 145.549939 267.941531 
L 145.686627 266.429373 
L 145.754996 265.572484 
L 145.90871 263.833503 
L 146.20404 260.25473 
L 146.272738 259.322233 
L 146.579128 255.1638 
L 146.855914 250.904556 
L 146.91937 250.047667 
L 148.660414 222.400387 
L 149.038359 215.41926 
L 149.060103 214.94041 
L 149.201542 212.117716 
L 149.245205 211.48765 
L 149.40213 208.387727 
L 149.592682 204.657739 
L 149.723844 201.557816 
L 149.847619 199.617213 
L 149.97867 196.819722 
L 150.509129 187.116711 
L 150.554168 186.108606 
L 150.699158 183.714357 
L 153.410736 142.886104 
L 153.466461 142.230836 
L 153.613187 140.391044 
L 154.255885 133.63674 
L 154.323696 133.132688 
L 155.317983 124.488188 
L 155.360413 124.135351 
L 155.773198 121.287454 
L 155.892946 120.531375 
L 156.028115 119.976918 
L 156.527306 117.809492 
L 158.250335 110.677149 
L 158.467345 110.173096 
L 158.619089 109.795057 
L 158.706713 109.593436 
L 158.829703 109.190194 
L 159.0933 108.635736 
L 159.210185 108.358507 
L 160.457955 106.241487 
L 160.609187 106.090271 
L 160.756684 105.813042 
L 160.922113 105.485408 
L 161.041076 105.283787 
L 161.299305 104.956153 
L 161.562729 104.754532 
L 162.485166 103.87244 
L 162.640449 103.721224 
L 162.661653 103.645616 
L 162.820809 103.494401 
L 163.358949 103.091159 
L 163.365074 103.065956 
L 163.648446 102.91474 
L 163.963223 102.738322 
L 164.061961 102.662714 
L 164.476503 102.511498 
L 164.520675 102.43589 
L 164.839389 102.284675 
L 164.997447 102.158662 
L 165.445574 102.032648 
L 166.344337 101.730217 
L 168.153451 101.175759 
L 168.257404 101.125354 
L 169.151672 100.89853 
L 172.000162 100.31887 
L 174.331683 100.142452 
L 174.792299 100.041641 
L 176.353593 99.789615 
L 176.391921 99.764412 
L 185.709182 99.285562 
L 185.770334 99.235157 
L 186.17839 99.159549 
L 190.832204 99.008333 
L 194.551687 98.857118 
L 202.160817 98.680699 
L 203.030318 98.655497 
L 306.468502 98.378268 
L 307.146793 98.201849 
L 308.718427 97.521378 
L 308.808288 97.395365 
L 309.134965 97.24415 
L 309.501902 97.067731 
L 309.989515 96.563679 
L 310.425486 96.135234 
L 310.856475 95.505168 
L 311.012579 95.22794 
L 311.155733 95.051521 
L 311.325067 94.74909 
L 311.449473 94.597874 
L 311.783623 93.690579 
L 312.257259 92.480853 
L 312.448027 92.102814 
L 312.995143 90.439441 
L 313.14384 90.036199 
L 313.341591 89.607754 
L 313.460148 89.28012 
L 313.570664 88.876878 
L 313.677322 88.549244 
L 313.729043 88.372826 
L 314.035418 87.112694 
L 314.191965 86.659047 
L 315.070141 83.634732 
L 315.179886 83.206287 
L 315.824394 80.307985 
L 315.944835 79.829136 
L 316.126546 79.098259 
L 316.258435 78.518599 
L 316.307391 78.291775 
L 316.965396 75.595094 
L 317.111023 74.889421 
L 317.658331 72.721995 
L 317.765497 72.041524 
L 318.035347 71.083825 
L 318.133661 70.882204 
L 318.380248 70.100922 
L 318.514967 69.59687 
L 319.607346 65.866881 
L 319.794656 65.463639 
L 319.917859 65.161208 
L 320.434667 63.573442 
L 320.534371 63.296213 
L 320.727721 63.044187 
L 321.719474 60.775951 
L 321.859718 60.57433 
L 322.018404 60.120683 
L 322.162294 59.818251 
L 322.398939 59.364604 
L 322.507945 59.213388 
L 322.646595 58.910957 
L 323.989671 57.650825 
L 324.216672 57.449204 
L 325.11224 56.718328 
L 325.271644 56.567112 
L 325.72499 56.088263 
L 326.008862 55.886642 
L 326.148546 55.710223 
L 328.078074 55.054955 
L 332.98997 54.374484 
L 333.407912 54.298876 
L 339.415017 53.920837 
L 356.604098 53.593203 
L 398.487273 53.568 
L 398.487273 53.568 
" clip-path="url(#p091fabbf41)" style="fill: none; stroke: #8c564b; stroke-width: 1.5; stroke-linecap: square"/>
   </g>
   <g id="patch_3">
    <path d="M 57.6 307.584 
L 57.6 41.472 
" style="fill: none; stroke: #000000; stroke-width: 0.8; stroke-linejoin: miter; stroke-linecap: square"/>
   </g>
   <g id="patch_4">
    <path d="M 414.72 307.584 
L 414.72 41.472 
" style="fill: none; stroke: #000000; stroke-width: 0.8; stroke-linejoin: miter; stroke-linecap: square"/>
   </g>
   <g id="patch_5">
    <path d="M 57.6 307.584 
L 414.72 307.584 
" style="fill: none; stroke: #000000; stroke-width: 0.8; stroke-linejoin: miter; stroke-linecap: square"/>
   </g>
   <g id="patch_6">
    <path d="M 57.6 41.472 
L 414.72 41.472 
" style="fill: none; stroke: #000000; stroke-width: 0.8; stroke-linejoin: miter; stroke-linecap: square"/>
   </g>
   <g id="legend_1">
    <g id="patch_7">
     <path d="M 310.680938 302.584 
L 407.72 302.584 
Q 409.72 302.584 409.72 300.584 
L 409.72 213.51525 
Q 409.72 211.51525 407.72 211.51525 
L 310.680938 211.51525 
Q 308.680938 211.51525 308.680938 213.51525 
L 308.680938 300.584 
Q 308.680938 302.584 310.680938 302.584 
z
" style="fill: #ffffff; opacity: 0.8; stroke: #cccccc; stroke-linejoin: miter"/>
    </g>
    <g id="line2d_19">
     <path d="M 312.680938 219.613687 
L 322.680938 219.613687 
L 332.680938 219.613687 
" style="fill: none; stroke: #1f77b4; stroke-width: 1.5; stroke-linecap: square"/>
    </g>
    <g id="text_15">
     <!-- Alt-Svc -->
     <g transform="translate(340.680938 223.113687) scale(0.1 -0.1)">
      <defs>
       <path id="DejaVuSans-41" d="M 2188 4044 
L 1331 1722 
L 3047 1722 
L 2188 4044 
z
M 1831 4666 
L 2547 4666 
L 4325 0 
L 3669 0 
L 3244 1197 
L 1141 1197 
L 716 0 
L 50 0 
L 1831 4666 
z
" transform="scale(0.015625)"/>
       <path id="DejaVuSans-2d" d="M 313 2009 
L 1997 2009 
L 1997 1497 
L 313 1497 
L 313 2009 
z
" transform="scale(0.015625)"/>
       <path id="DejaVuSans-53" d="M 3425 4513 
L 3425 3897 
Q 3066 4069 2747 4153 
Q 2428 4238 2131 4238 
Q 1616 4238 1336 4038 
Q 1056 3838 1056 3469 
Q 1056 3159 1242 3001 
Q 1428 2844 1947 2747 
L 2328 2669 
Q 3034 2534 3370 2195 
Q 3706 1856 3706 1288 
Q 3706 609 3251 259 
Q 2797 -91 1919 -91 
Q 1588 -91 1214 -16 
Q 841 59 441 206 
L 441 856 
Q 825 641 1194 531 
Q 1563 422 1919 422 
Q 2459 422 2753 634 
Q 3047 847 3047 1241 
Q 3047 1584 2836 1778 
Q 2625 1972 2144 2069 
L 1759 2144 
Q 1053 2284 737 2584 
Q 422 2884 422 3419 
Q 422 4038 858 4394 
Q 1294 4750 2059 4750 
Q 2388 4750 2728 4690 
Q 3069 4631 3425 4513 
z
" transform="scale(0.015625)"/>
       <path id="DejaVuSans-76" d="M 191 3500 
L 800 3500 
L 1894 563 
L 2988 3500 
L 3597 3500 
L 2284 0 
L 1503 0 
L 191 3500 
z
" transform="scale(0.015625)"/>
       <path id="DejaVuSans-63" d="M 3122 3366 
L 3122 2828 
Q 2878 2963 2633 3030 
Q 2388 3097 2138 3097 
Q 1578 3097 1268 2742 
Q 959 2388 959 1747 
Q 959 1106 1268 751 
Q 1578 397 2138 397 
Q 2388 397 2633 464 
Q 2878 531 3122 666 
L 3122 134 
Q 2881 22 2623 -34 
Q 2366 -91 2075 -91 
Q 1284 -91 818 406 
Q 353 903 353 1747 
Q 353 2603 823 3093 
Q 1294 3584 2113 3584 
Q 2378 3584 2631 3529 
Q 2884 3475 3122 3366 
z
" transform="scale(0.015625)"/>
      </defs>
      <use xlink:href="#DejaVuSans-41"/>
      <use xlink:href="#DejaVuSans-6c" x="68.408203"/>
      <use xlink:href="#DejaVuSans-74" x="96.191406"/>
      <use xlink:href="#DejaVuSans-2d" x="135.400391"/>
      <use xlink:href="#DejaVuSans-53" x="171.484375"/>
      <use xlink:href="#DejaVuSans-76" x="234.960938"/>
      <use xlink:href="#DejaVuSans-63" x="294.140625"/>
     </g>
    </g>
    <g id="line2d_20">
     <path d="M 312.680938 234.291812 
L 322.680938 234.291812 
L 332.680938 234.291812 
" style="fill: none; stroke: #ff7f0e; stroke-width: 1.5; stroke-linecap: square"/>
    </g>
    <g id="text_16">
     <!-- No migration -->
     <g transform="translate(340.680938 237.791812) scale(0.1 -0.1)">
      <defs>
       <path id="DejaVuSans-4e" d="M 628 4666 
L 1478 4666 
L 3547 763 
L 3547 4666 
L 4159 4666 
L 4159 0 
L 3309 0 
L 1241 3903 
L 1241 0 
L 628 0 
L 628 4666 
z
" transform="scale(0.015625)"/>
       <path id="DejaVuSans-67" d="M 2906 1791 
Q 2906 2416 2648 2759 
Q 2391 3103 1925 3103 
Q 1463 3103 1205 2759 
Q 947 2416 947 1791 
Q 947 1169 1205 825 
Q 1463 481 1925 481 
Q 2391 481 2648 825 
Q 2906 1169 2906 1791 
z
M 3481 434 
Q 3481 -459 3084 -895 
Q 2688 -1331 1869 -1331 
Q 1566 -1331 1297 -1286 
Q 1028 -1241 775 -1147 
L 775 -588 
Q 1028 -725 1275 -790 
Q 1522 -856 1778 -856 
Q 2344 -856 2625 -561 
Q 2906 -266 2906 331 
L 2906 616 
Q 2728 306 2450 153 
Q 2172 0 1784 0 
Q 1141 0 747 490 
Q 353 981 353 1791 
Q 353 2603 747 3093 
Q 1141 3584 1784 3584 
Q 2172 3584 2450 3431 
Q 2728 3278 2906 2969 
L 2906 3500 
L 3481 3500 
L 3481 434 
z
" transform="scale(0.015625)"/>
      </defs>
      <use xlink:href="#DejaVuSans-4e"/>
      <use xlink:href="#DejaVuSans-6f" x="74.804688"/>
      <use xlink:href="#DejaVuSans-20" x="135.986328"/>
      <use xlink:href="#DejaVuSans-6d" x="167.773438"/>
      <use xlink:href="#DejaVuSans-69" x="265.185547"/>
      <use xlink:href="#DejaVuSans-67" x="292.96875"/>
      <use xlink:href="#DejaVuSans-72" x="356.445312"/>
      <use xlink:href="#DejaVuSans-61" x="397.558594"/>
      <use xlink:href="#DejaVuSans-74" x="458.837891"/>
      <use xlink:href="#DejaVuSans-69" x="498.046875"/>
      <use xlink:href="#DejaVuSans-6f" x="525.830078"/>
      <use xlink:href="#DejaVuSans-6e" x="587.011719"/>
     </g>
    </g>
    <g id="line2d_21">
     <path d="M 312.680938 248.969937 
L 322.680938 248.969937 
L 332.680938 248.969937 
" style="fill: none; stroke: #2ca02c; stroke-width: 1.5; stroke-linecap: square"/>
    </g>
    <g id="text_17">
     <!-- DNS TTL 1s -->
     <g transform="translate(340.680938 252.469937) scale(0.1 -0.1)">
      <defs>
       <path id="DejaVuSans-44" d="M 1259 4147 
L 1259 519 
L 2022 519 
Q 2988 519 3436 956 
Q 3884 1394 3884 2338 
Q 3884 3275 3436 3711 
Q 2988 4147 2022 4147 
L 1259 4147 
z
M 628 4666 
L 1925 4666 
Q 3281 4666 3915 4102 
Q 4550 3538 4550 2338 
Q 4550 1131 3912 565 
Q 3275 0 1925 0 
L 628 0 
L 628 4666 
z
" transform="scale(0.015625)"/>
       <path id="DejaVuSans-54" d="M -19 4666 
L 3928 4666 
L 3928 4134 
L 2272 4134 
L 2272 0 
L 1638 0 
L 1638 4134 
L -19 4134 
L -19 4666 
z
" transform="scale(0.015625)"/>
       <path id="DejaVuSans-4c" d="M 628 4666 
L 1259 4666 
L 1259 531 
L 3531 531 
L 3531 0 
L 628 0 
L 628 4666 
z
" transform="scale(0.015625)"/>
      </defs>
      <use xlink:href="#DejaVuSans-44"/>
      <use xlink:href="#DejaVuSans-4e" x="77.001953"/>
      <use xlink:href="#DejaVuSans-53" x="151.806641"/>
      <use xlink:href="#DejaVuSans-20" x="215.283203"/>
      <use xlink:href="#DejaVuSans-54" x="247.070312"/>
      <use xlink:href="#DejaVuSans-54" x="306.404297"/>
      <use xlink:href="#DejaVuSans-4c" x="367.488281"/>
      <use xlink:href="#DejaVuSans-20" x="423.201172"/>
      <use xlink:href="#DejaVuSans-31" x="454.988281"/>
      <use xlink:href="#DejaVuSans-73" x="518.611328"/>
     </g>
    </g>
    <g id="line2d_22">
     <path d="M 312.680938 263.648062 
L 322.680938 263.648062 
L 332.680938 263.648062 
" style="fill: none; stroke: #d62728; stroke-width: 1.5; stroke-linecap: square"/>
    </g>
    <g id="text_18">
     <!-- DNS TTL 20s -->
     <g transform="translate(340.680938 267.148062) scale(0.1 -0.1)">
      <use xlink:href="#DejaVuSans-44"/>
      <use xlink:href="#DejaVuSans-4e" x="77.001953"/>
      <use xlink:href="#DejaVuSans-53" x="151.806641"/>
      <use xlink:href="#DejaVuSans-20" x="215.283203"/>
      <use xlink:href="#DejaVuSans-54" x="247.070312"/>
      <use xlink:href="#DejaVuSans-54" x="306.404297"/>
      <use xlink:href="#DejaVuSans-4c" x="367.488281"/>
      <use xlink:href="#DejaVuSans-20" x="423.201172"/>
      <use xlink:href="#DejaVuSans-32" x="454.988281"/>
      <use xlink:href="#DejaVuSans-30" x="518.611328"/>
      <use xlink:href="#DejaVuSans-73" x="582.234375"/>
     </g>
    </g>
    <g id="line2d_23">
     <path d="M 312.680938 278.326188 
L 322.680938 278.326188 
L 332.680938 278.326188 
" style="fill: none; stroke: #9467bd; stroke-width: 1.5; stroke-linecap: square"/>
    </g>
    <g id="text_19">
     <!-- DNS TTL 40s -->
     <g transform="translate(340.680938 281.826188) scale(0.1 -0.1)">
      <use xlink:href="#DejaVuSans-44"/>
      <use xlink:href="#DejaVuSans-4e" x="77.001953"/>
      <use xlink:href="#DejaVuSans-53" x="151.806641"/>
      <use xlink:href="#DejaVuSans-20" x="215.283203"/>
      <use xlink:href="#DejaVuSans-54" x="247.070312"/>
      <use xlink:href="#DejaVuSans-54" x="306.404297"/>
      <use xlink:href="#DejaVuSans-4c" x="367.488281"/>
      <use xlink:href="#DejaVuSans-20" x="423.201172"/>
      <use xlink:href="#DejaVuSans-34" x="454.988281"/>
      <use xlink:href="#DejaVuSans-30" x="518.611328"/>
      <use xlink:href="#DejaVuSans-73" x="582.234375"/>
     </g>
    </g>
    <g id="line2d_24">
     <path d="M 312.680938 293.004312 
L 322.680938 293.004312 
L 332.680938 293.004312 
" style="fill: none; stroke: #8c564b; stroke-width: 1.5; stroke-linecap: square"/>
    </g>
    <g id="text_20">
     <!-- DNS TTL 60s -->
     <g transform="translate(340.680938 296.504312) scale(0.1 -0.1)">
      <use xlink:href="#DejaVuSans-44"/>
      <use xlink:href="#DejaVuSans-4e" x="77.001953"/>
      <use xlink:href="#DejaVuSans-53" x="151.806641"/>
      <use xlink:href="#DejaVuSans-20" x="215.283203"/>
      <use xlink:href="#DejaVuSans-54" x="247.070312"/>
      <use xlink:href="#DejaVuSans-54" x="306.404297"/>
      <use xlink:href="#DejaVuSans-4c" x="367.488281"/>
      <use xlink:href="#DejaVuSans-20" x="423.201172"/>
      <use xlink:href="#DejaVuSans-36" x="454.988281"/>
      <use xlink:href="#DejaVuSans-30" x="518.611328"/>
      <use xlink:href="#DejaVuSans-73" x="582.234375"/>
     </g>
    </g>
   </g>
  </g>
 </g>
 <defs>
  <clipPath id="p091fabbf41">
   <rect x="57.6" y="41.472" width="357.12" height="266.112"/>
  </clipPath>
 </defs>
</svg>
