<?xml version="1.0" encoding="utf-8" standalone="no"?>
<!DOCTYPE svg PUBLIC "-//W3C//DTD SVG 1.1//EN"
  "http://www.w3.org/Graphics/SVG/1.1/DTD/svg11.dtd">
<svg xmlns:xlink="http://www.w3.org/1999/xlink" width="460.8pt" height="345.6pt" viewBox="0 0 460.8 345.6" xmlns="http://www.w3.org/2000/svg" version="1.1">
 <metadata>
  <rdf:RDF xmlns:dc="http://purl.org/dc/elements/1.1/" xmlns:cc="http://creativecommons.org/ns#" xmlns:rdf="http://www.w3.org/1999/02/22-rdf-syntax-ns#">
   <cc:Work>
    <dc:type rdf:resource="http://purl.org/dc/dcmitype/StillImage"/>
    <dc:date>2023-07-15T16:09:46.812853</dc:date>
    <dc:format>image/svg+xml</dc:format>
    <dc:creator>
     <cc:Agent>
      <dc:title>Matplotlib v3.7.1, https://matplotlib.org/</dc:title>
     </cc:Agent>
    </dc:creator>
   </cc:Work>
  </rdf:RDF>
 </metadata>
 <defs>
  <style type="text/css">*{stroke-linejoin: round; stroke-linecap: butt}</style>
 </defs>
 <g id="figure_1">
  <g id="patch_1">
   <path d="M 0 345.6 
L 460.8 345.6 
L 460.8 0 
L 0 0 
z
" style="fill: #ffffff"/>
  </g>
  <g id="axes_1">
   <g id="patch_2">
    <path d="M 57.6 307.584 
L 414.72 307.584 
L 414.72 41.472 
L 57.6 41.472 
z
" style="fill: #ffffff"/>
   </g>
   <g id="matplotlib.axis_1">
    <g id="xtick_1">
     <g id="line2d_1">
      <defs>
       <path id="m52a3b9e340" d="M 0 0 
L 0 3.5 
" style="stroke: #000000; stroke-width: 0.8"/>
      </defs>
      <g>
       <use xlink:href="#m52a3b9e340" x="63.700111" y="307.584" style="stroke: #000000; stroke-width: 0.8"/>
      </g>
     </g>
     <g id="text_1">
      <!-- 0 -->
      <g transform="translate(60.518861 322.182437) scale(0.1 -0.1)">
       <defs>
        <path id="DejaVuSans-30" d="M 2034 4250 
Q 1547 4250 1301 3770 
Q 1056 3291 1056 2328 
Q 1056 1369 1301 889 
Q 1547 409 2034 409 
Q 2525 409 2770 889 
Q 3016 1369 3016 2328 
Q 3016 3291 2770 3770 
Q 2525 4250 2034 4250 
z
M 2034 4750 
Q 2819 4750 3233 4129 
Q 3647 3509 3647 2328 
Q 3647 1150 3233 529 
Q 2819 -91 2034 -91 
Q 1250 -91 836 529 
Q 422 1150 422 2328 
Q 422 3509 836 4129 
Q 1250 4750 2034 4750 
z
" transform="scale(0.015625)"/>
       </defs>
       <use xlink:href="#DejaVuSans-30"/>
      </g>
     </g>
    </g>
    <g id="xtick_2">
     <g id="line2d_2">
      <g>
       <use xlink:href="#m52a3b9e340" x="105.050983" y="307.584" style="stroke: #000000; stroke-width: 0.8"/>
      </g>
     </g>
     <g id="text_2">
      <!-- 50 -->
      <g transform="translate(98.688483 322.182437) scale(0.1 -0.1)">
       <defs>
        <path id="DejaVuSans-35" d="M 691 4666 
L 3169 4666 
L 3169 4134 
L 1269 4134 
L 1269 2991 
Q 1406 3038 1543 3061 
Q 1681 3084 1819 3084 
Q 2600 3084 3056 2656 
Q 3513 2228 3513 1497 
Q 3513 744 3044 326 
Q 2575 -91 1722 -91 
Q 1428 -91 1123 -41 
Q 819 9 494 109 
L 494 744 
Q 775 591 1075 516 
Q 1375 441 1709 441 
Q 2250 441 2565 725 
Q 2881 1009 2881 1497 
Q 2881 1984 2565 2268 
Q 2250 2553 1709 2553 
Q 1456 2553 1204 2497 
Q 953 2441 691 2322 
L 691 4666 
z
" transform="scale(0.015625)"/>
       </defs>
       <use xlink:href="#DejaVuSans-35"/>
       <use xlink:href="#DejaVuSans-30" x="63.623047"/>
      </g>
     </g>
    </g>
    <g id="xtick_3">
     <g id="line2d_3">
      <g>
       <use xlink:href="#m52a3b9e340" x="146.401855" y="307.584" style="stroke: #000000; stroke-width: 0.8"/>
      </g>
     </g>
     <g id="text_3">
      <!-- 100 -->
      <g transform="translate(136.858105 322.182437) scale(0.1 -0.1)">
       <defs>
        <path id="DejaVuSans-31" d="M 794 531 
L 1825 531 
L 1825 4091 
L 703 3866 
L 703 4441 
L 1819 4666 
L 2450 4666 
L 2450 531 
L 3481 531 
L 3481 0 
L 794 0 
L 794 531 
z
" transform="scale(0.015625)"/>
       </defs>
       <use xlink:href="#DejaVuSans-31"/>
       <use xlink:href="#DejaVuSans-30" x="63.623047"/>
       <use xlink:href="#DejaVuSans-30" x="127.246094"/>
      </g>
     </g>
    </g>
    <g id="xtick_4">
     <g id="line2d_4">
      <g>
       <use xlink:href="#m52a3b9e340" x="187.752726" y="307.584" style="stroke: #000000; stroke-width: 0.8"/>
      </g>
     </g>
     <g id="text_4">
      <!-- 150 -->
      <g transform="translate(178.208976 322.182437) scale(0.1 -0.1)">
       <use xlink:href="#DejaVuSans-31"/>
       <use xlink:href="#DejaVuSans-35" x="63.623047"/>
       <use xlink:href="#DejaVuSans-30" x="127.246094"/>
      </g>
     </g>
    </g>
    <g id="xtick_5">
     <g id="line2d_5">
      <g>
       <use xlink:href="#m52a3b9e340" x="229.103598" y="307.584" style="stroke: #000000; stroke-width: 0.8"/>
      </g>
     </g>
     <g id="text_5">
      <!-- 200 -->
      <g transform="translate(219.559848 322.182437) scale(0.1 -0.1)">
       <defs>
        <path id="DejaVuSans-32" d="M 1228 531 
L 3431 531 
L 3431 0 
L 469 0 
L 469 531 
Q 828 903 1448 1529 
Q 2069 2156 2228 2338 
Q 2531 2678 2651 2914 
Q 2772 3150 2772 3378 
Q 2772 3750 2511 3984 
Q 2250 4219 1831 4219 
Q 1534 4219 1204 4116 
Q 875 4013 500 3803 
L 500 4441 
Q 881 4594 1212 4672 
Q 1544 4750 1819 4750 
Q 2544 4750 2975 4387 
Q 3406 4025 3406 3419 
Q 3406 3131 3298 2873 
Q 3191 2616 2906 2266 
Q 2828 2175 2409 1742 
Q 1991 1309 1228 531 
z
" transform="scale(0.015625)"/>
       </defs>
       <use xlink:href="#DejaVuSans-32"/>
       <use xlink:href="#DejaVuSans-30" x="63.623047"/>
       <use xlink:href="#DejaVuSans-30" x="127.246094"/>
      </g>
     </g>
    </g>
    <g id="xtick_6">
     <g id="line2d_6">
      <g>
       <use xlink:href="#m52a3b9e340" x="270.45447" y="307.584" style="stroke: #000000; stroke-width: 0.8"/>
      </g>
     </g>
     <g id="text_6">
      <!-- 250 -->
      <g transform="translate(260.91072 322.182437) scale(0.1 -0.1)">
       <use xlink:href="#DejaVuSans-32"/>
       <use xlink:href="#DejaVuSans-35" x="63.623047"/>
       <use xlink:href="#DejaVuSans-30" x="127.246094"/>
      </g>
     </g>
    </g>
    <g id="xtick_7">
     <g id="line2d_7">
      <g>
       <use xlink:href="#m52a3b9e340" x="311.805342" y="307.584" style="stroke: #000000; stroke-width: 0.8"/>
      </g>
     </g>
     <g id="text_7">
      <!-- 300 -->
      <g transform="translate(302.261592 322.182437) scale(0.1 -0.1)">
       <defs>
        <path id="DejaVuSans-33" d="M 2597 2516 
Q 3050 2419 3304 2112 
Q 3559 1806 3559 1356 
Q 3559 666 3084 287 
Q 2609 -91 1734 -91 
Q 1441 -91 1130 -33 
Q 819 25 488 141 
L 488 750 
Q 750 597 1062 519 
Q 1375 441 1716 441 
Q 2309 441 2620 675 
Q 2931 909 2931 1356 
Q 2931 1769 2642 2001 
Q 2353 2234 1838 2234 
L 1294 2234 
L 1294 2753 
L 1863 2753 
Q 2328 2753 2575 2939 
Q 2822 3125 2822 3475 
Q 2822 3834 2567 4026 
Q 2313 4219 1838 4219 
Q 1578 4219 1281 4162 
Q 984 4106 628 3988 
L 628 4550 
Q 988 4650 1302 4700 
Q 1616 4750 1894 4750 
Q 2613 4750 3031 4423 
Q 3450 4097 3450 3541 
Q 3450 3153 3228 2886 
Q 3006 2619 2597 2516 
z
" transform="scale(0.015625)"/>
       </defs>
       <use xlink:href="#DejaVuSans-33"/>
       <use xlink:href="#DejaVuSans-30" x="63.623047"/>
       <use xlink:href="#DejaVuSans-30" x="127.246094"/>
      </g>
     </g>
    </g>
    <g id="xtick_8">
     <g id="line2d_8">
      <g>
       <use xlink:href="#m52a3b9e340" x="353.156213" y="307.584" style="stroke: #000000; stroke-width: 0.8"/>
      </g>
     </g>
     <g id="text_8">
      <!-- 350 -->
      <g transform="translate(343.612463 322.182437) scale(0.1 -0.1)">
       <use xlink:href="#DejaVuSans-33"/>
       <use xlink:href="#DejaVuSans-35" x="63.623047"/>
       <use xlink:href="#DejaVuSans-30" x="127.246094"/>
      </g>
     </g>
    </g>
    <g id="xtick_9">
     <g id="line2d_9">
      <g>
       <use xlink:href="#m52a3b9e340" x="394.507085" y="307.584" style="stroke: #000000; stroke-width: 0.8"/>
      </g>
     </g>
     <g id="text_9">
      <!-- 400 -->
      <g transform="translate(384.963335 322.182437) scale(0.1 -0.1)">
       <defs>
        <path id="DejaVuSans-34" d="M 2419 4116 
L 825 1625 
L 2419 1625 
L 2419 4116 
z
M 2253 4666 
L 3047 4666 
L 3047 1625 
L 3713 1625 
L 3713 1100 
L 3047 1100 
L 3047 0 
L 2419 0 
L 2419 1100 
L 313 1100 
L 313 1709 
L 2253 4666 
z
" transform="scale(0.015625)"/>
       </defs>
       <use xlink:href="#DejaVuSans-34"/>
       <use xlink:href="#DejaVuSans-30" x="63.623047"/>
       <use xlink:href="#DejaVuSans-30" x="127.246094"/>
      </g>
     </g>
    </g>
    <g id="text_10">
     <!-- Response time (ms) -->
     <g transform="translate(186.295156 335.860562) scale(0.1 -0.1)">
      <defs>
       <path id="DejaVuSans-52" d="M 2841 2188 
Q 3044 2119 3236 1894 
Q 3428 1669 3622 1275 
L 4263 0 
L 3584 0 
L 2988 1197 
Q 2756 1666 2539 1819 
Q 2322 1972 1947 1972 
L 1259 1972 
L 1259 0 
L 628 0 
L 628 4666 
L 2053 4666 
Q 2853 4666 3247 4331 
Q 3641 3997 3641 3322 
Q 3641 2881 3436 2590 
Q 3231 2300 2841 2188 
z
M 1259 4147 
L 1259 2491 
L 2053 2491 
Q 2509 2491 2742 2702 
Q 2975 2913 2975 3322 
Q 2975 3731 2742 3939 
Q 2509 4147 2053 4147 
L 1259 4147 
z
" transform="scale(0.015625)"/>
       <path id="DejaVuSans-65" d="M 3597 1894 
L 3597 1613 
L 953 1613 
Q 991 1019 1311 708 
Q 1631 397 2203 397 
Q 2534 397 2845 478 
Q 3156 559 3463 722 
L 3463 178 
Q 3153 47 2828 -22 
Q 2503 -91 2169 -91 
Q 1331 -91 842 396 
Q 353 884 353 1716 
Q 353 2575 817 3079 
Q 1281 3584 2069 3584 
Q 2775 3584 3186 3129 
Q 3597 2675 3597 1894 
z
M 3022 2063 
Q 3016 2534 2758 2815 
Q 2500 3097 2075 3097 
Q 1594 3097 1305 2825 
Q 1016 2553 972 2059 
L 3022 2063 
z
" transform="scale(0.015625)"/>
       <path id="DejaVuSans-73" d="M 2834 3397 
L 2834 2853 
Q 2591 2978 2328 3040 
Q 2066 3103 1784 3103 
Q 1356 3103 1142 2972 
Q 928 2841 928 2578 
Q 928 2378 1081 2264 
Q 1234 2150 1697 2047 
L 1894 2003 
Q 2506 1872 2764 1633 
Q 3022 1394 3022 966 
Q 3022 478 2636 193 
Q 2250 -91 1575 -91 
Q 1294 -91 989 -36 
Q 684 19 347 128 
L 347 722 
Q 666 556 975 473 
Q 1284 391 1588 391 
Q 1994 391 2212 530 
Q 2431 669 2431 922 
Q 2431 1156 2273 1281 
Q 2116 1406 1581 1522 
L 1381 1569 
Q 847 1681 609 1914 
Q 372 2147 372 2553 
Q 372 3047 722 3315 
Q 1072 3584 1716 3584 
Q 2034 3584 2315 3537 
Q 2597 3491 2834 3397 
z
" transform="scale(0.015625)"/>
       <path id="DejaVuSans-70" d="M 1159 525 
L 1159 -1331 
L 581 -1331 
L 581 3500 
L 1159 3500 
L 1159 2969 
Q 1341 3281 1617 3432 
Q 1894 3584 2278 3584 
Q 2916 3584 3314 3078 
Q 3713 2572 3713 1747 
Q 3713 922 3314 415 
Q 2916 -91 2278 -91 
Q 1894 -91 1617 61 
Q 1341 213 1159 525 
z
M 3116 1747 
Q 3116 2381 2855 2742 
Q 2594 3103 2138 3103 
Q 1681 3103 1420 2742 
Q 1159 2381 1159 1747 
Q 1159 1113 1420 752 
Q 1681 391 2138 391 
Q 2594 391 2855 752 
Q 3116 1113 3116 1747 
z
" transform="scale(0.015625)"/>
       <path id="DejaVuSans-6f" d="M 1959 3097 
Q 1497 3097 1228 2736 
Q 959 2375 959 1747 
Q 959 1119 1226 758 
Q 1494 397 1959 397 
Q 2419 397 2687 759 
Q 2956 1122 2956 1747 
Q 2956 2369 2687 2733 
Q 2419 3097 1959 3097 
z
M 1959 3584 
Q 2709 3584 3137 3096 
Q 3566 2609 3566 1747 
Q 3566 888 3137 398 
Q 2709 -91 1959 -91 
Q 1206 -91 779 398 
Q 353 888 353 1747 
Q 353 2609 779 3096 
Q 1206 3584 1959 3584 
z
" transform="scale(0.015625)"/>
       <path id="DejaVuSans-6e" d="M 3513 2113 
L 3513 0 
L 2938 0 
L 2938 2094 
Q 2938 2591 2744 2837 
Q 2550 3084 2163 3084 
Q 1697 3084 1428 2787 
Q 1159 2491 1159 1978 
L 1159 0 
L 581 0 
L 581 3500 
L 1159 3500 
L 1159 2956 
Q 1366 3272 1645 3428 
Q 1925 3584 2291 3584 
Q 2894 3584 3203 3211 
Q 3513 2838 3513 2113 
z
" transform="scale(0.015625)"/>
       <path id="DejaVuSans-20" transform="scale(0.015625)"/>
       <path id="DejaVuSans-74" d="M 1172 4494 
L 1172 3500 
L 2356 3500 
L 2356 3053 
L 1172 3053 
L 1172 1153 
Q 1172 725 1289 603 
Q 1406 481 1766 481 
L 2356 481 
L 2356 0 
L 1766 0 
Q 1100 0 847 248 
Q 594 497 594 1153 
L 594 3053 
L 172 3053 
L 172 3500 
L 594 3500 
L 594 4494 
L 1172 4494 
z
" transform="scale(0.015625)"/>
       <path id="DejaVuSans-69" d="M 603 3500 
L 1178 3500 
L 1178 0 
L 603 0 
L 603 3500 
z
M 603 4863 
L 1178 4863 
L 1178 4134 
L 603 4134 
L 603 4863 
z
" transform="scale(0.015625)"/>
       <path id="DejaVuSans-6d" d="M 3328 2828 
Q 3544 3216 3844 3400 
Q 4144 3584 4550 3584 
Q 5097 3584 5394 3201 
Q 5691 2819 5691 2113 
L 5691 0 
L 5113 0 
L 5113 2094 
Q 5113 2597 4934 2840 
Q 4756 3084 4391 3084 
Q 3944 3084 3684 2787 
Q 3425 2491 3425 1978 
L 3425 0 
L 2847 0 
L 2847 2094 
Q 2847 2600 2669 2842 
Q 2491 3084 2119 3084 
Q 1678 3084 1418 2786 
Q 1159 2488 1159 1978 
L 1159 0 
L 581 0 
L 581 3500 
L 1159 3500 
L 1159 2956 
Q 1356 3278 1631 3431 
Q 1906 3584 2284 3584 
Q 2666 3584 2933 3390 
Q 3200 3197 3328 2828 
z
" transform="scale(0.015625)"/>
       <path id="DejaVuSans-28" d="M 1984 4856 
Q 1566 4138 1362 3434 
Q 1159 2731 1159 2009 
Q 1159 1288 1364 580 
Q 1569 -128 1984 -844 
L 1484 -844 
Q 1016 -109 783 600 
Q 550 1309 550 2009 
Q 550 2706 781 3412 
Q 1013 4119 1484 4856 
L 1984 4856 
z
" transform="scale(0.015625)"/>
       <path id="DejaVuSans-29" d="M 513 4856 
L 1013 4856 
Q 1481 4119 1714 3412 
Q 1947 2706 1947 2009 
Q 1947 1309 1714 600 
Q 1481 -109 1013 -844 
L 513 -844 
Q 928 -128 1133 580 
Q 1338 1288 1338 2009 
Q 1338 2731 1133 3434 
Q 928 4138 513 4856 
z
" transform="scale(0.015625)"/>
      </defs>
      <use xlink:href="#DejaVuSans-52"/>
      <use xlink:href="#DejaVuSans-65" x="64.982422"/>
      <use xlink:href="#DejaVuSans-73" x="126.505859"/>
      <use xlink:href="#DejaVuSans-70" x="178.605469"/>
      <use xlink:href="#DejaVuSans-6f" x="242.082031"/>
      <use xlink:href="#DejaVuSans-6e" x="303.263672"/>
      <use xlink:href="#DejaVuSans-73" x="366.642578"/>
      <use xlink:href="#DejaVuSans-65" x="418.742188"/>
      <use xlink:href="#DejaVuSans-20" x="480.265625"/>
      <use xlink:href="#DejaVuSans-74" x="512.052734"/>
      <use xlink:href="#DejaVuSans-69" x="551.261719"/>
      <use xlink:href="#DejaVuSans-6d" x="579.044922"/>
      <use xlink:href="#DejaVuSans-65" x="676.457031"/>
      <use xlink:href="#DejaVuSans-20" x="737.980469"/>
      <use xlink:href="#DejaVuSans-28" x="769.767578"/>
      <use xlink:href="#DejaVuSans-6d" x="808.78125"/>
      <use xlink:href="#DejaVuSans-73" x="906.193359"/>
      <use xlink:href="#DejaVuSans-29" x="958.292969"/>
     </g>
    </g>
   </g>
   <g id="matplotlib.axis_2">
    <g id="ytick_1">
     <g id="line2d_10">
      <defs>
       <path id="m57236a654e" d="M 0 0 
L -3.5 0 
" style="stroke: #000000; stroke-width: 0.8"/>
      </defs>
      <g>
       <use xlink:href="#m57236a654e" x="57.6" y="295.513203" style="stroke: #000000; stroke-width: 0.8"/>
      </g>
     </g>
     <g id="text_11">
      <!-- 0.0 -->
      <g transform="translate(34.696875 299.312421) scale(0.1 -0.1)">
       <defs>
        <path id="DejaVuSans-2e" d="M 684 794 
L 1344 794 
L 1344 0 
L 684 0 
L 684 794 
z
" transform="scale(0.015625)"/>
       </defs>
       <use xlink:href="#DejaVuSans-30"/>
       <use xlink:href="#DejaVuSans-2e" x="63.623047"/>
       <use xlink:href="#DejaVuSans-30" x="95.410156"/>
      </g>
     </g>
    </g>
    <g id="ytick_2">
     <g id="line2d_11">
      <g>
       <use xlink:href="#m57236a654e" x="57.6" y="247.124162" style="stroke: #000000; stroke-width: 0.8"/>
      </g>
     </g>
     <g id="text_12">
      <!-- 0.2 -->
      <g transform="translate(34.696875 250.923381) scale(0.1 -0.1)">
       <use xlink:href="#DejaVuSans-30"/>
       <use xlink:href="#DejaVuSans-2e" x="63.623047"/>
       <use xlink:href="#DejaVuSans-32" x="95.410156"/>
      </g>
     </g>
    </g>
    <g id="ytick_3">
     <g id="line2d_12">
      <g>
       <use xlink:href="#m57236a654e" x="57.6" y="198.735122" style="stroke: #000000; stroke-width: 0.8"/>
      </g>
     </g>
     <g id="text_13">
      <!-- 0.4 -->
      <g transform="translate(34.696875 202.53434) scale(0.1 -0.1)">
       <use xlink:href="#DejaVuSans-30"/>
       <use xlink:href="#DejaVuSans-2e" x="63.623047"/>
       <use xlink:href="#DejaVuSans-34" x="95.410156"/>
      </g>
     </g>
    </g>
    <g id="ytick_4">
     <g id="line2d_13">
      <g>
       <use xlink:href="#m57236a654e" x="57.6" y="150.346081" style="stroke: #000000; stroke-width: 0.8"/>
      </g>
     </g>
     <g id="text_14">
      <!-- 0.6 -->
      <g transform="translate(34.696875 154.1453) scale(0.1 -0.1)">
       <defs>
        <path id="DejaVuSans-36" d="M 2113 2584 
Q 1688 2584 1439 2293 
Q 1191 2003 1191 1497 
Q 1191 994 1439 701 
Q 1688 409 2113 409 
Q 2538 409 2786 701 
Q 3034 994 3034 1497 
Q 3034 2003 2786 2293 
Q 2538 2584 2113 2584 
z
M 3366 4563 
L 3366 3988 
Q 3128 4100 2886 4159 
Q 2644 4219 2406 4219 
Q 1781 4219 1451 3797 
Q 1122 3375 1075 2522 
Q 1259 2794 1537 2939 
Q 1816 3084 2150 3084 
Q 2853 3084 3261 2657 
Q 3669 2231 3669 1497 
Q 3669 778 3244 343 
Q 2819 -91 2113 -91 
Q 1303 -91 875 529 
Q 447 1150 447 2328 
Q 447 3434 972 4092 
Q 1497 4750 2381 4750 
Q 2619 4750 2861 4703 
Q 3103 4656 3366 4563 
z
" transform="scale(0.015625)"/>
       </defs>
       <use xlink:href="#DejaVuSans-30"/>
       <use xlink:href="#DejaVuSans-2e" x="63.623047"/>
       <use xlink:href="#DejaVuSans-36" x="95.410156"/>
      </g>
     </g>
    </g>
    <g id="ytick_5">
     <g id="line2d_14">
      <g>
       <use xlink:href="#m57236a654e" x="57.6" y="101.957041" style="stroke: #000000; stroke-width: 0.8"/>
      </g>
     </g>
     <g id="text_15">
      <!-- 0.8 -->
      <g transform="translate(34.696875 105.756259) scale(0.1 -0.1)">
       <defs>
        <path id="DejaVuSans-38" d="M 2034 2216 
Q 1584 2216 1326 1975 
Q 1069 1734 1069 1313 
Q 1069 891 1326 650 
Q 1584 409 2034 409 
Q 2484 409 2743 651 
Q 3003 894 3003 1313 
Q 3003 1734 2745 1975 
Q 2488 2216 2034 2216 
z
M 1403 2484 
Q 997 2584 770 2862 
Q 544 3141 544 3541 
Q 544 4100 942 4425 
Q 1341 4750 2034 4750 
Q 2731 4750 3128 4425 
Q 3525 4100 3525 3541 
Q 3525 3141 3298 2862 
Q 3072 2584 2669 2484 
Q 3125 2378 3379 2068 
Q 3634 1759 3634 1313 
Q 3634 634 3220 271 
Q 2806 -91 2034 -91 
Q 1263 -91 848 271 
Q 434 634 434 1313 
Q 434 1759 690 2068 
Q 947 2378 1403 2484 
z
M 1172 3481 
Q 1172 3119 1398 2916 
Q 1625 2713 2034 2713 
Q 2441 2713 2670 2916 
Q 2900 3119 2900 3481 
Q 2900 3844 2670 4047 
Q 2441 4250 2034 4250 
Q 1625 4250 1398 4047 
Q 1172 3844 1172 3481 
z
" transform="scale(0.015625)"/>
       </defs>
       <use xlink:href="#DejaVuSans-30"/>
       <use xlink:href="#DejaVuSans-2e" x="63.623047"/>
       <use xlink:href="#DejaVuSans-38" x="95.410156"/>
      </g>
     </g>
    </g>
    <g id="ytick_6">
     <g id="line2d_15">
      <g>
       <use xlink:href="#m57236a654e" x="57.6" y="53.568" style="stroke: #000000; stroke-width: 0.8"/>
      </g>
     </g>
     <g id="text_16">
      <!-- 1.0 -->
      <g transform="translate(34.696875 57.367219) scale(0.1 -0.1)">
       <use xlink:href="#DejaVuSans-31"/>
       <use xlink:href="#DejaVuSans-2e" x="63.623047"/>
       <use xlink:href="#DejaVuSans-30" x="95.410156"/>
      </g>
     </g>
    </g>
    <g id="text_17">
     <!-- Probability -->
     <g transform="translate(28.617187 200.956906) rotate(-90) scale(0.1 -0.1)">
      <defs>
       <path id="DejaVuSans-50" d="M 1259 4147 
L 1259 2394 
L 2053 2394 
Q 2494 2394 2734 2622 
Q 2975 2850 2975 3272 
Q 2975 3691 2734 3919 
Q 2494 4147 2053 4147 
L 1259 4147 
z
M 628 4666 
L 2053 4666 
Q 2838 4666 3239 4311 
Q 3641 3956 3641 3272 
Q 3641 2581 3239 2228 
Q 2838 1875 2053 1875 
L 1259 1875 
L 1259 0 
L 628 0 
L 628 4666 
z
" transform="scale(0.015625)"/>
       <path id="DejaVuSans-72" d="M 2631 2963 
Q 2534 3019 2420 3045 
Q 2306 3072 2169 3072 
Q 1681 3072 1420 2755 
Q 1159 2438 1159 1844 
L 1159 0 
L 581 0 
L 581 3500 
L 1159 3500 
L 1159 2956 
Q 1341 3275 1631 3429 
Q 1922 3584 2338 3584 
Q 2397 3584 2469 3576 
Q 2541 3569 2628 3553 
L 2631 2963 
z
" transform="scale(0.015625)"/>
       <path id="DejaVuSans-62" d="M 3116 1747 
Q 3116 2381 2855 2742 
Q 2594 3103 2138 3103 
Q 1681 3103 1420 2742 
Q 1159 2381 1159 1747 
Q 1159 1113 1420 752 
Q 1681 391 2138 391 
Q 2594 391 2855 752 
Q 3116 1113 3116 1747 
z
M 1159 2969 
Q 1341 3281 1617 3432 
Q 1894 3584 2278 3584 
Q 2916 3584 3314 3078 
Q 3713 2572 3713 1747 
Q 3713 922 3314 415 
Q 2916 -91 2278 -91 
Q 1894 -91 1617 61 
Q 1341 213 1159 525 
L 1159 0 
L 581 0 
L 581 4863 
L 1159 4863 
L 1159 2969 
z
" transform="scale(0.015625)"/>
       <path id="DejaVuSans-61" d="M 2194 1759 
Q 1497 1759 1228 1600 
Q 959 1441 959 1056 
Q 959 750 1161 570 
Q 1363 391 1709 391 
Q 2188 391 2477 730 
Q 2766 1069 2766 1631 
L 2766 1759 
L 2194 1759 
z
M 3341 1997 
L 3341 0 
L 2766 0 
L 2766 531 
Q 2569 213 2275 61 
Q 1981 -91 1556 -91 
Q 1019 -91 701 211 
Q 384 513 384 1019 
Q 384 1609 779 1909 
Q 1175 2209 1959 2209 
L 2766 2209 
L 2766 2266 
Q 2766 2663 2505 2880 
Q 2244 3097 1772 3097 
Q 1472 3097 1187 3025 
Q 903 2953 641 2809 
L 641 3341 
Q 956 3463 1253 3523 
Q 1550 3584 1831 3584 
Q 2591 3584 2966 3190 
Q 3341 2797 3341 1997 
z
" transform="scale(0.015625)"/>
       <path id="DejaVuSans-6c" d="M 603 4863 
L 1178 4863 
L 1178 0 
L 603 0 
L 603 4863 
z
" transform="scale(0.015625)"/>
       <path id="DejaVuSans-79" d="M 2059 -325 
Q 1816 -950 1584 -1140 
Q 1353 -1331 966 -1331 
L 506 -1331 
L 506 -850 
L 844 -850 
Q 1081 -850 1212 -737 
Q 1344 -625 1503 -206 
L 1606 56 
L 191 3500 
L 800 3500 
L 1894 763 
L 2988 3500 
L 3597 3500 
L 2059 -325 
z
" transform="scale(0.015625)"/>
      </defs>
      <use xlink:href="#DejaVuSans-50"/>
      <use xlink:href="#DejaVuSans-72" x="58.552734"/>
      <use xlink:href="#DejaVuSans-6f" x="97.416016"/>
      <use xlink:href="#DejaVuSans-62" x="158.597656"/>
      <use xlink:href="#DejaVuSans-61" x="222.074219"/>
      <use xlink:href="#DejaVuSans-62" x="283.353516"/>
      <use xlink:href="#DejaVuSans-69" x="346.830078"/>
      <use xlink:href="#DejaVuSans-6c" x="374.613281"/>
      <use xlink:href="#DejaVuSans-69" x="402.396484"/>
      <use xlink:href="#DejaVuSans-74" x="430.179688"/>
      <use xlink:href="#DejaVuSans-79" x="469.388672"/>
     </g>
    </g>
   </g>
   <g id="line2d_16">
    <path d="M 73.942815 295.488 
L 74.599343 295.109961 
L 74.836949 294.379084 
L 75.169648 290.97673 
L 75.298405 287.801199 
L 75.481053 282.105406 
L 75.547164 278.778659 
L 76.65461 172.070744 
L 76.90715 141.399149 
L 76.954086 136.484637 
L 77.130982 117.733884 
L 77.19355 112.390927 
L 77.362091 99.109144 
L 77.712639 80.358391 
L 77.774188 78.417789 
L 77.934606 74.183747 
L 78.053463 71.739093 
L 78.621453 64.379926 
L 78.718388 63.598645 
L 79.127656 60.801153 
L 79.37968 59.919062 
L 79.518868 59.339401 
L 79.953492 58.205283 
L 80.082783 58.054067 
L 80.182981 57.877649 
L 80.883061 57.323191 
L 82.761709 56.945152 
L 90.230917 56.567112 
L 102.179242 56.441099 
L 104.623366 56.189073 
L 119.498856 56.138668 
L 170.924234 56.012655 
L 172.013572 54.954144 
L 172.488077 54.424889 
L 172.816821 54.122458 
L 172.847136 54.072053 
L 173.055944 53.920837 
L 173.0819 53.845229 
L 174.726056 53.593203 
L 176.310228 53.568 
L 176.310228 53.568 
" clip-path="url(#p1ad3a86b1c)" style="fill: none; stroke: #1f77b4; stroke-width: 1.5; stroke-linecap: square"/>
   </g>
   <g id="line2d_17">
    <path d="M 73.832727 295.488 
L 74.512882 295.336784 
L 74.638975 295.210771 
L 74.943041 294.605908 
L 75.086142 293.774221 
L 75.428648 287.851605 
L 75.55054 283.86959 
L 76.128733 255.113394 
L 76.269515 246.090854 
L 76.323978 243.041337 
L 76.439576 235.808183 
L 76.498092 232.103397 
L 76.640033 222.803629 
L 76.774005 214.688383 
L 76.922469 206.547935 
L 76.974023 204.00247 
L 77.113974 197.979043 
L 77.284192 191.300347 
L 77.709159 182.832265 
L 77.806462 181.773755 
L 77.93508 180.639637 
L 78.029194 180.185989 
L 78.414651 178.27059 
L 78.467489 178.119374 
L 78.650402 177.262485 
L 78.833836 176.73323 
L 78.969204 176.456001 
L 79.085519 176.178772 
L 79.31028 175.674719 
L 79.424295 175.523504 
L 79.508007 175.422693 
L 79.885182 175.246275 
L 79.992455 175.145464 
L 81.712935 174.843033 
L 84.631158 174.691817 
L 87.599028 174.591007 
L 169.840544 174.33898 
L 170.138068 173.784523 
L 170.556521 169.626089 
L 170.675519 166.954611 
L 170.797853 163.325433 
L 172.722642 66.62296 
L 172.851051 64.329521 
L 172.960816 62.514932 
L 173.39114 58.482512 
L 173.459944 58.306094 
L 174.204351 55.306981 
L 174.332321 55.10536 
L 174.399497 55.029752 
L 174.527638 54.878537 
L 174.721334 54.651713 
L 175.119752 54.450092 
L 176.107735 54.14766 
L 176.188253 54.021647 
L 176.904112 53.920837 
L 179.347733 53.719216 
L 179.487814 53.694013 
L 182.806237 53.568 
L 182.806237 53.568 
" clip-path="url(#p1ad3a86b1c)" style="fill: none; stroke: #ff7f0e; stroke-width: 1.5; stroke-linecap: square"/>
   </g>
   <g id="line2d_18">
    <path d="M 90.624869 295.488 
L 92.307308 294.757124 
L 92.43753 294.454692 
L 92.574817 294.152261 
L 92.766388 293.446587 
L 93.325446 289.036128 
L 93.516692 286.641879 
L 93.570462 285.860597 
L 93.731233 282.206216 
L 93.799451 280.870477 
L 94.364649 259.649867 
L 94.755807 237.471557 
L 95.809856 159.948281 
L 95.954067 149.136355 
L 95.988707 146.490079 
L 96.174575 134.039982 
L 96.242902 129.755536 
L 96.379355 121.035428 
L 96.430361 118.338747 
L 97.365005 82.576222 
L 97.884776 72.419564 
L 97.983084 71.033419 
L 98.246283 68.034307 
L 98.487822 66.0433 
L 98.663128 64.732763 
L 98.728252 64.556345 
L 98.96939 63.623847 
L 99.303791 62.061285 
L 99.470974 61.481624 
L 99.642421 61.15399 
L 101.189027 58.709336 
L 102.158656 58.331296 
L 102.990592 58.028865 
L 103.965204 57.877649 
L 104.215425 57.751636 
L 104.628125 57.701231 
L 105.847224 57.373596 
L 106.120823 57.272786 
L 108.213945 56.945152 
L 111.45743 56.743531 
L 146.891572 56.667923 
L 378.676161 56.54191 
L 378.854898 56.466302 
L 380.503099 55.911844 
L 381.008708 55.4834 
L 381.046242 55.382589 
L 381.22837 55.231373 
L 381.78857 54.676916 
L 382.380208 54.298876 
L 382.480546 54.223268 
L 386.978793 53.593203 
L 388.222791 53.568 
L 388.222791 53.568 
" clip-path="url(#p1ad3a86b1c)" style="fill: none; stroke: #2ca02c; stroke-width: 1.5; stroke-linecap: square"/>
   </g>
   <g id="line2d_19">
    <path d="M 89.039784 295.488 
L 90.707381 295.361987 
L 90.923737 295.261176 
L 91.759545 294.883137 
L 91.842435 294.807529 
L 91.982941 294.631111 
L 92.106436 294.379084 
L 92.206584 294.177463 
L 92.517669 293.421385 
L 92.660997 292.791319 
L 92.894881 291.329567 
L 93.258786 287.397957 
L 93.401649 284.953303 
L 93.646764 279.055888 
L 93.845912 273.4105 
L 94.159307 259.977501 
L 94.290537 253.878466 
L 94.454396 245.107952 
L 95.791649 150.799728 
L 95.983521 138.400037 
L 96.042527 134.871669 
L 96.188601 126.605208 
L 96.315152 119.926512 
L 96.429076 114.835582 
L 96.548722 109.946273 
L 96.792142 100.470086 
L 97.35556 87.011884 
L 97.599868 83.584327 
L 97.716396 82.298993 
L 98.758423 74.460976 
L 98.85108 74.259355 
L 99.047591 73.578884 
L 99.166997 73.125237 
L 99.876965 71.386256 
L 99.973139 71.260243 
L 100.094402 70.932609 
L 100.396349 70.680583 
L 100.556927 70.579772 
L 101.899797 69.69768 
L 102.750593 69.445654 
L 102.940897 69.319641 
L 103.226234 69.11802 
L 103.499243 69.017209 
L 104.381072 68.765183 
L 105.140427 68.613967 
L 105.657049 68.538359 
L 111.481149 68.387144 
L 142.408152 68.311536 
L 378.414448 68.185523 
L 378.773019 67.958699 
L 378.879559 67.706673 
L 379.120354 67.530254 
L 379.369816 67.076607 
L 379.544783 66.698568 
L 379.608914 66.496947 
L 380.022672 65.161208 
L 380.094088 64.833573 
L 381.190281 59.364604 
L 381.309798 58.910957 
L 381.454366 58.381701 
L 381.575341 58.028865 
L 381.69134 57.60042 
L 381.813131 57.171975 
L 382.187248 56.06306 
L 383.233914 54.777726 
L 383.463217 54.601308 
L 383.792867 54.273674 
L 383.799203 54.248471 
L 384.357204 54.04685 
L 384.361418 54.021647 
L 388.203459 53.593203 
L 393.435629 53.568 
L 393.435629 53.568 
" clip-path="url(#p1ad3a86b1c)" style="fill: none; stroke: #d62728; stroke-width: 1.5; stroke-linecap: square"/>
   </g>
   <g id="line2d_20">
    <path d="M 89.176069 295.488 
L 91.121016 295.286379 
L 91.812723 294.958745 
L 91.874285 294.90834 
L 92.13704 294.731921 
L 92.298135 294.353882 
L 92.422815 294.05145 
L 92.620673 293.623006 
L 92.763982 292.967737 
L 92.865534 292.488888 
L 93.0227 291.657201 
L 93.489377 286.137826 
L 94.000164 272.629219 
L 94.62867 242.537284 
L 95.048208 215.872907 
L 95.074076 214.058318 
L 95.185236 206.321112 
L 95.488409 184.772867 
L 95.651092 173.75932 
L 96.540083 121.287454 
L 96.560882 120.531375 
L 96.681105 115.692471 
L 96.736497 113.550248 
L 96.858956 109.517828 
L 97.416089 95.177534 
L 97.455157 94.572671 
L 98.568569 82.65183 
L 98.605953 82.450209 
L 98.722304 81.971359 
L 98.80003 81.668927 
L 99.038632 80.459201 
L 99.136444 80.181972 
L 99.530333 79.123462 
L 99.912286 78.594207 
L 100.66159 77.712115 
L 100.850616 77.560899 
L 101.593811 76.956036 
L 102.299834 76.577997 
L 102.42095 76.477186 
L 102.677412 76.401578 
L 104.250797 76.149552 
L 104.271512 76.12435 
L 105.229101 75.897526 
L 106.772833 75.695905 
L 110.183734 75.469081 
L 143.307761 75.393473 
L 378.521764 75.242258 
L 378.626633 75.141447 
L 378.927177 74.990231 
L 379.099711 74.6878 
L 379.313865 74.435774 
L 379.438387 74.158545 
L 379.581361 73.856113 
L 379.696772 73.553682 
L 379.776553 73.226048 
L 379.895083 72.67159 
L 381.073798 64.783168 
L 381.194609 64.027089 
L 381.239296 63.54824 
L 381.372625 62.514932 
L 381.799345 59.893859 
L 381.856623 59.692238 
L 382.028887 58.759741 
L 382.131537 58.280891 
L 382.255416 57.726433 
L 382.376317 57.424002 
L 382.525127 56.844341 
L 382.672702 56.189073 
L 382.804721 55.987452 
L 383.476819 54.903739 
L 383.682366 54.752523 
L 383.75222 54.651713 
L 384.220752 54.450092 
L 384.69989 54.172863 
L 385.592476 53.946039 
L 386.741443 53.719216 
L 389.562938 53.593203 
L 393.317003 53.568 
L 393.317003 53.568 
" clip-path="url(#p1ad3a86b1c)" style="fill: none; stroke: #9467bd; stroke-width: 1.5; stroke-linecap: square"/>
   </g>
   <g id="line2d_21">
    <path d="M 89.622358 295.488 
L 91.612362 295.235974 
L 91.677728 295.109961 
L 92.047635 294.958745 
L 92.256554 294.807529 
L 92.411677 294.555503 
L 92.541579 294.353882 
L 92.732684 294.026248 
L 93.192211 291.052338 
L 93.956294 277.493326 
L 94.098455 272.805637 
L 94.229807 268.521191 
L 94.360664 262.724587 
L 94.570055 253.021576 
L 94.716427 245.410384 
L 96.714873 132.805054 
L 96.793674 130.410804 
L 97.086626 122.623193 
L 97.162654 121.312657 
L 97.283973 118.842799 
L 97.476444 115.138014 
L 97.516636 114.633961 
L 97.740655 112.214509 
L 97.785234 111.93728 
L 98.386687 107.098376 
L 98.753155 105.460205 
L 98.834946 105.006558 
L 98.961126 104.4521 
L 99.18232 103.746427 
L 99.71052 102.738322 
L 99.847532 102.461093 
L 101.050582 100.999341 
L 102.04392 100.495288 
L 102.473862 100.268465 
L 103.61329 99.966033 
L 107.793205 98.857118 
L 112.134742 98.630294 
L 154.863446 98.554686 
L 377.632651 98.428673 
L 377.642204 98.40347 
L 378.34425 98.227052 
L 378.38854 98.176647 
L 378.677108 98.050634 
L 379.345523 95.933613 
L 379.454536 95.152332 
L 379.677087 93.362945 
L 379.807925 92.228827 
L 379.884177 91.548356 
L 380.739392 80.660822 
L 380.773382 80.131567 
L 380.894368 78.745423 
L 381.065631 76.250363 
L 381.182833 74.511382 
L 381.264046 73.528479 
L 381.385014 71.865106 
L 381.422943 71.209838 
L 381.559106 69.496059 
L 382.296781 61.15399 
L 383.111715 56.970354 
L 383.187445 56.819139 
L 384.25401 55.206171 
L 384.474842 54.954144 
L 384.56661 54.878537 
L 384.996473 54.676916 
L 385.262068 54.399687 
L 385.808047 54.198066 
L 386.605632 53.996445 
L 391.679636 53.668811 
L 398.487273 53.568 
L 398.487273 53.568 
" clip-path="url(#p1ad3a86b1c)" style="fill: none; stroke: #8c564b; stroke-width: 1.5; stroke-linecap: square"/>
   </g>
   <g id="patch_3">
    <path d="M 57.6 307.584 
L 57.6 41.472 
" style="fill: none; stroke: #000000; stroke-width: 0.8; stroke-linejoin: miter; stroke-linecap: square"/>
   </g>
   <g id="patch_4">
    <path d="M 414.72 307.584 
L 414.72 41.472 
" style="fill: none; stroke: #000000; stroke-width: 0.8; stroke-linejoin: miter; stroke-linecap: square"/>
   </g>
   <g id="patch_5">
    <path d="M 57.6 307.584 
L 414.72 307.584 
" style="fill: none; stroke: #000000; stroke-width: 0.8; stroke-linejoin: miter; stroke-linecap: square"/>
   </g>
   <g id="patch_6">
    <path d="M 57.6 41.472 
L 414.72 41.472 
" style="fill: none; stroke: #000000; stroke-width: 0.8; stroke-linejoin: miter; stroke-linecap: square"/>
   </g>
   <g id="legend_1">
    <g id="patch_7">
     <path d="M 310.680938 302.584 
L 407.72 302.584 
Q 409.72 302.584 409.72 300.584 
L 409.72 213.51525 
Q 409.72 211.51525 407.72 211.51525 
L 310.680938 211.51525 
Q 308.680938 211.51525 308.680938 213.51525 
L 308.680938 300.584 
Q 308.680938 302.584 310.680938 302.584 
z
" style="fill: #ffffff; opacity: 0.8; stroke: #cccccc; stroke-linejoin: miter"/>
    </g>
    <g id="line2d_22">
     <path d="M 312.680938 219.613687 
L 322.680938 219.613687 
L 332.680938 219.613687 
" style="fill: none; stroke: #1f77b4; stroke-width: 1.5; stroke-linecap: square"/>
    </g>
    <g id="text_18">
     <!-- Alt-Svc -->
     <g transform="translate(340.680938 223.113687) scale(0.1 -0.1)">
      <defs>
       <path id="DejaVuSans-41" d="M 2188 4044 
L 1331 1722 
L 3047 1722 
L 2188 4044 
z
M 1831 4666 
L 2547 4666 
L 4325 0 
L 3669 0 
L 3244 1197 
L 1141 1197 
L 716 0 
L 50 0 
L 1831 4666 
z
" transform="scale(0.015625)"/>
       <path id="DejaVuSans-2d" d="M 313 2009 
L 1997 2009 
L 1997 1497 
L 313 1497 
L 313 2009 
z
" transform="scale(0.015625)"/>
       <path id="DejaVuSans-53" d="M 3425 4513 
L 3425 3897 
Q 3066 4069 2747 4153 
Q 2428 4238 2131 4238 
Q 1616 4238 1336 4038 
Q 1056 3838 1056 3469 
Q 1056 3159 1242 3001 
Q 1428 2844 1947 2747 
L 2328 2669 
Q 3034 2534 3370 2195 
Q 3706 1856 3706 1288 
Q 3706 609 3251 259 
Q 2797 -91 1919 -91 
Q 1588 -91 1214 -16 
Q 841 59 441 206 
L 441 856 
Q 825 641 1194 531 
Q 1563 422 1919 422 
Q 2459 422 2753 634 
Q 3047 847 3047 1241 
Q 3047 1584 2836 1778 
Q 2625 1972 2144 2069 
L 1759 2144 
Q 1053 2284 737 2584 
Q 422 2884 422 3419 
Q 422 4038 858 4394 
Q 1294 4750 2059 4750 
Q 2388 4750 2728 4690 
Q 3069 4631 3425 4513 
z
" transform="scale(0.015625)"/>
       <path id="DejaVuSans-76" d="M 191 3500 
L 800 3500 
L 1894 563 
L 2988 3500 
L 3597 3500 
L 2284 0 
L 1503 0 
L 191 3500 
z
" transform="scale(0.015625)"/>
       <path id="DejaVuSans-63" d="M 3122 3366 
L 3122 2828 
Q 2878 2963 2633 3030 
Q 2388 3097 2138 3097 
Q 1578 3097 1268 2742 
Q 959 2388 959 1747 
Q 959 1106 1268 751 
Q 1578 397 2138 397 
Q 2388 397 2633 464 
Q 2878 531 3122 666 
L 3122 134 
Q 2881 22 2623 -34 
Q 2366 -91 2075 -91 
Q 1284 -91 818 406 
Q 353 903 353 1747 
Q 353 2603 823 3093 
Q 1294 3584 2113 3584 
Q 2378 3584 2631 3529 
Q 2884 3475 3122 3366 
z
" transform="scale(0.015625)"/>
      </defs>
      <use xlink:href="#DejaVuSans-41"/>
      <use xlink:href="#DejaVuSans-6c" x="68.408203"/>
      <use xlink:href="#DejaVuSans-74" x="96.191406"/>
      <use xlink:href="#DejaVuSans-2d" x="135.400391"/>
      <use xlink:href="#DejaVuSans-53" x="171.484375"/>
      <use xlink:href="#DejaVuSans-76" x="234.960938"/>
      <use xlink:href="#DejaVuSans-63" x="294.140625"/>
     </g>
    </g>
    <g id="line2d_23">
     <path d="M 312.680938 234.291812 
L 322.680938 234.291812 
L 332.680938 234.291812 
" style="fill: none; stroke: #ff7f0e; stroke-width: 1.5; stroke-linecap: square"/>
    </g>
    <g id="text_19">
     <!-- No migration -->
     <g transform="translate(340.680938 237.791812) scale(0.1 -0.1)">
      <defs>
       <path id="DejaVuSans-4e" d="M 628 4666 
L 1478 4666 
L 3547 763 
L 3547 4666 
L 4159 4666 
L 4159 0 
L 3309 0 
L 1241 3903 
L 1241 0 
L 628 0 
L 628 4666 
z
" transform="scale(0.015625)"/>
       <path id="DejaVuSans-67" d="M 2906 1791 
Q 2906 2416 2648 2759 
Q 2391 3103 1925 3103 
Q 1463 3103 1205 2759 
Q 947 2416 947 1791 
Q 947 1169 1205 825 
Q 1463 481 1925 481 
Q 2391 481 2648 825 
Q 2906 1169 2906 1791 
z
M 3481 434 
Q 3481 -459 3084 -895 
Q 2688 -1331 1869 -1331 
Q 1566 -1331 1297 -1286 
Q 1028 -1241 775 -1147 
L 775 -588 
Q 1028 -725 1275 -790 
Q 1522 -856 1778 -856 
Q 2344 -856 2625 -561 
Q 2906 -266 2906 331 
L 2906 616 
Q 2728 306 2450 153 
Q 2172 0 1784 0 
Q 1141 0 747 490 
Q 353 981 353 1791 
Q 353 2603 747 3093 
Q 1141 3584 1784 3584 
Q 2172 3584 2450 3431 
Q 2728 3278 2906 2969 
L 2906 3500 
L 3481 3500 
L 3481 434 
z
" transform="scale(0.015625)"/>
      </defs>
      <use xlink:href="#DejaVuSans-4e"/>
      <use xlink:href="#DejaVuSans-6f" x="74.804688"/>
      <use xlink:href="#DejaVuSans-20" x="135.986328"/>
      <use xlink:href="#DejaVuSans-6d" x="167.773438"/>
      <use xlink:href="#DejaVuSans-69" x="265.185547"/>
      <use xlink:href="#DejaVuSans-67" x="292.96875"/>
      <use xlink:href="#DejaVuSans-72" x="356.445312"/>
      <use xlink:href="#DejaVuSans-61" x="397.558594"/>
      <use xlink:href="#DejaVuSans-74" x="458.837891"/>
      <use xlink:href="#DejaVuSans-69" x="498.046875"/>
      <use xlink:href="#DejaVuSans-6f" x="525.830078"/>
      <use xlink:href="#DejaVuSans-6e" x="587.011719"/>
     </g>
    </g>
    <g id="line2d_24">
     <path d="M 312.680938 248.969937 
L 322.680938 248.969937 
L 332.680938 248.969937 
" style="fill: none; stroke: #2ca02c; stroke-width: 1.5; stroke-linecap: square"/>
    </g>
    <g id="text_20">
     <!-- DNS TTL 1s -->
     <g transform="translate(340.680938 252.469937) scale(0.1 -0.1)">
      <defs>
       <path id="DejaVuSans-44" d="M 1259 4147 
L 1259 519 
L 2022 519 
Q 2988 519 3436 956 
Q 3884 1394 3884 2338 
Q 3884 3275 3436 3711 
Q 2988 4147 2022 4147 
L 1259 4147 
z
M 628 4666 
L 1925 4666 
Q 3281 4666 3915 4102 
Q 4550 3538 4550 2338 
Q 4550 1131 3912 565 
Q 3275 0 1925 0 
L 628 0 
L 628 4666 
z
" transform="scale(0.015625)"/>
       <path id="DejaVuSans-54" d="M -19 4666 
L 3928 4666 
L 3928 4134 
L 2272 4134 
L 2272 0 
L 1638 0 
L 1638 4134 
L -19 4134 
L -19 4666 
z
" transform="scale(0.015625)"/>
       <path id="DejaVuSans-4c" d="M 628 4666 
L 1259 4666 
L 1259 531 
L 3531 531 
L 3531 0 
L 628 0 
L 628 4666 
z
" transform="scale(0.015625)"/>
      </defs>
      <use xlink:href="#DejaVuSans-44"/>
      <use xlink:href="#DejaVuSans-4e" x="77.001953"/>
      <use xlink:href="#DejaVuSans-53" x="151.806641"/>
      <use xlink:href="#DejaVuSans-20" x="215.283203"/>
      <use xlink:href="#DejaVuSans-54" x="247.070312"/>
      <use xlink:href="#DejaVuSans-54" x="306.404297"/>
      <use xlink:href="#DejaVuSans-4c" x="367.488281"/>
      <use xlink:href="#DejaVuSans-20" x="423.201172"/>
      <use xlink:href="#DejaVuSans-31" x="454.988281"/>
      <use xlink:href="#DejaVuSans-73" x="518.611328"/>
     </g>
    </g>
    <g id="line2d_25">
     <path d="M 312.680938 263.648062 
L 322.680938 263.648062 
L 332.680938 263.648062 
" style="fill: none; stroke: #d62728; stroke-width: 1.5; stroke-linecap: square"/>
    </g>
    <g id="text_21">
     <!-- DNS TTL 20s -->
     <g transform="translate(340.680938 267.148062) scale(0.1 -0.1)">
      <use xlink:href="#DejaVuSans-44"/>
      <use xlink:href="#DejaVuSans-4e" x="77.001953"/>
      <use xlink:href="#DejaVuSans-53" x="151.806641"/>
      <use xlink:href="#DejaVuSans-20" x="215.283203"/>
      <use xlink:href="#DejaVuSans-54" x="247.070312"/>
      <use xlink:href="#DejaVuSans-54" x="306.404297"/>
      <use xlink:href="#DejaVuSans-4c" x="367.488281"/>
      <use xlink:href="#DejaVuSans-20" x="423.201172"/>
      <use xlink:href="#DejaVuSans-32" x="454.988281"/>
      <use xlink:href="#DejaVuSans-30" x="518.611328"/>
      <use xlink:href="#DejaVuSans-73" x="582.234375"/>
     </g>
    </g>
    <g id="line2d_26">
     <path d="M 312.680938 278.326188 
L 322.680938 278.326188 
L 332.680938 278.326188 
" style="fill: none; stroke: #9467bd; stroke-width: 1.5; stroke-linecap: square"/>
    </g>
    <g id="text_22">
     <!-- DNS TTL 40s -->
     <g transform="translate(340.680938 281.826188) scale(0.1 -0.1)">
      <use xlink:href="#DejaVuSans-44"/>
      <use xlink:href="#DejaVuSans-4e" x="77.001953"/>
      <use xlink:href="#DejaVuSans-53" x="151.806641"/>
      <use xlink:href="#DejaVuSans-20" x="215.283203"/>
      <use xlink:href="#DejaVuSans-54" x="247.070312"/>
      <use xlink:href="#DejaVuSans-54" x="306.404297"/>
      <use xlink:href="#DejaVuSans-4c" x="367.488281"/>
      <use xlink:href="#DejaVuSans-20" x="423.201172"/>
      <use xlink:href="#DejaVuSans-34" x="454.988281"/>
      <use xlink:href="#DejaVuSans-30" x="518.611328"/>
      <use xlink:href="#DejaVuSans-73" x="582.234375"/>
     </g>
    </g>
    <g id="line2d_27">
     <path d="M 312.680938 293.004312 
L 322.680938 293.004312 
L 332.680938 293.004312 
" style="fill: none; stroke: #8c564b; stroke-width: 1.5; stroke-linecap: square"/>
    </g>
    <g id="text_23">
     <!-- DNS TTL 60s -->
     <g transform="translate(340.680938 296.504312) scale(0.1 -0.1)">
      <use xlink:href="#DejaVuSans-44"/>
      <use xlink:href="#DejaVuSans-4e" x="77.001953"/>
      <use xlink:href="#DejaVuSans-53" x="151.806641"/>
      <use xlink:href="#DejaVuSans-20" x="215.283203"/>
      <use xlink:href="#DejaVuSans-54" x="247.070312"/>
      <use xlink:href="#DejaVuSans-54" x="306.404297"/>
      <use xlink:href="#DejaVuSans-4c" x="367.488281"/>
      <use xlink:href="#DejaVuSans-20" x="423.201172"/>
      <use xlink:href="#DejaVuSans-36" x="454.988281"/>
      <use xlink:href="#DejaVuSans-30" x="518.611328"/>
      <use xlink:href="#DejaVuSans-73" x="582.234375"/>
     </g>
    </g>
   </g>
  </g>
 </g>
 <defs>
  <clipPath id="p1ad3a86b1c">
   <rect x="57.6" y="41.472" width="357.12" height="266.112"/>
  </clipPath>
 </defs>
</svg>
