<?xml version="1.0" encoding="utf-8" standalone="no"?>
<!DOCTYPE svg PUBLIC "-//W3C//DTD SVG 1.1//EN"
  "http://www.w3.org/Graphics/SVG/1.1/DTD/svg11.dtd">
<svg xmlns:xlink="http://www.w3.org/1999/xlink" width="460.8pt" height="345.6pt" viewBox="0 0 460.8 345.6" xmlns="http://www.w3.org/2000/svg" version="1.1">
 <metadata>
  <rdf:RDF xmlns:dc="http://purl.org/dc/elements/1.1/" xmlns:cc="http://creativecommons.org/ns#" xmlns:rdf="http://www.w3.org/1999/02/22-rdf-syntax-ns#">
   <cc:Work>
    <dc:type rdf:resource="http://purl.org/dc/dcmitype/StillImage"/>
    <dc:date>2023-12-10T12:22:23.363436</dc:date>
    <dc:format>image/svg+xml</dc:format>
    <dc:creator>
     <cc:Agent>
      <dc:title>Matplotlib v3.7.1, https://matplotlib.org/</dc:title>
     </cc:Agent>
    </dc:creator>
   </cc:Work>
  </rdf:RDF>
 </metadata>
 <defs>
  <style type="text/css">*{stroke-linejoin: round; stroke-linecap: butt}</style>
 </defs>
 <g id="figure_1">
  <g id="patch_1">
   <path d="M 0 345.6 
L 460.8 345.6 
L 460.8 0 
L 0 0 
z
" style="fill: #ffffff"/>
  </g>
  <g id="axes_1">
   <g id="patch_2">
    <path d="M 57.6 307.584 
L 414.72 307.584 
L 414.72 41.472 
L 57.6 41.472 
z
" style="fill: #ffffff"/>
   </g>
   <g id="matplotlib.axis_1">
    <g id="xtick_1">
     <g id="line2d_1">
      <defs>
       <path id="mc22bfac7a8" d="M 0 0 
L 0 3.5 
" style="stroke: #000000; stroke-width: 0.8"/>
      </defs>
      <g>
       <use xlink:href="#mc22bfac7a8" x="97.800056" y="307.584" style="stroke: #000000; stroke-width: 0.8"/>
      </g>
     </g>
     <g id="text_1">
      <!-- 20 -->
      <g transform="translate(91.437556 322.182437) scale(0.1 -0.1)">
       <defs>
        <path id="DejaVuSans-32" d="M 1228 531 
L 3431 531 
L 3431 0 
L 469 0 
L 469 531 
Q 828 903 1448 1529 
Q 2069 2156 2228 2338 
Q 2531 2678 2651 2914 
Q 2772 3150 2772 3378 
Q 2772 3750 2511 3984 
Q 2250 4219 1831 4219 
Q 1534 4219 1204 4116 
Q 875 4013 500 3803 
L 500 4441 
Q 881 4594 1212 4672 
Q 1544 4750 1819 4750 
Q 2544 4750 2975 4387 
Q 3406 4025 3406 3419 
Q 3406 3131 3298 2873 
Q 3191 2616 2906 2266 
Q 2828 2175 2409 1742 
Q 1991 1309 1228 531 
z
" transform="scale(0.015625)"/>
        <path id="DejaVuSans-30" d="M 2034 4250 
Q 1547 4250 1301 3770 
Q 1056 3291 1056 2328 
Q 1056 1369 1301 889 
Q 1547 409 2034 409 
Q 2525 409 2770 889 
Q 3016 1369 3016 2328 
Q 3016 3291 2770 3770 
Q 2525 4250 2034 4250 
z
M 2034 4750 
Q 2819 4750 3233 4129 
Q 3647 3509 3647 2328 
Q 3647 1150 3233 529 
Q 2819 -91 2034 -91 
Q 1250 -91 836 529 
Q 422 1150 422 2328 
Q 422 3509 836 4129 
Q 1250 4750 2034 4750 
z
" transform="scale(0.015625)"/>
       </defs>
       <use xlink:href="#DejaVuSans-32"/>
       <use xlink:href="#DejaVuSans-30" x="63.623047"/>
      </g>
     </g>
    </g>
    <g id="xtick_2">
     <g id="line2d_2">
      <g>
       <use xlink:href="#mc22bfac7a8" x="157.460347" y="307.584" style="stroke: #000000; stroke-width: 0.8"/>
      </g>
     </g>
     <g id="text_2">
      <!-- 40 -->
      <g transform="translate(151.097847 322.182437) scale(0.1 -0.1)">
       <defs>
        <path id="DejaVuSans-34" d="M 2419 4116 
L 825 1625 
L 2419 1625 
L 2419 4116 
z
M 2253 4666 
L 3047 4666 
L 3047 1625 
L 3713 1625 
L 3713 1100 
L 3047 1100 
L 3047 0 
L 2419 0 
L 2419 1100 
L 313 1100 
L 313 1709 
L 2253 4666 
z
" transform="scale(0.015625)"/>
       </defs>
       <use xlink:href="#DejaVuSans-34"/>
       <use xlink:href="#DejaVuSans-30" x="63.623047"/>
      </g>
     </g>
    </g>
    <g id="xtick_3">
     <g id="line2d_3">
      <g>
       <use xlink:href="#mc22bfac7a8" x="217.120638" y="307.584" style="stroke: #000000; stroke-width: 0.8"/>
      </g>
     </g>
     <g id="text_3">
      <!-- 60 -->
      <g transform="translate(210.758138 322.182437) scale(0.1 -0.1)">
       <defs>
        <path id="DejaVuSans-36" d="M 2113 2584 
Q 1688 2584 1439 2293 
Q 1191 2003 1191 1497 
Q 1191 994 1439 701 
Q 1688 409 2113 409 
Q 2538 409 2786 701 
Q 3034 994 3034 1497 
Q 3034 2003 2786 2293 
Q 2538 2584 2113 2584 
z
M 3366 4563 
L 3366 3988 
Q 3128 4100 2886 4159 
Q 2644 4219 2406 4219 
Q 1781 4219 1451 3797 
Q 1122 3375 1075 2522 
Q 1259 2794 1537 2939 
Q 1816 3084 2150 3084 
Q 2853 3084 3261 2657 
Q 3669 2231 3669 1497 
Q 3669 778 3244 343 
Q 2819 -91 2113 -91 
Q 1303 -91 875 529 
Q 447 1150 447 2328 
Q 447 3434 972 4092 
Q 1497 4750 2381 4750 
Q 2619 4750 2861 4703 
Q 3103 4656 3366 4563 
z
" transform="scale(0.015625)"/>
       </defs>
       <use xlink:href="#DejaVuSans-36"/>
       <use xlink:href="#DejaVuSans-30" x="63.623047"/>
      </g>
     </g>
    </g>
    <g id="xtick_4">
     <g id="line2d_4">
      <g>
       <use xlink:href="#mc22bfac7a8" x="276.780929" y="307.584" style="stroke: #000000; stroke-width: 0.8"/>
      </g>
     </g>
     <g id="text_4">
      <!-- 80 -->
      <g transform="translate(270.418429 322.182437) scale(0.1 -0.1)">
       <defs>
        <path id="DejaVuSans-38" d="M 2034 2216 
Q 1584 2216 1326 1975 
Q 1069 1734 1069 1313 
Q 1069 891 1326 650 
Q 1584 409 2034 409 
Q 2484 409 2743 651 
Q 3003 894 3003 1313 
Q 3003 1734 2745 1975 
Q 2488 2216 2034 2216 
z
M 1403 2484 
Q 997 2584 770 2862 
Q 544 3141 544 3541 
Q 544 4100 942 4425 
Q 1341 4750 2034 4750 
Q 2731 4750 3128 4425 
Q 3525 4100 3525 3541 
Q 3525 3141 3298 2862 
Q 3072 2584 2669 2484 
Q 3125 2378 3379 2068 
Q 3634 1759 3634 1313 
Q 3634 634 3220 271 
Q 2806 -91 2034 -91 
Q 1263 -91 848 271 
Q 434 634 434 1313 
Q 434 1759 690 2068 
Q 947 2378 1403 2484 
z
M 1172 3481 
Q 1172 3119 1398 2916 
Q 1625 2713 2034 2713 
Q 2441 2713 2670 2916 
Q 2900 3119 2900 3481 
Q 2900 3844 2670 4047 
Q 2441 4250 2034 4250 
Q 1625 4250 1398 4047 
Q 1172 3844 1172 3481 
z
" transform="scale(0.015625)"/>
       </defs>
       <use xlink:href="#DejaVuSans-38"/>
       <use xlink:href="#DejaVuSans-30" x="63.623047"/>
      </g>
     </g>
    </g>
    <g id="xtick_5">
     <g id="line2d_5">
      <g>
       <use xlink:href="#mc22bfac7a8" x="336.44122" y="307.584" style="stroke: #000000; stroke-width: 0.8"/>
      </g>
     </g>
     <g id="text_5">
      <!-- 100 -->
      <g transform="translate(326.89747 322.182437) scale(0.1 -0.1)">
       <defs>
        <path id="DejaVuSans-31" d="M 794 531 
L 1825 531 
L 1825 4091 
L 703 3866 
L 703 4441 
L 1819 4666 
L 2450 4666 
L 2450 531 
L 3481 531 
L 3481 0 
L 794 0 
L 794 531 
z
" transform="scale(0.015625)"/>
       </defs>
       <use xlink:href="#DejaVuSans-31"/>
       <use xlink:href="#DejaVuSans-30" x="63.623047"/>
       <use xlink:href="#DejaVuSans-30" x="127.246094"/>
      </g>
     </g>
    </g>
    <g id="xtick_6">
     <g id="line2d_6">
      <g>
       <use xlink:href="#mc22bfac7a8" x="396.101511" y="307.584" style="stroke: #000000; stroke-width: 0.8"/>
      </g>
     </g>
     <g id="text_6">
      <!-- 120 -->
      <g transform="translate(386.557761 322.182437) scale(0.1 -0.1)">
       <use xlink:href="#DejaVuSans-31"/>
       <use xlink:href="#DejaVuSans-32" x="63.623047"/>
       <use xlink:href="#DejaVuSans-30" x="127.246094"/>
      </g>
     </g>
    </g>
    <g id="text_7">
     <!-- Response time (ms) -->
     <g transform="translate(186.295156 335.860562) scale(0.1 -0.1)">
      <defs>
       <path id="DejaVuSans-52" d="M 2841 2188 
Q 3044 2119 3236 1894 
Q 3428 1669 3622 1275 
L 4263 0 
L 3584 0 
L 2988 1197 
Q 2756 1666 2539 1819 
Q 2322 1972 1947 1972 
L 1259 1972 
L 1259 0 
L 628 0 
L 628 4666 
L 2053 4666 
Q 2853 4666 3247 4331 
Q 3641 3997 3641 3322 
Q 3641 2881 3436 2590 
Q 3231 2300 2841 2188 
z
M 1259 4147 
L 1259 2491 
L 2053 2491 
Q 2509 2491 2742 2702 
Q 2975 2913 2975 3322 
Q 2975 3731 2742 3939 
Q 2509 4147 2053 4147 
L 1259 4147 
z
" transform="scale(0.015625)"/>
       <path id="DejaVuSans-65" d="M 3597 1894 
L 3597 1613 
L 953 1613 
Q 991 1019 1311 708 
Q 1631 397 2203 397 
Q 2534 397 2845 478 
Q 3156 559 3463 722 
L 3463 178 
Q 3153 47 2828 -22 
Q 2503 -91 2169 -91 
Q 1331 -91 842 396 
Q 353 884 353 1716 
Q 353 2575 817 3079 
Q 1281 3584 2069 3584 
Q 2775 3584 3186 3129 
Q 3597 2675 3597 1894 
z
M 3022 2063 
Q 3016 2534 2758 2815 
Q 2500 3097 2075 3097 
Q 1594 3097 1305 2825 
Q 1016 2553 972 2059 
L 3022 2063 
z
" transform="scale(0.015625)"/>
       <path id="DejaVuSans-73" d="M 2834 3397 
L 2834 2853 
Q 2591 2978 2328 3040 
Q 2066 3103 1784 3103 
Q 1356 3103 1142 2972 
Q 928 2841 928 2578 
Q 928 2378 1081 2264 
Q 1234 2150 1697 2047 
L 1894 2003 
Q 2506 1872 2764 1633 
Q 3022 1394 3022 966 
Q 3022 478 2636 193 
Q 2250 -91 1575 -91 
Q 1294 -91 989 -36 
Q 684 19 347 128 
L 347 722 
Q 666 556 975 473 
Q 1284 391 1588 391 
Q 1994 391 2212 530 
Q 2431 669 2431 922 
Q 2431 1156 2273 1281 
Q 2116 1406 1581 1522 
L 1381 1569 
Q 847 1681 609 1914 
Q 372 2147 372 2553 
Q 372 3047 722 3315 
Q 1072 3584 1716 3584 
Q 2034 3584 2315 3537 
Q 2597 3491 2834 3397 
z
" transform="scale(0.015625)"/>
       <path id="DejaVuSans-70" d="M 1159 525 
L 1159 -1331 
L 581 -1331 
L 581 3500 
L 1159 3500 
L 1159 2969 
Q 1341 3281 1617 3432 
Q 1894 3584 2278 3584 
Q 2916 3584 3314 3078 
Q 3713 2572 3713 1747 
Q 3713 922 3314 415 
Q 2916 -91 2278 -91 
Q 1894 -91 1617 61 
Q 1341 213 1159 525 
z
M 3116 1747 
Q 3116 2381 2855 2742 
Q 2594 3103 2138 3103 
Q 1681 3103 1420 2742 
Q 1159 2381 1159 1747 
Q 1159 1113 1420 752 
Q 1681 391 2138 391 
Q 2594 391 2855 752 
Q 3116 1113 3116 1747 
z
" transform="scale(0.015625)"/>
       <path id="DejaVuSans-6f" d="M 1959 3097 
Q 1497 3097 1228 2736 
Q 959 2375 959 1747 
Q 959 1119 1226 758 
Q 1494 397 1959 397 
Q 2419 397 2687 759 
Q 2956 1122 2956 1747 
Q 2956 2369 2687 2733 
Q 2419 3097 1959 3097 
z
M 1959 3584 
Q 2709 3584 3137 3096 
Q 3566 2609 3566 1747 
Q 3566 888 3137 398 
Q 2709 -91 1959 -91 
Q 1206 -91 779 398 
Q 353 888 353 1747 
Q 353 2609 779 3096 
Q 1206 3584 1959 3584 
z
" transform="scale(0.015625)"/>
       <path id="DejaVuSans-6e" d="M 3513 2113 
L 3513 0 
L 2938 0 
L 2938 2094 
Q 2938 2591 2744 2837 
Q 2550 3084 2163 3084 
Q 1697 3084 1428 2787 
Q 1159 2491 1159 1978 
L 1159 0 
L 581 0 
L 581 3500 
L 1159 3500 
L 1159 2956 
Q 1366 3272 1645 3428 
Q 1925 3584 2291 3584 
Q 2894 3584 3203 3211 
Q 3513 2838 3513 2113 
z
" transform="scale(0.015625)"/>
       <path id="DejaVuSans-20" transform="scale(0.015625)"/>
       <path id="DejaVuSans-74" d="M 1172 4494 
L 1172 3500 
L 2356 3500 
L 2356 3053 
L 1172 3053 
L 1172 1153 
Q 1172 725 1289 603 
Q 1406 481 1766 481 
L 2356 481 
L 2356 0 
L 1766 0 
Q 1100 0 847 248 
Q 594 497 594 1153 
L 594 3053 
L 172 3053 
L 172 3500 
L 594 3500 
L 594 4494 
L 1172 4494 
z
" transform="scale(0.015625)"/>
       <path id="DejaVuSans-69" d="M 603 3500 
L 1178 3500 
L 1178 0 
L 603 0 
L 603 3500 
z
M 603 4863 
L 1178 4863 
L 1178 4134 
L 603 4134 
L 603 4863 
z
" transform="scale(0.015625)"/>
       <path id="DejaVuSans-6d" d="M 3328 2828 
Q 3544 3216 3844 3400 
Q 4144 3584 4550 3584 
Q 5097 3584 5394 3201 
Q 5691 2819 5691 2113 
L 5691 0 
L 5113 0 
L 5113 2094 
Q 5113 2597 4934 2840 
Q 4756 3084 4391 3084 
Q 3944 3084 3684 2787 
Q 3425 2491 3425 1978 
L 3425 0 
L 2847 0 
L 2847 2094 
Q 2847 2600 2669 2842 
Q 2491 3084 2119 3084 
Q 1678 3084 1418 2786 
Q 1159 2488 1159 1978 
L 1159 0 
L 581 0 
L 581 3500 
L 1159 3500 
L 1159 2956 
Q 1356 3278 1631 3431 
Q 1906 3584 2284 3584 
Q 2666 3584 2933 3390 
Q 3200 3197 3328 2828 
z
" transform="scale(0.015625)"/>
       <path id="DejaVuSans-28" d="M 1984 4856 
Q 1566 4138 1362 3434 
Q 1159 2731 1159 2009 
Q 1159 1288 1364 580 
Q 1569 -128 1984 -844 
L 1484 -844 
Q 1016 -109 783 600 
Q 550 1309 550 2009 
Q 550 2706 781 3412 
Q 1013 4119 1484 4856 
L 1984 4856 
z
" transform="scale(0.015625)"/>
       <path id="DejaVuSans-29" d="M 513 4856 
L 1013 4856 
Q 1481 4119 1714 3412 
Q 1947 2706 1947 2009 
Q 1947 1309 1714 600 
Q 1481 -109 1013 -844 
L 513 -844 
Q 928 -128 1133 580 
Q 1338 1288 1338 2009 
Q 1338 2731 1133 3434 
Q 928 4138 513 4856 
z
" transform="scale(0.015625)"/>
      </defs>
      <use xlink:href="#DejaVuSans-52"/>
      <use xlink:href="#DejaVuSans-65" x="64.982422"/>
      <use xlink:href="#DejaVuSans-73" x="126.505859"/>
      <use xlink:href="#DejaVuSans-70" x="178.605469"/>
      <use xlink:href="#DejaVuSans-6f" x="242.082031"/>
      <use xlink:href="#DejaVuSans-6e" x="303.263672"/>
      <use xlink:href="#DejaVuSans-73" x="366.642578"/>
      <use xlink:href="#DejaVuSans-65" x="418.742188"/>
      <use xlink:href="#DejaVuSans-20" x="480.265625"/>
      <use xlink:href="#DejaVuSans-74" x="512.052734"/>
      <use xlink:href="#DejaVuSans-69" x="551.261719"/>
      <use xlink:href="#DejaVuSans-6d" x="579.044922"/>
      <use xlink:href="#DejaVuSans-65" x="676.457031"/>
      <use xlink:href="#DejaVuSans-20" x="737.980469"/>
      <use xlink:href="#DejaVuSans-28" x="769.767578"/>
      <use xlink:href="#DejaVuSans-6d" x="808.78125"/>
      <use xlink:href="#DejaVuSans-73" x="906.193359"/>
      <use xlink:href="#DejaVuSans-29" x="958.292969"/>
     </g>
    </g>
   </g>
   <g id="matplotlib.axis_2">
    <g id="ytick_1">
     <g id="line2d_7">
      <defs>
       <path id="m14dbe5ec62" d="M 0 0 
L -3.5 0 
" style="stroke: #000000; stroke-width: 0.8"/>
      </defs>
      <g>
       <use xlink:href="#m14dbe5ec62" x="57.6" y="295.513203" style="stroke: #000000; stroke-width: 0.8"/>
      </g>
     </g>
     <g id="text_8">
      <!-- 0.0 -->
      <g transform="translate(34.696875 299.312421) scale(0.1 -0.1)">
       <defs>
        <path id="DejaVuSans-2e" d="M 684 794 
L 1344 794 
L 1344 0 
L 684 0 
L 684 794 
z
" transform="scale(0.015625)"/>
       </defs>
       <use xlink:href="#DejaVuSans-30"/>
       <use xlink:href="#DejaVuSans-2e" x="63.623047"/>
       <use xlink:href="#DejaVuSans-30" x="95.410156"/>
      </g>
     </g>
    </g>
    <g id="ytick_2">
     <g id="line2d_8">
      <g>
       <use xlink:href="#m14dbe5ec62" x="57.6" y="247.124162" style="stroke: #000000; stroke-width: 0.8"/>
      </g>
     </g>
     <g id="text_9">
      <!-- 0.2 -->
      <g transform="translate(34.696875 250.923381) scale(0.1 -0.1)">
       <use xlink:href="#DejaVuSans-30"/>
       <use xlink:href="#DejaVuSans-2e" x="63.623047"/>
       <use xlink:href="#DejaVuSans-32" x="95.410156"/>
      </g>
     </g>
    </g>
    <g id="ytick_3">
     <g id="line2d_9">
      <g>
       <use xlink:href="#m14dbe5ec62" x="57.6" y="198.735122" style="stroke: #000000; stroke-width: 0.8"/>
      </g>
     </g>
     <g id="text_10">
      <!-- 0.4 -->
      <g transform="translate(34.696875 202.53434) scale(0.1 -0.1)">
       <use xlink:href="#DejaVuSans-30"/>
       <use xlink:href="#DejaVuSans-2e" x="63.623047"/>
       <use xlink:href="#DejaVuSans-34" x="95.410156"/>
      </g>
     </g>
    </g>
    <g id="ytick_4">
     <g id="line2d_10">
      <g>
       <use xlink:href="#m14dbe5ec62" x="57.6" y="150.346081" style="stroke: #000000; stroke-width: 0.8"/>
      </g>
     </g>
     <g id="text_11">
      <!-- 0.6 -->
      <g transform="translate(34.696875 154.1453) scale(0.1 -0.1)">
       <use xlink:href="#DejaVuSans-30"/>
       <use xlink:href="#DejaVuSans-2e" x="63.623047"/>
       <use xlink:href="#DejaVuSans-36" x="95.410156"/>
      </g>
     </g>
    </g>
    <g id="ytick_5">
     <g id="line2d_11">
      <g>
       <use xlink:href="#m14dbe5ec62" x="57.6" y="101.957041" style="stroke: #000000; stroke-width: 0.8"/>
      </g>
     </g>
     <g id="text_12">
      <!-- 0.8 -->
      <g transform="translate(34.696875 105.756259) scale(0.1 -0.1)">
       <use xlink:href="#DejaVuSans-30"/>
       <use xlink:href="#DejaVuSans-2e" x="63.623047"/>
       <use xlink:href="#DejaVuSans-38" x="95.410156"/>
      </g>
     </g>
    </g>
    <g id="ytick_6">
     <g id="line2d_12">
      <g>
       <use xlink:href="#m14dbe5ec62" x="57.6" y="53.568" style="stroke: #000000; stroke-width: 0.8"/>
      </g>
     </g>
     <g id="text_13">
      <!-- 1.0 -->
      <g transform="translate(34.696875 57.367219) scale(0.1 -0.1)">
       <use xlink:href="#DejaVuSans-31"/>
       <use xlink:href="#DejaVuSans-2e" x="63.623047"/>
       <use xlink:href="#DejaVuSans-30" x="95.410156"/>
      </g>
     </g>
    </g>
    <g id="text_14">
     <!-- Probability -->
     <g transform="translate(28.617187 200.956906) rotate(-90) scale(0.1 -0.1)">
      <defs>
       <path id="DejaVuSans-50" d="M 1259 4147 
L 1259 2394 
L 2053 2394 
Q 2494 2394 2734 2622 
Q 2975 2850 2975 3272 
Q 2975 3691 2734 3919 
Q 2494 4147 2053 4147 
L 1259 4147 
z
M 628 4666 
L 2053 4666 
Q 2838 4666 3239 4311 
Q 3641 3956 3641 3272 
Q 3641 2581 3239 2228 
Q 2838 1875 2053 1875 
L 1259 1875 
L 1259 0 
L 628 0 
L 628 4666 
z
" transform="scale(0.015625)"/>
       <path id="DejaVuSans-72" d="M 2631 2963 
Q 2534 3019 2420 3045 
Q 2306 3072 2169 3072 
Q 1681 3072 1420 2755 
Q 1159 2438 1159 1844 
L 1159 0 
L 581 0 
L 581 3500 
L 1159 3500 
L 1159 2956 
Q 1341 3275 1631 3429 
Q 1922 3584 2338 3584 
Q 2397 3584 2469 3576 
Q 2541 3569 2628 3553 
L 2631 2963 
z
" transform="scale(0.015625)"/>
       <path id="DejaVuSans-62" d="M 3116 1747 
Q 3116 2381 2855 2742 
Q 2594 3103 2138 3103 
Q 1681 3103 1420 2742 
Q 1159 2381 1159 1747 
Q 1159 1113 1420 752 
Q 1681 391 2138 391 
Q 2594 391 2855 752 
Q 3116 1113 3116 1747 
z
M 1159 2969 
Q 1341 3281 1617 3432 
Q 1894 3584 2278 3584 
Q 2916 3584 3314 3078 
Q 3713 2572 3713 1747 
Q 3713 922 3314 415 
Q 2916 -91 2278 -91 
Q 1894 -91 1617 61 
Q 1341 213 1159 525 
L 1159 0 
L 581 0 
L 581 4863 
L 1159 4863 
L 1159 2969 
z
" transform="scale(0.015625)"/>
       <path id="DejaVuSans-61" d="M 2194 1759 
Q 1497 1759 1228 1600 
Q 959 1441 959 1056 
Q 959 750 1161 570 
Q 1363 391 1709 391 
Q 2188 391 2477 730 
Q 2766 1069 2766 1631 
L 2766 1759 
L 2194 1759 
z
M 3341 1997 
L 3341 0 
L 2766 0 
L 2766 531 
Q 2569 213 2275 61 
Q 1981 -91 1556 -91 
Q 1019 -91 701 211 
Q 384 513 384 1019 
Q 384 1609 779 1909 
Q 1175 2209 1959 2209 
L 2766 2209 
L 2766 2266 
Q 2766 2663 2505 2880 
Q 2244 3097 1772 3097 
Q 1472 3097 1187 3025 
Q 903 2953 641 2809 
L 641 3341 
Q 956 3463 1253 3523 
Q 1550 3584 1831 3584 
Q 2591 3584 2966 3190 
Q 3341 2797 3341 1997 
z
" transform="scale(0.015625)"/>
       <path id="DejaVuSans-6c" d="M 603 4863 
L 1178 4863 
L 1178 0 
L 603 0 
L 603 4863 
z
" transform="scale(0.015625)"/>
       <path id="DejaVuSans-79" d="M 2059 -325 
Q 1816 -950 1584 -1140 
Q 1353 -1331 966 -1331 
L 506 -1331 
L 506 -850 
L 844 -850 
Q 1081 -850 1212 -737 
Q 1344 -625 1503 -206 
L 1606 56 
L 191 3500 
L 800 3500 
L 1894 763 
L 2988 3500 
L 3597 3500 
L 2059 -325 
z
" transform="scale(0.015625)"/>
      </defs>
      <use xlink:href="#DejaVuSans-50"/>
      <use xlink:href="#DejaVuSans-72" x="58.552734"/>
      <use xlink:href="#DejaVuSans-6f" x="97.416016"/>
      <use xlink:href="#DejaVuSans-62" x="158.597656"/>
      <use xlink:href="#DejaVuSans-61" x="222.074219"/>
      <use xlink:href="#DejaVuSans-62" x="283.353516"/>
      <use xlink:href="#DejaVuSans-69" x="346.830078"/>
      <use xlink:href="#DejaVuSans-6c" x="374.613281"/>
      <use xlink:href="#DejaVuSans-69" x="402.396484"/>
      <use xlink:href="#DejaVuSans-74" x="430.179688"/>
      <use xlink:href="#DejaVuSans-79" x="469.388672"/>
     </g>
    </g>
   </g>
   <g id="line2d_13">
    <path d="M 74.806428 295.488 
L 76.894526 295.160366 
L 76.947955 295.109961 
L 77.909882 294.857934 
L 78.02792 294.631111 
L 78.350882 294.202666 
L 78.504808 294.026248 
L 78.696506 293.698614 
L 78.794432 293.370979 
L 79.014522 292.589698 
L 79.847815 288.884912 
L 79.95878 288.028023 
L 80.285483 285.180126 
L 80.885761 277.417718 
L 81.016029 275.149481 
L 81.214599 271.621114 
L 81.375721 268.722812 
L 81.455663 266.605791 
L 81.767832 259.750677 
L 82.605797 237.975609 
L 82.720795 235.178118 
L 82.971953 227.541722 
L 83.078596 224.54261 
L 86.28426 119.120028 
L 87.136125 96.992123 
L 87.229293 95.177534 
L 87.746217 85.298105 
L 87.894309 83.256693 
L 88.927589 71.839903 
L 88.978053 71.487067 
L 89.101887 70.579772 
L 89.18165 70.025314 
L 89.271865 69.168425 
L 89.444596 67.958699 
L 89.663591 66.799378 
L 89.783577 65.967692 
L 89.855933 65.539247 
L 90.008198 64.934384 
L 90.095317 64.60675 
L 90.839239 62.11169 
L 90.930087 61.935272 
L 91.058476 61.607637 
L 91.242892 61.431219 
L 91.80965 60.725546 
L 91.968922 60.57433 
L 92.088982 60.473519 
L 92.292242 60.322304 
L 92.888024 59.969467 
L 92.965809 59.843454 
L 93.313498 59.641833 
L 93.470643 59.490617 
L 94.298382 59.087375 
L 94.94836 58.885754 
L 95.75278 58.55812 
L 95.866007 58.432107 
L 97.21089 58.129675 
L 99.040608 57.902852 
L 99.687657 57.701231 
L 101.36176 57.49961 
L 102.024294 57.272786 
L 102.186376 57.222381 
L 102.499563 57.096368 
L 103.758756 56.844341 
L 103.767269 56.819139 
L 104.32313 56.617518 
L 104.680588 56.54191 
L 106.733856 56.16387 
L 108.657227 55.533805 
L 110.020393 55.281779 
L 110.05286 55.256576 
L 119.768655 54.576105 
L 140.368816 54.172863 
L 145.278443 53.694013 
L 230.239856 53.568 
L 230.239856 53.568 
" clip-path="url(#p44e3ff6f24)" style="fill: none; stroke: #1f77b4; stroke-width: 1.5; stroke-linecap: square"/>
   </g>
   <g id="line2d_14">
    <path d="M 73.832727 295.488 
L 76.304596 295.336784 
L 77.743835 294.782326 
L 78.355526 294.278274 
L 78.450807 294.101856 
L 78.594818 293.824627 
L 78.72111 293.547398 
L 78.84125 293.345777 
L 78.978946 292.917332 
L 79.181335 292.41328 
L 79.326506 291.884025 
L 79.708123 289.615788 
L 80.156518 285.633774 
L 80.730071 277.468123 
L 80.772365 276.86326 
L 80.901729 274.494213 
L 80.953959 273.662527 
L 81.228357 268.521191 
L 81.273117 267.664302 
L 81.543137 261.615672 
L 81.655763 259.171017 
L 81.760142 256.70116 
L 81.960171 252.114282 
L 82.004057 251.005366 
L 82.130358 247.804633 
L 82.499032 238.000812 
L 82.615724 234.699268 
L 83.132866 218.771209 
L 83.294632 213.377847 
L 83.334186 212.168121 
L 83.58859 203.498418 
L 83.627086 202.46511 
L 83.943765 191.401158 
L 83.986094 189.687379 
L 84.110236 185.150907 
L 84.274644 179.757545 
L 84.585296 168.945619 
L 84.866528 158.940176 
L 84.980205 154.806946 
L 85.359194 142.256038 
L 85.41179 140.794286 
L 85.529643 137.165108 
L 85.948235 123.807717 
L 86.134742 118.590773 
L 86.179711 117.053413 
L 86.812522 100.369275 
L 86.848902 99.436778 
L 87.019829 95.958816 
L 87.197169 92.707677 
L 87.310402 90.515049 
L 87.409056 89.128904 
L 87.548133 86.986681 
L 88.168003 78.392586 
L 88.23377 77.66171 
L 88.374443 75.973134 
L 88.484307 74.914624 
L 88.592337 74.007329 
L 88.78254 72.696793 
L 88.839092 72.444766 
L 88.935187 71.411459 
L 89.057488 70.478962 
L 89.633311 67.026202 
L 89.741269 66.774176 
L 90.623242 63.220605 
L 90.775952 62.867769 
L 90.888546 62.514932 
L 91.305971 61.431219 
L 91.415772 61.027977 
L 91.702345 60.67514 
L 91.816364 60.372709 
L 92.300994 59.339401 
L 92.506586 58.885754 
L 92.635512 58.684133 
L 92.770079 58.457309 
L 93.206151 57.650825 
L 93.365876 57.424002 
L 93.568733 57.12157 
L 93.692758 56.970354 
L 94.371406 56.441099 
L 94.550366 56.264681 
L 94.650625 56.16387 
L 95.321809 55.609413 
L 97.057366 55.054955 
L 98.402697 54.828131 
L 98.534447 54.777726 
L 100.225867 54.601308 
L 100.863502 54.5257 
L 107.609717 54.14766 
L 126.810696 53.845229 
L 130.027847 53.794824 
L 197.271987 53.593203 
L 281.339951 53.568 
L 281.339951 53.568 
" clip-path="url(#p44e3ff6f24)" style="fill: none; stroke: #ff7f0e; stroke-width: 1.5; stroke-linecap: square"/>
   </g>
   <g id="line2d_15">
    <path d="M 74.875655 295.488 
L 77.0296 295.235974 
L 77.139136 295.185568 
L 77.789699 295.00915 
L 77.905005 294.933542 
L 78.193376 294.782326 
L 78.589186 294.479895 
L 79.658406 291.959632 
L 79.763506 291.178351 
L 80.028457 290.01903 
L 80.223418 288.406062 
L 80.472252 286.616676 
L 80.656018 285.003708 
L 80.743304 284.146819 
L 80.885883 282.483445 
L 80.963844 281.651759 
L 81.173843 279.433928 
L 81.249713 278.652646 
L 81.363306 277.165691 
L 81.605002 274.191782 
L 81.679461 273.284487 
L 82.156436 266.40417 
L 82.197724 265.799307 
L 82.402845 262.623777 
L 82.441886 262.018914 
L 82.730442 257.835278 
L 83.174067 250.476111 
L 83.212802 250.17368 
L 84.059301 234.749673 
L 84.091305 234.371634 
L 84.325221 230.036782 
L 84.362345 229.608338 
L 84.397563 228.751448 
L 84.616528 224.870244 
L 84.646916 224.265381 
L 84.725044 222.954844 
L 85.81121 205.111386 
L 85.91859 203.624431 
L 86.068268 201.608221 
L 86.179669 200.146469 
L 86.367107 197.752219 
L 86.461063 196.769317 
L 86.691724 194.551486 
L 86.741979 194.223852 
L 86.855737 193.039328 
L 88.131775 184.344423 
L 88.19835 184.092396 
L 88.404983 182.756657 
L 88.504732 182.40382 
L 88.754154 181.597336 
L 88.923771 181.042879 
L 89.030784 180.816055 
L 89.862114 178.825048 
L 90.142276 178.522616 
L 90.237124 178.346198 
L 91.988648 177.186877 
L 94.518713 176.531609 
L 95.351824 176.380393 
L 95.438418 176.329988 
L 95.972837 176.279582 
L 97.069838 176.128367 
L 99.397216 175.926746 
L 100.172698 175.825935 
L 102.366088 175.624314 
L 102.483693 175.573909 
L 103.734435 175.422693 
L 103.763663 175.397491 
L 105.388168 175.19587 
L 106.220369 175.019451 
L 110.875978 174.691817 
L 112.555734 174.616209 
L 134.122804 174.313778 
L 134.501328 174.162562 
L 134.810312 173.986144 
L 135.840526 172.675607 
L 135.980265 172.423581 
L 136.04783 172.095947 
L 136.16066 171.84392 
L 136.642852 169.802508 
L 137.927293 159.419026 
L 138.039443 158.133692 
L 138.418435 153.924854 
L 138.696288 150.396486 
L 138.756148 149.287571 
L 138.948361 146.439674 
L 139.071912 144.297451 
L 139.187724 142.356849 
L 139.678299 134.59444 
L 139.789756 132.779851 
L 139.955409 130.46121 
L 140.038507 129.150673 
L 140.247363 125.773521 
L 141.021002 111.760862 
L 141.140075 109.769854 
L 141.329594 106.46831 
L 142.095588 94.119024 
L 142.394519 89.884983 
L 142.975506 82.147777 
L 143.05738 81.139672 
L 143.174753 79.627515 
L 143.329876 77.913736 
L 143.767016 73.326858 
L 143.838891 72.595982 
L 144.031242 70.705785 
L 144.276148 68.286333 
L 144.410413 66.925391 
L 144.447209 66.648163 
L 144.555555 65.942489 
L 144.665249 65.18641 
L 144.864857 63.926279 
L 144.957104 63.371821 
L 145.062602 62.867769 
L 145.150451 62.59054 
L 145.986378 59.843454 
L 146.062815 59.591427 
L 146.176695 59.364604 
L 146.965517 57.852446 
L 147.241655 57.676028 
L 147.629506 57.348394 
L 147.76305 57.272786 
L 148.163272 56.869544 
L 149.398625 56.214276 
L 150.179325 55.987452 
L 150.607975 55.886642 
L 151.930077 55.685021 
L 151.946248 55.659818 
L 157.3792 55.155765 
L 159.935318 55.00455 
L 160.941379 54.727321 
L 163.149099 54.500497 
L 165.934802 54.172863 
L 166.077032 54.097255 
L 171.256601 53.845229 
L 194.797094 53.618405 
L 196.182826 53.593203 
L 222.937696 53.568 
L 222.937696 53.568 
" clip-path="url(#p44e3ff6f24)" style="fill: none; stroke: #2ca02c; stroke-width: 1.5; stroke-linecap: square"/>
   </g>
   <g id="line2d_16">
    <path d="M 130.780149 295.488 
L 130.823865 295.462797 
L 137.521305 295.261176 
L 139.227873 295.034353 
L 140.366764 294.731921 
L 141.361963 294.101856 
L 141.733322 293.925437 
L 141.933043 293.723816 
L 142.173859 293.522195 
L 142.436716 293.270169 
L 142.908176 292.564495 
L 144.132859 289.338559 
L 144.290893 289.010925 
L 145.286047 285.180126 
L 145.603219 283.315132 
L 145.747523 282.281824 
L 145.893192 281.147706 
L 146.028305 280.366425 
L 146.141516 279.585143 
L 146.308872 278.350215 
L 146.449775 277.291705 
L 146.556301 276.38441 
L 146.74487 274.670632 
L 147.040606 271.847937 
L 147.223599 269.907335 
L 147.637808 265.421268 
L 147.758316 263.657084 
L 148.141702 258.792978 
L 148.31617 256.474336 
L 148.725731 251.282595 
L 148.899534 248.333888 
L 149.032329 246.544502 
L 149.194283 244.049442 
L 149.233205 243.368971 
L 149.450923 239.71459 
L 149.592264 237.068315 
L 149.959223 230.893671 
L 150.146452 227.390507 
L 150.237762 225.802741 
L 150.40544 222.62721 
L 150.473674 221.115053 
L 150.643929 217.763104 
L 150.675618 217.334659 
L 151.679632 196.290467 
L 151.757691 194.526283 
L 152.059969 187.721574 
L 152.106668 186.713469 
L 152.478516 178.74944 
L 152.578539 176.909648 
L 152.866776 171.16345 
L 152.986458 168.542376 
L 153.156218 164.509956 
L 154.506706 137.769971 
L 154.600161 135.854572 
L 154.972018 128.823039 
L 155.121324 126.176763 
L 155.388238 121.111036 
L 157.567932 90.741872 
L 157.705855 89.506944 
L 157.850549 88.146002 
L 158.053982 86.028981 
L 159.411113 76.502389 
L 159.523254 76.099147 
L 159.76157 74.662597 
L 159.795528 74.360166 
L 159.92242 73.478074 
L 160.214803 71.739093 
L 161.009418 68.588765 
L 161.096179 68.311536 
L 161.308421 67.278228 
L 161.413551 66.975797 
L 161.519356 66.62296 
L 161.6372 66.320528 
L 161.794703 65.841679 
L 162.128625 64.934384 
L 162.27564 64.379926 
L 162.410704 64.22871 
L 162.57968 63.775063 
L 162.661543 63.598645 
L 162.746914 63.220605 
L 162.864141 63.044187 
L 162.948321 62.817363 
L 163.280003 62.11169 
L 163.333261 61.960474 
L 163.442878 61.784056 
L 163.585777 61.582435 
L 163.702708 61.355611 
L 163.799444 61.179193 
L 164.019086 60.876761 
L 164.2113 60.700343 
L 165.636733 58.910957 
L 165.938951 58.608525 
L 166.057983 58.457309 
L 166.353471 58.280891 
L 166.513468 58.104473 
L 166.552238 58.054067 
L 166.785436 57.902852 
L 167.082269 57.751636 
L 169.356418 56.441099 
L 171.065074 56.239478 
L 171.837627 56.037857 
L 171.985492 55.987452 
L 174.226237 55.760628 
L 174.236743 55.735426 
L 176.138215 55.58421 
L 178.375786 55.382589 
L 178.384154 55.357386 
L 180.457397 55.155765 
L 180.640408 55.10536 
L 182.31849 54.954144 
L 190.572987 54.601308 
L 190.575645 54.576105 
L 200.482278 54.198066 
L 207.523767 54.172863 
L 320.024641 54.04685 
L 334.413716 53.618405 
L 345.236815 53.568 
L 345.236815 53.568 
" clip-path="url(#p44e3ff6f24)" style="fill: none; stroke: #d62728; stroke-width: 1.5; stroke-linecap: square"/>
   </g>
   <g id="line2d_17">
    <path d="M 128.654482 295.488 
L 132.194253 295.336784 
L 132.64322 295.311582 
L 136.198732 295.185568 
L 136.215118 295.160366 
L 137.552567 294.983947 
L 137.642311 294.857934 
L 138.21567 294.706719 
L 140.227746 293.47179 
L 140.424861 293.345777 
L 140.656728 293.169358 
L 140.950227 292.866927 
L 141.045608 292.715711 
L 141.321126 292.312469 
L 141.574557 292.085646 
L 141.756726 291.707606 
L 141.990541 291.153148 
L 142.12458 290.800312 
L 142.512464 289.666194 
L 142.628805 289.388965 
L 142.817292 288.985723 
L 142.946096 288.532075 
L 143.187753 287.700389 
L 143.278499 287.42316 
L 143.423438 286.667081 
L 143.502906 286.490663 
L 144.410109 281.601353 
L 144.519281 280.870477 
L 144.551029 280.568046 
L 144.609097 280.063993 
L 145.651944 271.495101 
L 145.761957 270.360983 
L 147.219694 252.693942 
L 147.454257 249.820843 
L 147.579266 247.754228 
L 147.980291 241.15114 
L 148.069441 239.311348 
L 148.184845 237.345543 
L 148.480844 231.952182 
L 148.661621 228.902664 
L 149.869383 206.799962 
L 150.003852 204.229294 
L 150.424773 195.83682 
L 150.488517 194.677499 
L 150.600684 192.812505 
L 150.64716 191.829602 
L 150.77378 189.183327 
L 150.846276 188.024006 
L 150.989314 185.629756 
L 151.370723 178.598224 
L 151.481616 176.405596 
L 152.469322 156.999574 
L 152.584768 155.310998 
L 152.747963 152.715128 
L 153.060156 147.094942 
L 153.212794 144.801503 
L 154.10064 129.427902 
L 154.126736 129.150673 
L 154.264796 127.058855 
L 155.37462 112.743764 
L 155.46213 111.685254 
L 156.327082 102.183864 
L 156.369626 101.679812 
L 156.504676 100.117249 
L 156.562904 99.663602 
L 158.530095 85.650942 
L 158.660632 85.046079 
L 158.834377 84.163987 
L 160.405295 77.510494 
L 160.563774 77.157657 
L 160.670387 77.006442 
L 161.607945 74.410571 
L 161.67367 74.20895 
L 162.134277 73.049629 
L 162.237585 72.848008 
L 162.346489 72.621185 
L 162.495646 72.444766 
L 162.621544 72.268348 
L 163.127204 71.159432 
L 163.298822 70.957811 
L 163.396749 70.806596 
L 163.527041 70.65538 
L 163.648283 70.378151 
L 163.795963 70.126125 
L 163.900455 69.773288 
L 164.191904 69.546464 
L 164.31768 69.319641 
L 164.478626 69.11802 
L 164.812571 68.916399 
L 167.480359 66.496947 
L 167.785396 66.270123 
L 167.906572 66.14411 
L 168.24572 65.917286 
L 168.356527 65.866881 
L 170.479359 64.783168 
L 170.809116 64.60675 
L 170.93193 64.480737 
L 171.15142 64.354724 
L 171.583018 64.1279 
L 171.708463 64.052292 
L 172.275429 63.775063 
L 172.306793 63.749861 
L 172.660187 63.623847 
L 172.827239 63.54824 
L 173.41041 63.321416 
L 173.548645 63.195403 
L 173.931999 63.06939 
L 174.09201 62.892971 
L 174.186584 62.766958 
L 174.473419 62.540135 
L 174.621048 62.464527 
L 175.168461 62.162095 
L 175.436694 62.036082 
L 175.79277 61.809258 
L 175.91596 61.683245 
L 176.71272 61.128788 
L 176.896909 60.927167 
L 177.318824 60.750748 
L 177.522415 60.599532 
L 178.46704 59.994669 
L 178.472359 59.969467 
L 178.681083 59.818251 
L 181.088531 58.583322 
L 181.594498 58.406904 
L 182.389516 58.054067 
L 182.624139 57.902852 
L 185.067783 57.247583 
L 185.57883 57.096368 
L 185.870417 56.869544 
L 186.60993 56.592315 
L 187.287602 56.239478 
L 189.361054 55.634615 
L 189.551418 55.559007 
L 192.318009 55.130563 
L 199.790565 54.702118 
L 210.294952 54.399687 
L 332.512963 53.568 
L 332.512963 53.568 
" clip-path="url(#p44e3ff6f24)" style="fill: none; stroke: #9467bd; stroke-width: 1.5; stroke-linecap: square"/>
   </g>
   <g id="line2d_18">
    <path d="M 133.573252 295.488 
L 134.584587 295.437595 
L 138.156687 295.261176 
L 139.83664 294.958745 
L 140.520962 294.631111 
L 140.819758 294.404287 
L 141.294747 294.253071 
L 141.495197 294.05145 
L 141.817532 293.698614 
L 142.204435 293.522195 
L 142.402588 293.295372 
L 142.546623 293.018143 
L 142.751362 292.690509 
L 142.87039 292.388077 
L 143.438466 291.430377 
L 143.729492 290.649096 
L 143.859829 290.119841 
L 143.946987 289.867815 
L 144.048893 289.565383 
L 144.1199 289.313357 
L 144.236945 288.935317 
L 144.349613 288.632886 
L 144.567704 287.725591 
L 144.670287 287.347552 
L 145.440988 283.163916 
L 145.598748 282.155811 
L 145.640465 281.928988 
L 146.235675 277.316907 
L 146.441649 275.451913 
L 146.610109 274.141376 
L 148.446465 251.912661 
L 148.582654 249.518412 
L 148.761889 246.771325 
L 148.883861 244.931534 
L 149.01733 242.764108 
L 149.534209 233.640758 
L 149.566172 233.111502 
L 150.473262 215.167233 
L 150.508098 214.360749 
L 150.64699 211.235624 
L 151.239413 198.508298 
L 151.369783 195.887225 
L 151.406331 195.105944 
L 151.697545 188.956503 
L 151.725018 188.578464 
L 151.835966 186.285025 
L 152.041803 181.672944 
L 152.284847 176.077961 
L 152.650239 167.912311 
L 152.68577 167.282245 
L 153.069096 159.343418 
L 153.162163 157.175992 
L 153.280866 155.210188 
L 153.494871 151.480199 
L 154.762706 127.285679 
L 154.860423 125.849129 
L 154.971454 124.110148 
L 155.070645 122.39637 
L 156.202887 105.661826 
L 156.245335 105.30899 
L 156.364071 103.998453 
L 156.398916 103.696022 
L 156.828879 98.831915 
L 156.981523 96.815705 
L 157.073125 96.009221 
L 157.211343 94.648279 
L 157.669644 90.993899 
L 157.779732 89.985794 
L 158.326042 85.701347 
L 158.404919 85.121687 
L 159.179142 80.812038 
L 159.290779 80.459201 
L 159.437116 79.652717 
L 160.170911 76.426781 
L 160.250701 76.22516 
L 160.520634 75.242258 
L 160.64774 74.864218 
L 160.778497 74.410571 
L 161.469599 72.495172 
L 161.577912 72.293551 
L 161.822994 71.688688 
L 161.945775 71.411459 
L 162.056862 71.13423 
L 162.399643 70.554569 
L 162.661686 70.000112 
L 162.791984 69.823693 
L 162.997395 69.546464 
L 163.201928 69.370046 
L 163.349382 69.092817 
L 163.52719 68.941601 
L 164.169579 68.16032 
L 164.48844 67.757078 
L 164.615504 67.605862 
L 164.696773 67.404241 
L 164.756073 67.303431 
L 164.944647 67.152215 
L 165.671635 66.597757 
L 165.876517 66.421339 
L 166.39963 66.018097 
L 166.790146 65.791273 
L 167.022132 65.690463 
L 168.532948 64.909181 
L 168.648832 64.808371 
L 169.250488 64.631952 
L 169.470238 64.531142 
L 170.607662 64.379926 
L 171.674599 64.22871 
L 172.35126 64.077495 
L 173.74809 63.850671 
L 175.390236 63.674253 
L 189.700631 62.993782 
L 193.085559 62.842566 
L 193.102452 62.817363 
L 195.098202 62.766958 
L 210.535833 62.666148 
L 222.616404 62.640945 
L 315.500017 62.514932 
L 315.507316 62.489729 
L 316.492773 62.288108 
L 316.537148 62.262906 
L 317.202432 62.136893 
L 317.374841 62.086487 
L 318.064565 61.809258 
L 318.808565 61.53203 
L 319.221369 61.380814 
L 319.610339 61.179193 
L 319.710756 61.027977 
L 319.80297 60.927167 
L 321.021666 60.120683 
L 321.088527 60.045075 
L 322.477649 59.162983 
L 322.967027 58.784943 
L 323.317958 58.532917 
L 323.405903 58.432107 
L 323.673459 58.205283 
L 324.269134 57.650825 
L 324.405022 57.398799 
L 324.621458 57.197178 
L 324.951955 57.045962 
L 325.266988 56.667923 
L 325.468091 56.491505 
L 326.947219 55.407792 
L 327.242436 55.256576 
L 327.434238 55.130563 
L 328.938363 54.676916 
L 329.038959 54.601308 
L 330.004039 54.399687 
L 330.181871 54.324079 
L 331.873357 54.04685 
L 343.775752 53.618405 
L 360.358258 53.568 
L 360.358258 53.568 
" clip-path="url(#p44e3ff6f24)" style="fill: none; stroke: #8c564b; stroke-width: 1.5; stroke-linecap: square"/>
   </g>
   <g id="line2d_19">
    <path d="M 131.42258 295.488 
L 136.890562 295.311582 
L 139.414061 294.958745 
L 139.498599 294.933542 
L 140.269464 294.807529 
L 141.312218 294.353882 
L 142.093067 293.244966 
L 142.254738 292.967737 
L 142.488994 292.539293 
L 142.578404 292.362874 
L 142.72487 292.186456 
L 142.810417 291.959632 
L 142.910013 291.858822 
L 143.076743 291.657201 
L 143.340814 291.203554 
L 143.487734 290.951527 
L 143.606073 290.623893 
L 143.795688 290.170246 
L 144.121684 289.136938 
L 144.243767 288.834507 
L 144.362419 288.456468 
L 144.430268 288.179239 
L 144.592971 287.246742 
L 144.766988 286.36465 
L 144.883257 285.784989 
L 145.4498 282.382635 
L 145.613042 281.198111 
L 146.297241 275.981168 
L 146.424664 274.922658 
L 146.898611 270.81463 
L 147.071414 269.075649 
L 147.678664 261.388848 
L 147.816843 259.77588 
L 147.841393 259.347435 
L 148.097291 255.390623 
L 148.12435 255.088192 
L 148.193657 254.180897 
L 148.417837 250.778543 
L 148.490912 249.669627 
L 148.637309 247.30058 
L 149.084821 239.538172 
L 149.219832 236.841491 
L 151.286566 195.584793 
L 151.573484 189.258934 
L 151.765638 184.697259 
L 151.893237 182.151794 
L 151.918816 181.521729 
L 152.10435 177.942956 
L 152.157129 176.607217 
L 152.424947 170.78541 
L 154.155063 137.165108 
L 154.196145 136.459435 
L 154.385772 133.082283 
L 154.861261 124.89143 
L 155.011904 122.119141 
L 155.164237 120.354957 
L 155.589827 114.381935 
L 155.710839 112.617751 
L 157.169452 95.883208 
L 157.211209 95.530371 
L 157.323656 94.37105 
L 157.844002 89.85978 
L 157.881713 89.456538 
L 158.336041 86.381818 
L 158.426074 85.600537 
L 158.493493 85.398916 
L 158.606284 84.466419 
L 158.747581 83.609529 
L 158.870734 82.903856 
L 158.987797 82.122574 
L 159.661239 78.871436 
L 159.890454 77.812926 
L 160.507831 75.191852 
L 160.602798 74.939826 
L 160.700205 74.586989 
L 160.776257 74.410571 
L 160.945263 73.755303 
L 161.003942 73.553682 
L 161.197808 72.898414 
L 161.353438 72.595982 
L 161.466381 72.217943 
L 162.790204 69.017209 
L 162.898239 68.840791 
L 163.20535 68.361941 
L 163.40568 68.109915 
L 165.208835 66.093705 
L 165.651055 65.917286 
L 166.010001 65.690463 
L 166.533487 65.362829 
L 166.624514 65.287221 
L 167.288631 65.009992 
L 168.193383 64.833573 
L 169.927779 64.480737 
L 170.790485 64.279116 
L 170.798956 64.253913 
L 171.894731 64.027089 
L 172.071582 63.926279 
L 172.116658 63.901076 
L 177.635951 63.422226 
L 182.704 63.296213 
L 184.669186 63.220605 
L 189.186163 63.018984 
L 189.951237 62.968579 
L 198.792454 62.741756 
L 216.933532 62.640945 
L 313.087301 62.514932 
L 316.024392 62.036082 
L 316.156164 61.935272 
L 317.979925 61.355611 
L 317.998011 61.330409 
L 318.380493 61.179193 
L 318.523606 61.078382 
L 318.959947 60.876761 
L 319.171058 60.700343 
L 319.582397 60.498722 
L 321.531779 59.087375 
L 322.229748 58.65893 
L 322.371498 58.457309 
L 322.852265 58.07927 
L 322.945457 58.028865 
L 323.412854 57.60042 
L 323.631598 57.424002 
L 323.944245 57.272786 
L 324.34084 57.045962 
L 324.451766 56.819139 
L 324.584435 56.667923 
L 324.678845 56.516707 
L 327.930629 54.727321 
L 329.097904 54.475295 
L 329.105266 54.450092 
L 330.249031 54.273674 
L 330.88325 54.14766 
L 334.164795 53.895634 
L 334.400018 53.845229 
L 339.81325 53.694013 
L 364.396672 53.593203 
L 398.487273 53.568 
L 398.487273 53.568 
" clip-path="url(#p44e3ff6f24)" style="fill: none; stroke: #e377c2; stroke-width: 1.5; stroke-linecap: square"/>
   </g>
   <g id="patch_3">
    <path d="M 57.6 307.584 
L 57.6 41.472 
" style="fill: none; stroke: #000000; stroke-width: 0.8; stroke-linejoin: miter; stroke-linecap: square"/>
   </g>
   <g id="patch_4">
    <path d="M 414.72 307.584 
L 414.72 41.472 
" style="fill: none; stroke: #000000; stroke-width: 0.8; stroke-linejoin: miter; stroke-linecap: square"/>
   </g>
   <g id="patch_5">
    <path d="M 57.6 307.584 
L 414.72 307.584 
" style="fill: none; stroke: #000000; stroke-width: 0.8; stroke-linejoin: miter; stroke-linecap: square"/>
   </g>
   <g id="patch_6">
    <path d="M 57.6 41.472 
L 414.72 41.472 
" style="fill: none; stroke: #000000; stroke-width: 0.8; stroke-linejoin: miter; stroke-linecap: square"/>
   </g>
   <g id="legend_1">
    <g id="patch_7">
     <path d="M 239.066875 302.584 
L 407.72 302.584 
Q 409.72 302.584 409.72 300.584 
L 409.72 198.837125 
Q 409.72 196.837125 407.72 196.837125 
L 239.066875 196.837125 
Q 237.066875 196.837125 237.066875 198.837125 
L 237.066875 300.584 
Q 237.066875 302.584 239.066875 302.584 
z
" style="fill: #ffffff; opacity: 0.8; stroke: #cccccc; stroke-linejoin: miter"/>
    </g>
    <g id="line2d_20">
     <path d="M 241.066875 204.935563 
L 251.066875 204.935563 
L 261.066875 204.935563 
" style="fill: none; stroke: #1f77b4; stroke-width: 1.5; stroke-linecap: square"/>
    </g>
    <g id="text_15">
     <!-- Alt-Svc -->
     <g transform="translate(269.066875 208.435563) scale(0.1 -0.1)">
      <defs>
       <path id="DejaVuSans-41" d="M 2188 4044 
L 1331 1722 
L 3047 1722 
L 2188 4044 
z
M 1831 4666 
L 2547 4666 
L 4325 0 
L 3669 0 
L 3244 1197 
L 1141 1197 
L 716 0 
L 50 0 
L 1831 4666 
z
" transform="scale(0.015625)"/>
       <path id="DejaVuSans-2d" d="M 313 2009 
L 1997 2009 
L 1997 1497 
L 313 1497 
L 313 2009 
z
" transform="scale(0.015625)"/>
       <path id="DejaVuSans-53" d="M 3425 4513 
L 3425 3897 
Q 3066 4069 2747 4153 
Q 2428 4238 2131 4238 
Q 1616 4238 1336 4038 
Q 1056 3838 1056 3469 
Q 1056 3159 1242 3001 
Q 1428 2844 1947 2747 
L 2328 2669 
Q 3034 2534 3370 2195 
Q 3706 1856 3706 1288 
Q 3706 609 3251 259 
Q 2797 -91 1919 -91 
Q 1588 -91 1214 -16 
Q 841 59 441 206 
L 441 856 
Q 825 641 1194 531 
Q 1563 422 1919 422 
Q 2459 422 2753 634 
Q 3047 847 3047 1241 
Q 3047 1584 2836 1778 
Q 2625 1972 2144 2069 
L 1759 2144 
Q 1053 2284 737 2584 
Q 422 2884 422 3419 
Q 422 4038 858 4394 
Q 1294 4750 2059 4750 
Q 2388 4750 2728 4690 
Q 3069 4631 3425 4513 
z
" transform="scale(0.015625)"/>
       <path id="DejaVuSans-76" d="M 191 3500 
L 800 3500 
L 1894 563 
L 2988 3500 
L 3597 3500 
L 2284 0 
L 1503 0 
L 191 3500 
z
" transform="scale(0.015625)"/>
       <path id="DejaVuSans-63" d="M 3122 3366 
L 3122 2828 
Q 2878 2963 2633 3030 
Q 2388 3097 2138 3097 
Q 1578 3097 1268 2742 
Q 959 2388 959 1747 
Q 959 1106 1268 751 
Q 1578 397 2138 397 
Q 2388 397 2633 464 
Q 2878 531 3122 666 
L 3122 134 
Q 2881 22 2623 -34 
Q 2366 -91 2075 -91 
Q 1284 -91 818 406 
Q 353 903 353 1747 
Q 353 2603 823 3093 
Q 1294 3584 2113 3584 
Q 2378 3584 2631 3529 
Q 2884 3475 3122 3366 
z
" transform="scale(0.015625)"/>
      </defs>
      <use xlink:href="#DejaVuSans-41"/>
      <use xlink:href="#DejaVuSans-6c" x="68.408203"/>
      <use xlink:href="#DejaVuSans-74" x="96.191406"/>
      <use xlink:href="#DejaVuSans-2d" x="135.400391"/>
      <use xlink:href="#DejaVuSans-53" x="171.484375"/>
      <use xlink:href="#DejaVuSans-76" x="234.960938"/>
      <use xlink:href="#DejaVuSans-63" x="294.140625"/>
     </g>
    </g>
    <g id="line2d_21">
     <path d="M 241.066875 219.613688 
L 251.066875 219.613688 
L 261.066875 219.613688 
" style="fill: none; stroke: #ff7f0e; stroke-width: 1.5; stroke-linecap: square"/>
    </g>
    <g id="text_16">
     <!-- Alt-Svc (preallocated) -->
     <g transform="translate(269.066875 223.113688) scale(0.1 -0.1)">
      <defs>
       <path id="DejaVuSans-64" d="M 2906 2969 
L 2906 4863 
L 3481 4863 
L 3481 0 
L 2906 0 
L 2906 525 
Q 2725 213 2448 61 
Q 2172 -91 1784 -91 
Q 1150 -91 751 415 
Q 353 922 353 1747 
Q 353 2572 751 3078 
Q 1150 3584 1784 3584 
Q 2172 3584 2448 3432 
Q 2725 3281 2906 2969 
z
M 947 1747 
Q 947 1113 1208 752 
Q 1469 391 1925 391 
Q 2381 391 2643 752 
Q 2906 1113 2906 1747 
Q 2906 2381 2643 2742 
Q 2381 3103 1925 3103 
Q 1469 3103 1208 2742 
Q 947 2381 947 1747 
z
" transform="scale(0.015625)"/>
      </defs>
      <use xlink:href="#DejaVuSans-41"/>
      <use xlink:href="#DejaVuSans-6c" x="68.408203"/>
      <use xlink:href="#DejaVuSans-74" x="96.191406"/>
      <use xlink:href="#DejaVuSans-2d" x="135.400391"/>
      <use xlink:href="#DejaVuSans-53" x="171.484375"/>
      <use xlink:href="#DejaVuSans-76" x="234.960938"/>
      <use xlink:href="#DejaVuSans-63" x="294.140625"/>
      <use xlink:href="#DejaVuSans-20" x="349.121094"/>
      <use xlink:href="#DejaVuSans-28" x="380.908203"/>
      <use xlink:href="#DejaVuSans-70" x="419.921875"/>
      <use xlink:href="#DejaVuSans-72" x="483.398438"/>
      <use xlink:href="#DejaVuSans-65" x="522.261719"/>
      <use xlink:href="#DejaVuSans-61" x="583.785156"/>
      <use xlink:href="#DejaVuSans-6c" x="645.064453"/>
      <use xlink:href="#DejaVuSans-6c" x="672.847656"/>
      <use xlink:href="#DejaVuSans-6f" x="700.630859"/>
      <use xlink:href="#DejaVuSans-63" x="761.8125"/>
      <use xlink:href="#DejaVuSans-61" x="816.792969"/>
      <use xlink:href="#DejaVuSans-74" x="878.072266"/>
      <use xlink:href="#DejaVuSans-65" x="917.28125"/>
      <use xlink:href="#DejaVuSans-64" x="978.804688"/>
      <use xlink:href="#DejaVuSans-29" x="1042.28125"/>
     </g>
    </g>
    <g id="line2d_22">
     <path d="M 241.066875 234.291812 
L 251.066875 234.291812 
L 261.066875 234.291812 
" style="fill: none; stroke: #2ca02c; stroke-width: 1.5; stroke-linecap: square"/>
    </g>
    <g id="text_17">
     <!-- No migration -->
     <g transform="translate(269.066875 237.791812) scale(0.1 -0.1)">
      <defs>
       <path id="DejaVuSans-4e" d="M 628 4666 
L 1478 4666 
L 3547 763 
L 3547 4666 
L 4159 4666 
L 4159 0 
L 3309 0 
L 1241 3903 
L 1241 0 
L 628 0 
L 628 4666 
z
" transform="scale(0.015625)"/>
       <path id="DejaVuSans-67" d="M 2906 1791 
Q 2906 2416 2648 2759 
Q 2391 3103 1925 3103 
Q 1463 3103 1205 2759 
Q 947 2416 947 1791 
Q 947 1169 1205 825 
Q 1463 481 1925 481 
Q 2391 481 2648 825 
Q 2906 1169 2906 1791 
z
M 3481 434 
Q 3481 -459 3084 -895 
Q 2688 -1331 1869 -1331 
Q 1566 -1331 1297 -1286 
Q 1028 -1241 775 -1147 
L 775 -588 
Q 1028 -725 1275 -790 
Q 1522 -856 1778 -856 
Q 2344 -856 2625 -561 
Q 2906 -266 2906 331 
L 2906 616 
Q 2728 306 2450 153 
Q 2172 0 1784 0 
Q 1141 0 747 490 
Q 353 981 353 1791 
Q 353 2603 747 3093 
Q 1141 3584 1784 3584 
Q 2172 3584 2450 3431 
Q 2728 3278 2906 2969 
L 2906 3500 
L 3481 3500 
L 3481 434 
z
" transform="scale(0.015625)"/>
      </defs>
      <use xlink:href="#DejaVuSans-4e"/>
      <use xlink:href="#DejaVuSans-6f" x="74.804688"/>
      <use xlink:href="#DejaVuSans-20" x="135.986328"/>
      <use xlink:href="#DejaVuSans-6d" x="167.773438"/>
      <use xlink:href="#DejaVuSans-69" x="265.185547"/>
      <use xlink:href="#DejaVuSans-67" x="292.96875"/>
      <use xlink:href="#DejaVuSans-72" x="356.445312"/>
      <use xlink:href="#DejaVuSans-61" x="397.558594"/>
      <use xlink:href="#DejaVuSans-74" x="458.837891"/>
      <use xlink:href="#DejaVuSans-69" x="498.046875"/>
      <use xlink:href="#DejaVuSans-6f" x="525.830078"/>
      <use xlink:href="#DejaVuSans-6e" x="587.011719"/>
     </g>
    </g>
    <g id="line2d_23">
     <path d="M 241.066875 248.969938 
L 251.066875 248.969938 
L 261.066875 248.969938 
" style="fill: none; stroke: #d62728; stroke-width: 1.5; stroke-linecap: square"/>
    </g>
    <g id="text_18">
     <!-- DNS TTL 1s -->
     <g transform="translate(269.066875 252.469938) scale(0.1 -0.1)">
      <defs>
       <path id="DejaVuSans-44" d="M 1259 4147 
L 1259 519 
L 2022 519 
Q 2988 519 3436 956 
Q 3884 1394 3884 2338 
Q 3884 3275 3436 3711 
Q 2988 4147 2022 4147 
L 1259 4147 
z
M 628 4666 
L 1925 4666 
Q 3281 4666 3915 4102 
Q 4550 3538 4550 2338 
Q 4550 1131 3912 565 
Q 3275 0 1925 0 
L 628 0 
L 628 4666 
z
" transform="scale(0.015625)"/>
       <path id="DejaVuSans-54" d="M -19 4666 
L 3928 4666 
L 3928 4134 
L 2272 4134 
L 2272 0 
L 1638 0 
L 1638 4134 
L -19 4134 
L -19 4666 
z
" transform="scale(0.015625)"/>
       <path id="DejaVuSans-4c" d="M 628 4666 
L 1259 4666 
L 1259 531 
L 3531 531 
L 3531 0 
L 628 0 
L 628 4666 
z
" transform="scale(0.015625)"/>
      </defs>
      <use xlink:href="#DejaVuSans-44"/>
      <use xlink:href="#DejaVuSans-4e" x="77.001953"/>
      <use xlink:href="#DejaVuSans-53" x="151.806641"/>
      <use xlink:href="#DejaVuSans-20" x="215.283203"/>
      <use xlink:href="#DejaVuSans-54" x="247.070312"/>
      <use xlink:href="#DejaVuSans-54" x="306.404297"/>
      <use xlink:href="#DejaVuSans-4c" x="367.488281"/>
      <use xlink:href="#DejaVuSans-20" x="423.201172"/>
      <use xlink:href="#DejaVuSans-31" x="454.988281"/>
      <use xlink:href="#DejaVuSans-73" x="518.611328"/>
     </g>
    </g>
    <g id="line2d_24">
     <path d="M 241.066875 263.648063 
L 251.066875 263.648063 
L 261.066875 263.648063 
" style="fill: none; stroke: #9467bd; stroke-width: 1.5; stroke-linecap: square"/>
    </g>
    <g id="text_19">
     <!-- DNS TTL 1s (preallocated) -->
     <g transform="translate(269.066875 267.148063) scale(0.1 -0.1)">
      <use xlink:href="#DejaVuSans-44"/>
      <use xlink:href="#DejaVuSans-4e" x="77.001953"/>
      <use xlink:href="#DejaVuSans-53" x="151.806641"/>
      <use xlink:href="#DejaVuSans-20" x="215.283203"/>
      <use xlink:href="#DejaVuSans-54" x="247.070312"/>
      <use xlink:href="#DejaVuSans-54" x="306.404297"/>
      <use xlink:href="#DejaVuSans-4c" x="367.488281"/>
      <use xlink:href="#DejaVuSans-20" x="423.201172"/>
      <use xlink:href="#DejaVuSans-31" x="454.988281"/>
      <use xlink:href="#DejaVuSans-73" x="518.611328"/>
      <use xlink:href="#DejaVuSans-20" x="570.710938"/>
      <use xlink:href="#DejaVuSans-28" x="602.498047"/>
      <use xlink:href="#DejaVuSans-70" x="641.511719"/>
      <use xlink:href="#DejaVuSans-72" x="704.988281"/>
      <use xlink:href="#DejaVuSans-65" x="743.851562"/>
      <use xlink:href="#DejaVuSans-61" x="805.375"/>
      <use xlink:href="#DejaVuSans-6c" x="866.654297"/>
      <use xlink:href="#DejaVuSans-6c" x="894.4375"/>
      <use xlink:href="#DejaVuSans-6f" x="922.220703"/>
      <use xlink:href="#DejaVuSans-63" x="983.402344"/>
      <use xlink:href="#DejaVuSans-61" x="1038.382812"/>
      <use xlink:href="#DejaVuSans-74" x="1099.662109"/>
      <use xlink:href="#DejaVuSans-65" x="1138.871094"/>
      <use xlink:href="#DejaVuSans-64" x="1200.394531"/>
      <use xlink:href="#DejaVuSans-29" x="1263.871094"/>
     </g>
    </g>
    <g id="line2d_25">
     <path d="M 241.066875 278.326188 
L 251.066875 278.326188 
L 261.066875 278.326188 
" style="fill: none; stroke: #8c564b; stroke-width: 1.5; stroke-linecap: square"/>
    </g>
    <g id="text_20">
     <!-- DNS TTL 60s -->
     <g transform="translate(269.066875 281.826188) scale(0.1 -0.1)">
      <use xlink:href="#DejaVuSans-44"/>
      <use xlink:href="#DejaVuSans-4e" x="77.001953"/>
      <use xlink:href="#DejaVuSans-53" x="151.806641"/>
      <use xlink:href="#DejaVuSans-20" x="215.283203"/>
      <use xlink:href="#DejaVuSans-54" x="247.070312"/>
      <use xlink:href="#DejaVuSans-54" x="306.404297"/>
      <use xlink:href="#DejaVuSans-4c" x="367.488281"/>
      <use xlink:href="#DejaVuSans-20" x="423.201172"/>
      <use xlink:href="#DejaVuSans-36" x="454.988281"/>
      <use xlink:href="#DejaVuSans-30" x="518.611328"/>
      <use xlink:href="#DejaVuSans-73" x="582.234375"/>
     </g>
    </g>
    <g id="line2d_26">
     <path d="M 241.066875 293.004312 
L 251.066875 293.004312 
L 261.066875 293.004312 
" style="fill: none; stroke: #e377c2; stroke-width: 1.5; stroke-linecap: square"/>
    </g>
    <g id="text_21">
     <!-- DNS TTL 60s (preallocated) -->
     <g transform="translate(269.066875 296.504312) scale(0.1 -0.1)">
      <use xlink:href="#DejaVuSans-44"/>
      <use xlink:href="#DejaVuSans-4e" x="77.001953"/>
      <use xlink:href="#DejaVuSans-53" x="151.806641"/>
      <use xlink:href="#DejaVuSans-20" x="215.283203"/>
      <use xlink:href="#DejaVuSans-54" x="247.070312"/>
      <use xlink:href="#DejaVuSans-54" x="306.404297"/>
      <use xlink:href="#DejaVuSans-4c" x="367.488281"/>
      <use xlink:href="#DejaVuSans-20" x="423.201172"/>
      <use xlink:href="#DejaVuSans-36" x="454.988281"/>
      <use xlink:href="#DejaVuSans-30" x="518.611328"/>
      <use xlink:href="#DejaVuSans-73" x="582.234375"/>
      <use xlink:href="#DejaVuSans-20" x="634.333984"/>
      <use xlink:href="#DejaVuSans-28" x="666.121094"/>
      <use xlink:href="#DejaVuSans-70" x="705.134766"/>
      <use xlink:href="#DejaVuSans-72" x="768.611328"/>
      <use xlink:href="#DejaVuSans-65" x="807.474609"/>
      <use xlink:href="#DejaVuSans-61" x="868.998047"/>
      <use xlink:href="#DejaVuSans-6c" x="930.277344"/>
      <use xlink:href="#DejaVuSans-6c" x="958.060547"/>
      <use xlink:href="#DejaVuSans-6f" x="985.84375"/>
      <use xlink:href="#DejaVuSans-63" x="1047.025391"/>
      <use xlink:href="#DejaVuSans-61" x="1102.005859"/>
      <use xlink:href="#DejaVuSans-74" x="1163.285156"/>
      <use xlink:href="#DejaVuSans-65" x="1202.494141"/>
      <use xlink:href="#DejaVuSans-64" x="1264.017578"/>
      <use xlink:href="#DejaVuSans-29" x="1327.494141"/>
     </g>
    </g>
   </g>
  </g>
 </g>
 <defs>
  <clipPath id="p44e3ff6f24">
   <rect x="57.6" y="41.472" width="357.12" height="266.112"/>
  </clipPath>
 </defs>
</svg>
