<?xml version="1.0" encoding="utf-8" standalone="no"?>
<!DOCTYPE svg PUBLIC "-//W3C//DTD SVG 1.1//EN"
  "http://www.w3.org/Graphics/SVG/1.1/DTD/svg11.dtd">
<svg xmlns:xlink="http://www.w3.org/1999/xlink" width="460.8pt" height="345.6pt" viewBox="0 0 460.8 345.6" xmlns="http://www.w3.org/2000/svg" version="1.1">
 <metadata>
  <rdf:RDF xmlns:dc="http://purl.org/dc/elements/1.1/" xmlns:cc="http://creativecommons.org/ns#" xmlns:rdf="http://www.w3.org/1999/02/22-rdf-syntax-ns#">
   <cc:Work>
    <dc:type rdf:resource="http://purl.org/dc/dcmitype/StillImage"/>
    <dc:date>2023-12-10T12:21:39.167964</dc:date>
    <dc:format>image/svg+xml</dc:format>
    <dc:creator>
     <cc:Agent>
      <dc:title>Matplotlib v3.7.1, https://matplotlib.org/</dc:title>
     </cc:Agent>
    </dc:creator>
   </cc:Work>
  </rdf:RDF>
 </metadata>
 <defs>
  <style type="text/css">*{stroke-linejoin: round; stroke-linecap: butt}</style>
 </defs>
 <g id="figure_1">
  <g id="patch_1">
   <path d="M 0 345.6 
L 460.8 345.6 
L 460.8 0 
L 0 0 
z
" style="fill: #ffffff"/>
  </g>
  <g id="axes_1">
   <g id="patch_2">
    <path d="M 57.6 307.584 
L 414.72 307.584 
L 414.72 41.472 
L 57.6 41.472 
z
" style="fill: #ffffff"/>
   </g>
   <g id="matplotlib.axis_1">
    <g id="xtick_1">
     <g id="line2d_1">
      <defs>
       <path id="m256c36bc78" d="M 0 0 
L 0 3.5 
" style="stroke: #000000; stroke-width: 0.8"/>
      </defs>
      <g>
       <use xlink:href="#m256c36bc78" x="97.889495" y="307.584" style="stroke: #000000; stroke-width: 0.8"/>
      </g>
     </g>
     <g id="text_1">
      <!-- 20 -->
      <g transform="translate(91.526995 322.182437) scale(0.1 -0.1)">
       <defs>
        <path id="DejaVuSans-32" d="M 1228 531 
L 3431 531 
L 3431 0 
L 469 0 
L 469 531 
Q 828 903 1448 1529 
Q 2069 2156 2228 2338 
Q 2531 2678 2651 2914 
Q 2772 3150 2772 3378 
Q 2772 3750 2511 3984 
Q 2250 4219 1831 4219 
Q 1534 4219 1204 4116 
Q 875 4013 500 3803 
L 500 4441 
Q 881 4594 1212 4672 
Q 1544 4750 1819 4750 
Q 2544 4750 2975 4387 
Q 3406 4025 3406 3419 
Q 3406 3131 3298 2873 
Q 3191 2616 2906 2266 
Q 2828 2175 2409 1742 
Q 1991 1309 1228 531 
z
" transform="scale(0.015625)"/>
        <path id="DejaVuSans-30" d="M 2034 4250 
Q 1547 4250 1301 3770 
Q 1056 3291 1056 2328 
Q 1056 1369 1301 889 
Q 1547 409 2034 409 
Q 2525 409 2770 889 
Q 3016 1369 3016 2328 
Q 3016 3291 2770 3770 
Q 2525 4250 2034 4250 
z
M 2034 4750 
Q 2819 4750 3233 4129 
Q 3647 3509 3647 2328 
Q 3647 1150 3233 529 
Q 2819 -91 2034 -91 
Q 1250 -91 836 529 
Q 422 1150 422 2328 
Q 422 3509 836 4129 
Q 1250 4750 2034 4750 
z
" transform="scale(0.015625)"/>
       </defs>
       <use xlink:href="#DejaVuSans-32"/>
       <use xlink:href="#DejaVuSans-30" x="63.623047"/>
      </g>
     </g>
    </g>
    <g id="xtick_2">
     <g id="line2d_2">
      <g>
       <use xlink:href="#m256c36bc78" x="155.995041" y="307.584" style="stroke: #000000; stroke-width: 0.8"/>
      </g>
     </g>
     <g id="text_2">
      <!-- 40 -->
      <g transform="translate(149.632541 322.182437) scale(0.1 -0.1)">
       <defs>
        <path id="DejaVuSans-34" d="M 2419 4116 
L 825 1625 
L 2419 1625 
L 2419 4116 
z
M 2253 4666 
L 3047 4666 
L 3047 1625 
L 3713 1625 
L 3713 1100 
L 3047 1100 
L 3047 0 
L 2419 0 
L 2419 1100 
L 313 1100 
L 313 1709 
L 2253 4666 
z
" transform="scale(0.015625)"/>
       </defs>
       <use xlink:href="#DejaVuSans-34"/>
       <use xlink:href="#DejaVuSans-30" x="63.623047"/>
      </g>
     </g>
    </g>
    <g id="xtick_3">
     <g id="line2d_3">
      <g>
       <use xlink:href="#m256c36bc78" x="214.100587" y="307.584" style="stroke: #000000; stroke-width: 0.8"/>
      </g>
     </g>
     <g id="text_3">
      <!-- 60 -->
      <g transform="translate(207.738087 322.182437) scale(0.1 -0.1)">
       <defs>
        <path id="DejaVuSans-36" d="M 2113 2584 
Q 1688 2584 1439 2293 
Q 1191 2003 1191 1497 
Q 1191 994 1439 701 
Q 1688 409 2113 409 
Q 2538 409 2786 701 
Q 3034 994 3034 1497 
Q 3034 2003 2786 2293 
Q 2538 2584 2113 2584 
z
M 3366 4563 
L 3366 3988 
Q 3128 4100 2886 4159 
Q 2644 4219 2406 4219 
Q 1781 4219 1451 3797 
Q 1122 3375 1075 2522 
Q 1259 2794 1537 2939 
Q 1816 3084 2150 3084 
Q 2853 3084 3261 2657 
Q 3669 2231 3669 1497 
Q 3669 778 3244 343 
Q 2819 -91 2113 -91 
Q 1303 -91 875 529 
Q 447 1150 447 2328 
Q 447 3434 972 4092 
Q 1497 4750 2381 4750 
Q 2619 4750 2861 4703 
Q 3103 4656 3366 4563 
z
" transform="scale(0.015625)"/>
       </defs>
       <use xlink:href="#DejaVuSans-36"/>
       <use xlink:href="#DejaVuSans-30" x="63.623047"/>
      </g>
     </g>
    </g>
    <g id="xtick_4">
     <g id="line2d_4">
      <g>
       <use xlink:href="#m256c36bc78" x="272.206133" y="307.584" style="stroke: #000000; stroke-width: 0.8"/>
      </g>
     </g>
     <g id="text_4">
      <!-- 80 -->
      <g transform="translate(265.843633 322.182437) scale(0.1 -0.1)">
       <defs>
        <path id="DejaVuSans-38" d="M 2034 2216 
Q 1584 2216 1326 1975 
Q 1069 1734 1069 1313 
Q 1069 891 1326 650 
Q 1584 409 2034 409 
Q 2484 409 2743 651 
Q 3003 894 3003 1313 
Q 3003 1734 2745 1975 
Q 2488 2216 2034 2216 
z
M 1403 2484 
Q 997 2584 770 2862 
Q 544 3141 544 3541 
Q 544 4100 942 4425 
Q 1341 4750 2034 4750 
Q 2731 4750 3128 4425 
Q 3525 4100 3525 3541 
Q 3525 3141 3298 2862 
Q 3072 2584 2669 2484 
Q 3125 2378 3379 2068 
Q 3634 1759 3634 1313 
Q 3634 634 3220 271 
Q 2806 -91 2034 -91 
Q 1263 -91 848 271 
Q 434 634 434 1313 
Q 434 1759 690 2068 
Q 947 2378 1403 2484 
z
M 1172 3481 
Q 1172 3119 1398 2916 
Q 1625 2713 2034 2713 
Q 2441 2713 2670 2916 
Q 2900 3119 2900 3481 
Q 2900 3844 2670 4047 
Q 2441 4250 2034 4250 
Q 1625 4250 1398 4047 
Q 1172 3844 1172 3481 
z
" transform="scale(0.015625)"/>
       </defs>
       <use xlink:href="#DejaVuSans-38"/>
       <use xlink:href="#DejaVuSans-30" x="63.623047"/>
      </g>
     </g>
    </g>
    <g id="xtick_5">
     <g id="line2d_5">
      <g>
       <use xlink:href="#m256c36bc78" x="330.311678" y="307.584" style="stroke: #000000; stroke-width: 0.8"/>
      </g>
     </g>
     <g id="text_5">
      <!-- 100 -->
      <g transform="translate(320.767928 322.182437) scale(0.1 -0.1)">
       <defs>
        <path id="DejaVuSans-31" d="M 794 531 
L 1825 531 
L 1825 4091 
L 703 3866 
L 703 4441 
L 1819 4666 
L 2450 4666 
L 2450 531 
L 3481 531 
L 3481 0 
L 794 0 
L 794 531 
z
" transform="scale(0.015625)"/>
       </defs>
       <use xlink:href="#DejaVuSans-31"/>
       <use xlink:href="#DejaVuSans-30" x="63.623047"/>
       <use xlink:href="#DejaVuSans-30" x="127.246094"/>
      </g>
     </g>
    </g>
    <g id="xtick_6">
     <g id="line2d_6">
      <g>
       <use xlink:href="#m256c36bc78" x="388.417224" y="307.584" style="stroke: #000000; stroke-width: 0.8"/>
      </g>
     </g>
     <g id="text_6">
      <!-- 120 -->
      <g transform="translate(378.873474 322.182437) scale(0.1 -0.1)">
       <use xlink:href="#DejaVuSans-31"/>
       <use xlink:href="#DejaVuSans-32" x="63.623047"/>
       <use xlink:href="#DejaVuSans-30" x="127.246094"/>
      </g>
     </g>
    </g>
    <g id="text_7">
     <!-- Response time (ms) -->
     <g transform="translate(186.295156 335.860562) scale(0.1 -0.1)">
      <defs>
       <path id="DejaVuSans-52" d="M 2841 2188 
Q 3044 2119 3236 1894 
Q 3428 1669 3622 1275 
L 4263 0 
L 3584 0 
L 2988 1197 
Q 2756 1666 2539 1819 
Q 2322 1972 1947 1972 
L 1259 1972 
L 1259 0 
L 628 0 
L 628 4666 
L 2053 4666 
Q 2853 4666 3247 4331 
Q 3641 3997 3641 3322 
Q 3641 2881 3436 2590 
Q 3231 2300 2841 2188 
z
M 1259 4147 
L 1259 2491 
L 2053 2491 
Q 2509 2491 2742 2702 
Q 2975 2913 2975 3322 
Q 2975 3731 2742 3939 
Q 2509 4147 2053 4147 
L 1259 4147 
z
" transform="scale(0.015625)"/>
       <path id="DejaVuSans-65" d="M 3597 1894 
L 3597 1613 
L 953 1613 
Q 991 1019 1311 708 
Q 1631 397 2203 397 
Q 2534 397 2845 478 
Q 3156 559 3463 722 
L 3463 178 
Q 3153 47 2828 -22 
Q 2503 -91 2169 -91 
Q 1331 -91 842 396 
Q 353 884 353 1716 
Q 353 2575 817 3079 
Q 1281 3584 2069 3584 
Q 2775 3584 3186 3129 
Q 3597 2675 3597 1894 
z
M 3022 2063 
Q 3016 2534 2758 2815 
Q 2500 3097 2075 3097 
Q 1594 3097 1305 2825 
Q 1016 2553 972 2059 
L 3022 2063 
z
" transform="scale(0.015625)"/>
       <path id="DejaVuSans-73" d="M 2834 3397 
L 2834 2853 
Q 2591 2978 2328 3040 
Q 2066 3103 1784 3103 
Q 1356 3103 1142 2972 
Q 928 2841 928 2578 
Q 928 2378 1081 2264 
Q 1234 2150 1697 2047 
L 1894 2003 
Q 2506 1872 2764 1633 
Q 3022 1394 3022 966 
Q 3022 478 2636 193 
Q 2250 -91 1575 -91 
Q 1294 -91 989 -36 
Q 684 19 347 128 
L 347 722 
Q 666 556 975 473 
Q 1284 391 1588 391 
Q 1994 391 2212 530 
Q 2431 669 2431 922 
Q 2431 1156 2273 1281 
Q 2116 1406 1581 1522 
L 1381 1569 
Q 847 1681 609 1914 
Q 372 2147 372 2553 
Q 372 3047 722 3315 
Q 1072 3584 1716 3584 
Q 2034 3584 2315 3537 
Q 2597 3491 2834 3397 
z
" transform="scale(0.015625)"/>
       <path id="DejaVuSans-70" d="M 1159 525 
L 1159 -1331 
L 581 -1331 
L 581 3500 
L 1159 3500 
L 1159 2969 
Q 1341 3281 1617 3432 
Q 1894 3584 2278 3584 
Q 2916 3584 3314 3078 
Q 3713 2572 3713 1747 
Q 3713 922 3314 415 
Q 2916 -91 2278 -91 
Q 1894 -91 1617 61 
Q 1341 213 1159 525 
z
M 3116 1747 
Q 3116 2381 2855 2742 
Q 2594 3103 2138 3103 
Q 1681 3103 1420 2742 
Q 1159 2381 1159 1747 
Q 1159 1113 1420 752 
Q 1681 391 2138 391 
Q 2594 391 2855 752 
Q 3116 1113 3116 1747 
z
" transform="scale(0.015625)"/>
       <path id="DejaVuSans-6f" d="M 1959 3097 
Q 1497 3097 1228 2736 
Q 959 2375 959 1747 
Q 959 1119 1226 758 
Q 1494 397 1959 397 
Q 2419 397 2687 759 
Q 2956 1122 2956 1747 
Q 2956 2369 2687 2733 
Q 2419 3097 1959 3097 
z
M 1959 3584 
Q 2709 3584 3137 3096 
Q 3566 2609 3566 1747 
Q 3566 888 3137 398 
Q 2709 -91 1959 -91 
Q 1206 -91 779 398 
Q 353 888 353 1747 
Q 353 2609 779 3096 
Q 1206 3584 1959 3584 
z
" transform="scale(0.015625)"/>
       <path id="DejaVuSans-6e" d="M 3513 2113 
L 3513 0 
L 2938 0 
L 2938 2094 
Q 2938 2591 2744 2837 
Q 2550 3084 2163 3084 
Q 1697 3084 1428 2787 
Q 1159 2491 1159 1978 
L 1159 0 
L 581 0 
L 581 3500 
L 1159 3500 
L 1159 2956 
Q 1366 3272 1645 3428 
Q 1925 3584 2291 3584 
Q 2894 3584 3203 3211 
Q 3513 2838 3513 2113 
z
" transform="scale(0.015625)"/>
       <path id="DejaVuSans-20" transform="scale(0.015625)"/>
       <path id="DejaVuSans-74" d="M 1172 4494 
L 1172 3500 
L 2356 3500 
L 2356 3053 
L 1172 3053 
L 1172 1153 
Q 1172 725 1289 603 
Q 1406 481 1766 481 
L 2356 481 
L 2356 0 
L 1766 0 
Q 1100 0 847 248 
Q 594 497 594 1153 
L 594 3053 
L 172 3053 
L 172 3500 
L 594 3500 
L 594 4494 
L 1172 4494 
z
" transform="scale(0.015625)"/>
       <path id="DejaVuSans-69" d="M 603 3500 
L 1178 3500 
L 1178 0 
L 603 0 
L 603 3500 
z
M 603 4863 
L 1178 4863 
L 1178 4134 
L 603 4134 
L 603 4863 
z
" transform="scale(0.015625)"/>
       <path id="DejaVuSans-6d" d="M 3328 2828 
Q 3544 3216 3844 3400 
Q 4144 3584 4550 3584 
Q 5097 3584 5394 3201 
Q 5691 2819 5691 2113 
L 5691 0 
L 5113 0 
L 5113 2094 
Q 5113 2597 4934 2840 
Q 4756 3084 4391 3084 
Q 3944 3084 3684 2787 
Q 3425 2491 3425 1978 
L 3425 0 
L 2847 0 
L 2847 2094 
Q 2847 2600 2669 2842 
Q 2491 3084 2119 3084 
Q 1678 3084 1418 2786 
Q 1159 2488 1159 1978 
L 1159 0 
L 581 0 
L 581 3500 
L 1159 3500 
L 1159 2956 
Q 1356 3278 1631 3431 
Q 1906 3584 2284 3584 
Q 2666 3584 2933 3390 
Q 3200 3197 3328 2828 
z
" transform="scale(0.015625)"/>
       <path id="DejaVuSans-28" d="M 1984 4856 
Q 1566 4138 1362 3434 
Q 1159 2731 1159 2009 
Q 1159 1288 1364 580 
Q 1569 -128 1984 -844 
L 1484 -844 
Q 1016 -109 783 600 
Q 550 1309 550 2009 
Q 550 2706 781 3412 
Q 1013 4119 1484 4856 
L 1984 4856 
z
" transform="scale(0.015625)"/>
       <path id="DejaVuSans-29" d="M 513 4856 
L 1013 4856 
Q 1481 4119 1714 3412 
Q 1947 2706 1947 2009 
Q 1947 1309 1714 600 
Q 1481 -109 1013 -844 
L 513 -844 
Q 928 -128 1133 580 
Q 1338 1288 1338 2009 
Q 1338 2731 1133 3434 
Q 928 4138 513 4856 
z
" transform="scale(0.015625)"/>
      </defs>
      <use xlink:href="#DejaVuSans-52"/>
      <use xlink:href="#DejaVuSans-65" x="64.982422"/>
      <use xlink:href="#DejaVuSans-73" x="126.505859"/>
      <use xlink:href="#DejaVuSans-70" x="178.605469"/>
      <use xlink:href="#DejaVuSans-6f" x="242.082031"/>
      <use xlink:href="#DejaVuSans-6e" x="303.263672"/>
      <use xlink:href="#DejaVuSans-73" x="366.642578"/>
      <use xlink:href="#DejaVuSans-65" x="418.742188"/>
      <use xlink:href="#DejaVuSans-20" x="480.265625"/>
      <use xlink:href="#DejaVuSans-74" x="512.052734"/>
      <use xlink:href="#DejaVuSans-69" x="551.261719"/>
      <use xlink:href="#DejaVuSans-6d" x="579.044922"/>
      <use xlink:href="#DejaVuSans-65" x="676.457031"/>
      <use xlink:href="#DejaVuSans-20" x="737.980469"/>
      <use xlink:href="#DejaVuSans-28" x="769.767578"/>
      <use xlink:href="#DejaVuSans-6d" x="808.78125"/>
      <use xlink:href="#DejaVuSans-73" x="906.193359"/>
      <use xlink:href="#DejaVuSans-29" x="958.292969"/>
     </g>
    </g>
   </g>
   <g id="matplotlib.axis_2">
    <g id="ytick_1">
     <g id="line2d_7">
      <defs>
       <path id="m81a59c2249" d="M 0 0 
L -3.5 0 
" style="stroke: #000000; stroke-width: 0.8"/>
      </defs>
      <g>
       <use xlink:href="#m81a59c2249" x="57.6" y="295.513203" style="stroke: #000000; stroke-width: 0.8"/>
      </g>
     </g>
     <g id="text_8">
      <!-- 0.0 -->
      <g transform="translate(34.696875 299.312421) scale(0.1 -0.1)">
       <defs>
        <path id="DejaVuSans-2e" d="M 684 794 
L 1344 794 
L 1344 0 
L 684 0 
L 684 794 
z
" transform="scale(0.015625)"/>
       </defs>
       <use xlink:href="#DejaVuSans-30"/>
       <use xlink:href="#DejaVuSans-2e" x="63.623047"/>
       <use xlink:href="#DejaVuSans-30" x="95.410156"/>
      </g>
     </g>
    </g>
    <g id="ytick_2">
     <g id="line2d_8">
      <g>
       <use xlink:href="#m81a59c2249" x="57.6" y="247.124162" style="stroke: #000000; stroke-width: 0.8"/>
      </g>
     </g>
     <g id="text_9">
      <!-- 0.2 -->
      <g transform="translate(34.696875 250.923381) scale(0.1 -0.1)">
       <use xlink:href="#DejaVuSans-30"/>
       <use xlink:href="#DejaVuSans-2e" x="63.623047"/>
       <use xlink:href="#DejaVuSans-32" x="95.410156"/>
      </g>
     </g>
    </g>
    <g id="ytick_3">
     <g id="line2d_9">
      <g>
       <use xlink:href="#m81a59c2249" x="57.6" y="198.735122" style="stroke: #000000; stroke-width: 0.8"/>
      </g>
     </g>
     <g id="text_10">
      <!-- 0.4 -->
      <g transform="translate(34.696875 202.53434) scale(0.1 -0.1)">
       <use xlink:href="#DejaVuSans-30"/>
       <use xlink:href="#DejaVuSans-2e" x="63.623047"/>
       <use xlink:href="#DejaVuSans-34" x="95.410156"/>
      </g>
     </g>
    </g>
    <g id="ytick_4">
     <g id="line2d_10">
      <g>
       <use xlink:href="#m81a59c2249" x="57.6" y="150.346081" style="stroke: #000000; stroke-width: 0.8"/>
      </g>
     </g>
     <g id="text_11">
      <!-- 0.6 -->
      <g transform="translate(34.696875 154.1453) scale(0.1 -0.1)">
       <use xlink:href="#DejaVuSans-30"/>
       <use xlink:href="#DejaVuSans-2e" x="63.623047"/>
       <use xlink:href="#DejaVuSans-36" x="95.410156"/>
      </g>
     </g>
    </g>
    <g id="ytick_5">
     <g id="line2d_11">
      <g>
       <use xlink:href="#m81a59c2249" x="57.6" y="101.957041" style="stroke: #000000; stroke-width: 0.8"/>
      </g>
     </g>
     <g id="text_12">
      <!-- 0.8 -->
      <g transform="translate(34.696875 105.756259) scale(0.1 -0.1)">
       <use xlink:href="#DejaVuSans-30"/>
       <use xlink:href="#DejaVuSans-2e" x="63.623047"/>
       <use xlink:href="#DejaVuSans-38" x="95.410156"/>
      </g>
     </g>
    </g>
    <g id="ytick_6">
     <g id="line2d_12">
      <g>
       <use xlink:href="#m81a59c2249" x="57.6" y="53.568" style="stroke: #000000; stroke-width: 0.8"/>
      </g>
     </g>
     <g id="text_13">
      <!-- 1.0 -->
      <g transform="translate(34.696875 57.367219) scale(0.1 -0.1)">
       <use xlink:href="#DejaVuSans-31"/>
       <use xlink:href="#DejaVuSans-2e" x="63.623047"/>
       <use xlink:href="#DejaVuSans-30" x="95.410156"/>
      </g>
     </g>
    </g>
    <g id="text_14">
     <!-- Probability -->
     <g transform="translate(28.617187 200.956906) rotate(-90) scale(0.1 -0.1)">
      <defs>
       <path id="DejaVuSans-50" d="M 1259 4147 
L 1259 2394 
L 2053 2394 
Q 2494 2394 2734 2622 
Q 2975 2850 2975 3272 
Q 2975 3691 2734 3919 
Q 2494 4147 2053 4147 
L 1259 4147 
z
M 628 4666 
L 2053 4666 
Q 2838 4666 3239 4311 
Q 3641 3956 3641 3272 
Q 3641 2581 3239 2228 
Q 2838 1875 2053 1875 
L 1259 1875 
L 1259 0 
L 628 0 
L 628 4666 
z
" transform="scale(0.015625)"/>
       <path id="DejaVuSans-72" d="M 2631 2963 
Q 2534 3019 2420 3045 
Q 2306 3072 2169 3072 
Q 1681 3072 1420 2755 
Q 1159 2438 1159 1844 
L 1159 0 
L 581 0 
L 581 3500 
L 1159 3500 
L 1159 2956 
Q 1341 3275 1631 3429 
Q 1922 3584 2338 3584 
Q 2397 3584 2469 3576 
Q 2541 3569 2628 3553 
L 2631 2963 
z
" transform="scale(0.015625)"/>
       <path id="DejaVuSans-62" d="M 3116 1747 
Q 3116 2381 2855 2742 
Q 2594 3103 2138 3103 
Q 1681 3103 1420 2742 
Q 1159 2381 1159 1747 
Q 1159 1113 1420 752 
Q 1681 391 2138 391 
Q 2594 391 2855 752 
Q 3116 1113 3116 1747 
z
M 1159 2969 
Q 1341 3281 1617 3432 
Q 1894 3584 2278 3584 
Q 2916 3584 3314 3078 
Q 3713 2572 3713 1747 
Q 3713 922 3314 415 
Q 2916 -91 2278 -91 
Q 1894 -91 1617 61 
Q 1341 213 1159 525 
L 1159 0 
L 581 0 
L 581 4863 
L 1159 4863 
L 1159 2969 
z
" transform="scale(0.015625)"/>
       <path id="DejaVuSans-61" d="M 2194 1759 
Q 1497 1759 1228 1600 
Q 959 1441 959 1056 
Q 959 750 1161 570 
Q 1363 391 1709 391 
Q 2188 391 2477 730 
Q 2766 1069 2766 1631 
L 2766 1759 
L 2194 1759 
z
M 3341 1997 
L 3341 0 
L 2766 0 
L 2766 531 
Q 2569 213 2275 61 
Q 1981 -91 1556 -91 
Q 1019 -91 701 211 
Q 384 513 384 1019 
Q 384 1609 779 1909 
Q 1175 2209 1959 2209 
L 2766 2209 
L 2766 2266 
Q 2766 2663 2505 2880 
Q 2244 3097 1772 3097 
Q 1472 3097 1187 3025 
Q 903 2953 641 2809 
L 641 3341 
Q 956 3463 1253 3523 
Q 1550 3584 1831 3584 
Q 2591 3584 2966 3190 
Q 3341 2797 3341 1997 
z
" transform="scale(0.015625)"/>
       <path id="DejaVuSans-6c" d="M 603 4863 
L 1178 4863 
L 1178 0 
L 603 0 
L 603 4863 
z
" transform="scale(0.015625)"/>
       <path id="DejaVuSans-79" d="M 2059 -325 
Q 1816 -950 1584 -1140 
Q 1353 -1331 966 -1331 
L 506 -1331 
L 506 -850 
L 844 -850 
Q 1081 -850 1212 -737 
Q 1344 -625 1503 -206 
L 1606 56 
L 191 3500 
L 800 3500 
L 1894 763 
L 2988 3500 
L 3597 3500 
L 2059 -325 
z
" transform="scale(0.015625)"/>
      </defs>
      <use xlink:href="#DejaVuSans-50"/>
      <use xlink:href="#DejaVuSans-72" x="58.552734"/>
      <use xlink:href="#DejaVuSans-6f" x="97.416016"/>
      <use xlink:href="#DejaVuSans-62" x="158.597656"/>
      <use xlink:href="#DejaVuSans-61" x="222.074219"/>
      <use xlink:href="#DejaVuSans-62" x="283.353516"/>
      <use xlink:href="#DejaVuSans-69" x="346.830078"/>
      <use xlink:href="#DejaVuSans-6c" x="374.613281"/>
      <use xlink:href="#DejaVuSans-69" x="402.396484"/>
      <use xlink:href="#DejaVuSans-74" x="430.179688"/>
      <use xlink:href="#DejaVuSans-79" x="469.388672"/>
     </g>
    </g>
   </g>
   <g id="line2d_13">
    <path d="M 75.903481 295.488 
L 78.406026 295.084758 
L 78.735452 294.832732 
L 78.842372 294.731921 
L 79.163467 294.479895 
L 79.316578 294.202666 
L 79.914873 292.665306 
L 80.405961 289.993828 
L 80.570135 288.607683 
L 80.622418 288.204441 
L 81.279331 281.903785 
L 81.39248 280.542843 
L 81.520759 278.854267 
L 81.750384 274.94786 
L 81.809294 274.141376 
L 82.093558 268.294367 
L 82.14053 267.286262 
L 82.255765 264.992823 
L 82.508109 258.490546 
L 82.649265 254.911773 
L 82.850162 249.820843 
L 83.793868 218.922424 
L 83.961576 213.377847 
L 84.070791 210.101506 
L 84.194959 205.943072 
L 84.333962 200.751332 
L 84.461478 196.391277 
L 85.694925 151.076957 
L 85.722784 150.320878 
L 85.864802 145.05353 
L 85.91493 143.51617 
L 86.119029 136.98869 
L 86.224316 134.01478 
L 86.410039 127.940947 
L 86.550526 123.706906 
L 87.121561 107.90486 
L 87.173191 106.795945 
L 87.578524 97.24415 
L 87.614328 96.588881 
L 87.878139 91.094709 
L 88.000617 88.902081 
L 88.181354 85.852563 
L 88.343963 83.256693 
L 88.467777 81.593319 
L 89.099933 74.536584 
L 89.154541 74.10814 
L 89.267367 73.15044 
L 89.612346 70.705785 
L 90.132527 67.479849 
L 90.182579 67.20262 
L 90.352462 66.471744 
L 90.475353 66.169313 
L 90.604027 65.816476 
L 91.07895 64.732763 
L 91.178136 64.581547 
L 91.3572 64.279116 
L 92.747215 62.464527 
L 94.332012 61.784056 
L 94.710529 61.607637 
L 95.118819 61.355611 
L 95.793335 61.204395 
L 96.277671 60.927167 
L 96.437266 60.801153 
L 96.775551 60.649938 
L 97.000539 60.523925 
L 97.309643 60.423114 
L 97.802927 60.221493 
L 98.412221 60.019872 
L 99.21323 59.742643 
L 99.979982 59.541022 
L 100.483571 59.364604 
L 100.520668 59.314199 
L 101.290108 59.112578 
L 102.323617 58.734538 
L 103.235133 58.55812 
L 103.261245 58.532917 
L 105.205524 58.280891 
L 105.912482 58.104473 
L 106.22634 57.978459 
L 107.659809 57.726433 
L 108.011095 57.650825 
L 108.771543 57.49961 
L 108.891452 57.449204 
L 115.367731 56.919949 
L 135.973584 56.667923 
L 138.19129 56.189073 
L 138.833464 55.911844 
L 139.083047 55.785831 
L 139.192242 55.685021 
L 141.04184 54.727321 
L 141.897686 54.500497 
L 143.170066 54.172863 
L 144.680805 54.072053 
L 157.634405 53.996445 
L 171.64278 53.794824 
L 174.588211 53.694013 
L 200.036032 53.568 
L 200.036032 53.568 
" clip-path="url(#pf4d0f8662a)" style="fill: none; stroke: #1f77b4; stroke-width: 1.5; stroke-linecap: square"/>
   </g>
   <g id="line2d_14">
    <path d="M 74.43 295.488 
L 76.957559 295.311582 
L 78.104525 294.933542 
L 78.167291 294.883137 
L 78.353156 294.757124 
L 78.731353 294.5303 
L 78.876536 294.379084 
L 79.157482 293.900235 
L 79.340604 293.5726 
L 79.426493 293.396182 
L 79.517963 293.093751 
L 79.620603 292.942535 
L 79.802872 292.388077 
L 80.153591 290.523083 
L 80.404604 288.910115 
L 80.618232 287.045121 
L 80.753827 285.835395 
L 81.007394 282.91189 
L 81.060874 282.533851 
L 81.508336 276.586031 
L 81.579536 274.973063 
L 81.71548 272.251179 
L 82.829834 244.503089 
L 83.130983 234.598457 
L 83.162223 233.867581 
L 83.536199 222.097955 
L 83.567815 221.165458 
L 83.716835 216.049325 
L 83.814455 212.999807 
L 83.926561 209.194211 
L 84.121218 202.213084 
L 84.23204 198.483095 
L 84.416237 191.627981 
L 84.573674 186.184214 
L 86.925234 111.105593 
L 87.021762 108.686141 
L 87.288133 102.234269 
L 87.337653 101.175759 
L 87.4679 98.277457 
L 87.735571 93.287337 
L 87.851315 91.044304 
L 88.578944 80.207175 
L 88.620333 79.929946 
L 88.751393 78.569004 
L 88.948359 76.577997 
L 89.547796 71.512269 
L 89.836932 69.521262 
L 90.537287 66.0433 
L 90.59304 65.791273 
L 90.696064 65.413234 
L 90.80498 65.136005 
L 90.926467 64.757966 
L 91.003378 64.531142 
L 91.091791 64.203508 
L 91.26051 63.623847 
L 91.407554 63.144998 
L 92.071892 61.05318 
L 92.180451 60.851559 
L 92.314681 60.473519 
L 92.429971 60.322304 
L 92.621193 60.070277 
L 92.734531 59.717441 
L 92.823496 59.566225 
L 93.368619 58.406904 
L 93.533999 58.154878 
L 93.68008 57.928054 
L 93.925619 57.726433 
L 94.053687 57.524812 
L 94.200121 57.247583 
L 94.261742 57.12157 
L 94.439659 56.995557 
L 94.725555 56.617518 
L 95.136036 56.390694 
L 95.140653 56.365491 
L 95.534265 56.189073 
L 95.67156 56.06306 
L 96.902857 55.306981 
L 101.592553 54.828131 
L 111.564906 54.62651 
L 124.239683 54.450092 
L 124.290982 54.424889 
L 126.712655 54.374484 
L 141.890969 54.248471 
L 144.646674 54.021647 
L 148.40741 53.996445 
L 188.542282 53.870432 
L 192.409958 53.744418 
L 203.232209 53.593203 
L 240.015867 53.568 
L 240.015867 53.568 
" clip-path="url(#pf4d0f8662a)" style="fill: none; stroke: #ff7f0e; stroke-width: 1.5; stroke-linecap: square"/>
   </g>
   <g id="line2d_15">
    <path d="M 73.832727 295.488 
L 76.980746 295.361987 
L 77.511857 295.185568 
L 77.691386 295.109961 
L 78.553297 294.90834 
L 79.469686 294.227869 
L 79.533459 294.05145 
L 80.054765 293.118953 
L 80.193495 292.589698 
L 80.581913 290.775109 
L 80.702456 289.893017 
L 81.495364 283.617563 
L 81.637031 281.752569 
L 81.718341 280.920883 
L 82.467766 269.907335 
L 82.659608 266.857818 
L 82.735825 265.648092 
L 82.857916 263.455463 
L 83.86139 246.317678 
L 84.005001 243.494984 
L 84.069213 242.335663 
L 84.184704 240.19344 
L 84.363779 236.488654 
L 84.778981 228.297801 
L 84.862313 227.03767 
L 85.005677 224.240178 
L 85.054137 223.358086 
L 85.191057 220.661406 
L 85.445295 216.150136 
L 85.614571 212.974605 
L 85.720823 211.160016 
L 85.980781 206.724354 
L 86.110978 204.607333 
L 86.310655 201.583018 
L 86.454949 199.365187 
L 87.510328 187.645966 
L 88.468526 181.798957 
L 88.60504 181.320108 
L 88.826826 180.538826 
L 88.959919 180.2868 
L 89.249282 179.581126 
L 89.400057 179.278695 
L 89.525094 179.001466 
L 89.802095 178.724237 
L 90.016319 178.472211 
L 90.162721 178.295792 
L 91.642617 177.136472 
L 93.611768 176.481203 
L 95.272761 176.25438 
L 95.456883 176.203975 
L 99.707008 175.951948 
L 101.073066 175.725125 
L 103.266437 175.498301 
L 103.26868 175.473098 
L 112.111194 174.71702 
L 133.39099 174.364183 
L 134.128071 174.086954 
L 134.298221 173.935738 
L 134.495702 173.784523 
L 134.854111 173.154457 
L 134.995441 172.927633 
L 135.124264 172.625202 
L 135.234464 172.171555 
L 135.429475 171.516286 
L 135.616624 170.709802 
L 136.03395 167.987919 
L 136.689163 161.838478 
L 137.314829 154.504514 
L 137.34606 154.126475 
L 137.601399 150.320878 
L 137.807154 146.868119 
L 137.862154 146.036432 
L 138.286435 138.904089 
L 138.423973 136.61065 
L 138.488009 135.400924 
L 138.636637 132.57823 
L 138.72695 131.292896 
L 138.908594 127.688921 
L 138.95416 126.932842 
L 139.069494 124.866227 
L 139.136562 123.580893 
L 139.250298 121.262251 
L 139.480864 116.826589 
L 139.623652 114.659164 
L 139.830619 111.332417 
L 139.94264 109.190194 
L 140.053285 107.652834 
L 140.187326 105.031761 
L 140.22227 104.401695 
L 140.365335 101.831027 
L 140.554762 98.504281 
L 140.755508 94.673482 
L 142.250816 72.469969 
L 142.452942 70.554569 
L 142.567994 69.21883 
L 142.983428 65.312423 
L 143.137196 64.329521 
L 143.701209 61.078382 
L 144.206367 59.51582 
L 144.26273 59.339401 
L 144.46435 58.961362 
L 144.601107 58.633728 
L 144.723977 58.507715 
L 145.022582 58.028865 
L 145.418054 57.49961 
L 145.541702 57.348394 
L 145.681928 57.197178 
L 145.837849 57.02076 
L 146.012569 56.844341 
L 146.281095 56.667923 
L 146.443849 56.441099 
L 147.439095 55.911844 
L 149.056972 55.508602 
L 150.401906 55.357386 
L 151.311319 55.231373 
L 163.873026 54.021647 
L 164.23455 53.920837 
L 166.619698 53.769621 
L 166.631999 53.744418 
L 168.366101 53.668811 
L 190.731068 53.593203 
L 226.043993 53.568 
L 226.043993 53.568 
" clip-path="url(#pf4d0f8662a)" style="fill: none; stroke: #2ca02c; stroke-width: 1.5; stroke-linecap: square"/>
   </g>
   <g id="line2d_16">
    <path d="M 132.722991 295.488 
L 138.684864 295.00915 
L 139.820107 294.757124 
L 139.897786 294.706719 
L 140.597603 294.505098 
L 140.918877 294.227869 
L 141.511603 293.648208 
L 142.670771 291.45558 
L 142.805323 290.951527 
L 143.190801 289.867815 
L 143.258695 289.640991 
L 143.472116 288.935317 
L 143.597128 288.305252 
L 143.682743 287.977618 
L 144.319856 284.82729 
L 144.430076 284.197224 
L 144.485933 283.995603 
L 144.649259 283.037903 
L 144.695389 282.710269 
L 144.917823 281.248517 
L 145.098938 279.887575 
L 145.217598 278.98028 
L 145.265753 278.778659 
L 145.338905 278.224202 
L 145.465848 277.216097 
L 145.566792 276.2836 
L 146.496635 266.681399 
L 146.631007 264.589581 
L 146.798737 262.648979 
L 147.154576 257.75967 
L 148.279912 237.824393 
L 148.401358 235.858589 
L 152.12147 158.385719 
L 152.274918 154.882554 
L 152.452215 151.328983 
L 152.609484 148.506289 
L 153.020822 140.088613 
L 153.174871 137.039095 
L 153.242695 135.904977 
L 153.485556 131.746544 
L 153.511805 131.318099 
L 153.677664 128.268581 
L 153.794991 126.227169 
L 153.906219 124.765416 
L 154.08551 121.615088 
L 154.202688 119.624081 
L 155.174858 105.082166 
L 155.249352 103.998453 
L 155.372841 102.410688 
L 155.497283 101.200962 
L 155.868147 96.563679 
L 156.302123 92.228827 
L 156.416071 91.271127 
L 156.943321 86.281008 
L 157.017922 85.82736 
L 157.297134 83.634732 
L 157.332175 83.307098 
L 157.49143 81.643725 
L 157.767205 79.577109 
L 157.883986 78.921841 
L 158.012381 78.316978 
L 158.322412 76.351173 
L 158.492969 75.620297 
L 158.619927 74.990231 
L 158.863256 73.982126 
L 159.009583 73.301656 
L 159.29708 72.066727 
L 159.553311 70.907406 
L 159.622161 70.630177 
L 159.774319 70.100922 
L 159.98446 69.445654 
L 160.063693 69.193628 
L 160.21183 68.63917 
L 160.464258 67.706673 
L 160.631832 67.328633 
L 160.77125 66.849784 
L 161.422828 65.035194 
L 161.629222 64.631952 
L 161.821671 64.304318 
L 162.075621 63.523037 
L 162.222 63.371821 
L 162.693286 62.439324 
L 162.905539 62.187298 
L 162.92167 62.162095 
L 163.171279 62.010879 
L 163.247961 61.935272 
L 163.527106 61.784056 
L 163.696246 61.557232 
L 163.945774 61.254801 
L 164.086224 61.027977 
L 164.271758 60.876761 
L 165.225613 60.549127 
L 165.431844 60.297101 
L 167.251721 59.364604 
L 167.684308 59.188185 
L 167.797957 59.03697 
L 168.130695 58.885754 
L 168.468994 58.810146 
L 170.559083 58.507715 
L 170.748394 58.457309 
L 171.465442 58.331296 
L 171.535024 58.306094 
L 174.06285 58.129675 
L 178.694263 57.802041 
L 188.104212 57.12157 
L 192.001438 56.945152 
L 197.073689 56.768733 
L 210.873876 56.64272 
L 308.33497 56.516707 
L 308.368261 56.491505 
L 312.06591 56.138668 
L 312.275165 56.06306 
L 313.804213 55.861439 
L 314.320384 55.710223 
L 315.634267 55.508602 
L 315.989446 55.432994 
L 317.693013 55.080158 
L 319.499677 54.601308 
L 321.446065 54.349281 
L 325.426071 54.021647 
L 331.41838 53.870432 
L 333.287458 53.744418 
L 345.866289 53.593203 
L 360.401682 53.568 
L 360.401682 53.568 
" clip-path="url(#pf4d0f8662a)" style="fill: none; stroke: #d62728; stroke-width: 1.5; stroke-linecap: square"/>
   </g>
   <g id="line2d_17">
    <path d="M 127.650467 295.488 
L 132.828804 295.336784 
L 134.732551 295.135163 
L 137.407661 294.505098 
L 137.464572 294.42949 
L 137.884394 294.177463 
L 138.35386 293.875032 
L 138.438349 293.698614 
L 138.879396 293.446587 
L 139.204494 292.816522 
L 139.411599 292.665306 
L 139.970702 291.984835 
L 140.08633 291.732809 
L 140.177564 291.581593 
L 140.339527 291.203554 
L 140.435695 290.901122 
L 140.532865 290.699501 
L 140.686354 290.296259 
L 141.08621 289.010925 
L 141.687346 286.969513 
L 142.628229 281.878582 
L 143.107094 278.350215 
L 143.483546 275.073874 
L 143.558888 274.595024 
L 143.707136 272.956853 
L 143.777043 272.150369 
L 143.913887 270.713819 
L 143.968567 270.108956 
L 145.460172 249.417601 
L 145.879804 242.738905 
L 146.088292 239.764996 
L 146.525827 231.800966 
L 146.585583 230.566037 
L 146.74042 227.365304 
L 146.94166 222.778426 
L 147.037571 220.812621 
L 147.955293 200.852142 
L 148.087562 198.054651 
L 151.256731 132.149786 
L 151.28398 131.494517 
L 151.680684 123.832919 
L 151.799954 122.194749 
L 151.862322 121.186644 
L 152.582877 109.82026 
L 152.631302 108.887762 
L 153.466898 97.34496 
L 153.498185 96.916515 
L 153.640282 95.127129 
L 153.798282 93.262135 
L 153.938648 91.573559 
L 154.057994 90.086604 
L 154.217819 88.524041 
L 154.272142 87.84357 
L 154.414367 86.381818 
L 154.449471 86.104589 
L 154.634883 84.642837 
L 154.706176 83.987569 
L 154.93064 82.046967 
L 155.319131 79.073057 
L 155.446423 78.115357 
L 155.660911 76.628402 
L 156.372538 72.595982 
L 156.41409 72.318753 
L 156.54804 71.587877 
L 156.66082 71.13423 
L 157.635762 67.152215 
L 157.904712 66.471744 
L 158.097875 65.740868 
L 158.197079 65.514044 
L 158.33469 65.312423 
L 159.117038 63.699455 
L 159.192554 63.472632 
L 160.095154 61.935272 
L 160.605202 61.456422 
L 160.72476 61.254801 
L 160.950134 61.002774 
L 161.054948 60.826356 
L 161.905723 60.09548 
L 162.030894 59.944264 
L 162.23232 59.793048 
L 162.947922 59.440212 
L 163.053293 59.364604 
L 163.901004 59.03697 
L 164.472033 58.810146 
L 165.782883 58.104473 
L 167.13682 57.550015 
L 167.451029 57.474407 
L 172.190594 56.138668 
L 173.849176 55.987452 
L 177.182787 55.4834 
L 177.185172 55.458197 
L 178.640405 55.306981 
L 178.824414 55.256576 
L 180.602902 55.10536 
L 180.671394 55.080158 
L 183.043292 54.853334 
L 183.11011 54.828131 
L 201.186975 54.122458 
L 221.061242 53.971242 
L 310.54088 53.845229 
L 334.494104 53.643608 
L 338.824844 53.593203 
L 342.848604 53.568 
L 342.848604 53.568 
" clip-path="url(#pf4d0f8662a)" style="fill: none; stroke: #9467bd; stroke-width: 1.5; stroke-linecap: square"/>
   </g>
   <g id="line2d_18">
    <path d="M 133.772032 295.488 
L 138.691462 295.210771 
L 139.740747 295.00915 
L 140.541825 294.656313 
L 141.080489 294.454692 
L 141.451162 293.975842 
L 141.54454 293.774221 
L 141.807535 293.597803 
L 142.128867 292.866927 
L 142.341333 292.690509 
L 142.50655 292.312469 
L 142.611954 292.136051 
L 142.833162 291.808417 
L 143.62652 289.691396 
L 143.737188 289.262952 
L 143.864837 288.784102 
L 144.072663 287.952415 
L 144.229583 287.549173 
L 144.347811 286.8435 
L 144.483998 286.339447 
L 144.562037 285.98661 
L 144.731798 285.104518 
L 144.824105 284.650871 
L 145.037041 283.441145 
L 145.088247 283.113511 
L 145.822858 277.871365 
L 146.170015 274.84705 
L 146.302731 273.88935 
L 146.690925 270.108956 
L 146.993876 266.555386 
L 147.031848 266.227752 
L 147.626384 259.145814 
L 147.687421 258.364533 
L 147.834541 256.071094 
L 148.119372 251.736243 
L 148.448383 246.342881 
L 148.651078 243.217755 
L 148.714759 242.310461 
L 151.025091 201.835044 
L 151.137261 199.944848 
L 151.164701 199.39039 
L 154.221143 148.884329 
L 154.379774 147.019335 
L 154.584872 144.373059 
L 154.630197 143.742993 
L 155.340578 135.703356 
L 155.40755 135.224506 
L 155.557155 133.510727 
L 155.675263 132.351407 
L 155.94797 130.007562 
L 156.00987 129.453105 
L 157.259209 120.102931 
L 157.475777 119.397257 
L 157.600471 118.666381 
L 158.123587 116.171321 
L 158.237224 115.667269 
L 158.957747 112.768967 
L 159.010879 112.567346 
L 159.226006 111.811267 
L 159.386827 111.130796 
L 159.939678 109.669044 
L 160.076758 109.265802 
L 160.636544 108.005671 
L 160.758508 107.854455 
L 160.921006 107.602429 
L 161.450338 106.720337 
L 161.569231 106.417905 
L 161.823056 106.165879 
L 162.169409 105.485408 
L 162.287747 105.283787 
L 162.54462 104.956153 
L 162.806661 104.754532 
L 163.724255 103.87244 
L 163.878723 103.721224 
L 163.899815 103.645616 
L 164.058136 103.494401 
L 164.59345 103.091159 
L 164.599543 103.065956 
L 164.881427 102.91474 
L 165.194552 102.738322 
L 165.292771 102.662714 
L 165.705137 102.511498 
L 165.749077 102.43589 
L 166.066118 102.284675 
L 166.223346 102.158662 
L 166.66912 102.032648 
L 167.563164 101.730217 
L 169.36278 101.175759 
L 169.466187 101.125354 
L 170.35576 100.89853 
L 173.189294 100.31887 
L 175.508574 100.142452 
L 175.966771 100.041641 
L 177.519869 99.789615 
L 177.557995 99.764412 
L 186.826338 99.285562 
L 186.887168 99.235157 
L 187.293082 99.159549 
L 191.922461 99.008333 
L 195.622416 98.857118 
L 203.191596 98.680699 
L 204.056532 98.655497 
L 306.951631 98.378268 
L 307.626361 98.201849 
L 309.189743 97.521378 
L 309.279133 97.395365 
L 309.604094 97.24415 
L 309.969104 97.067731 
L 310.454158 96.563679 
L 310.88784 96.135234 
L 311.316566 95.505168 
L 311.47185 95.22794 
L 311.614252 95.051521 
L 311.782697 94.74909 
L 311.906451 94.597874 
L 312.238846 93.690579 
L 312.709995 92.480853 
L 312.909765 92.077611 
L 312.987307 91.901193 
L 313.190269 91.170317 
L 313.440158 90.464643 
L 313.621924 89.960591 
L 313.979476 89.053296 
L 314.122602 88.549244 
L 314.174051 88.372826 
L 314.478818 87.112694 
L 314.634544 86.659047 
L 315.508108 83.634732 
L 315.617277 83.206287 
L 316.258402 80.307985 
L 316.37821 79.829136 
L 316.558967 79.098259 
L 316.690164 78.518599 
L 316.738862 78.291775 
L 317.393412 75.595094 
L 317.538275 74.889421 
L 318.08271 72.721995 
L 318.189313 72.041524 
L 318.457746 71.083825 
L 318.555544 70.882204 
L 318.800836 70.100922 
L 318.934848 69.59687 
L 320.021491 65.866881 
L 320.207818 65.463639 
L 320.340334 65.136005 
L 320.999704 63.220605 
L 321.22077 62.918174 
L 321.525269 62.036082 
L 321.6384 61.809258 
L 321.756198 61.406016 
L 322.06178 60.876761 
L 322.169078 60.750748 
L 322.329691 60.397911 
L 322.443729 60.09548 
L 322.563025 59.818251 
L 322.798428 59.364604 
L 322.906862 59.213388 
L 323.044784 58.910957 
L 324.380808 57.650825 
L 324.606617 57.449204 
L 325.497483 56.718328 
L 325.65605 56.567112 
L 326.107016 56.088263 
L 326.389397 55.886642 
L 326.528348 55.710223 
L 328.447746 55.054955 
L 333.333853 54.374484 
L 333.749601 54.298876 
L 339.725166 53.920837 
L 356.823998 53.593203 
L 398.487273 53.568 
L 398.487273 53.568 
" clip-path="url(#pf4d0f8662a)" style="fill: none; stroke: #8c564b; stroke-width: 1.5; stroke-linecap: square"/>
   </g>
   <g id="line2d_19">
    <path d="M 131.506816 295.488 
L 135.85072 295.336784 
L 135.995397 295.286379 
L 138.029085 295.059555 
L 138.271577 294.857934 
L 138.922487 294.706719 
L 139.021511 294.656313 
L 139.438662 294.42949 
L 139.486767 294.353882 
L 139.969549 294.177463 
L 140.241736 294.026248 
L 140.463446 293.900235 
L 140.648015 293.698614 
L 140.900635 293.446587 
L 141.005696 293.320574 
L 141.137732 293.169358 
L 141.237502 292.99294 
L 141.557902 292.816522 
L 141.855045 292.337672 
L 142.020192 292.161253 
L 142.127984 291.959632 
L 142.370429 291.405175 
L 142.475789 291.052338 
L 142.675545 290.699501 
L 142.811648 290.145043 
L 142.870012 289.968625 
L 143.175947 289.136938 
L 143.310566 288.683291 
L 143.431588 288.179239 
L 143.619954 287.498768 
L 143.788399 286.742689 
L 143.84932 286.46546 
L 144.044877 285.532963 
L 144.212137 284.550061 
L 144.729735 281.576151 
L 145.52719 275.502318 
L 145.729058 273.334892 
L 145.847064 272.478003 
L 146.118626 269.831727 
L 146.210532 269.000041 
L 146.360996 266.757007 
L 146.863981 260.380743 
L 146.908165 259.952298 
L 147.029797 258.641762 
L 147.197298 256.776768 
L 149.274327 224.340989 
L 149.390053 222.223968 
L 149.81787 214.184331 
L 149.977096 211.437245 
L 150.056172 210.227519 
L 150.630708 199.01235 
L 150.710092 197.500193 
L 151.448901 184.747665 
L 151.689798 180.236395 
L 153.21709 155.815051 
L 153.284072 154.907756 
L 153.502772 152.034657 
L 153.771022 148.808721 
L 154.174696 143.717791 
L 154.260692 142.835699 
L 154.390602 141.399149 
L 154.512469 139.987802 
L 154.629857 138.475645 
L 154.75409 137.341526 
L 154.885867 136.056193 
L 155.393181 130.94006 
L 155.454752 130.46121 
L 155.705989 128.218176 
L 155.923949 126.277574 
L 155.98722 125.823927 
L 156.119233 124.89143 
L 156.346109 123.202854 
L 156.466361 122.471977 
L 156.848795 120.304552 
L 157.392968 116.801387 
L 157.45306 116.524158 
L 157.580808 115.919295 
L 159.510316 109.190194 
L 159.651501 108.96337 
L 159.751045 108.786952 
L 159.839937 108.610534 
L 159.946727 108.408913 
L 160.288065 107.703239 
L 160.396957 107.501618 
L 160.523378 107.224389 
L 160.63847 106.921958 
L 160.761064 106.669931 
L 160.976363 106.216284 
L 161.175746 105.88865 
L 161.341774 105.586219 
L 162.51435 103.897643 
L 162.774857 103.670819 
L 165.002025 101.75542 
L 165.437079 101.528596 
L 167.418156 101.074949 
L 167.57688 100.999341 
L 172.553994 100.167654 
L 176.783875 99.991236 
L 178.89152 99.714007 
L 185.111018 99.335967 
L 191.462919 99.159549 
L 191.672724 99.109144 
L 196.197545 98.932725 
L 197.243267 98.806712 
L 235.179393 98.630294 
L 305.22166 98.504281 
L 307.443404 98.327862 
L 307.79863 98.201849 
L 308.418866 98.000228 
L 308.890967 97.722999 
L 309.186573 97.571784 
L 309.338639 97.445771 
L 309.651633 97.294555 
L 309.748486 97.24415 
L 310.165443 97.042529 
L 310.253853 96.992123 
L 310.441357 96.815705 
L 310.539689 96.714894 
L 310.840806 96.336855 
L 310.94641 96.210842 
L 311.089417 96.059626 
L 311.975805 94.471861 
L 312.31486 93.640174 
L 312.604667 93.085716 
L 313.28501 91.19552 
L 313.978459 89.305323 
L 314.095833 89.103702 
L 314.223156 88.599649 
L 314.399123 88.146002 
L 314.504384 87.74276 
L 314.588437 87.465531 
L 314.876219 86.381818 
L 315.006634 86.154994 
L 315.486705 84.365608 
L 315.615633 83.937163 
L 315.905475 83.105477 
L 317.2116 77.611305 
L 317.332503 76.930834 
L 319.521066 68.084712 
L 319.577818 67.933496 
L 321.247054 62.766958 
L 321.906572 61.380814 
L 322.039674 61.078382 
L 322.53571 60.599532 
L 322.720979 60.171088 
L 322.979011 59.692238 
L 324.352249 58.028865 
L 324.541019 57.802041 
L 324.662338 57.60042 
L 325.592724 56.793936 
L 325.636384 56.743531 
L 326.034814 56.54191 
L 326.191586 56.466302 
L 326.622848 56.189073 
L 326.672618 56.113465 
L 327.073427 55.886642 
L 328.759334 55.306981 
L 329.79487 55.130563 
L 330.038768 55.029752 
L 331.360245 54.62651 
L 338.811 53.971242 
L 342.372629 53.870432 
L 356.243748 53.618405 
L 358.124064 53.568 
L 358.124064 53.568 
" clip-path="url(#pf4d0f8662a)" style="fill: none; stroke: #e377c2; stroke-width: 1.5; stroke-linecap: square"/>
   </g>
   <g id="patch_3">
    <path d="M 57.6 307.584 
L 57.6 41.472 
" style="fill: none; stroke: #000000; stroke-width: 0.8; stroke-linejoin: miter; stroke-linecap: square"/>
   </g>
   <g id="patch_4">
    <path d="M 414.72 307.584 
L 414.72 41.472 
" style="fill: none; stroke: #000000; stroke-width: 0.8; stroke-linejoin: miter; stroke-linecap: square"/>
   </g>
   <g id="patch_5">
    <path d="M 57.6 307.584 
L 414.72 307.584 
" style="fill: none; stroke: #000000; stroke-width: 0.8; stroke-linejoin: miter; stroke-linecap: square"/>
   </g>
   <g id="patch_6">
    <path d="M 57.6 41.472 
L 414.72 41.472 
" style="fill: none; stroke: #000000; stroke-width: 0.8; stroke-linejoin: miter; stroke-linecap: square"/>
   </g>
   <g id="legend_1">
    <g id="patch_7">
     <path d="M 239.066875 302.584 
L 407.72 302.584 
Q 409.72 302.584 409.72 300.584 
L 409.72 198.837125 
Q 409.72 196.837125 407.72 196.837125 
L 239.066875 196.837125 
Q 237.066875 196.837125 237.066875 198.837125 
L 237.066875 300.584 
Q 237.066875 302.584 239.066875 302.584 
z
" style="fill: #ffffff; opacity: 0.8; stroke: #cccccc; stroke-linejoin: miter"/>
    </g>
    <g id="line2d_20">
     <path d="M 241.066875 204.935563 
L 251.066875 204.935563 
L 261.066875 204.935563 
" style="fill: none; stroke: #1f77b4; stroke-width: 1.5; stroke-linecap: square"/>
    </g>
    <g id="text_15">
     <!-- Alt-Svc -->
     <g transform="translate(269.066875 208.435563) scale(0.1 -0.1)">
      <defs>
       <path id="DejaVuSans-41" d="M 2188 4044 
L 1331 1722 
L 3047 1722 
L 2188 4044 
z
M 1831 4666 
L 2547 4666 
L 4325 0 
L 3669 0 
L 3244 1197 
L 1141 1197 
L 716 0 
L 50 0 
L 1831 4666 
z
" transform="scale(0.015625)"/>
       <path id="DejaVuSans-2d" d="M 313 2009 
L 1997 2009 
L 1997 1497 
L 313 1497 
L 313 2009 
z
" transform="scale(0.015625)"/>
       <path id="DejaVuSans-53" d="M 3425 4513 
L 3425 3897 
Q 3066 4069 2747 4153 
Q 2428 4238 2131 4238 
Q 1616 4238 1336 4038 
Q 1056 3838 1056 3469 
Q 1056 3159 1242 3001 
Q 1428 2844 1947 2747 
L 2328 2669 
Q 3034 2534 3370 2195 
Q 3706 1856 3706 1288 
Q 3706 609 3251 259 
Q 2797 -91 1919 -91 
Q 1588 -91 1214 -16 
Q 841 59 441 206 
L 441 856 
Q 825 641 1194 531 
Q 1563 422 1919 422 
Q 2459 422 2753 634 
Q 3047 847 3047 1241 
Q 3047 1584 2836 1778 
Q 2625 1972 2144 2069 
L 1759 2144 
Q 1053 2284 737 2584 
Q 422 2884 422 3419 
Q 422 4038 858 4394 
Q 1294 4750 2059 4750 
Q 2388 4750 2728 4690 
Q 3069 4631 3425 4513 
z
" transform="scale(0.015625)"/>
       <path id="DejaVuSans-76" d="M 191 3500 
L 800 3500 
L 1894 563 
L 2988 3500 
L 3597 3500 
L 2284 0 
L 1503 0 
L 191 3500 
z
" transform="scale(0.015625)"/>
       <path id="DejaVuSans-63" d="M 3122 3366 
L 3122 2828 
Q 2878 2963 2633 3030 
Q 2388 3097 2138 3097 
Q 1578 3097 1268 2742 
Q 959 2388 959 1747 
Q 959 1106 1268 751 
Q 1578 397 2138 397 
Q 2388 397 2633 464 
Q 2878 531 3122 666 
L 3122 134 
Q 2881 22 2623 -34 
Q 2366 -91 2075 -91 
Q 1284 -91 818 406 
Q 353 903 353 1747 
Q 353 2603 823 3093 
Q 1294 3584 2113 3584 
Q 2378 3584 2631 3529 
Q 2884 3475 3122 3366 
z
" transform="scale(0.015625)"/>
      </defs>
      <use xlink:href="#DejaVuSans-41"/>
      <use xlink:href="#DejaVuSans-6c" x="68.408203"/>
      <use xlink:href="#DejaVuSans-74" x="96.191406"/>
      <use xlink:href="#DejaVuSans-2d" x="135.400391"/>
      <use xlink:href="#DejaVuSans-53" x="171.484375"/>
      <use xlink:href="#DejaVuSans-76" x="234.960938"/>
      <use xlink:href="#DejaVuSans-63" x="294.140625"/>
     </g>
    </g>
    <g id="line2d_21">
     <path d="M 241.066875 219.613688 
L 251.066875 219.613688 
L 261.066875 219.613688 
" style="fill: none; stroke: #ff7f0e; stroke-width: 1.5; stroke-linecap: square"/>
    </g>
    <g id="text_16">
     <!-- Alt-Svc (preallocated) -->
     <g transform="translate(269.066875 223.113688) scale(0.1 -0.1)">
      <defs>
       <path id="DejaVuSans-64" d="M 2906 2969 
L 2906 4863 
L 3481 4863 
L 3481 0 
L 2906 0 
L 2906 525 
Q 2725 213 2448 61 
Q 2172 -91 1784 -91 
Q 1150 -91 751 415 
Q 353 922 353 1747 
Q 353 2572 751 3078 
Q 1150 3584 1784 3584 
Q 2172 3584 2448 3432 
Q 2725 3281 2906 2969 
z
M 947 1747 
Q 947 1113 1208 752 
Q 1469 391 1925 391 
Q 2381 391 2643 752 
Q 2906 1113 2906 1747 
Q 2906 2381 2643 2742 
Q 2381 3103 1925 3103 
Q 1469 3103 1208 2742 
Q 947 2381 947 1747 
z
" transform="scale(0.015625)"/>
      </defs>
      <use xlink:href="#DejaVuSans-41"/>
      <use xlink:href="#DejaVuSans-6c" x="68.408203"/>
      <use xlink:href="#DejaVuSans-74" x="96.191406"/>
      <use xlink:href="#DejaVuSans-2d" x="135.400391"/>
      <use xlink:href="#DejaVuSans-53" x="171.484375"/>
      <use xlink:href="#DejaVuSans-76" x="234.960938"/>
      <use xlink:href="#DejaVuSans-63" x="294.140625"/>
      <use xlink:href="#DejaVuSans-20" x="349.121094"/>
      <use xlink:href="#DejaVuSans-28" x="380.908203"/>
      <use xlink:href="#DejaVuSans-70" x="419.921875"/>
      <use xlink:href="#DejaVuSans-72" x="483.398438"/>
      <use xlink:href="#DejaVuSans-65" x="522.261719"/>
      <use xlink:href="#DejaVuSans-61" x="583.785156"/>
      <use xlink:href="#DejaVuSans-6c" x="645.064453"/>
      <use xlink:href="#DejaVuSans-6c" x="672.847656"/>
      <use xlink:href="#DejaVuSans-6f" x="700.630859"/>
      <use xlink:href="#DejaVuSans-63" x="761.8125"/>
      <use xlink:href="#DejaVuSans-61" x="816.792969"/>
      <use xlink:href="#DejaVuSans-74" x="878.072266"/>
      <use xlink:href="#DejaVuSans-65" x="917.28125"/>
      <use xlink:href="#DejaVuSans-64" x="978.804688"/>
      <use xlink:href="#DejaVuSans-29" x="1042.28125"/>
     </g>
    </g>
    <g id="line2d_22">
     <path d="M 241.066875 234.291812 
L 251.066875 234.291812 
L 261.066875 234.291812 
" style="fill: none; stroke: #2ca02c; stroke-width: 1.5; stroke-linecap: square"/>
    </g>
    <g id="text_17">
     <!-- No migration -->
     <g transform="translate(269.066875 237.791812) scale(0.1 -0.1)">
      <defs>
       <path id="DejaVuSans-4e" d="M 628 4666 
L 1478 4666 
L 3547 763 
L 3547 4666 
L 4159 4666 
L 4159 0 
L 3309 0 
L 1241 3903 
L 1241 0 
L 628 0 
L 628 4666 
z
" transform="scale(0.015625)"/>
       <path id="DejaVuSans-67" d="M 2906 1791 
Q 2906 2416 2648 2759 
Q 2391 3103 1925 3103 
Q 1463 3103 1205 2759 
Q 947 2416 947 1791 
Q 947 1169 1205 825 
Q 1463 481 1925 481 
Q 2391 481 2648 825 
Q 2906 1169 2906 1791 
z
M 3481 434 
Q 3481 -459 3084 -895 
Q 2688 -1331 1869 -1331 
Q 1566 -1331 1297 -1286 
Q 1028 -1241 775 -1147 
L 775 -588 
Q 1028 -725 1275 -790 
Q 1522 -856 1778 -856 
Q 2344 -856 2625 -561 
Q 2906 -266 2906 331 
L 2906 616 
Q 2728 306 2450 153 
Q 2172 0 1784 0 
Q 1141 0 747 490 
Q 353 981 353 1791 
Q 353 2603 747 3093 
Q 1141 3584 1784 3584 
Q 2172 3584 2450 3431 
Q 2728 3278 2906 2969 
L 2906 3500 
L 3481 3500 
L 3481 434 
z
" transform="scale(0.015625)"/>
      </defs>
      <use xlink:href="#DejaVuSans-4e"/>
      <use xlink:href="#DejaVuSans-6f" x="74.804688"/>
      <use xlink:href="#DejaVuSans-20" x="135.986328"/>
      <use xlink:href="#DejaVuSans-6d" x="167.773438"/>
      <use xlink:href="#DejaVuSans-69" x="265.185547"/>
      <use xlink:href="#DejaVuSans-67" x="292.96875"/>
      <use xlink:href="#DejaVuSans-72" x="356.445312"/>
      <use xlink:href="#DejaVuSans-61" x="397.558594"/>
      <use xlink:href="#DejaVuSans-74" x="458.837891"/>
      <use xlink:href="#DejaVuSans-69" x="498.046875"/>
      <use xlink:href="#DejaVuSans-6f" x="525.830078"/>
      <use xlink:href="#DejaVuSans-6e" x="587.011719"/>
     </g>
    </g>
    <g id="line2d_23">
     <path d="M 241.066875 248.969938 
L 251.066875 248.969938 
L 261.066875 248.969938 
" style="fill: none; stroke: #d62728; stroke-width: 1.5; stroke-linecap: square"/>
    </g>
    <g id="text_18">
     <!-- DNS TTL 1s -->
     <g transform="translate(269.066875 252.469938) scale(0.1 -0.1)">
      <defs>
       <path id="DejaVuSans-44" d="M 1259 4147 
L 1259 519 
L 2022 519 
Q 2988 519 3436 956 
Q 3884 1394 3884 2338 
Q 3884 3275 3436 3711 
Q 2988 4147 2022 4147 
L 1259 4147 
z
M 628 4666 
L 1925 4666 
Q 3281 4666 3915 4102 
Q 4550 3538 4550 2338 
Q 4550 1131 3912 565 
Q 3275 0 1925 0 
L 628 0 
L 628 4666 
z
" transform="scale(0.015625)"/>
       <path id="DejaVuSans-54" d="M -19 4666 
L 3928 4666 
L 3928 4134 
L 2272 4134 
L 2272 0 
L 1638 0 
L 1638 4134 
L -19 4134 
L -19 4666 
z
" transform="scale(0.015625)"/>
       <path id="DejaVuSans-4c" d="M 628 4666 
L 1259 4666 
L 1259 531 
L 3531 531 
L 3531 0 
L 628 0 
L 628 4666 
z
" transform="scale(0.015625)"/>
      </defs>
      <use xlink:href="#DejaVuSans-44"/>
      <use xlink:href="#DejaVuSans-4e" x="77.001953"/>
      <use xlink:href="#DejaVuSans-53" x="151.806641"/>
      <use xlink:href="#DejaVuSans-20" x="215.283203"/>
      <use xlink:href="#DejaVuSans-54" x="247.070312"/>
      <use xlink:href="#DejaVuSans-54" x="306.404297"/>
      <use xlink:href="#DejaVuSans-4c" x="367.488281"/>
      <use xlink:href="#DejaVuSans-20" x="423.201172"/>
      <use xlink:href="#DejaVuSans-31" x="454.988281"/>
      <use xlink:href="#DejaVuSans-73" x="518.611328"/>
     </g>
    </g>
    <g id="line2d_24">
     <path d="M 241.066875 263.648063 
L 251.066875 263.648063 
L 261.066875 263.648063 
" style="fill: none; stroke: #9467bd; stroke-width: 1.5; stroke-linecap: square"/>
    </g>
    <g id="text_19">
     <!-- DNS TTL 1s (preallocated) -->
     <g transform="translate(269.066875 267.148063) scale(0.1 -0.1)">
      <use xlink:href="#DejaVuSans-44"/>
      <use xlink:href="#DejaVuSans-4e" x="77.001953"/>
      <use xlink:href="#DejaVuSans-53" x="151.806641"/>
      <use xlink:href="#DejaVuSans-20" x="215.283203"/>
      <use xlink:href="#DejaVuSans-54" x="247.070312"/>
      <use xlink:href="#DejaVuSans-54" x="306.404297"/>
      <use xlink:href="#DejaVuSans-4c" x="367.488281"/>
      <use xlink:href="#DejaVuSans-20" x="423.201172"/>
      <use xlink:href="#DejaVuSans-31" x="454.988281"/>
      <use xlink:href="#DejaVuSans-73" x="518.611328"/>
      <use xlink:href="#DejaVuSans-20" x="570.710938"/>
      <use xlink:href="#DejaVuSans-28" x="602.498047"/>
      <use xlink:href="#DejaVuSans-70" x="641.511719"/>
      <use xlink:href="#DejaVuSans-72" x="704.988281"/>
      <use xlink:href="#DejaVuSans-65" x="743.851562"/>
      <use xlink:href="#DejaVuSans-61" x="805.375"/>
      <use xlink:href="#DejaVuSans-6c" x="866.654297"/>
      <use xlink:href="#DejaVuSans-6c" x="894.4375"/>
      <use xlink:href="#DejaVuSans-6f" x="922.220703"/>
      <use xlink:href="#DejaVuSans-63" x="983.402344"/>
      <use xlink:href="#DejaVuSans-61" x="1038.382812"/>
      <use xlink:href="#DejaVuSans-74" x="1099.662109"/>
      <use xlink:href="#DejaVuSans-65" x="1138.871094"/>
      <use xlink:href="#DejaVuSans-64" x="1200.394531"/>
      <use xlink:href="#DejaVuSans-29" x="1263.871094"/>
     </g>
    </g>
    <g id="line2d_25">
     <path d="M 241.066875 278.326188 
L 251.066875 278.326188 
L 261.066875 278.326188 
" style="fill: none; stroke: #8c564b; stroke-width: 1.5; stroke-linecap: square"/>
    </g>
    <g id="text_20">
     <!-- DNS TTL 60s -->
     <g transform="translate(269.066875 281.826188) scale(0.1 -0.1)">
      <use xlink:href="#DejaVuSans-44"/>
      <use xlink:href="#DejaVuSans-4e" x="77.001953"/>
      <use xlink:href="#DejaVuSans-53" x="151.806641"/>
      <use xlink:href="#DejaVuSans-20" x="215.283203"/>
      <use xlink:href="#DejaVuSans-54" x="247.070312"/>
      <use xlink:href="#DejaVuSans-54" x="306.404297"/>
      <use xlink:href="#DejaVuSans-4c" x="367.488281"/>
      <use xlink:href="#DejaVuSans-20" x="423.201172"/>
      <use xlink:href="#DejaVuSans-36" x="454.988281"/>
      <use xlink:href="#DejaVuSans-30" x="518.611328"/>
      <use xlink:href="#DejaVuSans-73" x="582.234375"/>
     </g>
    </g>
    <g id="line2d_26">
     <path d="M 241.066875 293.004312 
L 251.066875 293.004312 
L 261.066875 293.004312 
" style="fill: none; stroke: #e377c2; stroke-width: 1.5; stroke-linecap: square"/>
    </g>
    <g id="text_21">
     <!-- DNS TTL 60s (preallocated) -->
     <g transform="translate(269.066875 296.504312) scale(0.1 -0.1)">
      <use xlink:href="#DejaVuSans-44"/>
      <use xlink:href="#DejaVuSans-4e" x="77.001953"/>
      <use xlink:href="#DejaVuSans-53" x="151.806641"/>
      <use xlink:href="#DejaVuSans-20" x="215.283203"/>
      <use xlink:href="#DejaVuSans-54" x="247.070312"/>
      <use xlink:href="#DejaVuSans-54" x="306.404297"/>
      <use xlink:href="#DejaVuSans-4c" x="367.488281"/>
      <use xlink:href="#DejaVuSans-20" x="423.201172"/>
      <use xlink:href="#DejaVuSans-36" x="454.988281"/>
      <use xlink:href="#DejaVuSans-30" x="518.611328"/>
      <use xlink:href="#DejaVuSans-73" x="582.234375"/>
      <use xlink:href="#DejaVuSans-20" x="634.333984"/>
      <use xlink:href="#DejaVuSans-28" x="666.121094"/>
      <use xlink:href="#DejaVuSans-70" x="705.134766"/>
      <use xlink:href="#DejaVuSans-72" x="768.611328"/>
      <use xlink:href="#DejaVuSans-65" x="807.474609"/>
      <use xlink:href="#DejaVuSans-61" x="868.998047"/>
      <use xlink:href="#DejaVuSans-6c" x="930.277344"/>
      <use xlink:href="#DejaVuSans-6c" x="958.060547"/>
      <use xlink:href="#DejaVuSans-6f" x="985.84375"/>
      <use xlink:href="#DejaVuSans-63" x="1047.025391"/>
      <use xlink:href="#DejaVuSans-61" x="1102.005859"/>
      <use xlink:href="#DejaVuSans-74" x="1163.285156"/>
      <use xlink:href="#DejaVuSans-65" x="1202.494141"/>
      <use xlink:href="#DejaVuSans-64" x="1264.017578"/>
      <use xlink:href="#DejaVuSans-29" x="1327.494141"/>
     </g>
    </g>
   </g>
  </g>
 </g>
 <defs>
  <clipPath id="pf4d0f8662a">
   <rect x="57.6" y="41.472" width="357.12" height="266.112"/>
  </clipPath>
 </defs>
</svg>
